<?xml version="1.0" encoding="utf-8"?>
<!-- Generator: Adobe Illustrator 24.0.3, SVG Export Plug-In . SVG Version: 6.00 Build 0)  -->
<svg version="1.1" id="Layer_1" xmlns="http://www.w3.org/2000/svg" xmlns:xlink="http://www.w3.org/1999/xlink" x="0px" y="0px"
	 viewBox="0 0 207.18 149.92" style="enable-background:new 0 0 207.18 149.92;" xml:space="preserve">
<style type="text/css">
	.st0{fill:#2D81BA;enable-background:new    ;}
	.st1{fill:#1D6EBF;}
	.st2{fill:#E4C1B9;}
	.st3{fill:#1260A0;}
	.st4{fill:#104568;}
	.st5{fill:#BF9C94;}
	.st6{fill:#D1ADA2;}
	.st7{fill:#0B2E56;}
	.st8{fill:#17628C;}
</style>
<path class="st0" d="M60.04,29.68C34.91,29.06,12.68,40.77,4.12,59.51c-7.02,15.38-3.11,31.7-2.33,34.95
	c3.41,14.2,11.23,23.15,14.91,27.26c15.85,17.69,36.53,22.28,44.04,24c6.96,1.6,14.4,2.24,29.28,3.53c4.1,0.35,7.2,0.56,11.26,0.33
	c3.28-0.18,11.1-0.87,20.33-4.4c3.79-1.45,10.14-4.26,17.71-9.93c16.93-12.69,15.48-21.35,30.24-34.26
	c13.78-12.06,17.99-7.07,26.56-17.24c9.59-11.38,13.68-28.7,9.32-44.74c-4.34-15.96-15.44-24.69-19.11-27.5
	c-1.56-1.19-20.08-14.89-42.87-10.72c-16.11,2.95-19.04,12.03-37.28,20.5C94.81,26.58,79.78,30.57,60.04,29.68z"/>
<g>
	<path class="st1" d="M83.58,104.23c-2.35-1.57-4.8-3.32-7.31-5.28c-1.67-1.3-3.24-2.6-4.71-3.88c0,0,5.77-19.08,8.04-22.22
		c2.27-3.15,9.04-6.4,14.13-6.52s5.79,8.45,5.79,8.45c-4.77,9-9.54,18-14.31,27c-0.3,0.27-0.68,0.66-1.03,1.21
		C83.89,103.45,83.7,103.89,83.58,104.23z"/>
	<path class="st2" d="M72.57,91.83c3.87,3.72,7.74,7.43,11.62,11.15c0,0-6.29,13.17-7.34,13.63c-1.15,0.51-2.26,0.17-3.03,0
		c-8.14-1.75-17.91-10.7-29.93-24.54c-0.9-1.03-2.96-3.42-6.24-5.93c-3.01-2.3-5.8-3.75-7.68-4.61c-1.09-0.13-3.18-0.53-5.13-2.1
		c-0.66-0.53-1.53-1.23-2.1-2.45c-0.71-1.54-0.45-3.03,0.12-5.94c0.54-2.8,0.83-4.22,1.91-5c1.3-0.94,3.06-1.05,3.84-0.58
		c0.58,0.35,4.89,2.45,6.17,3.44c1.28,0.99,3.5,3.09,4.19,3.32c0.7,0.23,1.28,0.35,1.4,0c0.12-0.35,0.12-1.4,0-1.75
		s-0.35-1.16,0.12-1.57c0.47-0.41,1.75-0.29,1.86,0c0.12,0.29,0.58,1.22,0.7,1.92s0.58,4.78,0.82,5.71
		c0.35,1.41,0.46,2.61,1.17,3.84c0.8,1.39,1.76,2.02,5.49,4.36c3.76,2.35,4.35,2.69,5.59,3.5c1.99,1.28,3.3,2.23,5.77,4.02
		c2.1,1.52,4.78,3.51,7.86,5.94C70.69,96.08,71.63,93.96,72.57,91.83z"/>
	<path class="st1" d="M126.03,65.47c13.62,3.73,23.48,14.58,24.87,27.14c1.35,12.12-5.71,21.09-7.34,23.07c0,0-3.94,9.44-4.24,19.57
		c-4.24,3.35-10.73,7.65-19.47,10.7c-12.58,4.39-23.61,4-29.83,3.3c-2.23-17.25-4.45-34.5-6.68-51.75c8.43-18.81,8.7-25.2,6.5-26.8
		c-0.91-0.66-3.04-1.09-3.03-1.98c0.01-0.98,2.61-1.67,3.46-1.9C96.44,65.16,115.5,65.28,126.03,65.47z"/>
	<path class="st3" d="M113.62,72.08c-0.05-3.58-0.09-7.16-0.14-10.74c0,0-10.4-4.44-10.4-3.88c0,0.56-3.8,9.18-3.8,9.18
		c0.1,0.93,0.41,2.66,1.61,4.49c1.22,1.87,2.75,2.92,3.59,3.42C107.53,73.73,110.57,72.91,113.62,72.08z"/>
	<path class="st4" d="M123.53,117.42c-0.25,0.08-1.18,0.33-1.4,1.05c-0.12,0.4,0.08,0.71,0.23,1.4c0,0,0.11,0.51,0.12,1.98
		c0,1.4-0.67,6.65-1.66,9.38c-1.53,4.24-7.17,11.81-17.18,18c1.63,0,3.96-0.09,6.72-0.52c6.22-0.99,10.59-3.12,15.9-5.77
		c3.49-1.74,8.02-4.23,13.06-7.69c2.46-13.64,3.69-18.83,4.24-19.57c0.02-0.03,0.4-0.53,0.9-1.24c0,0,0.49-0.69,0.92-1.33
		c2.07-3.08,3.31-5.97,3.31-5.97c1.39-3.22,1.99-6.38,2.25-8.82c-3.54,5.09-7.22,7.9-9.93,9.54
		C140.51,108.16,126.9,116.34,123.53,117.42z"/>
	<path class="st4" d="M120.39,98.11c1.45-1.21,3.16-2.48,5.14-3.71c3.31-2.06,6.45-3.43,9.09-4.36c-2.76,1.35-5.07,2.61-6.87,3.65
		c-4.13,2.38-6.25,3.95-6.46,4.14c-0.12,0.11-0.26,0.19-0.39,0.29c-0.19,0.15-0.29,0.23-0.37,0.2
		C120.44,98.29,120.41,98.19,120.39,98.11z"/>
	<path class="st4" d="M83.72,100.41c0,0-0.99-22.31,6.89-26.16C90.61,74.25,85.83,74.84,83.72,100.41z"/>
	<g>
		<path class="st5" d="M105.09,69.27l-0.22,5.29c0,0,14.61-1.76,20.21-6.73c0,0,1.55-1.9,0.71-2.92c-0.84-1.02-2.28-1.96-2.28-1.96
			c0.16-5.16,0.31-10.33,0.47-15.49c-3.56,1.88-7.11,3.76-10.67,5.64L105.09,69.27z"/>
		<polygon class="st6" points="112.38,65.22 110.17,73.66 104.87,74.55 105.09,69.27 108.62,62.24 		"/>
		<path class="st2" d="M118.53,45.62c0,0,0.89,7.14,0.33,8.59c-0.55,1.45-1.06,4.38-3.35,7.42c-2.29,3.05-6.91,7.97-10.92,7.6
			c-4.01-0.36-5.06-1.19-5.06-1.19c-1.31-1.07-2.97-2.62-4.62-4.73c-1.34-1.72-3.17-4.44-4.48-8.01l-2.11-15.51l0,0
			c0,0,0.05-8.35,0.37-9.12c0.33-0.77,7.92-4,7.92-4l14.8,0.61L118.53,45.62z"/>
		<path class="st6" d="M102.69,69c2.93-3.77,3.7-6.97,3.88-9.17c0.23-2.9-0.55-4.56-1.18-9.08c0,0-0.75-5.64-0.55-7.84
			c0-0.04,0.02-0.23,0-0.49c-0.03-0.35-0.12-0.64-0.22-0.86c-0.09-0.16-0.2-0.35-0.37-0.53c-0.2-0.22-0.38-0.35-0.43-0.38
			c-1.2-0.86-4.59-5.09-8.13-5.47c-3.51-0.38-7.34,2.98-7.34,2.98l0,0l0.4-9.68l29.56,1.21l0.23,15.94l0.5,7.42
			C119.04,53.04,112.99,70.37,102.69,69z"/>
		<path class="st7" d="M118.47,47.3c0,0-2.9,1.32-5.39-0.22s-5.44-8.54-5.44-8.54c-1.49-5.7-3.46-7.38-5.08-7.77
			c-1.83-0.44-2.87,0.85-8.18,1.4c-2.33,0.24-3.58,0.14-4.76-0.54c-0.34-0.2-2.21-1.32-2.39-3.19c-0.03-0.33-0.09-1.45,2.14-4.11
			c1.14-1.36,2.41-2.88,4.59-4.23c4.01-2.48,8.04-2.51,10.32-2.52c4.79-0.03,8.34,1.37,10.9,2.41c3.47,1.41,5.47,2.22,7.49,4.24
			c4.16,4.16,4.79,9.84,5.24,13.92c0.06,0.55,0.21,2.09,0.01,4.08c-0.24,2.38-0.43,4.24-1.59,5.34
			C124.71,49.07,121.54,48.84,118.47,47.3z"/>
		<path class="st6" d="M118.53,45.62c0,0-0.52-4.02,1.77-4.9c2.3-0.89,3.8,0.84,3.98,1.24s1.58,4.69,0.5,7s-0.73,3.4-2.13,3.94
			s-2.11,0.6-2.86,0.37c-0.76-0.23-0.76-0.23-0.76-0.23L118.53,45.62z"/>
		
			<ellipse transform="matrix(0.041 -0.9992 0.9992 0.041 68.8871 166.433)" class="st5" cx="121.14" cy="47.33" rx="4.06" ry="1.87"/>
	</g>
	<path class="st8" d="M115.48,46.11c-3.52,5.5-7.03,10.99-10.55,16.49c-0.58,0.91-0.34,2.11,0.55,2.72
		c2.57,1.78,5.14,3.55,7.71,5.33c0.91,0.63,2.15,0.4,2.78-0.5c3.77-5.42,7.55-10.83,11.32-16.25c0.64-0.92,0.4-2.2-0.54-2.81
		c-2.82-1.86-5.65-3.71-8.47-5.57C117.33,44.9,116.08,45.17,115.48,46.11z"/>
	<path class="st2" d="M120.39,98.11c-0.66,0.48-1.46,1-2.41,1.48c-0.73,0.37-1.43,0.66-2.06,0.88c0.71-4.71,1.39-9.46,2.06-14.26
		c0.86-6.17,1.66-12.27,2.41-18.31c0,0,1.57-5.32,0-8.67s-4.37-5.93-6.99-7c-2.62-1.06-5.24,1.06-5.24,1.06s-2.1,2.28-2.27,3.8
		s3.84,5.32,3.84,5.32c1.53,1.27,2.22,3.18,1.75,4.87c-0.37,1.32-1.32,2.08-1.71,2.36c-2.6,9.76-4.7,17.27-6.12,22.25
		c-1.55,5.46-2.85,9.89-3.67,16.25c-0.58,4.49-0.7,8.25-0.7,10.83c2.42,3.21,4.66,4.04,6.08,4.28c3.37,0.58,6.87-0.83,12.46-3.27
		c0.47-0.21,1.14-0.52,2.34-1.02c0.72-0.3,1.2-0.49,1.92-0.83c0.62-0.3,1.12-0.56,1.43-0.74c0-0.28,0-0.68,0.01-1.18
		c0.02-5.75,0.04-8.63-0.04-9.57C123.32,104.62,122.67,101.67,120.39,98.11z"/>
	<path class="st6" d="M99.29,118.99c1.22,0.68,3.16,1.58,5.66,1.94c4.12,0.6,7.45-0.6,10.07-1.53c2.29-0.82,5.18-2.38,7.22-3.44
		c0.54-0.28,0.99-0.52,1.3-0.68c0,0.71-0.01,1.43-0.01,2.14c-0.46,0.24-1.12,0.58-1.92,0.97c-0.92,0.45-3.4,1.6-6.26,2.71
		c-4.89,1.9-7.63,2.97-10.51,2.07c-1.62-0.51-3.04-1.55-3.04-1.55C100.55,120.7,99.75,119.69,99.29,118.99z"/>
	<polygon class="st6" points="115.93,100.47 115.74,101.46 120.52,98.32 120.39,98.11 	"/>
</g>
</svg>
