<?xml version="1.0" encoding="utf-8"?>
<!-- Generator: Adobe Illustrator 24.0.3, SVG Export Plug-In . SVG Version: 6.00 Build 0)  -->
<svg version="1.1" id="Layer_1" xmlns="http://www.w3.org/2000/svg" xmlns:xlink="http://www.w3.org/1999/xlink" x="0px" y="0px"
	 viewBox="0 0 456 331" style="enable-background:new 0 0 456 331;" xml:space="preserve">
<style type="text/css">
	.st0{fill:#E0E0E0;}
	.st1{fill:#37474F;}
	.st2{fill:#455A64;}
	.st3{fill:#27DEBF;}
	.st4{opacity:0.4;}
	.st5{opacity:0.3;}
	.st6{opacity:0.55;enable-background:new    ;}
	.st7{fill:#FFFFFF;}
	.st8{font-family:'ArialMT';}
	.st9{font-size:3.7879px;}
	.st10{opacity:0.15;}
	.st11{fill:#EBEBEB;}
	.st12{fill:#263238;}
	.st13{opacity:0.96;fill:#FFFFFF;enable-background:new    ;}
	.st14{fill:#0095FD;}
	.st15{opacity:0.35;enable-background:new    ;}
	.st16{opacity:0.15;enable-background:new    ;}
	.st17{opacity:0.5;enable-background:new    ;}
	.st18{opacity:0.4;enable-background:new    ;}
	.st19{opacity:0.2;enable-background:new    ;}
	.st20{fill:none;}
	.st21{fill:#5F5875;}
	.st22{fill:#6BC9FC;}
	.st23{opacity:0.1;enable-background:new    ;}
	.st24{opacity:0.25;enable-background:new    ;}
	.st25{fill:#A0DBF2;}
	.st26{opacity:0.3;enable-background:new    ;}
</style>
<g id="Floor">
</g>
<g id="Shadows">
	<path id="Shadow_2_" class="st0" d="M298.38,323.19l154.24-89.05c3.38-1.95,3.38-5.11,0-7.07L169.1,64.1
		c-3.38-1.95-8.86-1.95-12.24,0L2.62,153.15c-3.38,1.95-3.38,5.11,0,7.07l283.53,162.97C289.53,325.14,295,325.14,298.38,323.19z"/>
	<path id="Shadow_1_" class="st0" d="M413.99,330.64c-0.73,0-2.11-0.24-3.25-1.83l-25.52-35.78c-1.36-1.9-0.8-3.48-0.49-4.07
		c0.6-1.17,1.81-1.87,3.22-1.87c0.37,0,0.77,0.05,1.17,0.14l63.68,15.14c3.06,0.73,3.12,2.89,3.07,3.53
		c-0.05,0.64-0.48,2.76-3.62,2.96l-31.46,2.02l-3.16,16.43C417.16,329.77,415.38,330.64,413.99,330.64L413.99,330.64z"/>
</g>
<g id="Signal_1_">
	<g id="Signal">
		<g id="XMLID_2426_">
			<path class="st1" d="M364.44,116.47c-0.01-0.19-0.13-0.38-0.38-0.52c-0.51-0.3-1.35-0.3-1.86,0c-0.25,0.14-0.38,0.33-0.38,0.52
				l0,0v60.31h2.63L364.44,116.47L364.44,116.47z"/>
		</g>
		<path class="st2" d="M364.44,116.47c0-0.41-0.59-0.75-1.32-0.75s-1.32,0.33-1.32,0.75c0,0.41,0.59,0.75,1.32,0.75
			C363.85,117.21,364.44,116.88,364.44,116.47z"/>
		<g>
			<g id="XMLID_2425_">
				<polygon class="st3" points="370.68,129.7 353.51,119.78 350.93,121.27 353.51,125.74 370.68,135.66 				"/>
			</g>
			<g id="XMLID_2429_" class="st4">
				<polygon points="370.68,129.7 353.51,119.78 350.93,121.27 353.51,125.74 370.68,135.66 				"/>
			</g>
			<g id="XMLID_2424_">
				<polygon class="st3" points="353.51,119.78 354.8,119.03 372,128.97 370.68,129.7 				"/>
			</g>
			<g id="XMLID_2427_" class="st5">
				<polygon points="353.51,119.78 354.8,119.03 372,128.97 370.68,129.7 				"/>
			</g>
			<polygon class="st3" points="372,134.93 370.68,135.66 370.68,129.7 372,128.97 			"/>
			<polygon class="st6" points="372,134.93 370.68,135.66 370.68,129.7 372,128.97 			"/>
		</g>
		<text transform="matrix(0.6495 0.375 0 1 354.4384 124.4771)" class="st7 st8 st9">2nd Street</text>
	</g>
</g>
<g id="Plants">
	<g id="Plants_15_">
		<g id="XMLID_473_">
			<g id="XMLID_482_">
				<path id="XMLID_485_" class="st3" d="M410.17,191.13l-5.38-4.63c0,0,0.21-16.55,5.06-29.88c6.81-18.73,21.27-22.83,25.67-19.98
					c4.4,2.85,4.41,8.79-6.39,18.28C422.76,160.52,413.5,173.17,410.17,191.13z"/>
			</g>
			<g id="XMLID_479_" class="st10">
				<path id="XMLID_480_" d="M410.17,191.13l-5.38-4.63c0,0,0.21-16.55,5.06-29.88c6.81-18.73,21.27-22.83,25.67-19.98
					c4.4,2.85,4.41,8.79-6.39,18.28C422.76,160.52,413.5,173.17,410.17,191.13z"/>
			</g>
			<g id="XMLID_476_">
				<path id="XMLID_478_" class="st7" d="M409.48,183.03c0.02,0,0.04,0.01,0.06,0.01c0.24,0.01,0.45-0.17,0.46-0.41
					c1.02-18.58,12.16-36.98,21.89-43.38c0.2-0.13,0.26-0.41,0.13-0.61s-0.41-0.26-0.61-0.13c-9.91,6.51-21.24,25.21-22.28,44.06
					C409.11,182.8,409.26,182.99,409.48,183.03z"/>
			</g>
		</g>
		<g id="XMLID_444_">
			<g id="XMLID_471_">
				<path id="XMLID_472_" class="st3" d="M426.01,204.1c0.85,0.73,3.05-0.08,3.91-0.44c1.46-0.62,2.75-1.64,3.71-2.89
					c1.12-1.46,1.66-3.15,1.76-4.99c0.05-0.95-0.03-1.91-0.12-2.86c-0.08-0.93-0.16-1.87-0.25-2.8c-0.08-0.92-0.16-1.87,0.13-2.75
					c0.58-1.77,2.44-2.72,4.12-3.53c1.85-0.9,3.85-2.17,4.26-4.35c0.32-1.68-0.25-3.42-1.03-4.94c-0.79-1.52-1.8-2.93-2.47-4.51
					c-0.48-1.14-0.78-2.42-0.44-3.6c0.21-0.74,0.66-1.38,1.15-1.97c1.05-1.27,2.32-2.37,3.15-3.8c0.83-1.42,1.12-3.34,0.14-4.66
					c-0.8-1.09-2.23-1.49-3.57-1.67c-1.24-0.16-2.54,0.16-3.73,0.55c-3.84,1.25-6.61,4.97-10.58,5.74c-1.53,0.3-3.11,0.12-4.66,0.22
					c-1.55,0.1-3.21,0.56-4.16,1.8c-1.87,2.43-0.02,6.24-1.52,8.92c-1.33,2.37-3.98,2.86-5.81,4.87c-0.8,0.88-1.16,2.01-1.29,3.19
					c-0.22,2-0.21,3.5,0.31,5.87c0.43,1.96,2.09,5.64,2.09,5.64C411.16,191.2,425.88,203.98,426.01,204.1z"/>
			</g>
			<g id="XMLID_462_">
				<path id="XMLID_463_" class="st7" d="M417.21,196.95c0.01,0,0.01,0,0.01,0c0.25,0.04,0.47-0.13,0.51-0.37
					c2.62-17.26,14.37-34.6,21.31-38.95c0.21-0.13,0.27-0.4,0.14-0.61c-0.13-0.21-0.4-0.27-0.61-0.14
					c-7.08,4.44-19.05,22.05-21.71,39.56C416.83,196.69,416.98,196.91,417.21,196.95z"/>
			</g>
			<g id="XMLID_445_">
				<path id="XMLID_457_" class="st7" d="M423.72,177.22c0.04,0.01,0.09,0.01,0.13,0.01c5.83-0.63,12.75,0.41,12.82,0.42
					c0.24,0.04,0.46-0.13,0.5-0.37c0.04-0.24-0.11-0.46-0.37-0.5c-0.07-0.01-7.1-1.06-13.04-0.42c-0.24,0.03-0.42,0.24-0.39,0.48
					C423.39,177.03,423.53,177.18,423.72,177.22z"/>
			</g>
		</g>
	</g>
</g>
<g id="Clouds_1_">
	<g id="Clouds_3_">
		<path id="Cloud_7_" class="st11" d="M74.78,15.31l-5,2.89c0.02-0.22,0.04-0.44,0.04-0.66v-1.45c0-2.58-1.81-3.62-4.04-2.33
			c-0.9,0.52-1.74,1.35-2.41,2.32c-0.37-3.24-2.91-4.45-6-2.66c-3.34,1.93-6.05,6.62-6.05,10.47v2.17c0,1,0.18,1.84,0.51,2.51
			l-4.15,2.4c-1.24,0.71-2.24,2.45-2.24,3.88s1,2.01,2.24,1.29L74.77,20.5c1.24-0.71,2.24-2.45,2.24-3.88
			C77.02,15.18,76.02,14.6,74.78,15.31z"/>
		<path id="Cloud_3_" class="st11" d="M95.55,28.19l-3.66,2.12c0.02-0.16,0.03-0.33,0.03-0.49v-1.06c0-1.89-1.33-2.66-2.96-1.71
			c-0.66,0.38-1.27,0.99-1.77,1.7c-0.27-2.38-2.13-3.26-4.4-1.95c-2.45,1.41-4.43,4.85-4.43,7.68v1.59c0,0.73,0.14,1.35,0.38,1.84
			l-3.04,1.76c-0.91,0.52-1.64,1.8-1.64,2.85s0.74,1.47,1.64,0.95L95.56,32c0.91-0.52,1.64-1.8,1.64-2.85
			C97.19,28.09,96.46,27.67,95.55,28.19z"/>
	</g>
</g>
<path id="XMLID_125_" class="st2" d="M439.08,206.86c2.13,1.65,1.9,3.99-0.68,5.47l-141.19,81.52c-2.84,1.63-7.44,1.63-10.27-0.01
	L17.12,138.06c-2.61-1.51-2.82-3.88-0.6-5.52c-2.55,1.81-4.53,5.45-4.53,8.5l-0.01,6.79c-0.01,3.27,2.29,7.26,5.13,8.9L286.92,312.5
	c2.84,1.64,7.45,1.64,10.28,0l141.19-81.51c2.84-1.63,5.14-5.61,5.14-8.89l0.01-6.8C443.53,212.29,441.6,208.69,439.08,206.86z"/>
<path id="XMLID_123_" class="st1" d="M438.4,206.41L168.57,50.62c-2.83-1.64-7.43-1.63-10.27-0.01L17.12,132.14
	c-2.84,1.63-2.83,4.29,0,5.92l269.83,155.78c2.83,1.64,7.43,1.63,10.27,0.01l141.19-81.52C441.23,210.7,441.23,208.04,438.4,206.41z
	"/>
<path id="XMLID_122_" class="st12" d="M16.51,132.54c-2.55,1.81-4.53,5.45-4.53,8.5l-0.01,6.79c0,3.28,2.29,7.26,5.13,8.9
	L286.92,312.5c1.42,0.82,3.29,1.23,5.15,1.23l0.01-18.66c-1.86,0-3.73-0.41-5.14-1.23L17.12,138.06
	C14.5,136.55,14.29,134.18,16.51,132.54z"/>
<path id="XMLID_121_" d="M86.14,105.62c1.44-0.83,1.44-2.18,0-3.01s-3.78-0.83-5.22,0s-1.44,2.18,0,3.01
	C82.36,106.45,84.69,106.45,86.14,105.62z"/>
<path id="XMLID_120_" d="M93.2,101.06l20.15-11.63c1.2-0.69,1.26-1.78,0.13-2.44c-1.13-0.65-3.02-0.62-4.22,0.08L89.12,98.71
	c-1.2,0.69-1.26,1.78-0.13,2.44C90.11,101.79,92,101.76,93.2,101.06z"/>
<path id="XMLID_119_" class="st1" d="M177.71,63.12c-2.42-1.4-4.95-0.59-7.38,0.82L38.37,140.08c-2.42,1.4-2.43,3.68,0,5.08
	l239.49,138.3c2.44,1.41,6.38,1.4,8.81,0l131.95-76.15c2.44-1.4,2.43-3.68,0.01-5.08L177.71,63.12z"/>
<path id="XMLID_118_" class="st13" d="M177.73,63.13c-0.55-0.23-1.95-0.93-3.69-0.64c-1.24,0.2-2.48,0.76-3.69,1.46L38.37,140.08
	c-1.21,0.7-1.82,1.62-1.82,2.54c0,1.24,1.3,2.18,1.82,2.54C64.67,163.56,242.92,261.69,252,267.5c0.84,0.54,4.27,2.87,9,3
	c4.16,0.12,7.63-1.51,10-3c40-22.33,80-44.67,120-67c3.31-1.39,7.93-3.83,8-7c0.08-3.53-5.53-6.25-7-7
	C376.65,178.66,202.69,73.82,177.73,63.13z"/>
<ellipse class="st12" cx="353.89" cy="241.45" rx="12.89" ry="7.05"/>
<g>
	<polygon id="XMLID_57_" class="st14" points="276.54,219.17 300.91,233.24 300.91,240.89 276.54,226.82 	"/>
	<polygon id="XMLID_56_" class="st15" points="276.54,219.17 300.91,233.24 300.91,240.89 276.54,226.82 	"/>
	<polyline id="XMLID_55_" class="st14" points="325.28,226.82 325.28,219.17 300.91,233.24 300.91,240.89 	"/>
	<polygon class="st16" points="325.28,219.17 300.91,233.24 300.91,240.89 325.28,226.82 	"/>
	<polygon id="XMLID_54_" class="st14" points="325.28,219.17 300.91,205.1 276.54,219.17 300.91,233.24 	"/>
	<polygon id="XMLID_53_" class="st17" points="325.28,219.17 300.91,205.1 276.54,219.17 300.91,233.24 	"/>
</g>
<g>
	<polygon id="XMLID_132_" class="st14" points="236.54,241.17 260.91,255.24 260.91,262.89 236.54,248.82 	"/>
	<polygon id="XMLID_131_" class="st15" points="236.54,241.17 260.91,255.24 260.91,262.89 236.54,248.82 	"/>
	<polyline id="XMLID_130_" class="st14" points="285.28,248.82 285.28,241.17 260.91,255.24 260.91,262.89 	"/>
	<polygon class="st16" points="285.28,241.17 260.91,255.24 260.91,262.89 285.28,248.82 	"/>
	<polygon id="XMLID_129_" class="st14" points="285.28,241.17 260.91,227.1 236.54,241.17 260.91,255.24 	"/>
	<polygon id="XMLID_128_" class="st17" points="285.28,241.17 260.91,227.1 236.54,241.17 260.91,255.24 	"/>
</g>
<g>
	<g>
		<polygon id="XMLID_38_" class="st14" points="224.91,134.3 224.91,75.22 204.6,63.5 204.6,122.57 		"/>
		<polygon id="XMLID_37_" class="st14" points="224.91,75.22 245.21,63.5 245.21,122.57 224.91,134.3 		"/>
		<polygon id="XMLID_36_" class="st14" points="245.21,63.5 224.91,51.77 204.6,63.5 224.91,75.22 		"/>
		<polygon id="XMLID_35_" class="st18" points="245.21,63.5 224.91,51.77 204.6,63.5 224.91,75.22 		"/>
		<polygon id="XMLID_34_" class="st19" points="224.91,134.3 224.91,75.22 204.6,63.5 204.6,122.57 		"/>
	</g>
	<g>
		<polygon id="XMLID_33_" class="st14" points="224.91,72.88 224.91,23.12 208.66,13.52 208.66,63.5 		"/>
		<polygon id="XMLID_32_" class="st14" points="224.91,72.88 224.91,23.12 241.15,13.52 241.15,63.5 		"/>
		<polygon id="XMLID_31_" class="st14" points="241.15,13.52 224.91,4.25 208.66,13.52 224.91,23.12 		"/>
		<polygon id="XMLID_30_" class="st18" points="241.15,13.52 224.91,4.25 208.66,13.52 224.91,23.12 		"/>
		<polygon id="XMLID_29_" class="st19" points="224.91,72.88 224.91,23.12 208.66,13.52 208.66,63.5 		"/>
	</g>
</g>
<g>
	<polygon id="XMLID_28_" class="st14" points="187.9,145.49 187.9,138.46 198.06,132.59 198.06,139.63 	"/>
	<polygon id="XMLID_27_" class="st14" points="177.75,139.63 177.75,132.59 187.9,138.46 187.9,145.49 	"/>
	<polygon id="XMLID_26_" class="st19" points="177.75,139.63 177.75,132.59 187.9,138.46 187.9,145.49 	"/>
	<polygon id="XMLID_25_" class="st14" points="198.06,132.59 187.91,126.73 177.75,132.59 187.9,138.46 	"/>
	<polygon id="XMLID_24_" class="st18" points="198.06,132.59 187.91,126.73 177.75,132.59 187.9,138.46 	"/>
</g>
<g>
	<polygon id="XMLID_10_" class="st14" points="261.26,125.28 261.26,66.2 240.95,54.47 240.95,113.55 	"/>
	<polygon id="XMLID_9_" class="st14" points="261.26,66.2 281.57,54.47 281.57,113.55 261.26,125.28 	"/>
	<polygon id="XMLID_8_" class="st14" points="281.57,54.47 261.26,42.75 240.95,54.47 261.26,66.2 	"/>
	<polygon id="XMLID_7_" class="st18" points="281.57,54.47 261.26,42.75 240.95,54.47 261.26,66.2 	"/>
	<polygon id="XMLID_6_" class="st19" points="261.26,125.28 261.26,66.2 240.95,54.47 240.95,113.55 	"/>
	<polygon id="XMLID_13_" class="st14" points="261.26,152.28 261.26,93.2 240.95,81.47 240.95,140.55 	"/>
	<polygon id="XMLID_12_" class="st14" points="261.26,93.2 281.57,81.47 281.57,140.55 261.26,152.28 	"/>
	<polygon id="XMLID_11_" class="st19" points="261.26,152.28 261.26,93.2 240.95,81.47 240.95,140.55 	"/>
</g>
<g>
	<polygon id="XMLID_127_" class="st14" points="301.33,145.54 301.33,86.46 281.02,74.74 281.03,133.81 	"/>
	<polygon id="XMLID_126_" class="st14" points="301.33,86.46 321.64,74.74 321.64,133.81 301.33,145.54 	"/>
	<polygon id="XMLID_19_" class="st14" points="321.64,74.74 301.33,63.01 281.02,74.74 301.33,86.46 	"/>
	<polygon id="XMLID_18_" class="st18" points="321.64,74.74 301.33,63.01 281.02,74.74 301.33,86.46 	"/>
	<polygon id="XMLID_17_" class="st19" points="301.33,145.54 301.33,86.46 281.02,74.74 281.03,133.81 	"/>
	<polygon id="XMLID_16_" class="st14" points="301.33,172.54 301.33,113.46 281.02,101.74 281.03,160.81 	"/>
	<polygon id="XMLID_15_" class="st14" points="301.33,113.46 321.64,101.74 321.64,160.81 301.33,172.54 	"/>
	<polygon id="XMLID_14_" class="st19" points="301.33,172.54 301.33,113.46 281.02,101.74 281.03,160.81 	"/>
</g>
<g>
	<polygon id="XMLID_137_" class="st14" points="204.56,155.41 204.56,148.37 214.71,142.51 214.71,149.55 	"/>
	<polygon id="XMLID_136_" class="st14" points="194.4,149.55 194.4,142.51 204.56,148.37 204.56,155.41 	"/>
	<polygon id="XMLID_135_" class="st19" points="194.4,149.55 194.4,142.51 204.56,148.37 204.56,155.41 	"/>
	<polygon id="XMLID_134_" class="st14" points="214.71,142.51 204.56,136.65 194.4,142.51 204.56,148.37 	"/>
	<polygon id="XMLID_133_" class="st18" points="214.71,142.51 204.56,136.65 194.4,142.51 204.56,148.37 	"/>
</g>
<g>
	<polygon id="XMLID_142_" class="st14" points="221.56,164.41 221.56,157.37 231.71,151.51 231.71,158.55 	"/>
	<polygon id="XMLID_141_" class="st14" points="211.4,158.55 211.4,151.51 221.56,157.37 221.56,164.41 	"/>
	<polygon id="XMLID_140_" class="st19" points="211.4,158.55 211.4,151.51 221.56,157.37 221.56,164.41 	"/>
	<polygon id="XMLID_139_" class="st14" points="231.71,151.51 221.56,145.65 211.4,151.51 221.56,157.37 	"/>
	<polygon id="XMLID_138_" class="st18" points="231.71,151.51 221.56,145.65 211.4,151.51 221.56,157.37 	"/>
</g>
<g>
	<polygon id="XMLID_147_" class="st14" points="239.56,174.41 239.56,167.37 249.71,161.51 249.71,168.55 	"/>
	<polygon id="XMLID_146_" class="st14" points="229.4,168.55 229.4,161.51 239.56,167.37 239.56,174.41 	"/>
	<polygon id="XMLID_145_" class="st19" points="229.4,168.55 229.4,161.51 239.56,167.37 239.56,174.41 	"/>
	<polygon id="XMLID_144_" class="st14" points="249.71,161.51 239.56,155.65 229.4,161.51 239.56,167.37 	"/>
	<polygon id="XMLID_143_" class="st18" points="249.71,161.51 239.56,155.65 229.4,161.51 239.56,167.37 	"/>
</g>
<g>
	<polygon id="XMLID_152_" class="st14" points="257.56,184.41 257.56,177.37 267.71,171.51 267.71,178.55 	"/>
	<polygon id="XMLID_151_" class="st14" points="247.4,178.55 247.4,171.51 257.56,177.37 257.56,184.41 	"/>
	<polygon id="XMLID_150_" class="st19" points="247.4,178.55 247.4,171.51 257.56,177.37 257.56,184.41 	"/>
	<polygon id="XMLID_149_" class="st14" points="267.71,171.51 257.56,165.65 247.4,171.51 257.56,177.37 	"/>
	<polygon id="XMLID_148_" class="st18" points="267.71,171.51 257.56,165.65 247.4,171.51 257.56,177.37 	"/>
</g>
<g>
	<g>
		<line class="st20" x1="348" y1="214.5" x2="285.57" y2="178"/>
		<g>
			<path class="st3" d="M348.76,213.2c-7.04-4.12-14.09-8.24-21.13-12.35c-11.21-6.56-22.42-13.11-33.63-19.67
				c-2.55-1.49-5.11-2.99-7.66-4.48c-1.67-0.98-3.18,1.62-1.51,2.59c7.04,4.12,14.09,8.24,21.13,12.35
				c11.21,6.56,22.42,13.11,33.63,19.67c2.55,1.49,5.11,2.99,7.66,4.48C348.91,216.77,350.42,214.18,348.76,213.2L348.76,213.2z"/>
		</g>
	</g>
	<g>
		<line class="st20" x1="255.5" y1="195" x2="285.57" y2="178"/>
		<g>
			<path class="st3" d="M256.26,196.3c8.77-4.96,17.54-9.92,26.31-14.87c1.25-0.71,2.51-1.42,3.76-2.13
				c1.68-0.95,0.17-3.54-1.51-2.59c-8.77,4.96-17.54,9.92-26.31,14.87c-1.25,0.71-2.51,1.42-3.76,2.13
				C253.06,194.65,254.57,197.25,256.26,196.3L256.26,196.3z"/>
		</g>
	</g>
	<g>
		<line class="st20" x1="147.5" y1="134" x2="253.5" y2="194"/>
		<g>
			<path class="st3" d="M146.74,135.3c3.53,2,7.05,3.99,10.58,5.99c8.43,4.77,16.86,9.55,25.29,14.32
				c10.19,5.77,20.39,11.54,30.58,17.31c8.84,5,17.68,10.01,26.53,15.01c4.27,2.42,8.48,5,12.83,7.26c0.06,0.03,0.12,0.07,0.18,0.1
				c1.68,0.95,3.2-1.64,1.51-2.59c-3.53-2-7.05-3.99-10.58-5.99c-8.43-4.77-16.86-9.55-25.29-14.32
				c-10.19-5.77-20.39-11.54-30.58-17.31c-8.84-5-17.68-10.01-26.53-15.01c-4.27-2.42-8.48-5-12.83-7.26
				c-0.06-0.03-0.12-0.07-0.18-0.1C146.57,131.75,145.06,134.34,146.74,135.3L146.74,135.3z"/>
		</g>
	</g>
	<g>
		<line class="st20" x1="147.5" y1="134" x2="199.5" y2="103"/>
		<g>
			<path class="st3" d="M148.26,135.3c5.86-3.49,11.71-6.98,17.57-10.47c9.33-5.56,18.67-11.13,28-16.69
				c2.14-1.28,4.29-2.56,6.43-3.83c1.66-0.99,0.15-3.58-1.51-2.59c-5.86,3.49-11.71,6.98-17.57,10.47
				c-9.33,5.56-18.67,11.13-28,16.69c-2.14,1.28-4.29,2.56-6.43,3.83C145.09,133.69,146.59,136.29,148.26,135.3L148.26,135.3z"/>
		</g>
	</g>
</g>
<ellipse class="st3" cx="163.35" cy="84.3" rx="7.65" ry="4.18"/>
<g>
	<line class="st20" x1="352" y1="161.5" x2="319" y2="179.5"/>
	<line class="st20" x1="373" y1="210.5" x2="319" y2="179.5"/>
	<line class="st20" x1="352" y1="161.5" x2="411" y2="194.5"/>
	<line class="st20" x1="373" y1="210.5" x2="411" y2="194.5"/>
</g>
<path class="st21" d="M256,240.5"/>
<path class="st22" d="M358.55,211.51c-15.81-9.66-31.61-19.31-47.42-28.97c10.94-5.92,21.87-11.84,32.81-17.75
	c15.76,9.5,31.52,19.01,47.29,28.51C380.33,199.37,369.44,205.44,358.55,211.51z"/>
<path class="st22" d="M217,237.5c-29.67-17-59.33-34-89-51c15.19-8.28,30.38-16.55,45.57-24.83c29.48,16.28,58.95,32.55,88.43,48.83
	C247,219.5,232,228.5,217,237.5z"/>
<g>
	<polygon id="XMLID_156_" class="st14" points="261.26,250.85 261.26,201.1 245.01,191.5 245.01,241.47 	"/>
	<polygon id="XMLID_155_" class="st14" points="261.26,250.85 261.26,201.1 277.5,191.5 277.5,241.47 	"/>
	<polygon id="XMLID_154_" class="st14" points="277.5,191.5 261.26,182.23 245.01,191.5 261.26,201.1 	"/>
	<polygon id="XMLID_153_" class="st18" points="277.5,191.5 261.26,182.23 245.01,191.5 261.26,201.1 	"/>
	<polygon id="XMLID_39_" class="st19" points="261.26,250.85 261.26,201.1 245.01,191.5 245.01,241.47 	"/>
</g>
<g>
	<polygon id="XMLID_165_" class="st14" points="143.99,99.11 143.99,92.07 154.15,86.21 154.15,93.24 	"/>
	<polygon id="XMLID_164_" class="st14" points="133.84,93.24 133.84,86.21 143.99,92.07 143.99,99.11 	"/>
	<polygon id="XMLID_163_" class="st19" points="133.84,93.24 133.84,86.21 143.99,92.07 143.99,99.11 	"/>
	<polygon id="XMLID_162_" class="st14" points="154.15,86.21 143.99,80.35 133.84,86.21 143.99,92.07 	"/>
	<polygon id="XMLID_40_" class="st18" points="154.15,86.21 143.99,80.35 133.84,86.21 143.99,92.07 	"/>
</g>
<g>
	<polygon id="XMLID_175_" class="st14" points="162.99,110.11 162.99,103.07 173.15,97.21 173.15,104.24 	"/>
	<polygon id="XMLID_174_" class="st14" points="152.84,104.24 152.84,97.21 162.99,103.07 162.99,110.11 	"/>
	<polygon id="XMLID_173_" class="st19" points="152.84,104.24 152.84,97.21 162.99,103.07 162.99,110.11 	"/>
	<polygon id="XMLID_172_" class="st14" points="173.15,97.21 162.99,91.35 152.84,97.21 162.99,103.07 	"/>
	<polygon id="XMLID_171_" class="st18" points="173.15,97.21 162.99,91.35 152.84,97.21 162.99,103.07 	"/>
</g>
<g>
	<g>
		<polygon id="XMLID_49_" class="st14" points="74.06,154.46 74.06,104.7 57.81,95.1 57.81,145.08 		"/>
		<polygon id="XMLID_48_" class="st14" points="74.06,154.46 74.06,104.7 90.31,95.1 90.31,145.08 		"/>
		<polygon id="XMLID_47_" class="st14" points="90.31,95.1 74.06,85.83 57.81,95.1 74.06,104.7 		"/>
		<polygon id="XMLID_46_" class="st18" points="90.31,95.1 74.06,85.83 57.81,95.1 74.06,104.7 		"/>
		<polygon id="XMLID_45_" class="st19" points="74.06,154.46 74.06,104.7 57.81,95.1 57.81,145.08 		"/>
	</g>
	<g>
		<polygon id="XMLID_44_" class="st14" points="73.8,96.71 73.8,63.88 79.9,93.19 		"/>
		<polygon id="XMLID_43_" class="st23" points="73.8,96.71 73.8,63.88 79.9,93.19 		"/>
		<polygon id="XMLID_42_" class="st14" points="67.64,93.19 73.8,63.88 73.8,96.71 		"/>
		<polygon id="XMLID_41_" class="st24" points="67.64,93.19 73.8,63.88 73.8,96.71 		"/>
	</g>
</g>
<g>
	<polygon id="XMLID_225_" class="st14" points="192.72,91.55 192.72,84.52 202.88,78.66 202.88,85.69 	"/>
	<polygon id="XMLID_224_" class="st14" points="182.57,85.69 182.57,78.66 192.72,84.52 192.72,91.55 	"/>
	<polygon id="XMLID_223_" class="st19" points="182.57,85.69 182.57,78.66 192.72,84.52 192.72,91.55 	"/>
	<polygon id="XMLID_222_" class="st14" points="202.88,78.66 192.72,72.79 182.57,78.66 192.72,84.52 	"/>
	<polygon id="XMLID_221_" class="st18" points="202.88,78.66 192.72,72.79 182.57,78.66 192.72,84.52 	"/>
</g>
<g>
	<polygon id="XMLID_161_" class="st14" points="301.26,228.85 301.26,179.1 285.01,169.5 285.01,219.47 	"/>
	<polygon id="XMLID_160_" class="st14" points="301.26,228.85 301.26,179.1 317.5,169.5 317.5,219.47 	"/>
	<polygon id="XMLID_159_" class="st14" points="317.5,169.5 301.26,160.23 285.01,169.5 301.26,179.1 	"/>
	<polygon id="XMLID_158_" class="st18" points="317.5,169.5 301.26,160.23 285.01,169.5 301.26,179.1 	"/>
	<polygon id="XMLID_157_" class="st19" points="301.26,228.85 301.26,179.1 285.01,169.5 285.01,219.47 	"/>
</g>
<g id="Locators">
	<g id="Pin_3_">
		<g id="XMLID_237_">
			<g id="XMLID_238_">
				<g id="XMLID_239_">
					<path id="XMLID_240_" class="st25" d="M144.67,46.07V43.1c0-3.7,0.69-7.6,1.92-11.43c0,0,0,0,0-0.01
						c3.12-9.66,9.68-18.88,17.27-23.26c4.83-2.79,9.25-3.14,12.62-1.46l-6.65-3.83c-1.59-1.06-3.46-1.62-5.52-1.62
						c-0.31,0-0.62,0.01-0.94,0.04c-0.32,0.02-0.64,0.06-0.97,0.11c-0.33,0.04-0.66,0.1-0.99,0.19c-0.33,0.07-0.67,0.16-1.01,0.27
						c-0.69,0.21-1.38,0.46-2.09,0.77c-0.35,0.15-0.71,0.33-1.07,0.5c-0.36,0.19-0.72,0.38-1.08,0.59
						C145.59,10.09,137,25.62,137,38.67v2.97c0,13.04,17.54,27.22,17.54,27.22l7.11,4.01c-0.12-0.07-0.25-0.16-0.36-0.27
						C156.05,67.77,144.67,56.11,144.67,46.07z M165.62,18.65c0.06,0.32,0.1,0.65,0.12,1c0.01,0.11,0.02,0.23,0.02,0.35
						c0.02,0.2,0.02,0.39,0.02,0.6c0,6.11-4.29,13.56-9.6,16.61c-0.2,0.11-0.38,0.22-0.58,0.31c-0.19,0.1-0.38,0.19-0.57,0.27
						s-0.37,0.15-0.56,0.23c-0.02,0.01-0.03,0.01-0.05,0.02c0.82,4.68,4.72,6.32,9.43,3.61c5.3-3.07,9.59-10.5,9.59-16.62
						C173.46,19.6,170.08,17.02,165.62,18.65z"/>
				</g>
			</g>
		</g>
		<path class="st26" d="M144.67,46.07V43.1c0-3.7,0.69-7.6,1.92-11.43c0,0,0,0,0-0.01c3.12-9.66,9.68-18.88,17.27-23.26
			c4.83-2.79,9.25-3.14,12.62-1.46l-6.65-3.83c-1.59-1.06-3.46-1.62-5.52-1.62c-0.31,0-0.62,0.01-0.94,0.04
			c-0.32,0.02-0.64,0.06-0.97,0.11c-0.33,0.04-0.66,0.1-0.99,0.19c-0.33,0.07-0.67,0.16-1.01,0.27c-0.69,0.21-1.38,0.46-2.09,0.77
			c-0.35,0.15-0.71,0.33-1.07,0.5c-0.36,0.19-0.72,0.38-1.08,0.59C145.59,10.09,137,25.62,137,38.67v2.97
			c0,13.04,17.54,27.22,17.54,27.22l7.11,4.01c-0.12-0.07-0.25-0.16-0.36-0.27C156.05,67.77,144.67,56.11,144.67,46.07z"/>
		<path class="st17" d="M165.62,18.65c0.06,0.32,0.1,0.65,0.12,1c0.01,0.11,0.02,0.23,0.02,0.35c0.02,0.2,0.02,0.39,0.02,0.6
			c0,6.11-4.29,13.56-9.6,16.61c-0.2,0.11-0.38,0.22-0.58,0.31c-0.19,0.1-0.38,0.19-0.57,0.27s-0.37,0.15-0.56,0.23
			c-0.02,0.01-0.03,0.01-0.05,0.02c0.82,4.68,4.72,6.32,9.43,3.61c5.3-3.07,9.59-10.5,9.59-16.62
			C173.46,19.6,170.08,17.02,165.62,18.65z"/>
		<g id="XMLID_233_">
			<path id="XMLID_234_" class="st25" d="M183.06,20.94c0-13.05-8.59-18.66-19.19-12.54s-19.19,21.65-19.19,34.7v2.97
				c0,10.05,11.38,21.7,16.61,26.53c1.28,1.18,3.32,0.8,4.08-0.76c4.52-9.25,17.69-37.12,17.69-47.93V20.94z M163.87,41.64
				c-5.3,3.06-9.59,0.58-9.6-5.54c0-6.12,4.3-13.56,9.59-16.62c5.3-3.06,9.59-0.58,9.59,5.54
				C173.46,31.14,169.16,38.58,163.87,41.64z"/>
		</g>
		<g id="XMLID_229_">
			<path id="XMLID_230_" class="st25" d="M183.06,20.94c0-13.05-8.59-18.66-19.19-12.54s-19.19,21.65-19.19,34.7v2.97
				c0,10.05,11.38,21.7,16.61,26.53c1.28,1.18,3.32,0.8,4.08-0.76c4.52-9.25,17.69-37.12,17.69-47.93V20.94z M163.87,41.64
				c-5.3,3.06-9.59,0.58-9.6-5.54c0-6.12,4.3-13.56,9.59-16.62c5.3-3.06,9.59-0.58,9.59,5.54
				C173.46,31.14,169.16,38.58,163.87,41.64z"/>
		</g>
	</g>
	<g>
		<line class="st20" x1="200" y1="103.5" x2="168" y2="86.5"/>
		<g>
			<path class="st3" d="M200.76,102.2c-9.34-4.96-18.69-9.93-28.03-14.89c-1.32-0.7-2.65-1.41-3.97-2.11
				c-1.7-0.91-3.22,1.68-1.51,2.59c9.34,4.96,18.69,9.93,28.03,14.89c1.32,0.7,2.65,1.41,3.97,2.11
				C200.95,105.7,202.46,103.11,200.76,102.2L200.76,102.2z"/>
		</g>
	</g>
</g>
<g id="Arrow_1_">
	<g id="Arrow">
		<path id="XMLID_18999_" class="st25" d="M452.89,302.42L452.89,302.42v-8.78l-65.53-15.07v8.77l0.01,0.01
			c0.01,0.19,0.1,0.43,0.3,0.72l25.52,35.78c0.63,0.88,1.3,0.73,1.5-0.33l3.23-16.79c0.2-1.06,1.24-1.98,2.32-2.04l31.83-2.04
			C452.61,302.61,452.88,302.53,452.89,302.42z"/>
		<path id="XMLID_965_" class="st26" d="M452.89,302.42L452.89,302.42v-8.78l-65.53-15.07v8.77l0.01,0.01
			c0.01,0.19,0.1,0.43,0.3,0.72l25.52,35.78c0.63,0.88,1.3,0.73,1.5-0.33l3.23-16.79c0.2-1.06,1.24-1.98,2.32-2.04l31.83-2.04
			C452.61,302.61,452.88,302.53,452.89,302.42z"/>
		<path class="st19" d="M413.74,324.35c0.43,0.2,0.81-0.08,0.95-0.83l3.23-16.79c0.08-0.39,0.27-0.77,0.53-1.09v-12.33l-4.72,6.9
			L413.74,324.35L413.74,324.35z"/>
		<path id="XMLID_18998_" class="st25" d="M414.69,314.74l3.23-16.79c0.2-1.06,1.24-1.98,2.32-2.04l31.83-2.04
			c1.08-0.07,1.1-0.33,0.05-0.58l-63.68-15.14c-1.05-0.25-1.39,0.26-0.77,1.14l25.52,35.78
			C413.81,315.95,414.49,315.8,414.69,314.74z"/>
	</g>
</g>
<g>
	<g>
		<polygon id="XMLID_196_" class="st14" points="97.2,168.36 97.2,118.6 80.95,109 80.95,158.98 		"/>
		<polygon id="XMLID_195_" class="st14" points="97.2,168.36 97.2,118.6 113.45,109 113.45,158.98 		"/>
		<polygon id="XMLID_194_" class="st14" points="113.45,109 97.2,99.73 80.95,109 97.2,118.6 		"/>
		<polygon id="XMLID_193_" class="st18" points="113.45,109 97.2,99.73 80.95,109 97.2,118.6 		"/>
		<polygon id="XMLID_192_" class="st19" points="97.2,168.36 97.2,118.6 80.95,109 80.95,158.98 		"/>
	</g>
	<g>
		<polygon id="XMLID_191_" class="st14" points="96.94,110.61 96.94,77.78 103.04,107.09 		"/>
		<polygon id="XMLID_190_" class="st23" points="96.94,110.61 96.94,77.78 103.04,107.09 		"/>
		<polygon id="XMLID_189_" class="st14" points="90.78,107.09 96.94,77.78 96.94,110.61 		"/>
		<polygon id="XMLID_188_" class="st24" points="90.78,107.09 96.94,77.78 96.94,110.61 		"/>
	</g>
</g>
<g>
	<g>
		<polygon id="XMLID_5_" class="st14" points="122.29,182.42 122.29,132.67 106.04,123.07 106.04,173.04 		"/>
		<polygon id="XMLID_4_" class="st14" points="122.29,182.42 122.29,132.67 138.54,123.07 138.54,173.04 		"/>
		<polygon id="XMLID_3_" class="st14" points="138.54,123.07 122.29,113.8 106.04,123.07 122.29,132.67 		"/>
		<polygon id="XMLID_2_" class="st18" points="138.54,123.07 122.29,113.8 106.04,123.07 122.29,132.67 		"/>
		<polygon id="XMLID_1_" class="st19" points="122.29,182.42 122.29,132.67 106.04,123.07 106.04,173.04 		"/>
	</g>
	<g>
		<polygon id="XMLID_23_" class="st14" points="122.03,124.68 122.03,91.85 128.12,121.16 		"/>
		<polygon id="XMLID_22_" class="st23" points="122.03,124.68 122.03,91.85 128.12,121.16 		"/>
		<polygon id="XMLID_21_" class="st14" points="115.86,121.16 122.03,91.85 122.03,124.68 		"/>
		<polygon id="XMLID_20_" class="st24" points="115.86,121.16 122.03,91.85 122.03,124.68 		"/>
	</g>
</g>
</svg>
