<?xml version="1.0" encoding="utf-8"?>
<!-- Generator: Adobe Illustrator 24.0.3, SVG Export Plug-In . SVG Version: 6.00 Build 0)  -->
<svg version="1.1" id="Layer_1" xmlns="http://www.w3.org/2000/svg" xmlns:xlink="http://www.w3.org/1999/xlink" x="0px" y="0px"
	 viewBox="0 0 615.99 524.8" style="enable-background:new 0 0 615.99 524.8;" xml:space="preserve">
<style type="text/css">
	.st0{fill:#93A8E2;}
	.st1{fill:#683F09;}
	.st2{fill:#ADBBEE;}
	.st3{fill:#FFFFFF;}
	.st4{font-family:'FingerPaint-Regular';}
	.st5{font-size:36.8944px;}
	.st6{font-size:27.3603px;}
	.st7{font-size:29.4746px;}
	.st8{fill:#96C093;}
	.st9{fill:#49A033;}
	.st10{fill:#7BC543;}
	.st11{fill:#86C940;}
	.st12{fill:#DAEDCE;}
	.st13{fill:#83C852;}
	.st14{fill:#88CA4B;}
	.st15{fill:#9AD171;}
	.st16{fill:#A7D680;}
	.st17{fill:#CAE9BA;}
	.st18{fill:#C7EBB7;}
	.st19{fill:#85C74C;}
	.st20{fill:#78BD44;}
	.st21{fill:#55A73E;}
	.st22{fill:#65B243;}
	.st23{fill:#419A3B;}
	.st24{fill:#5BAB41;}
	.st25{fill:#50A43E;}
	.st26{fill:#469E3B;}
	.st27{fill:#5BAC41;}
	.st28{fill:#50A53E;}
	.st29{fill:#439A3C;}
	.st30{fill:#3F9937;}
	.st31{fill:#73B26A;}
	.st32{fill:#8ABA7B;}
	.st33{fill:#33962B;}
	.st34{fill:#CDEBCA;}
	.st35{fill:#449E27;}
	.st36{fill:#7BC148;}
	.st37{fill:#7EC249;}
	.st38{fill:#7FC249;}
	.st39{fill:#3C8E37;}
	.st40{fill:#3E9739;}
	.st41{fill:#469B40;}
	.st42{fill:#71AF6C;}
	.st43{fill:#DEECCA;}
	.st44{fill:#D3E2D2;}
	.st45{fill:#B5D2B1;}
	.st46{fill:#8DCC4B;}
	.st47{fill:#3D973A;}
	.st48{fill:#83C54A;}
	.st49{fill:#7EC942;}
	.st50{fill:#B2D69D;}
	.st51{fill:#7FC53E;}
	.st52{fill:#E6F7DF;}
	.st53{fill:#DEEED7;}
	.st54{fill:#7EC233;}
	.st55{fill:#C8EBBD;}
	.st56{fill:#B1DA8F;}
	.st57{fill:#6FB946;}
	.st58{fill:#79BF48;}
	.st59{fill:#EFF9EA;}
	.st60{fill:#D7EECB;}
	.st61{fill:#D6E7C7;}
	.st62{fill:#BAD9B0;}
	.st63{fill:#A2CC78;}
	.st64{fill:#82C23D;}
	.st65{fill:#6FBB35;}
	.st66{fill:#72B739;}
	.st67{fill:#4AA434;}
	.st68{fill:#41993A;}
	.st69{fill:#6EB45E;}
	.st70{fill:#B6DCA2;}
	.st71{fill:#74BF3A;}
	.st72{fill:#92CA77;}
	.st73{fill:#318828;}
	.st74{fill:#59AE37;}
	.st75{fill:#D0E5D0;}
	.st76{fill:#4AA32E;}
	.st77{fill:#8BCD46;}
	.st78{fill:#419737;}
	.st79{fill:#5F9FCE;}
	.st80{fill:#F4C6BD;}
	.st81{fill:#3B3B3B;}
	.st82{fill:#496089;}
	.st83{fill:#545454;}
	.st84{fill:#444444;}
	.st85{fill:#ECECEF;}
	.st86{fill:#6883A2;}
	.st87{fill:#2B1904;}
</style>
<path class="st0" d="M267.85,323.78c0.03-1.66,0-3.33,0-4.99c0-39.29-0.01-78.58,0.03-117.87l12.94,0.29
	c0.09,44.73,0.19,89.47,0.28,134.2c-3.48,0.47-6.17,0.24-9.55-0.78c-1.19-0.36-2.37-0.66-3.57-0.81
	C268.18,330.6,267.8,327.1,267.85,323.78z"/>
<path class="st0" d="M280.82,112.87c0,20.26-0.01,40.52-0.02,60.78c-4.51-0.03-9.02-0.07-13.53-0.1V128.3
	C272.06,125.75,276.41,119.47,280.82,112.87z"/>
<path class="st1" d="M232.33,211.07c-19.88-2.75-39.76-5.56-59.66-8.19c-3.1-0.41-5.61-1.41-8.01-3.43
	c-9.4-7.9-18.94-15.64-28.84-23.77c5.28-3.82,11.37-5.1,16.49-8.22c6.39-2.76,12.8-5.48,19.15-8.33c1.73-0.78,3.38-1.15,5.27-0.9
	c29.58,4.03,59.16,8.04,88.75,12.05c9.98,1.19,19.95,2.39,29.93,3.58c12.77,1.87,25.54,3.74,38.52,5.64
	c-0.08,3.49,1.03,7.36-5.36,6.61c2.03,1.69,5.03,1.25,4.02,4.3c-1.21,3.65,1.62,9.23-5.13,10.06c2.57,3.56,2.02,16.36-0.63,19.4
	c-1.98,2.26-4.08,3.17-7.39,2.71C285.21,217.86,249.96,213.35,232.33,211.07z"/>
<ellipse class="st2" cx="307.99" cy="409.77" rx="307.99" ry="115.02"/>
<path class="st0" d="M267.26,44.59c4.66,0.37,9.31,0.77,13.98,0.9c-0.34,1.02-0.5,2.12-0.49,3.37c0.11,11.82,0.27,38.87,0.23,50.7
	c-4.36-1.99-9.29,9.94-13.28,7.22c0.04-9.49,0.14-47.87,0.31-57.36C268.05,47.67,267.81,46.09,267.26,44.59z"/>
<path class="st1" d="M193.09,108.63c12.52-3.91,24.84-7.75,37.16-11.6c9.67-2.74,19.33-5.48,29-8.22
	c28.59-8.59,57.19-17.17,85.77-25.78c1.82-0.55,3.51-0.44,5.34,0.06c6.72,1.82,13.48,3.5,20.22,5.23
	c5.55,2.28,11.77,2.59,17.58,5.54c-8.5,9.58-16.72,18.72-24.76,27.99c-2.06,2.37-4.38,3.75-7.38,4.64
	c-19.24,5.71-38.43,11.59-57.64,17.42c-13.88,4.21-26.41,7.44-51.16,14.98c-6.76,2.06-12.34,3.79-16.07,4.95
	c-6.29,1.83-11.75,3.15-17.01,5.06c-3.15,1.14-5.42,0.4-7.73-1.52c-3.1-2.58-5.64-15.14-3.66-19.06c-6.79,0.24-4.88-5.72-6.64-9.13
	c-1.47-2.85,1.56-2.88,3.3-4.87C193.23,116.07,193.72,112.07,193.09,108.63z"/>
<path class="st1" d="M262.35,52.01c-20.02,1.44-40.05,2.83-60.06,4.39c-0.7,0.05-2.93,0.68-5.14-0.36
	c-5.65-2.66-6.12-13.28-5.81-20.55c-2.11-11.64-1.06-20.31,0.67-21.64c1.64-1.27,3.46-1.73,3.46-1.73c0.48-0.12,0.98-0.21,1.5-0.24
	c29.77-2.2,59.54-4.44,89.31-6.67c10.01-0.91,20.01-1.81,30.02-2.72C329.2,1.67,342.08,0.84,355.17,0c0.64,3.44,2.54,6.99-3.86,7.58
	c2.34,1.24,5.18,0.18,4.83,3.37c-0.42,3.82,3.5,8.7-2.93,10.91c3.25,2.95,5.38,15.58,3.41,19.1c-1.46,2.62-3.33,3.95-6.67,4.19
	C315.48,47.65,280.06,50.58,262.35,52.01z"/>
<text transform="matrix(0.9925 -0.1219 0.1219 0.9925 226.7713 43.6133)" class="st3 st4 st5">N</text>
<text transform="matrix(1.1804 -0.1449 0.1219 0.9925 258.1966 36.415)" class="st3 st4 st6">A</text>
<text transform="matrix(0.9925 -0.1219 0.1219 0.9925 289.337 40.5102)" class="st3 st4 st7">V</text>
<path class="st8" d="M216.43,191.73c0.21,0.27,0.33,0.53,0.73,0.51C217.02,191.9,216.86,191.69,216.43,191.73z"/>
<path class="st9" d="M217.1,405.74c-0.07-0.07-0.14-0.14-0.2-0.21c-3.04,0-6.09,0-9.13,0.01c-0.36,0-0.77-0.14-1.09,0.16
	C210.15,405.71,213.62,405.73,217.1,405.74z"/>
<path class="st10" d="M198.9,411.59c-3.89,0-7.79,0.01-11.68,0.01c0.2,0.27,0.5,0.19,0.77,0.19c3.71,0,7.41-0.01,11.12-0.01
	c0.07-0.04,0.09-0.08,0.07-0.12c-0.02-0.04-0.05-0.06-0.07-0.06C199.04,411.6,198.97,411.6,198.9,411.59z"/>
<path class="st11" d="M199.11,411.6c0,0.06,0,0.13,0,0.19c2.15,0,4.29,0,6.44,0c0-0.06,0-0.13,0-0.19
	C203.4,411.6,201.26,411.6,199.11,411.6z"/>
<g>
	<path class="st12" d="M186.19,381.49c0-0.34,0-0.69,0-1.03c0.12-0.2,0.23-0.41,0.35-0.61C186.59,380.42,186.61,381,186.19,381.49z"
		/>
	<path class="st13" d="M331.12,316.78c3.73,0.08,6.87,1.63,9.66,3.96c4.06,3.38,6.53,7.82,8.45,12.63c1.23,3.08,2.03,6.29,2.77,9.52
		c0.47-0.06,0.19-0.44,0.28-0.67c0-0.52,0-1.03,0-1.55c0.06-0.44-0.12-0.9,0.11-1.32c0-0.21,0-0.42,0-0.63
		c-0.53-1.16-0.41-2.43-0.57-3.64c-0.73-5.52-2.04-10.87-4.46-15.91c-1.32-2.74-2.86-5.35-5.01-7.53
		c-3.28-3.34-7.02-3.77-10.96-1.27c-2.39,1.51-4.28,3.55-6,5.76c-1.98,2.53-3.65,5.26-5.21,8.07c-0.18,0.32-0.24,0.74-0.63,0.92
		c-0.84,0.48-0.85,1.46-1.28,2.19c-0.5,0.86-0.85,1.81-1.37,2.67c-0.21,0.34-0.46,0.73,0.04,1.07c0.57-0.16,0.74-0.7,1-1.13
		c1.57-2.62,3.17-5.22,5.06-7.63c0.92-1.17,1.84-2.34,3.03-3.28c1.31-1.03,2.73-1.77,4.41-1.98
		C330.69,317,330.91,316.91,331.12,316.78z"/>
	<path class="st14" d="M172.1,349.48c0.22,1.69,0.55,3.36,1.16,4.96c0.22,0.59,0.35,1.57,1.08,1.45c0.62-0.1,0.48-1.06,0.47-1.66
		c-0.04-1.49-0.12-2.99-0.23-4.48c-0.47-6.25,0.67-12.11,4.07-17.45c0.99-1.55,2.17-2.89,3.95-3.57c2.33-0.55,4.66-0.71,6.96,0.15
		c0.26,0.1,0.55,0.1,0.78-0.12c-2.13-1.39-4.43-2.28-7-2.37c-4.03-0.13-7.37,2.09-9.13,6.03c-1.18,2.63-1.7,5.42-2.06,8.25
		c-0.03,0.22,0.08,0.5-0.22,0.64c0,2.37,0,4.74,0,7.11C172.17,348.74,171.9,349.15,172.1,349.48z"/>
	<path class="st15" d="M352.19,342.27c-0.03,0.22,0.02,0.46-0.2,0.62c0,0.4,0,0.8,0.38,1.07c0-0.56,0-1.12,0-1.67
		C352.32,342.2,352.26,342.19,352.19,342.27z"/>
	<path class="st16" d="M352.19,342.27c0.06,0,0.12,0.01,0.19,0.01c0-0.56,0-1.12,0-1.67c-0.05-0.09-0.11-0.09-0.18-0.02
		C352.2,341.15,352.19,341.71,352.19,342.27z"/>
	<path class="st17" d="M352.2,340.59c0.06,0.01,0.12,0.02,0.18,0.02c0-0.42,0-0.84,0-1.26C351.97,339.72,352.25,340.18,352.2,340.59
		z"/>
	<path class="st18" d="M172.1,349.48c0.02-0.37,0.11-0.75-0.18-1.06c0,0.35,0,0.7,0,1.05C171.98,349.48,172.04,349.48,172.1,349.48z
		"/>
	<path class="st19" d="M234.89,326.47c0.82,2.7,1.17,5.5,1.65,8.26c1.53,8.89,2.73,17.82,3.69,26.79c0.53,4.91,0.9,9.85,1.35,14.77
		c0.03,0.34-0.02,0.7,0.17,1.02c-0.14-0.02,0.18,0.05,0.08-0.06s-0.01-0.22,0.02-0.08c0.06,0.31,0.1,0.62-0.06,0.91
		c0.15,2.84,0.28,5.69,0.46,8.53c0.21,3.43,0.38,6.87,0.43,10.31c0.01,0.34,0.08,0.68,0.13,1.03c0.22,0.9,0.17,1.81,0.04,2.72
		c-0.22,1.03,0.03,1.53,1.23,1.61c3.56,0.22,7.12,0.58,10.68,0.89c0.89-0.15,1.78,0.03,2.66,0.12c0.64,0.07,0.93-0.12,0.77-0.79
		c-0.17-0.69-0.2-1.36,0.31-1.94c0.33-2.02-0.07-4.03-0.16-6.04c-0.12-2.78-0.33-5.55-0.51-8.33c-0.2-3.09-0.51-6.17-0.73-9.26
		c-0.04-0.52-0.03-1.04-0.05-1.56c-0.06-0.67-0.56-1.2-0.59-1.88c-0.29-3.41-0.92-6.79-1.06-10.22c-0.63-7.1-2.14-14.06-3.56-21.03
		c-0.04-0.2-0.08-0.41-0.25-0.56c-0.36-0.21-0.33-0.59-0.4-0.91c-2.4-10.28-5.48-20.34-9.53-30.09c-0.17-0.41-0.22-0.78-0.09-1.19
		c-0.53-0.75-0.77-1.62-1.15-2.44c-0.19-0.41-0.34-0.84-0.71-1.13c-1.89-3.88-3.71-7.79-5.76-11.58
		c-6.24-11.5-13.7-22.14-22.39-31.92c-1.06-1.2-2.17-2.36-3.26-3.53c-0.04-0.04-0.13-0.03-0.21-0.04c-0.21,0.36,0.12,0.57,0.25,0.81
		c8.56,15.02,15.69,30.67,21.2,47.06c1.05,3.13,2.06,6.28,2.91,9.48c0.11,0.41,0.2,0.81,0.12,1.23c0.64,2.78,1.41,5.52,2.02,8.3
		C234.63,325.98,234.66,326.27,234.89,326.47z"/>
	<path class="st20" d="M235.87,283.74c-1.42-1.32-2.83-2.64-4.26-3.98c-0.3,0.35,0,0.53,0.13,0.72c3.04,4.53,5.79,9.23,8.35,14.05
		c0.37,0.7,0.47,1.52,1.02,2.14c1.05,2.73,2.36,5.34,3.5,8.03c0.25,0.58,0.46,1.17,0.73,1.73c2.1,5.11,3.82,10.35,5.14,15.72
		c0.63,2.56,1.09,5.16,1.47,7.77c0.01,0.11,0.04,0.23,0.07,0.34c0.15,0.46,0.07,0.94,0.09,1.41c0.33,3.54,0.47,7.08,0.6,10.63
		c0.19,5.08,0.25,10.16,0.45,15.23c0.16,4.15,0.07,8.29,0.15,12.43c0.11,5.74,0.33,11.48,0.19,17.23c-0.01,0.25,0.03,0.49,0.11,0.72
		l-0.01-0.01c0.28,0.19,0.08,0.53,0.22,0.76c0.03,1.37,0.09,2.74-0.04,4.1c0.03,0.14,0.1,0.23,0.23,0.28
		c3.33,0.13,6.65,0.02,9.98,0.06c0.52,0.01,1.04-0.05,1.55,0.06c0.59,0.09,0.52-0.33,0.48-0.66c-0.39-2.97-0.49-5.97-0.85-8.94
		c-0.43-3.49-0.65-7-0.95-10.5c-0.45-5.27-0.82-10.55-1.2-15.82c-0.29-4.06-0.62-8.12-0.71-12.19c-0.03-1.56-0.19-3.12-0.28-4.69
		c-0.87-2.87-1.3-5.84-2.04-8.74c-1.24-4.86-2.56-9.7-4.2-14.44c-0.97-2.37-1.79-4.8-2.8-7.17c-1.66-3.86-3.53-7.61-5.63-11.25
		c-2.52-4.37-5.47-8.44-8.75-12.28C237.77,285.52,236.97,284.48,235.87,283.74z"/>
	<path class="st21" d="M252.17,330.15c-0.2-2.66-0.8-5.25-1.4-7.84c-1.23-5.34-3.03-10.5-5-15.6c-0.06-0.15-0.19-0.28-0.29-0.42
		c-0.61,0.58-0.89,1.36-1.25,2.1c0.2,0.7,0.04,1.36-0.22,2.01c-4.93,12.85-7.21,26.27-8.61,39.87c-0.39,3.74-0.7,7.49-1.04,11.23
		c-0.2,0.34-0.07,0.69,0,1.03c-0.2,2.08,0.18,4.12,0.38,6.17c0.1,1.07,0.13,2.14,0.23,3.21c0.26,2.9,0.29,5.81,0.48,8.71
		c0.17,2.49,0.38,4.97,0.39,7.47c0.01,0.28,0.19,0.27,0.39,0.23c2.47-0.01,4.94-0.09,7.41,0.05c0.42-0.2,0.29-0.58,0.3-0.91
		c0.09-4.74-0.16-9.48-0.27-14.21c-0.14-5.68-0.25-11.35-0.41-17.03c-0.15-5.12-0.22-10.24-0.43-15.35
		c-0.12-2.96-0.13-5.92-0.17-8.88c-0.01-0.49-0.12-0.96-0.21-1.44c1.59,7.53,2.81,15.12,3.97,22.72c0.15,0.96,0.32,1.93,0.44,2.89
		c0.04,0.31,0.07,0.63,0.4,0.8c0.65-0.54,0.69-1.36,0.76-2.08c0.09-1.05,0.24-2.07,0.52-3.08c0.44-1.59,0.38-3.25,0.59-4.86
		c0.27-2.11,0.85-4.15,1.16-6.25c0.38-2.57,1.1-5.09,1.56-7.65C252,332.08,252.28,331.14,252.17,330.15z"/>
	<path class="st14" d="M240.9,403.2c-0.21-4.1-0.36-8.21-0.66-12.3c-0.34-4.72-0.79-9.43-1.35-14.13c-1.21-10.07-3.1-20-5.8-29.77
		c-0.62-2.25-1.32-4.47-2-6.7c-0.13-0.44-0.27-0.86-0.24-1.33c-0.65-2.67-1.7-5.21-2.63-7.79c-0.33-0.91-0.55-1.86-1.11-2.67
		c-0.43-0.22-0.45-0.68-0.6-1.05c-4.13-10.27-9.09-20.11-14.83-29.58c-0.15-0.26-0.26-0.56-0.73-0.79c0.73,2.14,1.41,4.13,2.08,6.13
		c3.72,11.13,7.3,22.29,10.16,33.68c0.08,0.33,0.12,0.68,0.17,1.02c0.01,1.61,0.51,3.15,0.85,4.7c0.89,4.08,1.72,8.16,2.5,12.26
		c0.03,0.17,0.09,0.34,0.24,0.45c0.59,0.87,0.56,1.92,0.75,2.89c1.71,8.6,3.37,17.21,4.76,25.87c0.99,6.18,2.05,12.37,2.23,18.65
		c0.01,0.51,0.06,0.87,0.72,0.86c1.71-0.03,3.42-0.01,5.12-0.01c0.15,0,0.27-0.03,0.34-0.18c-1.56-0.24-3.14,0-4.7-0.18
		c-0.13-0.09,0.1-0.16,0.01-0.05C237.76,403.4,239.33,403.35,240.9,403.2z"/>
	<path class="st22" d="M190.34,328.76c-1.07-0.09-2.05-0.56-3.12-0.71c-1.65-0.24-3.15,0.01-4.62,0.69c5.01,0.94,9,3.74,12.73,7
		c0.94,0.83,1.82,1.72,2.72,2.59c1.16,1.14,2.38,2.25,2.29,4.09c0.37-0.27,0.26-0.65,0.24-0.93c1.84,2.14,3.61,4.42,5.2,6.82
		c3.13,4.72,5.59,9.78,7.55,15.08c1.57,4.24,2.89,8.56,3.85,12.99c0.15,0.26,0.34,0.5,0.4,0.81c0.13,0.36,0.07,0.73,0.13,1.1
		c0.49,2.89,1.18,5.75,1.51,8.67c0.88,4.38,1.33,8.81,1.76,13.25c0.21,2.11,0.42,4.23,0.66,6.34c0.09,0.81-0.16,1.08-0.95,0.99
		c-0.45-0.05-0.91-0.05-1.36,0c-1.05,0.12-1.91-0.06-2.24-1.22c-0.03,0.06-0.08,0.12-0.09,0.19c-0.22,1.54-0.22,1.54,1.34,1.54
		c0.94,0,1.88,0.04,2.82-0.01c0.67-0.04,0.9,0.18,0.95,0.86c0.13,1.9,0.16,1.89,2.05,2.11c2.38,0.28,4.77,0.54,7.14,0.87
		c0.71,0.1,0.81-0.06,0.71-0.73c-0.67-4.54-1.37-9.07-2.23-13.58c-0.25-1.32-0.03-2.64-0.13-3.95c-0.46,0.05-0.28,0.39-0.29,0.64
		c-0.01,0.58,0.02,1.17-0.02,1.75c0.1-1.99-0.28-3.9-0.71-5.83c-0.69-3.13-1.38-6.25-2.18-9.35c-1.02-3.94-1.96-7.91-3.55-11.68
		c-1.19-3.78-2.86-7.37-4.68-10.88c-0.81-1.57-1.77-3.06-2.53-4.66c-0.09-0.18-0.15-0.4-0.43-0.37c-0.9-0.57-1.32-1.47-1.66-2.43
		c-0.09-0.25-0.14-0.52-0.21-0.78c-0.51,0.08-0.61-0.39-0.81-0.66c-2.79-3.86-5.86-7.49-9.06-11.01c-1.22-1.34-2.62-2.52-3.95-3.75
		c-0.43,0.4-0.6-0.11-0.8-0.28C196.15,332.17,193.3,330.38,190.34,328.76z"/>
	<path class="st21" d="M247.15,298.77c0.29,1.06,1.03,1.87,1.53,2.82c2.67,5.03,4.87,10.26,6.84,15.59c0.46-0.17,0.54-0.61,0.66-1
		c1.25-4,2.67-7.94,3.73-12c0.26-1.11,0.55-2.21,0.79-3.32c0.37-1.95-0.02-3.9-0.14-5.83c-0.18-2.78-0.34-5.56-0.51-8.33
		c-0.27-4.33-0.56-8.66-0.89-12.76c0.61,1.83,1.47,3.81,2.19,5.84c0.4,1.12,0.75,2.25,1.13,3.37c0.1,0.3,0.08,0.73,0.57,0.76
		c0.45-3.75,0.48-7.51,0.38-11.27c-0.22-8.14-1.26-16.17-3.51-24.01c-0.31-1.07-0.66-2.12-1.18-3.17c-0.16,1.62-0.32,3.24-0.47,4.86
		c-0.52,5.55-1.39,11.05-2.37,16.54c-0.05,0.26-0.04,0.57-0.36,0.7c-0.38,0.43-0.28,0.99-0.37,1.49c-0.67,3.69-1.58,7.33-2.41,10.98
		c-0.15,0.68-0.09,1.35-0.19,2.02c-1.32,4.95-2.66,9.89-4.2,14.77c-0.04,0.12,0.26,1.17-0.57,0.44c-0.32,0.25-0.16,0.57-0.08,0.85
		C247.89,298.66,247.49,298.68,247.15,298.77z"/>
	<path class="st21" d="M199.55,334.62c0.55,1.31,1.82,1.96,2.75,2.91c1.89,1.94,3.63,4,5.39,6.05c1.94,2.26,3.65,4.7,5.57,7.08
		c0.05-0.29,0.07-0.46,0.1-0.62c-0.54-3.72-1.36-7.4-2.15-11.07c-2.28-10.55-4.83-21.03-8.09-31.33c-1.48-4.66-3.6-9.06-5.4-13.59
		c-2.58-6.5-5.21-12.98-7.62-19.54c-0.05-0.12-0.15-0.23-0.23-0.34c-0.48,0.1-0.24,0.41-0.2,0.66c0.7,3.02,1.44,6.04,2.11,9.07
		c2.54,11.59,4.4,23.31,5.88,35.08C198.32,324.18,198.93,329.4,199.55,334.62z"/>
	<path class="st23" d="M215.24,353.24c1.09,2.55,2.69,4.82,3.86,7.33c1.16,2.48,2.24,4.99,3.21,7.55c0.12,0.32,0.16,0.67,0.24,1
		c0.44,0.26,0.61-0.09,0.66-0.37c0.59-2.96,1.69-5.8,2.13-8.8c-0.02-0.24-0.06-0.48-0.24-0.66c-1.55-15.39-4.42-30.5-9.66-45.11
		c-2.03-5.67-4.4-11.2-7.17-16.56c-0.48,0.19-0.21,0.55-0.19,0.85c0.67,4.75,1.37,9.5,2.01,14.26c1.17,8.76,2.31,17.53,3.46,26.29
		c0.19,1.48,0.4,2.96,0.6,4.44c0.24-0.34,0.08-0.7,0.1-0.89c-0.04,0.87,0.25,1.89,0.14,2.93c0.03,1.08,0.14,2.14,0.38,3.19
		c0.19-0.17,0.15-0.37,0.13-0.43c-0.04,0.17,0.1,0.49-0.09,0.79C214.81,350.46,215.09,351.84,215.24,353.24z"/>
	<path class="st23" d="M252.57,282.04c0.43-0.69,0.38-1.51,0.57-2.27c0.78-3.1,1.46-6.23,2.09-9.36c0.19-0.93,0.5-1.87,0.32-2.86
		c-0.65-5.01-1.62-9.95-2.72-14.87c-3.33-14.78-9-28.57-17.62-41.08c-2.65-3.85-5.56-7.49-8.74-10.91
		c-0.24-0.25-0.45-0.53-0.67-0.79c-1.29-1.11-2.33-2.48-3.7-3.51c-0.3,0.06-0.42-0.07-0.39-0.36c-0.07-0.07-0.15-0.14-0.22-0.21
		c-0.32-0.09-0.59-0.03-0.77,0.27c2.48,2.91,4.84,5.92,6.95,9.1c10.88,16.38,18.27,34.19,21.82,53.56
		c1.33,7.23,2.12,14.53,2.93,21.83c0.2,0.42-0.03,0.9,0.16,1.32C252.53,281.95,252.53,281.99,252.57,282.04z"/>
	<path class="st24" d="M218.8,351.45c0,1.02-0.43,1.94-0.66,2.9c-0.45,1.87-0.91,3.73-1.4,5.59c-0.08,0.29,0.04,0.75-0.49,0.78
		c1.4,3.31,2.27,6.78,3.19,10.24c0.71,2.69,1.47,5.38,1.98,8.11c0.58,3.07,1.77,6.05,1.57,9.26c0.36-1.02-0.12-2.11,0.34-3.12
		c0.43-5.96,0.9-11.92,1.69-17.85c0.54-4.03,1.23-8.03,1.92-12.04c0.15-1.59-0.43-3.07-0.73-4.58c-0.8-4.14-1.76-8.25-2.66-12.37
		c-0.03-0.16-0.14-0.3-0.21-0.45c-1.55,3.87-2.74,7.87-3.95,11.86c-0.09,0.3-0.18,0.6-0.27,0.9
		C219.01,350.93,218.89,351.18,218.8,351.45z"/>
	<path class="st25" d="M247.15,298.77c0.3,0.11,0.61,0.21,0.94,0.33c-0.1-0.63-0.19-1.24-0.29-1.85c-1.45-4.4-3.19-8.68-5.21-12.85
		c-4.17-8.6-7.58-17.5-11.04-26.39c-1.76-4.51-3.43-9.04-5.14-13.57c-0.1-0.26-0.24-0.5-0.35-0.75c-0.28,0.15-0.22,0.45-0.31,0.68
		c-0.04,0.15-0.04,0.31,0.04,0.45c0.51,10.63,2.78,20.86,6.83,30.7c1.09,2.64,2.19,5.27,3.29,7.89c0.06,0.14,0.12,0.24-0.04,0.33
		c3.45,3.95,6.82,7.96,9.61,12.41C246.02,297.04,246.44,298,247.15,298.77z"/>
	<path class="st26" d="M229.13,329.09c-0.2,1.14,0.28,2.19,0.5,3.25c1.27,5.96,2.27,11.96,3.1,17.99c0.02,0.12,0.14,0.23,0.21,0.34
		c0.28-2.32,0.18-4.65,0.29-6.98c0.49-10.08,0.94-20.15,1.4-30.23c0.01-0.51,0.32-1.07-0.23-1.5
		C232.25,317.55,230.5,323.26,229.13,329.09z"/>
	<path class="st24" d="M227.11,328.51c0.1,1.19,0.72,2.22,1.09,3.32c0.7,2.09,1.42,4.17,2.16,6.24c0.11,0.32,0.33,0.6,0.5,0.9
		c1.27-4.19,2.53-8.38,4.04-12.5c0.04-1.22-0.43-2.35-0.68-3.51c-0.35-1.61-0.81-3.2-1.2-4.8c-0.08-0.31-0.12-0.61-0.46-0.75
		C230.5,321,228.72,324.71,227.11,328.51z"/>
	<path class="st27" d="M239.67,305.91c0.46,1.14,0.94,2.27,1.39,3.41c0.11,0.27,0.26,0.26,0.48,0.16c1.64-3.86,3.27-7.72,4.91-11.57
		c-0.08-0.05-0.17-0.1-0.25-0.14C243.83,300.32,241.71,303.08,239.67,305.91z"/>
	<path class="st28" d="M244.23,308.39c0.69-0.54,1.05-1.27,1.25-2.1c-1.31-3.27-2.6-6.56-4.38-9.62c0,0.17-0.06,0.35-0.01,0.51
		C242.31,300.88,243.31,304.63,244.23,308.39z"/>
	<path class="st29" d="M220.7,196.09c0.26-0.09,0.52-0.18,0.77-0.27c-1.05-1.16-2.32-2.06-3.5-3.08c-0.08,0.07-0.16,0.14-0.24,0.21
		C218.73,194,219.72,195.05,220.7,196.09z"/>
	<path class="st30" d="M214.39,345.49c0.59-1.06-0.22-2.08-0.18-3.13c-0.02,0.37-0.04,0.73-0.07,1.1
		C214.16,344.14,214.19,344.82,214.39,345.49z"/>
	<path class="st31" d="M234.41,311.96c0.41,0.45,0.03,1.02,0.23,1.5c0.23-0.7,0.14-1.42,0.2-2.23
		C234.49,311.46,234.42,311.69,234.41,311.96z"/>
	<path class="st32" d="M225.79,244.83c0.03-0.16,0.05-0.32,0.08-0.48c0.13-0.32-0.05-0.68,0.13-0.99c0.01-0.22-0.06-0.39-0.39-0.55
		C225.64,243.53,225.56,244.18,225.79,244.83z"/>
	<path class="st12" d="M234.36,362.54c0-0.34,0-0.69,0-1.03c-0.12-0.2-0.23-0.41-0.35-0.61
		C233.97,361.48,233.95,362.06,234.36,362.54z"/>
	<path class="st29" d="M221.7,196.03c-0.22,0.13-0.3,0.29-0.09,0.49c0.21,0.2,0.37,0.1,0.48-0.12
		C221.96,196.27,221.83,196.15,221.7,196.03z"/>
	<path class="st21" d="M252.57,281.9c-0.01-0.44,0.17-0.91-0.16-1.32C252.39,281.03,252.35,281.48,252.57,281.9z"/>
	<path class="st33" d="M214.81,349.04c0.3-0.33,0.23-0.68,0.07-1.21c-0.05,0.39-0.08,0.62-0.11,0.85
		C214.79,348.8,214.8,348.92,214.81,349.04z"/>
	<path class="st34" d="M218.8,351.45c0.26-0.19,0.38-0.44,0.34-0.77c-0.11,0.07-0.23,0.13-0.34,0.2
		C218.8,351.07,218.8,351.26,218.8,351.45z"/>
	<path class="st35" d="M225.99,243.36c-0.29,0.3-0.13,0.65-0.13,0.99c0.21-0.17,0.13-0.43,0.19-0.65
		C226.03,243.58,226.01,243.47,225.99,243.36z"/>
	<path class="st36" d="M284.99,387.94c0.46,0.13,0.53,0.44,0.48,0.88c-0.16,1.42-0.28,2.84-0.44,4.26
		c-0.06,0.57-0.05,0.92,0.71,0.87c3.44-0.23,6.88-0.43,10.32-0.62c0.5-0.03,0.68-0.22,0.66-0.7c-0.02-0.52,0.02-1.04,0.03-1.57
		c0.08-0.11,0.14-0.22,0.2-0.34c0.19-0.89,0.31-1.78,0.32-2.69c0.06-3.55,0.38-7.09,0.57-10.63c0.15-2.92,0.3-5.84,0.52-8.75
		c0.54-7.37,0.73-14.74,0.56-22.12c-0.15-6.27-0.72-12.51-1.91-18.68c-0.56-3.04-1.17-6.08-1.92-9.08
		c-1.01-4.06-2.19-8.06-3.51-12.03c-1.28-3.82-2.74-7.56-4.16-11.33c-0.27-0.73-0.41-1.56-1.14-2.05c-1.1-2.76-2.21-5.52-3.31-8.28
		c-0.18-0.45-0.31-0.91-0.47-1.37c-0.99-3.27-2.53-6.32-3.92-9.43c-1.5-3.37-3.12-6.69-4.68-10.04c-0.04-0.1-0.12-0.17-0.21-0.23
		c-0.51,0.04-0.48-0.43-0.62-0.7c-2.73-5.33-5.55-10.61-8.82-15.64c-0.83-1.28-1.74-2.52-2.64-3.76c-0.19-0.26-0.31-0.63-0.89-0.71
		c4.63,10.54,8.6,21.21,11.93,32.12c0,1.74,0.73,3.32,1.2,4.95c2.49,8.63,4.63,17.34,6.35,26.15c0.49,2.53,0.93,5.06,1.48,7.58
		c1.23,8.34,2.42,16.69,3.15,25.09c0.31,3.54,0.53,7.08,0.72,10.63c0.22,4.28,0.22,8.57,0.45,12.84c0.26,4.75-0.14,9.47-0.13,14.2
		c0.01,3.29-0.18,6.61-0.55,9.9C285.28,387.09,285.12,387.51,284.99,387.94z"/>
	<path class="st37" d="M263.04,283.92c-1.15-3.7-2.52-7.31-4.06-10.87c-0.26,1.65,0.05,3.28,0.17,4.89c0.1,1.3,0.21,2.63,0.28,3.93
		c0.17,3.05,0.37,6.09,0.54,9.14c0.15,2.62,0.21,5.26,0.54,7.87c0.09,0.68,0.07,1.39-0.14,2.07c0.05,1.52,0.04,3.04,0.07,4.56
		c0.01,0.45-0.13,1,0.46,1.26c0.32-0.5,0.06-1.06,0.14-1.49c0.11,0.78-0.01,1.61-0.33,2.42c-0.23,1.67,0.1,3.32,0.1,4.98
		c0,3.36,0.39,6.71,0.28,10.08c-0.01,0.21,0.01,0.42,0.05,0.62c0.33,1.51,0.08,3.05,0.16,4.57c0.02,0.44-0.02,0.88-0.13,1.32
		c0.25,2.95-0.07,5.92,0.21,8.88c0.07,0.69,0.18,1.38,0.41,2.04c0.14,3.43,0.25,6.86,0.44,10.29c0.16,3.07,0.4,6.15,0.62,9.22
		c0.28,3.93,0.65,7.86,0.87,11.8c0.18,3.35,0.48,6.7,0.88,10.02c0.45,3.77,0.48,7.59,1.23,11.32c0.05,0.27-0.1,0.28-0.29,0.28
		c-2.61-0.18-5.22-0.02-7.82-0.08c-1.28-0.03-2.57,0.12-3.85-0.09c0-0.08,0-0.16,0-0.24c0.15-1.38,0.12-2.75,0.01-4.13
		c-0.04-0.23,0.03-0.52-0.28-0.63c0.22,1.52,0.06,3.05,0.05,4.58c0,0.65,0.19,0.82,0.83,0.82c3.37-0.03,6.74-0.02,10.11,0
		c0.47,0,1.05-0.23,1.29,0.5c0.08,0.23,0.44,0.14,0.67,0.14c1.56,0,3.13-0.03,4.69,0.01c0.61,0.02,0.89-0.14,0.9-0.79
		c0.01-0.73,0.08-1.46,0.14-2.18c0.03-0.32-0.11-0.73,0.38-0.85c0.22-1.9,0.22-3.82,0.3-5.73c0.36-9.33,0.37-18.67,0.2-28
		c-0.1-5.39-0.43-10.78-0.74-16.16c-0.42-7.16-1.08-14.3-1.94-21.42c-0.26-2.11-0.54-4.21-0.86-6.32c-0.16-1.03-0.39-2.06-0.26-3.11
		c0.04-0.31,0.01-0.63-0.28-0.85c-0.05,0.09-0.07,0.24-0.15,0.27c-0.4,0.18-0.23-0.2-0.25-0.31c-0.34-1.78-0.65-3.56-0.98-5.33
		C266.52,296.67,264.96,290.25,263.04,283.92z"/>
	<path class="st24" d="M269.08,308.55c-0.18,3.87,0.91,7.59,1.24,11.4c0.26,3,0.73,5.98,0.91,8.99c0.19,3.04,0.54,6.07,0.79,9.11
		c0.1,1.24,0.09,2.49,0.2,3.74c0.19,2.25,0.11,4.52,0.26,6.77c0.64,9.49,0.39,19,0.37,28.5c-0.01,4.09-0.31,8.19-0.48,12.28
		c-0.01,0.32-0.02,0.62,0.29,0.81c2.32,0.24,4.63,0.46,6.94,0.75c0.71,0.09,0.84-0.12,0.76-0.76c-0.09-0.69-0.07-1.39-0.13-2.08
		c-0.04-0.46,0.16-0.63,0.58-0.63c-0.26-0.88-0.29-1.77-0.29-2.68c0.01-4.11-0.04-8.23,0.02-12.34c0.07-4.77,0.14-9.55,0.24-14.32
		c0.11-5.5,0.27-11,0.41-16.5c0.12-4.8,0.23-9.61,0.45-14.41c0.13-2.96-0.05-5.92,0.33-8.87c0.19-1.49-0.17-2.99-0.1-4.49
		c-0.43-2.38-0.85-4.76-1.31-7.14c-1.23-6.36-2.69-12.66-4.34-18.92c-0.97-3.69-1.97-7.37-3.15-10.99
		c-0.16-0.49-0.05-1.05-0.44-1.46c0,0,0,0.01,0,0.01c-0.19,0.33,0.02,0.72-0.16,1.06c-0.15,1.51-0.29,3.01-0.47,4.52
		c-0.03,0.24,0.19,0.69-0.37,0.66c-0.07,1.41-0.33,2.82-0.23,4.24c-0.03,2.79-0.47,5.55-0.75,8.32
		C270.17,298.93,269.62,303.74,269.08,308.55z"/>
	<path class="st38" d="M298.85,383.93c0,0.09,0.01,0.17,0.01,0.26c1.94,0,3.87,0,5.81,0.01c0.32-0.24,0.3-0.61,0.32-0.95
		c0.43-7.84,1.6-15.59,3.21-23.26c1.74-8.33,3.86-16.56,6.63-24.61c1.22-3.55,2.45-7.11,4.18-10.47c0.13-0.25,0.26-0.5,0.11-0.79
		c-0.19-0.15-0.24-0.35-0.11-0.55c1.12-1.66,1.8-3.53,2.64-5.33c0.12-1.5,0.67-2.91,1.05-4.35c4.52-17.02,9.02-34.04,13.6-51.04
		c2.04-7.56,4.11-15.11,6.81-22.47c0.03-0.09,0-0.19,0-0.61c-0.42,0.74-0.7,1.24-0.98,1.74c-6.11,11.11-11.78,22.44-16.92,34.04
		c-3.12,7.04-5.99,14.17-8.55,21.44c-0.09,0.25,0,0.68-0.46,0.66c-0.07,0-0.12-0.23-0.18-0.36c-0.12,0.08-0.23,0.19-0.23,0.33
		c-0.08,2.56-1.28,4.83-1.95,7.24c-1.51,5.41-2.72,10.88-3.8,16.39c-1.44,7.36-2.49,14.78-3.47,22.2
		c-0.75,5.66-1.26,11.35-1.79,17.04c-0.41,4.44-0.74,8.88-1.06,13.32c-0.21,2.91-0.3,5.83-0.46,8.74c-0.09,0.31-0.08,0.65-0.29,0.92
		c-0.67,0.39-1.4,0.13-2.1,0.19c-0.57,0.05-1.16-0.06-1.73,0.09C299.04,383.79,298.94,383.85,298.85,383.93z"/>
	<path class="st22" d="M303.47,382.69c0.24-0.22,0.2-0.51,0.19-0.78c-0.11-4.31,0.43-8.59,0.67-12.88
		c0.25-4.52,0.78-9.03,1.23-13.53c0.39-3.89,0.74-7.78,1.27-11.65c0.49-3.56,0.95-7.12,1.55-10.67c0.54-3.2,0.95-6.43,1.56-9.62
		c0.49-2.58,1-5.16,1.53-7.73c0.84-4.11,1.89-8.16,3.06-12.19c0.21-0.73,0.4-1.47,0.68-2.18c0.53-1.36,1.04-2.7,0.83-4.2
		c-0.4-4.97-1.16-9.89-2-14.8c-1.89-11.03-4.47-21.9-7.93-32.55c-0.09-0.29-0.11-0.61-0.17-0.92c-0.09-1.08-0.59-2.04-0.92-3.05
		c-0.64-1.9-1.28-3.8-2.05-5.65c-0.14-0.35-0.22-0.74-0.58-0.95c-1.58-3.56-3.02-7.17-4.77-10.65c-1.55-3.08-3.21-6.1-5.09-8.99
		c-0.17-0.27-0.25-0.67-0.68-0.71c-0.24,0.34,0.02,0.62,0.11,0.89c3.24,9.56,5.84,19.3,8.07,29.14c0.09,0.4,0.07,0.83,0.11,1.24
		c0.52,3.69,1.42,7.3,2.05,10.97c0.25,1.47,0.51,2.95,0.69,4.43c0.21,0.43,0.33,0.88,0.29,1.36c0.62,4.42,1.27,8.83,1.71,13.27
		c0.43,4.3,0.75,8.6,1,12.91c0.29,4.91,0.14,9.82,0.15,14.73c0.01,3.48-0.37,6.95-0.54,10.42c-0.14,2.92-0.45,5.83-0.46,8.76
		c0,0.85-0.08,1.67-0.35,2.46c-0.23,1.21,0.08,2.41-0.02,3.64c-0.14,1.8-0.24,3.61-0.3,5.42c-0.12,4.17-0.37,8.34-0.58,12.51
		c-0.08,1.63-0.2,3.27-0.2,4.9c-0.02,3.97-0.21,7.93-0.31,11.9c-0.11,4.39-0.14,8.77-0.15,13.15
		C303.12,381.65,303.01,382.24,303.47,382.69z"/>
	<path class="st23" d="M300.27,246.23c1.23,3.2,2.17,6.51,3.55,9.65c1.18-5.37,2.36-10.74,3.78-16.05
		c3.45-12.89,7.46-25.59,12.97-37.77c0.76-1.68,1.55-3.35,2.62-4.87c0.65-0.92,0.94-0.94,1.69-0.11c1.15,1.28,1.93,2.81,2.72,4.32
		c1.96,3.73,3.63,7.6,5.29,11.47c0.56,1.3,1.14,2.6,1.72,3.9c0.48-0.09,0.28-0.39,0.21-0.66c-0.32-1.77-1.08-3.4-1.67-5.09
		c-1.57-4.46-3.25-8.89-5.45-13.09c-0.73-1.39-1.48-2.77-2.67-3.83c-1.44-1.29-2.77-1.35-4.32-0.14c-1.56,1.22-2.65,2.85-3.63,4.55
		c-2.99,5.17-5.15,10.72-7.15,16.33c-3.63,10.19-6.89,20.5-9.51,31.01C300.38,245.97,300.32,246.1,300.27,246.23z"/>
	<path class="st23" d="M300.93,272.65c0.19-1.33-0.22-2.59-0.45-3.86c-0.65-3.53-1.38-7.05-2.07-10.57
		c-0.07-0.37-0.14-0.75-0.38-1.06c-1.11,5.41-1.96,10.87-2.75,16.34c-0.47,3.23-0.87,6.47-1.32,9.71c-0.04,0.31,0.05,0.72-0.35,0.91
		c-0.36,1.9-0.49,3.84-0.71,5.76c-0.43,3.72-0.94,7.44-1.19,11.17c-0.12,1.9-0.7,3.76-0.41,5.68c1.4,4.49,2.8,8.98,3.84,13.57
		c0.56,2.45,1.06,4.91,1.58,7.37c0.26-0.23,0.31-0.54,0.31-0.86c-0.02-2.93,0.32-5.84,0.46-8.76c0.14-2.96,0.29-5.91,0.48-8.86
		c0.11-1.72,0.52-3.45,0.17-5.19c-0.5-0.43-0.07-1.09-0.35-1.57c0.26,0.43-0.07,0.97,0.22,1.39c0.13,0.05,0.24,0.01,0.31-0.11
		c0.39-1.46,0.24-2.97,0.36-4.45c0.63-7.91,1.28-15.81,2.28-23.68c0.09-0.72,0.13-1.45,0.16-2.18
		C301.12,273.12,301.07,272.87,300.93,272.65z"/>
	<path class="st24" d="M273.69,264.01c0,0.46,0.13,0.88,0.33,1.29c2.94,5.9,5.63,11.91,8.18,17.99c0.06,0.15,0.19,0.28,0.29,0.42
		c0.9-18.44-0.2-36.66-5.84-54.41c-0.27,3.21-0.54,6.42-0.83,9.63c-0.68,7.77-1.37,15.54-2.05,23.31
		C273.73,262.82,273.72,263.42,273.69,264.01z"/>
	<path class="st39" d="M291.3,306.72c0.21-1.38,0.51-2.75,0.6-4.13c0.27-3.96,0.73-7.89,1.24-11.82c0.24-1.84,0.45-3.69,0.63-5.54
		c0.04-0.36-0.11-0.74-0.17-1.12c-1.09-4.43-2.57-8.75-4.12-13.03c-0.74-2.03-1.54-4.03-2.32-6.03c-0.4,0.1-0.25,0.36-0.25,0.52
		c-0.21,8.95-0.37,17.91-0.42,26.86c0,0.31,0.2,0.71-0.22,0.93C288.09,297.75,289.69,302.24,291.3,306.72z"/>
	<path class="st40" d="M271.43,285.8c0.27-1.4,0.7-2.8,0.23-4.24c-0.95-1.79-2.12-3.42-3.49-4.93
		C269.31,279.68,270.36,282.75,271.43,285.8z"/>
	<path class="st41" d="M334.82,216.11c-0.03,0.23,0.03,0.5-0.21,0.66c0.14,0.82,0.55,1.54,0.85,2.29c0.21,0.03,0.32-0.04,0.25-0.27
		C335.47,217.88,335.22,216.97,334.82,216.11z"/>
	<path class="st42" d="M335.7,218.79c-0.08,0.09-0.17,0.18-0.25,0.27c0.08,0.29,0.1,0.6,0.45,0.86
		C336.12,219.45,335.87,219.13,335.7,218.79z"/>
	<path class="st43" d="M341.84,245.36c-0.29,0.03-0.41,0.25-0.31,0.4c0.19,0.3,0.2-0.06,0.27-0.13
		C341.84,245.58,341.83,245.47,341.84,245.36z"/>
	<path class="st44" d="M336.48,221.99c0.09,0.17,0.18,0.33,0.29,0.55c0.21-0.34,0.13-0.56-0.06-0.77
		C336.57,221.78,336.55,221.91,336.48,221.99z"/>
	<path class="st45" d="M336.48,221.99c0.08-0.07,0.15-0.15,0.23-0.22c-0.04-0.14-0.03-0.41-0.23-0.33
		C336.13,221.58,336.47,221.8,336.48,221.99z"/>
	<path class="st36" d="M272.5,276.38c0.28-0.32,0.16-0.7,0.16-1.06C272.44,275.65,272.47,276.02,272.5,276.38z"/>
	<path class="st21" d="M217.32,376.46c0.04-1.85-0.71-3.52-1.19-5.25c-1.72-6.28-4.04-12.33-7.14-18.07c-2.16-4-4.72-7.75-7.69-11.2
		c-0.22-0.26-0.49-0.47-0.86-0.83c-0.05,0.53-0.08,0.92-0.11,1.31c0.38,4.78,0.79,9.56,1.14,14.34c0.43,5.79,0.81,11.58,1.2,17.37
		c0.11,1.66,0.16,3.33,0.24,5c0.22,0.7-0.04,1.43,0.15,2.13c0.02,0.41,0.05,0.82,0.07,1.23c0.03,0.07,0.09,0.11,0.16,0.1
		c0.08,0.6-0.05,1.17-0.2,1.74c-0.04,0.16-0.06,0.33-0.07,0.49c0.24,2.77,0.8,5.5,1.15,8.25c0.46,3.65,0.93,7.3,1.14,10.98
		c0.09,1.51,0.29,1.77,1.39,1.74c2.78-0.14,5.57-0.02,8.35-0.06c0.59-0.01,1.18,0.05,1.77-0.05c0.44-0.2,0.53-0.61,0.58-1.04
		c0.4-3.63,0.88-7.24,1.28-10.87c0.11-0.96,0.56-1.89,0.27-2.88c-0.29-0.43-0.28-0.91-0.28-1.4c0.04-3.33-0.37-6.63-0.68-9.94
		C217.62,378.55,217.79,377.44,217.32,376.46z"/>
	<path class="st25" d="M319.12,324.1c-2.84,5.48-4.7,11.33-6.48,17.21c-1.53,5.04-2.84,10.14-4,15.28c-1.11,4.89-2,9.82-2.72,14.79
		c-0.61,4.25-1.06,8.51-1.25,12.81c-0.15,2.35-0.12,4.69,0.01,7.04c3.16,0,6.32,0,9.47,0c0-0.46,0-0.93,0-1.39
		c0.94-2.3,0.41-4.74,0.64-7.1c0.26-2.76,0.33-5.55,0.68-8.31c-0.05-2.76,0.48-5.47,0.73-8.2c0.45-4.82,1.44-9.56,2.09-14.35
		c0.09-0.34-0.22-0.67-0.01-1.01c2.65-13.5,6.59-26.55,13.52-38.54c0.47-0.81,0.95-1.62,1.43-2.43c-3.03-0.05-5.17,1.63-7.01,3.73
		C323.42,316.82,321.27,320.46,319.12,324.1z"/>
	<path class="st46" d="M206.68,405.7c-0.61,0.15-0.9-0.1-0.95-0.72c-0.1-1.21-0.24-2.41-0.33-3.61c-0.34-4.28-0.92-8.52-1.57-12.76
		c-0.2-1.33-0.37-2.67-0.55-4c-0.25-0.39,0-0.93-0.38-1.28c-0.75-4.59-1.88-9.09-3.15-13.55c-2.25-7.93-5.17-15.58-9.54-22.62
		c-1.3-2.1-2.73-4.1-4.37-5.99c-0.28,0.41-0.03,0.71,0.08,1c2.63,7.02,4.07,14.3,4.85,21.73c0.7,6.71,1.85,13.36,2.99,20.01
		c0.11,0.65,0.22,1.3,0.34,1.95c0.25,0.45-0.25,0.82-0.12,1.26c0.88,3.51,1.39,7.1,2.09,10.65c0.64,3.28,1.21,6.57,1.97,9.82
		c0.17,0.75,0.26,1.51,0.38,2.26c0.1,0.61,0.06,1.26,0.46,1.8c0.12,0.04,0.24,0.06,0.37,0.05c2.04-0.01,4.08,0.01,6.12,0
		c-2.09,0-4.18,0.01-6.27,0c-0.54-0.15-1.08-0.2-1.64-0.2c-2.85,0.01-5.7,0.01-8.55,0c-0.41,0-0.84,0.09-1.19-0.22
		c-0.28-0.32-0.19-0.71-0.25-1.08c-0.05-0.34,0.07-0.79-0.46-0.9c-0.05,2.68-0.05,2.68,2.61,2.68c5.08,0,10.17-0.03,15.25,0.02
		c1,0.01,1.25-0.3,1.17-1.23c-0.12-1.38-0.15-2.78-0.22-4.17c-0.02-0.36-0.06-0.71,0.48-0.7c3.58,0.04,7.17-0.11,10.75,0.08
		c0.1-0.13,0.08-0.24-0.06-0.33C213.56,405.65,210.12,405.57,206.68,405.7z"/>
	<path class="st47" d="M281.88,313.82c-0.22,0.17-0.22,0.42-0.21,0.67c0.14,2.75-0.24,5.48-0.22,8.23
		c0.02,3.37-0.16,6.74-0.26,10.11c-0.06,2.15,0.04,4.31-0.17,6.45c-0.28,2.85,0.03,5.71-0.22,8.54c-0.24,2.75,0.03,5.5-0.2,8.23
		c-0.32,3.79,0.02,7.58-0.21,11.36c-0.37,6.26-0.06,12.52-0.19,18.78c-0.01,0.55,0.01,1.03,0.63,1.24c1.39,0.17,2.78,0.34,4.16,0.51
		c0.45-0.03,0.64-0.23,0.67-0.73c0.1-1.8,0.3-3.59,0.38-5.4c0.12-2.57,0.2-5.14,0.22-7.71c0.02-2.57,0.22-5.15,0.16-7.72
		c-0.07-3.48-0.07-6.96-0.19-10.43c-0.13-3.81-0.33-7.63-0.62-11.44c-0.42-5.35-0.93-10.7-1.61-16.03
		c-0.55-4.37-1.11-8.73-1.9-13.06C282.01,314.9,282.28,314.31,281.88,313.82z"/>
	<path class="st19" d="M187.01,409.3c0.39,0.74,0.05,1.54,0.21,2.3c1.1,0.2,2.2,0.07,3.3,0.08c2.45,0.02,4.91,0.01,7.36,0
		c0.34,0,0.69,0.09,1.02-0.1c-0.08-1.49-0.38-2.94-0.64-4.41c-0.43-2.42-1.11-4.78-1.46-7.21c-0.34-2.35-0.96-4.66-1.33-7.01
		c-0.28-1.76-0.68-3.5-1-5.26c-0.06-0.34-0.31-0.53-0.36-0.84c0.18-0.28-0.02-0.45-0.17-0.63c-2.41-5.82-5.28-11.39-9.14-16.62
		c-0.27,0.88,0.04,1.5,0.16,2.11c1.94,9.76,3.86,19.53,5.3,29.38c0.06,0.41,0.06,0.83,0.09,1.25c0.23,0.6-0.04,1.2,0.04,1.8
		c-0.02,0.14-0.17-0.05-0.04-0.01c0.06,0.02,0.08-0.01,0.07-0.07c-0.02-0.25-0.1-0.47-0.28-0.66c-1.61-4.49-3.31-8.94-5.64-13.11
		c-0.92-1.64-1.93-3.23-3.17-4.64c-0.19-0.05-0.29,0-0.22,0.22c2.39,6.08,4.35,12.29,5.34,18.77
		C186.68,406.2,186.82,407.75,187.01,409.3z"/>
	<path class="st48" d="M236.07,388.3c-0.08-0.07-0.15-0.13-0.23-0.2c-0.95,0.32-0.43,1.05-0.32,1.53c0.19,0.83,0.11,1.07-0.81,0.87
		c-0.78-0.17-1.61-0.27-2.4,0.09c0.25,0.02,0.5,0.03,0.75,0.05c0.5,0.2,1.04-0.05,1.54,0.16c0.24,0.04,0.49,0.03,0.72,0.12
		c0.7,0.27,0.8-0.1,0.73-0.65c-0.01-0.1-0.07-0.2-0.09-0.3c-0.21-1.39-0.16-1.45,1.27-1.45c1.88,0,3.76,0.03,5.63-0.02
		c0.69-0.02,0.92,0.21,0.91,0.88c-0.02,1.08,0.04,2.16,0.03,3.23c0,0.46,0.1,0.68,0.62,0.73c1.8,0.16,3.6,0.36,5.39,0.58
		c0.59,0.07,0.71-0.18,0.7-0.7c-0.02-1.84,0-3.68,0-5.53c0.37-1.3,0.15-2.63,0.06-3.93c-0.25-3.61-0.58-7.22-0.95-10.82
		c-0.46-4.51-1.07-9-1.64-13.49c-0.06-0.49-0.06-0.97-0.1-1.46c-0.03-0.42-0.04-0.85-0.51-1.06c-0.27-1.59-0.56-3.18-0.82-4.77
		c-0.5-3.11-0.98-6.22-1.48-9.33c-0.71-4.37-1.49-8.73-2.5-13.05c-0.05-0.2-0.06-0.41-0.33-0.58c-0.2,0.97,0.12,1.87,0.1,2.77
		c-0.12,4.7,0.17,9.39,0.29,14.08c0.07,2.81-0.05,5.64,0.19,8.44c0.22,2.58-0.01,5.15,0.2,7.71c0.26,3.03-0.01,6.06,0.22,9.07
		c0.19,2.4-0.05,4.81,0.2,7.19c0.34,3.23-0.06,6.46,0.28,9.68c0,0.04-0.08,0.1-0.13,0.15C241.08,388.16,238.58,388.14,236.07,388.3z
		"/>
	<path class="st25" d="M247.36,356.93c0.43,1.06,0.21,2.19,0.38,3.29c0.57,3.79,1.03,7.61,1.46,11.42c0.29,2.55,0.47,5.1,0.67,7.66
		c0.22,2.8,0.42,5.59,0.63,8.39c1.03,0.08,2.07,0.16,3.1,0.24c0.25-0.37,0.24-0.79,0.24-1.21c0-3.59,0.15-7.18-0.04-10.76
		c-0.29-5.5,0.05-11-0.22-16.49c-0.14-2.82-0.02-5.63-0.18-8.44c-0.22-3.95-0.24-7.91-0.44-11.86c-0.13-2.59-0.14-5.2-0.58-7.76
		c-0.27-0.39,0.05-0.87-0.21-1.26c0,0,0,0,0,0c-0.28,1.29-0.53,2.59-0.84,3.87c-0.32,1.32-0.66,2.65-0.89,3.97
		c-0.26,1.47-0.56,2.94-0.79,4.42c-0.17,1.08-0.36,2.17-0.69,3.22c-0.24,0.77-0.26,1.62-0.29,2.41c-0.07,1.74-0.46,3.4-0.77,5.1
		C247.67,354.39,247.44,355.66,247.36,356.93z"/>
	<path class="st24" d="M217.1,405.74c-0.01,0.08-0.03,0.16-0.04,0.24c0,0.11,0.01,0.21,0.01,0.32c0.08,1.52,0.08,1.52,1.63,1.52
		c0.45,0,0.91,0,1.36,0c2.14,0,2.16,0,1.83-2.16c-0.51-3.32-0.57-6.69-1.06-10c-0.43-2.92-0.5-5.91-1.43-8.76
		c-0.88,1.22-0.91,2.57-0.63,3.97c-0.29,2.29-0.59,4.58-0.86,6.87c-0.28,2.32-0.54,4.65-0.81,6.98c-0.03,0.27-0.13,0.53-0.2,0.8
		C216.91,405.65,217.03,405.67,217.1,405.74z"/>
	<path class="st49" d="M240.9,403.2c-1.59,0-3.18,0-4.77,0c0,0.07,0,0.14,0,0.2c1.58,0,3.17,0,4.75,0
		C240.89,403.34,240.89,403.27,240.9,403.2z"/>
	<path class="st50" d="M202.9,383.32c-0.06,0.48-0.02,0.93,0.38,1.28c0.02-0.14,0.03-0.29,0.05-0.43c0.08-0.54,0.17-1.08-0.06-1.62
		c-0.05-0.02-0.1-0.04-0.15-0.06C202.98,382.75,203.2,383.11,202.9,383.32z"/>
	<path class="st51" d="M242.83,400.68c0.29-0.91,0.36-1.82-0.04-2.72C242.81,398.87,242.82,399.77,242.83,400.68z"/>
	<path class="st52" d="M190.14,403.42c0.08,0.28,0.15,0.57,0.23,0.85c0.16-0.66,0.23-1.29-0.03-1.92
		C190.24,402.71,190.47,403.12,190.14,403.42z"/>
	<path class="st53" d="M203.05,381.26c0.03-0.72,0.09-1.43-0.15-2.13C202.89,379.85,202.72,380.57,203.05,381.26z"/>
	<path class="st19" d="M234.59,390.8c-0.48-0.36-1.02-0.13-1.54-0.16C233.55,390.86,234.07,390.8,234.59,390.8z"/>
	<path class="st54" d="M241.78,378.09c0.31-0.26,0.17-0.61,0.18-0.93c0-0.14-0.1-0.13-0.17-0.04c-0.04,0.05-0.04,0.12-0.06,0.19
		C241.75,377.57,241.77,377.83,241.78,378.09z"/>
	<path class="st55" d="M193.93,386.24c0.06,0.21,0.12,0.42,0.17,0.63c0.36-0.34,0.2-0.68,0-1.02
		C194.05,385.98,193.99,386.11,193.93,386.24z"/>
	<path class="st56" d="M181.1,385.88c0.07-0.07,0.15-0.15,0.22-0.22c-0.08-0.19-0.25-0.48-0.4-0.36
		C180.67,385.5,180.94,385.71,181.1,385.88z"/>
	<path class="st57" d="M318.07,351.73c-0.75,4.66-1.64,9.3-2.1,14.01c-0.28,2.86-0.78,5.69-0.81,8.58c0.55-0.03,0.49-0.52,0.59-0.84
		c0.96-3.12,1.82-6.27,3.13-9.28c1.56-3.58,3.37-7.01,5.6-10.23c1.09-1.57,2.25-3.1,3.3-4.69c0.24-0.42,0.45-0.85,0.69-1.27
		c0.26-0.51,0.58-0.99,0.68-1.56c1.75-3.3,3.79-6.41,5.85-9.51c3.25-4.91,6.55-9.78,9.81-14.68c0.37-0.56,1.13-1.43,0.74-1.78
		c-0.6-0.55-1.27,0.36-1.85,0.73c-9.07,5.86-15.83,13.86-21.23,23.09c-1.35,2.31-2.66,4.66-3.99,6.98
		C318.31,351.39,318.21,351.57,318.07,351.73z"/>
	<path class="st58" d="M327.74,349.2c-0.1-0.02-0.28-0.07-0.29-0.04c-1.19,2.18-2.84,4.05-4.17,6.14c-1.47,2.31-2.72,4.72-3.92,7.17
		c-1.78,3.64-2.84,7.53-3.98,11.39c-0.05,0.16-0.14,0.3-0.21,0.45c-0.58,4.65-0.84,9.31-0.84,13.99c0,0.52-0.35,1-0.17,1.53
		c0.1-0.51,0.3-0.82,0.93-0.86c1.58-0.09,3.15-0.36,4.73-0.4c0.98-0.03,1.41-0.3,1.19-1.31c-0.03-0.13,0.01-0.27,0.01-0.41
		c0.14-0.16,0.26-0.34,0.25-0.56c-0.06-1.27-0.16-2.55-0.19-3.82c0-0.17-0.13-0.32-0.27-0.43c0.12-6.65,0.67-13.25,2.28-19.74
		c1.17-4.71,2.79-9.24,5.35-13.4c0.12-0.19,0.35-0.38,0.13-0.64C328.03,348.33,327.91,348.79,327.74,349.2z"/>
	<path class="st46" d="M320.82,382.05c0.07,1.6,0.14,3.2,0.2,4.81c1.56,0.14,3.12,0.28,4.67,0.41c0.45,0.04,0.83,0.11,1.02-0.54
		c3.05-10.46,6.95-20.63,10.76-30.82c0.03-0.09,0.04-0.19,0.07-0.34c-0.32-0.02-0.42,0.22-0.54,0.39
		c-5.33,7.24-10.37,14.66-14.47,22.68C321.95,379.77,321.63,381.04,320.82,382.05z"/>
	<path class="st46" d="M336.06,393.12c0.55-2.11,0.98-4.25,1.88-6.26c1.89-4.25,4.76-7.64,8.8-9.99c0.05-0.03,0.07-0.12,0.1-0.18
		c-4.95,0.38-12.15,6.26-15.39,14.95c0.01,0.05,0.03,0.11,0.04,0.16c0.34,0.56,0.87,0.75,1.5,0.75c0.66,0,1.32,0.01,1.98,0
		c0.41-0.01,0.75,0.08,0.96,0.47C335.97,393.06,336.02,393.09,336.06,393.12z"/>
	<path class="st46" d="M331.45,391.65c-0.85,1.65-0.85,1.69,0.94,1.64c1.22-0.04,2.46,0.23,3.67-0.16c0,0-0.03-0.03-0.03-0.03
		c-1.33-0.51-2.7-0.16-4.05-0.22c-0.14-0.01,0.03,0.03-0.1,0c-0.05-0.01-0.03-0.11,0.03-0.18c0.04-0.08,0.07-0.16,0.09-0.24
		c0.06-0.42-0.4-0.48-0.52-0.76L331.45,391.65z"/>
	<path class="st59" d="M327.04,353.32c-0.4,0.42-0.62,0.94-0.85,1.45c-0.05,0.26,0.06,0.35,0.31,0.27c0.05-0.06,0.1-0.13,0.15-0.19
		c0.2-0.18,0.44-0.32,0.56-0.56c0.14-0.22,0.4-0.39,0.28-0.71C327.43,353.36,327.08,353.59,327.04,353.32z"/>
	<path class="st60" d="M326.49,355.05c-0.1-0.09-0.21-0.18-0.31-0.27c-0.26,0.4-0.65,0.75-0.56,1.3c0.28-0.31,0.56-0.62,0.85-0.93
		C326.47,355.15,326.49,355.05,326.49,355.05z"/>
	<path class="st61" d="M327.48,353.6c-0.13,0.21-0.27,0.43-0.4,0.64c0.04,0.09,0.11,0.15,0.2,0.19
		C327.58,354.2,327.9,353.99,327.48,353.6z"/>
	<path class="st62" d="M318.07,351.73c0.27-0.04,0.37-0.22,0.4-0.46c-0.06-0.13-0.13-0.27-0.19-0.4
		C318.07,351.12,318.1,351.43,318.07,351.73z"/>
	<path class="st63" d="M327.28,354.42c-0.07-0.06-0.13-0.12-0.2-0.19c-0.15,0.21-0.3,0.42-0.44,0.63
		C327.01,354.94,327.12,354.65,327.28,354.42z"/>
	<path class="st64" d="M242.97,397.12c0-0.75,0-1.5,0-2.25C242.77,395.62,242.8,396.37,242.97,397.12z"/>
	<path class="st23" d="M261.79,340.18c-0.37-3.18-0.14-6.37-0.22-9.55c-0.01-0.51-0.11-1.03-0.16-1.54
		c0.14-0.35,0.05-0.72,0.07-1.08c-0.13-0.4,0.3-0.96-0.33-1.23c-0.17,0.54-0.05,1.09-0.09,1.64c-0.06-1.35,0.21-2.69,0.3-4.03
		c-0.31-4.82-0.43-9.66-0.86-14.47c-0.12-1.31-0.23-2.64-0.28-3.96c-0.03-0.62-0.02-1.27-0.53-1.75c-0.9,2.82-1.79,5.64-2.69,8.46
		c-0.48,1.51-0.99,3.01-1.48,4.51c2.4,7.21,4.34,14.53,5.84,21.97C261.44,339.54,261.46,339.92,261.79,340.18z"/>
	<path class="st65" d="M253.86,392.92c0.24,0.29,0.58,0.19,0.87,0.19c3.6,0,7.2,0,10.8-0.01c-0.24-0.29-0.58-0.18-0.88-0.18
		C261.06,392.91,257.46,392.92,253.86,392.92z"/>
	<path class="st66" d="M253.88,388.55c0,1.38-0.01,2.75-0.01,4.13C254.18,391.3,254.16,389.93,253.88,388.55z"/>
	<path class="st21" d="M252.17,330.15c0.07,0.42-0.17,0.89,0.21,1.26C252.32,330.99,252.54,330.52,252.17,330.15z"/>
	<path class="st67" d="M236.07,388.3c2.5,0,5-0.01,7.51-0.01c-0.28-0.31-0.65-0.18-0.99-0.19c-1.85-0.01-3.69-0.01-5.54,0
		C236.72,388.11,236.35,387.98,236.07,388.3z"/>
	<path class="st68" d="M218.77,390.88c0.05-1.35,0.3-2.67,0.63-3.97c-0.04-2.41-0.74-4.71-1.13-7.06c-0.1-0.58-0.22-1.15-0.34-1.73
		c-0.12-0.08-0.22-0.05-0.29,0.07c0.01,0.46-0.11,0.93,0.08,1.39c0.14,1.8,0.26,3.6,0.43,5.4c0.16,1.76,0.25,3.53,0.21,5.3
		C218.35,390.59,218.4,390.84,218.77,390.88z"/>
	<path class="st69" d="M217.73,379.59c0.01-0.49,0.01-0.97,0.02-1.46c0.13-0.35,0.14-0.7-0.01-1.04c-0.01-0.29,0.02-0.61-0.42-0.63
		C217.29,377.52,217.45,378.56,217.73,379.59z"/>
	<path class="st21" d="M217.74,377.09c0,0.35,0.01,0.7,0.01,1.04c0,0,0.09,0,0.09,0s0.09,0,0.09,0
		C217.89,377.78,218.08,377.38,217.74,377.09z"/>
	<path class="st39" d="M297.99,303.79c-0.28,4.26-0.56,8.51-0.82,12.77c-0.09,1.41-0.1,2.83-0.18,4.25
		c-0.13,2.28-0.4,4.56-0.26,6.85c0.31,2.2,0.62,4.39,0.91,6.59c0.2,1.51,0.4,3.02,0.54,4.54c0.56,6.52,0.53,13.07,0.4,19.6
		c-0.08,4.02-0.35,8.05-0.61,12.06c-0.31,4.67-0.61,9.35-0.87,14.03c-0.12,2.11-0.08,4.23-0.36,6.34c0.08,0,0.15-0.01,0.23-0.01
		c1.07-0.19,2.14-0.03,3.22-0.09c0.38-0.02,0.76,0.09,1.13-0.09c0.01-0.35,0.03-0.7,0.04-1.04c0-3.9-0.15-7.8,0.04-11.69
		c0.13-2.82,0.01-5.63,0.18-8.44c0.23-3.74,0.19-7.49,0.42-11.23c0.18-2.98,0.24-5.96,0.41-8.93c0.18-3.01,0.23-6.03,0.46-9.03
		c0.1-1.3-0.19-2.55-0.06-3.82c0.36-1.5,0.01-2.98-0.15-4.45c-0.96-8.94-2.21-17.85-3.83-26.7c-0.1-0.53-0.09-1.13-0.64-1.48
		C298.12,303.79,298.05,303.79,297.99,303.79L297.99,303.79z"/>
	<path class="st70" d="M261.41,323.44c-0.15,0.4,0.11,0.88-0.21,1.25c-0.23,0.69-0.21,1.38-0.01,2.06c0.25,0.4,0.12,0.86,0.21,1.29
		c0.06,0.11,0.11,0.1,0.15-0.01C261.53,326.5,261.73,324.96,261.41,323.44z"/>
	<path class="st71" d="M260.94,306.77c0.01,0.26,0.02,0.53,0.03,0.79c0.42-0.74,0.12-1.52,0.04-2.29
		C260.98,305.76,260.96,306.26,260.94,306.77z"/>
	<path class="st72" d="M261.56,328.04c-0.05,0.01-0.1,0.01-0.16,0.01c0,0.35,0,0.69,0,1.04
		C261.71,328.77,261.56,328.39,261.56,328.04z"/>
	<path class="st73" d="M301.31,390.61c-1.45,0.09-2.91-0.23-4.34,0.18C298.41,390.73,299.88,391.07,301.31,390.61z"/>
	<path class="st74" d="M304.65,313.13c0-2.32,0-4.65,0-6.97c-0.03,0-0.07,0-0.1,0c0,2.34,0,4.68,0,7.02
		C304.58,313.16,304.62,313.15,304.65,313.13z"/>
	<path class="st75" d="M300.94,273.26c0.12,0.14,0.24,0.27,0.36,0.41c0-0.39,0.13-0.82-0.36-1.03
		C300.94,272.85,300.94,273.06,300.94,273.26z"/>
	<path class="st39" d="M297.99,303.79c0-0.47,0-0.94,0-1.42C297.84,302.85,297.61,303.34,297.99,303.79L297.99,303.79z"/>
	<path class="st76" d="M203.27,382.56c0.02,0.54,0.04,1.08,0.06,1.62c0.35-0.58,0.11-1.21,0.16-1.81c0-0.01-0.07-0.04-0.07-0.04
		C203.37,382.4,203.32,382.48,203.27,382.56z"/>
	<path class="st77" d="M331.88,392.49c-0.2,0.17-0.4,0.35-0.69,0.6c1.66,0,3.26,0,4.85,0c0.09-0.55-0.07-0.86-0.7-0.82
		c-0.51,0.03-1.04-0.03-1.55,0.01c-0.84,0.07-1.63-0.04-2.3-0.6C331.62,391.96,331.75,392.22,331.88,392.49
		c0.84,0.45,1.75,0.05,2.62,0.24C333.63,392.57,332.72,392.94,331.88,392.49z"/>
	<path class="st78" d="M261.19,326.76c0-0.69,0.01-1.38,0.01-2.06c-0.02-0.06-0.04-0.12-0.07-0.18c-0.41,1.38-0.04,2.78-0.2,4.17
		c0.09,0,0.17,0.01,0.26,0.01C261.19,328.04,261.19,327.4,261.19,326.76z"/>
	<path class="st46" d="M331.88,392.49c0.06,0.12,0.13,0.33,0.19,0.33c1.21,0.02,2.43,0.01,3.64,0.01c0-0.12,0-0.23,0.01-0.35
		C334.43,392.49,333.16,392.49,331.88,392.49C331.88,392.49,331.88,392.49,331.88,392.49z"/>
</g>
<ellipse class="st0" cx="442.18" cy="436.35" rx="67.66" ry="35.49"/>
<g>
	<path class="st12" d="M581.01,327.87c0-0.31,0-0.63,0-0.94c-0.11-0.19-0.21-0.37-0.32-0.56
		C580.65,326.9,580.63,327.42,581.01,327.87z"/>
	<path class="st13" d="M449.47,268.89c-3.38,0.08-6.23,1.49-8.77,3.61c-3.68,3.08-5.93,7.13-7.67,11.51
		c-1.11,2.81-1.85,5.73-2.51,8.67c-0.43-0.06-0.17-0.4-0.25-0.61c0-0.47,0-0.94,0-1.41c-0.05-0.4,0.11-0.82-0.1-1.21
		c0-0.19,0-0.38,0-0.57c0.48-1.06,0.37-2.21,0.52-3.32c0.66-5.03,1.85-9.91,4.05-14.5c1.19-2.5,2.6-4.87,4.55-6.87
		c2.97-3.04,6.37-3.43,9.94-1.16c2.17,1.38,3.88,3.24,5.45,5.25c1.79,2.31,3.32,4.79,4.72,7.35c0.16,0.29,0.22,0.67,0.58,0.83
		c0.76,0.44,0.78,1.33,1.16,1.99c0.45,0.78,0.77,1.65,1.24,2.44c0.19,0.31,0.42,0.67-0.04,0.98c-0.52-0.15-0.67-0.64-0.91-1.03
		c-1.42-2.39-2.88-4.76-4.59-6.95c-0.84-1.07-1.67-2.14-2.75-2.99c-1.19-0.94-2.48-1.62-4-1.8
		C449.86,269.09,449.66,269.01,449.47,268.89z"/>
	<path class="st14" d="M593.8,298.7c-0.2,1.54-0.5,3.07-1.05,4.52c-0.2,0.54-0.32,1.43-0.98,1.32c-0.56-0.09-0.44-0.96-0.43-1.51
		c0.03-1.36,0.11-2.72,0.21-4.08c0.43-5.69-0.61-11.04-3.69-15.91c-0.9-1.42-1.97-2.63-3.59-3.25c-2.12-0.5-4.23-0.65-6.32,0.13
		c-0.24,0.09-0.5,0.09-0.71-0.11c1.93-1.27,4.02-2.08,6.36-2.16c3.66-0.12,6.69,1.9,8.29,5.5c1.07,2.4,1.55,4.94,1.87,7.52
		c0.03,0.2-0.07,0.46,0.2,0.58c0,2.16,0,4.32,0,6.48C593.74,298.02,593.98,298.4,593.8,298.7z"/>
	<path class="st15" d="M430.34,292.13c0.03,0.2-0.02,0.42,0.18,0.56c0,0.37,0,0.73-0.35,0.97c0-0.51,0-1.02,0-1.53
		C430.23,292.06,430.28,292.05,430.34,292.13z"/>
	<path class="st16" d="M430.34,292.13c-0.06,0-0.11,0.01-0.17,0.01c0-0.51,0-1.02,0-1.53c0.05-0.08,0.1-0.08,0.16-0.02
		C430.34,291.1,430.34,291.62,430.34,292.13z"/>
	<path class="st17" d="M430.34,290.59c-0.05,0.01-0.11,0.01-0.16,0.02c0-0.38,0-0.76,0-1.14
		C430.54,289.8,430.29,290.22,430.34,290.59z"/>
	<path class="st18" d="M593.8,298.7c-0.02-0.34-0.1-0.68,0.17-0.97c0,0.32,0,0.64,0,0.95C593.91,298.69,593.86,298.7,593.8,298.7z"
		/>
	<path class="st19" d="M536.81,277.73c-0.74,2.46-1.06,5.01-1.49,7.53c-1.39,8.1-2.48,16.24-3.35,24.41
		c-0.48,4.48-0.82,8.97-1.22,13.46c-0.03,0.31,0.02,0.64-0.15,0.93c0.13-0.02-0.16,0.04-0.07-0.05c0.09-0.09,0-0.2-0.02-0.07
		c-0.05,0.28-0.09,0.56,0.05,0.83c-0.14,2.59-0.26,5.18-0.42,7.78c-0.19,3.13-0.34,6.26-0.39,9.4c0,0.31-0.08,0.62-0.12,0.93
		c-0.2,0.82-0.15,1.65-0.03,2.48c0.2,0.93-0.02,1.4-1.12,1.47c-3.24,0.2-6.46,0.53-9.69,0.81c-0.81-0.13-1.61,0.03-2.41,0.11
		c-0.58,0.06-0.84-0.11-0.7-0.72c0.15-0.63,0.18-1.24-0.29-1.77c-0.3-1.84,0.06-3.67,0.14-5.5c0.11-2.53,0.3-5.06,0.46-7.59
		c0.19-2.82,0.46-5.63,0.66-8.44c0.03-0.48,0.02-0.95,0.04-1.43c0.06-0.61,0.51-1.09,0.54-1.71c0.27-3.11,0.83-6.19,0.96-9.32
		c0.57-6.47,1.94-12.81,3.23-19.16c0.04-0.19,0.07-0.38,0.23-0.51c0.32-0.19,0.3-0.53,0.37-0.83c2.18-9.36,4.98-18.53,8.65-27.42
		c0.16-0.38,0.2-0.71,0.09-1.09c0.48-0.68,0.7-1.48,1.04-2.22c0.17-0.37,0.31-0.77,0.65-1.03c1.72-3.53,3.36-7.1,5.23-10.56
		c5.66-10.48,12.43-20.18,20.32-29.09c0.97-1.09,1.97-2.15,2.96-3.22c0.03-0.03,0.11-0.02,0.19-0.04c0.19,0.33-0.11,0.52-0.23,0.74
		c-7.77,13.68-14.24,27.95-19.25,42.89c-0.96,2.86-1.87,5.73-2.64,8.64c-0.1,0.38-0.18,0.74-0.11,1.12
		c-0.58,2.53-1.28,5.03-1.84,7.57C537.05,277.28,537.02,277.54,536.81,277.73z"/>
	<path class="st20" d="M535.92,238.79c1.29-1.2,2.57-2.41,3.87-3.62c0.27,0.32,0,0.48-0.12,0.66c-2.76,4.13-5.25,8.42-7.57,12.81
		c-0.34,0.64-0.43,1.39-0.92,1.95c-0.96,2.48-2.14,4.87-3.18,7.32c-0.22,0.53-0.42,1.06-0.66,1.58c-1.91,4.66-3.47,9.44-4.66,14.33
		c-0.57,2.34-0.99,4.7-1.33,7.08c-0.01,0.1-0.04,0.21-0.07,0.31c-0.14,0.42-0.06,0.86-0.09,1.29c-0.3,3.22-0.42,6.45-0.54,9.69
		c-0.17,4.63-0.23,9.26-0.41,13.88c-0.15,3.78-0.06,7.55-0.14,11.32c-0.1,5.23-0.3,10.47-0.17,15.7c0.01,0.23-0.03,0.44-0.1,0.65
		l0.01-0.01c-0.26,0.18-0.07,0.48-0.2,0.7c-0.03,1.25-0.08,2.49,0.03,3.74c-0.02,0.12-0.09,0.21-0.21,0.25
		c-3.02,0.12-6.04,0.02-9.05,0.05c-0.47,0.01-0.94-0.05-1.41,0.06c-0.53,0.08-0.47-0.3-0.43-0.61c0.36-2.71,0.44-5.44,0.77-8.15
		c0.39-3.18,0.59-6.38,0.86-9.57c0.41-4.8,0.75-9.61,1.09-14.42c0.26-3.7,0.56-7.4,0.64-11.11c0.03-1.42,0.18-2.85,0.25-4.27
		c0.79-2.61,1.18-5.32,1.85-7.96c1.13-4.43,2.32-8.84,3.81-13.16c0.88-2.16,1.63-4.38,2.54-6.53c1.5-3.52,3.2-6.94,5.11-10.25
		c2.29-3.98,4.97-7.69,7.94-11.19C534.2,240.41,534.93,239.46,535.92,238.79z"/>
	<path class="st21" d="M521.12,281.08c0.18-2.42,0.73-4.78,1.27-7.14c1.11-4.87,2.75-9.57,4.54-14.21c0.05-0.14,0.18-0.25,0.27-0.38
		c0.56,0.53,0.81,1.24,1.13,1.91c-0.18,0.64-0.03,1.24,0.2,1.84c4.48,11.71,6.55,23.94,7.82,36.34c0.35,3.41,0.63,6.82,0.95,10.23
		c0.18,0.31,0.07,0.63,0,0.94c0.19,1.89-0.17,3.75-0.34,5.62c-0.09,0.97-0.12,1.95-0.21,2.92c-0.24,2.64-0.26,5.3-0.44,7.94
		c-0.15,2.27-0.35,4.53-0.35,6.8c-0.01,0.26-0.17,0.25-0.35,0.21c-2.24-0.01-4.49-0.09-6.73,0.04c-0.38-0.18-0.26-0.53-0.27-0.83
		c-0.08-4.32,0.15-8.64,0.25-12.95c0.12-5.17,0.22-10.35,0.38-15.52c0.14-4.66,0.2-9.33,0.39-13.99c0.11-2.7,0.12-5.4,0.16-8.09
		c0.01-0.45,0.11-0.88,0.19-1.31c-1.44,6.86-2.55,13.78-3.6,20.7c-0.13,0.88-0.29,1.75-0.4,2.64c-0.03,0.28-0.06,0.58-0.36,0.73
		c-0.59-0.49-0.63-1.24-0.69-1.89c-0.09-0.95-0.22-1.89-0.47-2.81c-0.4-1.45-0.34-2.96-0.54-4.43c-0.25-1.92-0.77-3.79-1.05-5.7
		c-0.35-2.35-1-4.64-1.41-6.97C521.28,282.84,521.02,281.98,521.12,281.08z"/>
	<path class="st14" d="M531.35,347.65c0.19-3.74,0.33-7.48,0.6-11.21c0.31-4.3,0.72-8.59,1.23-12.88c1.1-9.18,2.81-18.23,5.27-27.13
		c0.56-2.05,1.2-4.07,1.81-6.11c0.12-0.4,0.24-0.79,0.22-1.21c0.59-2.44,1.54-4.75,2.39-7.1c0.3-0.83,0.5-1.7,1.01-2.43
		c0.39-0.2,0.41-0.62,0.55-0.96c3.74-9.36,8.25-18.33,13.46-26.95c0.14-0.23,0.24-0.51,0.66-0.72c-0.66,1.95-1.28,3.77-1.89,5.59
		c-3.38,10.14-6.63,20.32-9.23,30.69c-0.08,0.3-0.11,0.62-0.16,0.93c-0.01,1.47-0.47,2.87-0.77,4.28c-0.8,3.71-1.56,7.44-2.27,11.17
		c-0.03,0.16-0.08,0.31-0.22,0.41c-0.54,0.79-0.51,1.75-0.68,2.63c-1.55,7.84-3.06,15.69-4.32,23.58c-0.9,5.64-1.86,11.27-2.02,17
		c-0.01,0.46-0.05,0.79-0.66,0.78c-1.55-0.03-3.1-0.01-4.65-0.01c-0.13,0-0.25-0.03-0.31-0.16c1.41-0.22,2.85,0,4.26-0.17
		c0.12-0.08-0.09-0.14-0.01-0.05C534.2,347.84,532.78,347.79,531.35,347.65z"/>
	<path class="st22" d="M577.25,279.81c0.97-0.08,1.86-0.51,2.83-0.65c1.5-0.21,2.86,0.01,4.19,0.63c-4.55,0.86-8.17,3.4-11.55,6.38
		c-0.85,0.75-1.66,1.57-2.47,2.36c-1.05,1.04-2.16,2.05-2.08,3.73c-0.34-0.25-0.23-0.6-0.21-0.85c-1.67,1.95-3.27,4.02-4.72,6.22
		c-2.84,4.3-5.07,8.92-6.86,13.74c-1.43,3.86-2.62,7.8-3.49,11.84c-0.13,0.24-0.31,0.46-0.37,0.73c-0.12,0.32-0.07,0.67-0.12,1
		c-0.44,2.64-1.07,5.24-1.37,7.9c-0.8,3.99-1.21,8.03-1.6,12.08c-0.19,1.93-0.38,3.85-0.6,5.78c-0.08,0.74,0.15,0.99,0.86,0.9
		c0.41-0.05,0.83-0.05,1.23,0c0.95,0.11,1.73-0.05,2.04-1.11c0.03,0.06,0.07,0.11,0.08,0.17c0.2,1.4,0.2,1.4-1.22,1.4
		c-0.85,0-1.71,0.04-2.56-0.01c-0.6-0.03-0.82,0.17-0.86,0.78c-0.12,1.73-0.14,1.72-1.86,1.93c-2.16,0.26-4.33,0.49-6.48,0.8
		c-0.64,0.09-0.73-0.06-0.64-0.67c0.61-4.13,1.24-8.27,2.02-12.37c0.23-1.21,0.03-2.4,0.11-3.6c0.41,0.04,0.26,0.35,0.26,0.58
		c0.01,0.53-0.01,1.07,0.02,1.6c-0.09-1.81,0.26-3.56,0.65-5.32c0.63-2.85,1.26-5.7,1.98-8.52c0.92-3.59,1.78-7.21,3.22-10.64
		c1.08-3.45,2.59-6.71,4.25-9.92c0.74-1.43,1.6-2.79,2.3-4.25c0.08-0.17,0.14-0.36,0.39-0.33c0.81-0.52,1.2-1.34,1.51-2.21
		c0.08-0.23,0.13-0.47,0.19-0.71c0.47,0.08,0.56-0.35,0.74-0.6c2.53-3.52,5.31-6.83,8.22-10.03c1.11-1.22,2.38-2.29,3.59-3.42
		c0.39,0.37,0.54-0.1,0.73-0.25C571.97,282.92,574.56,281.29,577.25,279.81z"/>
	<path class="st21" d="M525.68,252.48c-0.26,0.96-0.93,1.71-1.39,2.57c-2.42,4.58-4.42,9.35-6.21,14.21
		c-0.42-0.16-0.49-0.56-0.6-0.91c-1.13-3.64-2.42-7.24-3.39-10.93c-0.23-1.01-0.5-2.01-0.71-3.03c-0.33-1.78,0.02-3.55,0.13-5.31
		c0.16-2.53,0.3-5.06,0.46-7.6c0.25-3.95,0.51-7.89,0.81-11.63c-0.55,1.67-1.33,3.47-1.99,5.32c-0.36,1.02-0.68,2.05-1.03,3.07
		c-0.1,0.27-0.08,0.67-0.52,0.69c-0.41-3.41-0.44-6.84-0.34-10.27c0.2-7.42,1.14-14.73,3.19-21.88c0.28-0.97,0.6-1.93,1.07-2.89
		c0.14,1.48,0.29,2.95,0.43,4.43c0.47,5.06,1.26,10.07,2.15,15.07c0.04,0.24,0.03,0.52,0.32,0.64c0.34,0.39,0.26,0.9,0.34,1.35
		c0.61,3.36,1.43,6.68,2.19,10c0.14,0.62,0.08,1.23,0.17,1.84c1.2,4.51,2.41,9.01,3.81,13.46c0.03,0.1-0.24,1.07,0.52,0.4
		c0.29,0.23,0.14,0.52,0.07,0.77C525.01,252.38,525.37,252.4,525.68,252.48z"/>
	<path class="st21" d="M568.88,285.15c-0.5,1.2-1.65,1.78-2.5,2.65c-1.71,1.77-3.3,3.64-4.89,5.51c-1.76,2.06-3.31,4.28-5.06,6.45
		c-0.04-0.26-0.07-0.42-0.09-0.57c0.49-3.39,1.23-6.74,1.95-10.09c2.07-9.62,4.38-19.17,7.34-28.55c1.34-4.25,3.26-8.26,4.9-12.38
		c2.35-5.92,4.73-11.83,6.92-17.81c0.04-0.11,0.14-0.21,0.21-0.31c0.44,0.09,0.22,0.37,0.18,0.6c-0.64,2.76-1.31,5.5-1.91,8.27
		c-2.31,10.57-3.99,21.24-5.34,31.97C570,275.64,569.45,280.4,568.88,285.15z"/>
	<path class="st23" d="M554.64,302.12c-0.99,2.32-2.44,4.4-3.5,6.68c-1.05,2.26-2.04,4.55-2.91,6.88c-0.11,0.29-0.15,0.61-0.22,0.91
		c-0.39,0.23-0.55-0.08-0.6-0.34c-0.53-2.7-1.53-5.29-1.93-8.02c0.02-0.22,0.05-0.44,0.22-0.61c1.41-14.03,4.01-27.8,8.76-41.11
		c1.85-5.17,4-10.21,6.51-15.09c0.44,0.18,0.19,0.5,0.17,0.78c-0.61,4.33-1.25,8.66-1.83,13c-1.07,7.98-2.1,15.97-3.14,23.96
		c-0.18,1.35-0.36,2.7-0.54,4.04c-0.22-0.31-0.07-0.64-0.09-0.82c0.04,0.8-0.23,1.72-0.13,2.67c-0.02,0.98-0.13,1.95-0.35,2.91
		c-0.17-0.16-0.14-0.33-0.12-0.4c0.03,0.16-0.09,0.45,0.08,0.72C555.03,299.59,554.78,300.85,554.64,302.12z"/>
	<path class="st23" d="M520.77,237.24c-0.39-0.63-0.34-1.38-0.51-2.06c-0.71-2.82-1.32-5.67-1.9-8.53c-0.17-0.85-0.46-1.71-0.29-2.6
		c0.59-4.56,1.47-9.07,2.47-13.56c3.02-13.47,8.17-26.03,15.99-37.44c2.41-3.51,5.04-6.83,7.93-9.95c0.21-0.23,0.41-0.48,0.61-0.72
		c1.17-1.01,2.12-2.26,3.36-3.2c0.27,0.05,0.38-0.06,0.35-0.33c0.07-0.06,0.13-0.12,0.2-0.19c0.29-0.08,0.53-0.03,0.7,0.24
		c-2.26,2.65-4.39,5.4-6.31,8.3c-9.87,14.93-16.58,31.16-19.81,48.81c-1.2,6.59-1.92,13.24-2.66,19.89
		c-0.18,0.38,0.03,0.82-0.14,1.2C520.8,237.15,520.8,237.19,520.77,237.24z"/>
	<path class="st24" d="M551.42,300.49c0,0.93,0.39,1.77,0.6,2.65c0.4,1.7,0.83,3.4,1.27,5.09c0.07,0.27-0.04,0.69,0.44,0.71
		c-1.27,3.01-2.06,6.17-2.9,9.33c-0.65,2.45-1.33,4.91-1.8,7.39c-0.53,2.8-1.61,5.51-1.43,8.44c-0.32-0.93,0.11-1.93-0.31-2.84
		c-0.39-5.43-0.82-10.86-1.54-16.26c-0.49-3.67-1.12-7.32-1.75-10.97c-0.13-1.45,0.39-2.8,0.66-4.18c0.73-3.77,1.59-7.52,2.41-11.27
		c0.03-0.14,0.12-0.28,0.19-0.41c1.41,3.53,2.48,7.17,3.59,10.81c0.08,0.27,0.16,0.55,0.25,0.82
		C551.22,300.02,551.33,300.25,551.42,300.49z"/>
	<path class="st25" d="M525.68,252.48c-0.28,0.1-0.55,0.19-0.86,0.3c0.09-0.57,0.17-1.13,0.26-1.68c1.32-4.01,2.9-7.91,4.73-11.71
		c3.78-7.83,6.88-15.95,10.02-24.05c1.59-4.11,3.11-8.24,4.67-12.36c0.09-0.23,0.21-0.45,0.32-0.68c0.25,0.14,0.2,0.41,0.28,0.62
		c0.03,0.14,0.04,0.28-0.04,0.41c-0.46,9.69-2.52,19.01-6.2,27.98c-0.99,2.4-1.98,4.8-2.99,7.19c-0.05,0.13-0.11,0.22,0.04,0.3
		c-3.13,3.6-6.19,7.25-8.72,11.31C526.7,250.9,526.32,251.78,525.68,252.48z"/>
	<path class="st26" d="M542.03,280.12c0.18,1.04-0.25,2-0.46,2.96c-1.16,5.43-2.06,10.9-2.82,16.4c-0.02,0.11-0.12,0.21-0.19,0.31
		c-0.26-2.11-0.16-4.24-0.26-6.36c-0.44-9.18-0.85-18.37-1.27-27.55c-0.01-0.47-0.29-0.98,0.21-1.37
		C539.2,269.6,540.79,274.8,542.03,280.12z"/>
	<path class="st24" d="M543.88,279.59c-0.09,1.09-0.65,2.02-0.99,3.03c-0.64,1.9-1.29,3.8-1.96,5.69c-0.1,0.29-0.3,0.54-0.45,0.82
		c-1.15-3.82-2.3-7.64-3.66-11.39c-0.04-1.11,0.39-2.14,0.62-3.2c0.32-1.47,0.74-2.91,1.09-4.37c0.07-0.29,0.11-0.55,0.42-0.68
		C540.79,272.74,542.41,276.12,543.88,279.59z"/>
	<path class="st27" d="M532.47,258.99c-0.42,1.03-0.85,2.07-1.26,3.11c-0.1,0.24-0.24,0.24-0.43,0.15
		c-1.49-3.52-2.97-7.03-4.46-10.55c0.08-0.04,0.15-0.09,0.23-0.13C528.7,253.89,530.62,256.41,532.47,258.99z"/>
	<path class="st28" d="M528.33,261.25c-0.62-0.49-0.95-1.16-1.13-1.91c1.19-2.98,2.36-5.98,3.98-8.76c0,0.15,0.05,0.32,0,0.46
		C530.08,254.4,529.17,257.82,528.33,261.25z"/>
	<path class="st30" d="M555.42,295.06c-0.53-0.97,0.2-1.89,0.16-2.85c0.02,0.33,0.04,0.67,0.06,1
		C555.63,293.83,555.6,294.45,555.42,295.06z"/>
	<path class="st31" d="M537.25,264.5c-0.37,0.41-0.03,0.93-0.21,1.37c-0.21-0.64-0.13-1.29-0.18-2.04
		C537.17,264.04,537.24,264.26,537.25,264.5z"/>
	<path class="st32" d="M545.07,203.32c-0.02-0.15-0.05-0.29-0.07-0.44c-0.11-0.29,0.05-0.62-0.11-0.9c-0.01-0.2,0.06-0.35,0.36-0.5
		C545.21,202.14,545.28,202.73,545.07,203.32z"/>
	<path class="st12" d="M537.29,310.6c0-0.31,0-0.63,0-0.94c0.11-0.19,0.21-0.37,0.32-0.56C537.65,309.63,537.67,310.16,537.29,310.6
		z"/>
	<path class="st21" d="M520.77,237.1c0.01-0.41-0.16-0.83,0.14-1.2C520.92,236.31,520.96,236.72,520.77,237.1z"/>
	<path class="st33" d="M555.03,298.3c-0.28-0.3-0.2-0.62-0.07-1.1c0.05,0.35,0.07,0.56,0.1,0.78
		C555.06,298.08,555.04,298.19,555.03,298.3z"/>
	<path class="st34" d="M551.42,300.49c-0.24-0.17-0.34-0.4-0.31-0.7c0.1,0.06,0.21,0.12,0.31,0.18
		C551.42,300.15,551.42,300.32,551.42,300.49z"/>
	<path class="st35" d="M544.88,201.98c0.27,0.27,0.12,0.6,0.11,0.9c-0.19-0.16-0.12-0.4-0.17-0.6
		C544.85,202.19,544.87,202.08,544.88,201.98z"/>
	<path class="st36" d="M491.34,333.75c-0.41,0.12-0.48,0.4-0.44,0.8c0.15,1.29,0.25,2.59,0.4,3.88c0.06,0.52,0.04,0.84-0.65,0.79
		c-3.12-0.21-6.24-0.39-9.37-0.56c-0.45-0.02-0.61-0.2-0.6-0.63c0.02-0.48-0.01-0.95-0.02-1.43c-0.07-0.1-0.13-0.2-0.18-0.31
		c-0.17-0.81-0.28-1.62-0.29-2.45c-0.05-3.24-0.35-6.46-0.52-9.69c-0.14-2.66-0.27-5.32-0.47-7.98c-0.49-6.71-0.66-13.44-0.51-20.16
		c0.13-5.71,0.65-11.4,1.74-17.02c0.51-2.77,1.07-5.54,1.75-8.28c0.92-3.7,1.99-7.35,3.18-10.96c1.16-3.48,2.49-6.89,3.77-10.33
		c0.25-0.67,0.37-1.42,1.04-1.87c1-2.51,2.01-5.03,3-7.54c0.16-0.41,0.28-0.83,0.43-1.25c0.9-2.98,2.3-5.76,3.56-8.6
		c1.36-3.07,2.83-6.1,4.24-9.15c0.04-0.09,0.11-0.15,0.19-0.21c0.47,0.04,0.44-0.4,0.56-0.64c2.48-4.86,5.04-9.67,8-14.26
		c0.76-1.17,1.58-2.3,2.4-3.43c0.17-0.24,0.29-0.57,0.81-0.65c-4.2,9.6-7.81,19.33-10.83,29.27c0,1.59-0.67,3.03-1.09,4.51
		c-2.26,7.86-4.2,15.8-5.77,23.83c-0.45,2.3-0.85,4.61-1.35,6.9c-1.11,7.6-2.2,15.21-2.86,22.86c-0.28,3.22-0.49,6.45-0.65,9.69
		c-0.2,3.9-0.2,7.81-0.41,11.7c-0.23,4.33,0.13,8.63,0.12,12.94c-0.01,3,0.17,6.02,0.5,9.02
		C491.08,332.98,491.22,333.35,491.34,333.75z"/>
	<path class="st37" d="M511.26,238.95c1.04-3.37,2.29-6.66,3.69-9.91c0.23,1.5-0.05,2.99-0.16,4.46c-0.09,1.19-0.19,2.4-0.26,3.58
		c-0.15,2.78-0.33,5.55-0.49,8.33c-0.13,2.39-0.19,4.79-0.49,7.17c-0.08,0.62-0.07,1.27,0.13,1.88c-0.05,1.38-0.03,2.77-0.06,4.15
		c-0.01,0.41,0.11,0.91-0.42,1.15c-0.29-0.46-0.05-0.96-0.12-1.36c-0.1,0.71,0.01,1.47,0.3,2.21c0.21,1.52-0.09,3.03-0.09,4.54
		c0,3.06-0.36,6.12-0.25,9.18c0.01,0.19-0.01,0.38-0.04,0.57c-0.3,1.38-0.08,2.78-0.14,4.17c-0.02,0.41,0.02,0.8,0.12,1.2
		c-0.22,2.69,0.07,5.4-0.19,8.09c-0.06,0.63-0.17,1.26-0.37,1.86c-0.13,3.13-0.23,6.25-0.4,9.38c-0.15,2.8-0.36,5.6-0.56,8.4
		c-0.25,3.59-0.59,7.16-0.79,10.75c-0.17,3.05-0.44,6.1-0.8,9.13c-0.41,3.44-0.44,6.91-1.12,10.32c-0.05,0.25,0.09,0.25,0.26,0.25
		c2.37-0.16,4.73-0.02,7.1-0.08c1.16-0.03,2.33,0.11,3.49-0.09c0-0.07,0-0.15,0-0.22c-0.14-1.25-0.11-2.51-0.01-3.77
		c0.04-0.21-0.03-0.47,0.25-0.58c-0.2,1.39-0.05,2.78-0.05,4.17c0,0.59-0.18,0.75-0.75,0.75c-3.06-0.03-6.12-0.02-9.18,0
		c-0.43,0-0.95-0.21-1.17,0.46c-0.07,0.21-0.4,0.13-0.61,0.13c-1.42,0-2.84-0.03-4.26,0.01c-0.55,0.01-0.81-0.13-0.81-0.72
		c0-0.66-0.07-1.33-0.12-1.99c-0.02-0.29,0.1-0.67-0.34-0.77c-0.2-1.73-0.2-3.48-0.27-5.22c-0.32-8.5-0.34-17.01-0.18-25.52
		c0.09-4.91,0.39-9.82,0.67-14.73c0.38-6.53,0.98-13.03,1.76-19.52c0.23-1.92,0.49-3.84,0.78-5.76c0.14-0.94,0.35-1.87,0.24-2.84
		c-0.03-0.28-0.01-0.58,0.25-0.78c0.04,0.08,0.07,0.21,0.13,0.25c0.37,0.16,0.2-0.18,0.22-0.28c0.31-1.62,0.59-3.24,0.89-4.86
		C508.1,250.57,509.51,244.72,511.26,238.95z"/>
	<path class="st24" d="M505.78,261.4c0.17,3.52-0.82,6.92-1.12,10.39c-0.24,2.74-0.66,5.45-0.83,8.19c-0.17,2.77-0.49,5.53-0.72,8.3
		c-0.09,1.13-0.08,2.27-0.18,3.41c-0.18,2.05-0.1,4.12-0.24,6.17c-0.58,8.65-0.35,17.32-0.34,25.97c0.01,3.73,0.28,7.46,0.44,11.19
		c0.01,0.3,0.02,0.56-0.26,0.74c-2.1,0.22-4.21,0.42-6.3,0.68c-0.64,0.08-0.76-0.11-0.69-0.69c0.08-0.63,0.06-1.27,0.12-1.9
		c0.04-0.42-0.15-0.57-0.53-0.57c0.23-0.8,0.26-1.61,0.26-2.44c-0.01-3.75,0.03-7.5-0.02-11.25c-0.06-4.35-0.13-8.7-0.22-13.05
		c-0.1-5.01-0.24-10.03-0.37-15.04c-0.11-4.38-0.21-8.76-0.41-13.13c-0.12-2.69,0.04-5.4-0.3-8.09c-0.17-1.36,0.16-2.72,0.09-4.09
		c0.39-2.17,0.77-4.34,1.19-6.5c1.12-5.79,2.44-11.54,3.94-17.24c0.88-3.36,1.79-6.71,2.86-10.02c0.14-0.44,0.04-0.96,0.4-1.33
		c0,0,0,0.01,0,0.01c0.17,0.3-0.02,0.66,0.14,0.97c0.14,1.37,0.27,2.75,0.43,4.12c0.03,0.21-0.18,0.63,0.33,0.6
		c0.06,1.29,0.3,2.57,0.21,3.87c0.03,2.55,0.42,5.06,0.69,7.58C504.79,252.63,505.29,257.01,505.78,261.4z"/>
	<path class="st38" d="M478.76,330.09c0,0.08-0.01,0.16-0.01,0.23c-1.76,0-3.52,0-5.27,0c-0.29-0.22-0.27-0.55-0.29-0.87
		c-0.39-7.15-1.46-14.2-2.92-21.2c-1.58-7.59-3.51-15.09-6.02-22.43c-1.11-3.24-2.23-6.48-3.79-9.54c-0.12-0.23-0.23-0.46-0.1-0.72
		c0.18-0.14,0.22-0.32,0.1-0.5c-1.02-1.51-1.63-3.22-2.4-4.86c-0.11-1.37-0.61-2.65-0.95-3.96c-4.1-15.51-8.18-31.02-12.34-46.52
		c-1.85-6.89-3.73-13.77-6.19-20.48c-0.03-0.08,0-0.18,0-0.56c0.38,0.68,0.64,1.13,0.89,1.58c5.55,10.13,10.7,20.45,15.36,31.02
		c2.83,6.41,5.44,12.92,7.76,19.54c0.08,0.23,0,0.62,0.41,0.6c0.06,0,0.11-0.21,0.17-0.32c0.11,0.08,0.2,0.18,0.21,0.3
		c0.07,2.34,1.16,4.4,1.77,6.59c1.37,4.93,2.47,9.92,3.45,14.94c1.3,6.7,2.26,13.47,3.15,20.23c0.68,5.16,1.15,10.35,1.62,15.53
		c0.37,4.04,0.67,8.09,0.96,12.14c0.19,2.65,0.27,5.31,0.42,7.97c0.08,0.28,0.07,0.59,0.27,0.84c0.61,0.36,1.27,0.12,1.91,0.17
		c0.52,0.05,1.05-0.05,1.57,0.08C478.58,329.96,478.67,330.02,478.76,330.09z"/>
	<path class="st22" d="M474.57,328.96c-0.22-0.2-0.18-0.46-0.17-0.71c0.1-3.93-0.39-7.83-0.61-11.74
		c-0.23-4.12-0.71-8.23-1.12-12.33c-0.35-3.54-0.67-7.09-1.16-10.61c-0.45-3.24-0.86-6.49-1.41-9.72c-0.49-2.92-0.86-5.86-1.41-8.77
		c-0.45-2.35-0.91-4.7-1.39-7.05c-0.77-3.74-1.71-7.44-2.78-11.1c-0.19-0.67-0.37-1.34-0.62-1.99c-0.48-1.24-0.94-2.46-0.75-3.83
		c0.36-4.53,1.05-9.02,1.82-13.49c1.71-10.05,4.06-19.96,7.2-29.66c0.09-0.27,0.1-0.56,0.15-0.83c0.08-0.99,0.53-1.86,0.84-2.78
		c0.58-1.73,1.16-3.46,1.86-5.15c0.13-0.31,0.2-0.67,0.53-0.86c1.43-3.24,2.74-6.54,4.33-9.71c1.41-2.81,2.92-5.56,4.62-8.19
		c0.16-0.24,0.22-0.61,0.62-0.65c0.22,0.31-0.02,0.56-0.1,0.81c-2.94,8.72-5.3,17.59-7.33,26.56c-0.08,0.37-0.07,0.75-0.1,1.13
		c-0.47,3.36-1.29,6.65-1.86,10c-0.23,1.34-0.47,2.69-0.62,4.04c-0.19,0.39-0.3,0.8-0.26,1.24c-0.57,4.03-1.15,8.05-1.56,12.09
		c-0.39,3.92-0.68,7.84-0.9,11.77c-0.26,4.48-0.13,8.95-0.14,13.43c-0.01,3.17,0.34,6.33,0.49,9.5c0.13,2.66,0.41,5.31,0.42,7.98
		c0,0.77,0.07,1.52,0.32,2.25c0.21,1.1-0.07,2.2,0.01,3.32c0.12,1.64,0.22,3.29,0.27,4.94c0.11,3.8,0.33,7.6,0.53,11.4
		c0.08,1.49,0.18,2.98,0.18,4.46c0.02,3.62,0.19,7.23,0.28,10.84c0.1,4,0.13,7.99,0.14,11.99
		C474.88,328.02,474.98,328.55,474.57,328.96z"/>
	<path class="st23" d="M476.87,228.68c-0.18-1.21,0.2-2.36,0.41-3.52c0.59-3.22,1.25-6.42,1.88-9.63c0.07-0.34,0.13-0.68,0.35-0.97
		c1.01,4.93,1.78,9.91,2.49,14.89c0.42,2.95,0.79,5.9,1.2,8.85c0.04,0.28-0.05,0.66,0.32,0.83c0.33,1.73,0.44,3.5,0.65,5.25
		c0.39,3.39,0.85,6.78,1.08,10.18c0.11,1.73,0.64,3.43,0.37,5.18c-1.28,4.09-2.54,8.18-3.49,12.37c-0.51,2.23-0.96,4.47-1.43,6.71
		c-0.24-0.21-0.28-0.5-0.28-0.78c0.02-2.67-0.29-5.32-0.41-7.98c-0.12-2.69-0.26-5.39-0.43-8.08c-0.1-1.57-0.47-3.14-0.15-4.73
		c0.45-0.39,0.06-0.99,0.32-1.43c-0.23,0.39,0.07,0.88-0.2,1.27c-0.12,0.04-0.22,0.01-0.28-0.1c-0.35-1.33-0.22-2.71-0.33-4.06
		c-0.58-7.2-1.16-14.41-2.07-21.58c-0.08-0.66-0.12-1.32-0.15-1.99C476.69,229.1,476.74,228.88,476.87,228.68z"/>
	<path class="st24" d="M501.59,220.8c0,0.42-0.11,0.8-0.3,1.18c-2.67,5.38-5.11,10.85-7.42,16.39c-0.06,0.14-0.18,0.25-0.27,0.38
		c-0.82-16.8,0.18-33.41,5.3-49.59c0.25,2.92,0.49,5.85,0.75,8.77c0.62,7.08,1.24,14.16,1.86,21.25
		C501.55,219.72,501.56,220.26,501.59,220.8z"/>
	<path class="st39" d="M485.61,259.73c-0.19-1.26-0.46-2.51-0.55-3.77c-0.25-3.61-0.66-7.19-1.13-10.77
		c-0.22-1.68-0.41-3.37-0.57-5.05c-0.03-0.33,0.1-0.68,0.16-1.02c0.99-4.04,2.33-7.97,3.74-11.88c0.67-1.85,1.4-3.67,2.1-5.5
		c0.36,0.09,0.22,0.32,0.23,0.47c0.19,8.16,0.34,16.32,0.38,24.48c0,0.28-0.18,0.64,0.2,0.85
		C488.52,251.56,487.07,255.64,485.61,259.73z"/>
	<path class="st40" d="M503.65,240.66c-0.25-1.28-0.64-2.55-0.21-3.87c0.86-1.63,1.92-3.11,3.17-4.49
		C505.57,235.09,504.62,237.88,503.65,240.66z"/>
	<path class="st43" d="M439.74,203.81c0.27,0.03,0.37,0.23,0.29,0.37c-0.17,0.27-0.18-0.05-0.24-0.12
		C439.74,204.01,439.75,203.91,439.74,203.81z"/>
	<path class="st36" d="M502.67,232.08c-0.26-0.29-0.15-0.64-0.14-0.97C502.73,231.41,502.7,231.75,502.67,232.08z"/>
	<path class="st21" d="M552.76,323.28c-0.04-1.68,0.65-3.21,1.08-4.79c1.56-5.72,3.67-11.24,6.48-16.47
		c1.96-3.65,4.28-7.06,6.98-10.21c0.2-0.24,0.45-0.43,0.78-0.75c0.04,0.48,0.07,0.84,0.1,1.19c-0.35,4.36-0.72,8.71-1.04,13.07
		c-0.39,5.28-0.74,10.55-1.09,15.83c-0.1,1.52-0.14,3.04-0.21,4.56c-0.2,0.64,0.04,1.3-0.13,1.94c-0.02,0.37-0.04,0.75-0.06,1.12
		c-0.03,0.07-0.08,0.1-0.15,0.09c-0.08,0.55,0.04,1.07,0.18,1.59c0.04,0.15,0.06,0.3,0.07,0.45c-0.21,2.53-0.73,5.01-1.04,7.52
		c-0.42,3.33-0.84,6.65-1.03,10c-0.08,1.38-0.26,1.61-1.27,1.59c-2.53-0.13-5.05-0.02-7.58-0.06c-0.54-0.01-1.07,0.05-1.61-0.05
		c-0.4-0.19-0.48-0.56-0.52-0.94c-0.36-3.31-0.8-6.6-1.16-9.91c-0.1-0.87-0.5-1.72-0.24-2.63c0.27-0.39,0.26-0.83,0.25-1.28
		c-0.04-3.04,0.33-6.04,0.62-9.06C552.48,325.19,552.33,324.18,552.76,323.28z"/>
	<path class="st25" d="M460.36,275.57c2.58,5,4.26,10.33,5.88,15.69c1.39,4.59,2.58,9.24,3.63,13.92c1,4.46,1.81,8.95,2.46,13.48
		c0.56,3.88,0.96,7.76,1.14,11.67c0.14,2.14,0.11,4.28-0.01,6.42c-2.87,0-5.73,0-8.6,0c0-0.42,0-0.84,0-1.27
		c-0.86-2.09-0.37-4.32-0.58-6.47c-0.24-2.52-0.3-5.06-0.62-7.57c0.04-2.51-0.43-4.98-0.66-7.47c-0.41-4.39-1.3-8.72-1.9-13.08
		c-0.08-0.31,0.2-0.61,0.01-0.92c-2.41-12.3-5.98-24.19-12.27-35.13c-0.43-0.74-0.86-1.48-1.3-2.21c2.75-0.05,4.69,1.49,6.37,3.4
		C456.45,268.93,458.41,272.25,460.36,275.57z"/>
	<path class="st46" d="M562.42,349.93c0.56,0.14,0.82-0.09,0.86-0.66c0.09-1.1,0.21-2.19,0.3-3.29c0.31-3.9,0.84-7.77,1.42-11.63
		c0.18-1.21,0.33-2.43,0.5-3.65c0.22-0.36,0-0.85,0.34-1.17c0.68-4.18,1.71-8.28,2.86-12.35c2.04-7.23,4.7-14.2,8.66-20.62
		c1.18-1.91,2.47-3.74,3.96-5.46c0.25,0.37,0.03,0.64-0.07,0.91c-2.39,6.4-3.7,13.03-4.4,19.8c-0.63,6.12-1.68,12.18-2.72,18.24
		c-0.1,0.59-0.2,1.19-0.31,1.78c-0.23,0.41,0.23,0.75,0.11,1.15c-0.8,3.2-1.26,6.47-1.89,9.7c-0.59,2.99-1.1,5.98-1.79,8.95
		c-0.16,0.68-0.24,1.38-0.35,2.06c-0.09,0.55-0.05,1.15-0.42,1.64c-0.11,0.04-0.22,0.06-0.33,0.05c-1.85-0.01-3.7,0.01-5.56,0
		c1.9,0,3.79,0.01,5.69,0c0.49-0.14,0.98-0.18,1.49-0.18c2.59,0.01,5.17,0.01,7.76,0c0.37,0,0.76,0.08,1.08-0.2
		c0.25-0.29,0.18-0.65,0.23-0.98c0.05-0.31-0.06-0.72,0.42-0.82c0.05,2.44,0.05,2.44-2.37,2.44c-4.61,0-9.23-0.03-13.84,0.02
		c-0.91,0.01-1.14-0.27-1.06-1.12c0.11-1.26,0.13-2.53,0.2-3.8c0.02-0.33,0.05-0.65-0.44-0.64c-3.25,0.04-6.51-0.1-9.76,0.07
		c-0.09-0.12-0.07-0.22,0.05-0.3C556.17,349.89,559.29,349.81,562.42,349.93z"/>
	<path class="st47" d="M494.16,266.2c0.2,0.16,0.2,0.38,0.19,0.61c-0.13,2.5,0.22,5,0.2,7.5c-0.02,3.07,0.15,6.14,0.24,9.21
		c0.06,1.96-0.03,3.93,0.16,5.88c0.26,2.6-0.02,5.2,0.2,7.78c0.22,2.51-0.03,5.01,0.18,7.5c0.29,3.45-0.02,6.91,0.19,10.36
		c0.34,5.71,0.06,11.41,0.17,17.12c0.01,0.5,0,0.94-0.57,1.13c-1.26,0.15-2.52,0.31-3.78,0.46c-0.41-0.03-0.58-0.21-0.61-0.66
		c-0.09-1.64-0.28-3.28-0.35-4.92c-0.11-2.34-0.18-4.69-0.2-7.03c-0.02-2.35-0.2-4.69-0.15-7.03c0.06-3.17,0.06-6.34,0.17-9.51
		c0.11-3.48,0.3-6.95,0.57-10.42c0.38-4.88,0.84-9.75,1.46-14.61c0.5-3.98,1.01-7.95,1.72-11.9
		C494.04,267.18,493.79,266.65,494.16,266.2z"/>
	<path class="st19" d="M580.27,353.22c-0.36,0.67-0.05,1.41-0.19,2.1c-1,0.18-2,0.07-3,0.08c-2.23,0.02-4.46,0.01-6.68,0
		c-0.31,0-0.63,0.08-0.92-0.09c0.07-1.36,0.34-2.68,0.58-4.02c0.39-2.2,1-4.35,1.33-6.57c0.31-2.14,0.87-4.25,1.21-6.39
		c0.26-1.61,0.62-3.19,0.91-4.79c0.06-0.31,0.29-0.48,0.33-0.76c-0.17-0.25,0.02-0.41,0.16-0.58c2.18-5.31,4.8-10.38,8.29-15.15
		c0.25,0.8-0.03,1.37-0.14,1.93c-1.76,8.9-3.51,17.79-4.81,26.77c-0.05,0.38-0.06,0.76-0.08,1.14c-0.21,0.55,0.04,1.1-0.03,1.64
		c0.02,0.13,0.15-0.04,0.03-0.01c-0.06,0.02-0.07,0-0.06-0.07c0.02-0.23,0.09-0.43,0.25-0.6c1.46-4.09,3-8.15,5.12-11.95
		c0.84-1.5,1.75-2.94,2.88-4.23c0.18-0.05,0.27,0,0.2,0.2c-2.17,5.55-3.95,11.2-4.85,17.11
		C580.57,350.39,580.44,351.8,580.27,353.22z"/>
	<path class="st48" d="M535.73,334.07c0.07-0.06,0.14-0.12,0.21-0.18c0.86,0.29,0.39,0.96,0.29,1.39c-0.17,0.76-0.1,0.98,0.74,0.79
		c0.71-0.16,1.47-0.25,2.18,0.08c-0.23,0.01-0.45,0.03-0.68,0.04c-0.45,0.18-0.95-0.05-1.4,0.15c-0.22,0.03-0.45,0.03-0.65,0.11
		c-0.64,0.25-0.72-0.09-0.66-0.6c0.01-0.09,0.07-0.18,0.08-0.27c0.19-1.27,0.15-1.32-1.15-1.32c-1.7,0-3.41,0.03-5.11-0.02
		c-0.63-0.02-0.84,0.19-0.83,0.81c0.02,0.98-0.03,1.97-0.03,2.95c0,0.42-0.09,0.62-0.56,0.66c-1.63,0.15-3.26,0.33-4.89,0.53
		c-0.54,0.06-0.64-0.17-0.64-0.64c0.02-1.68,0-3.36,0-5.04c-0.34-1.19-0.13-2.4-0.05-3.58c0.23-3.29,0.53-6.58,0.86-9.86
		c0.42-4.11,0.97-8.2,1.49-12.29c0.06-0.44,0.06-0.89,0.09-1.33c0.03-0.38,0.04-0.78,0.46-0.97c0.25-1.45,0.51-2.9,0.74-4.35
		c0.46-2.83,0.89-5.67,1.34-8.5c0.64-3.99,1.35-7.96,2.27-11.89c0.04-0.19,0.06-0.37,0.3-0.53c0.18,0.89-0.11,1.7-0.09,2.52
		c0.11,4.28-0.15,8.56-0.26,12.84c-0.06,2.56,0.05,5.14-0.17,7.69c-0.2,2.35,0.01,4.7-0.18,7.03c-0.23,2.76,0.01,5.52-0.2,8.26
		c-0.17,2.19,0.04,4.38-0.18,6.55c-0.31,2.94,0.05,5.89-0.26,8.82c0,0.04,0.08,0.09,0.12,0.13
		C531.19,333.95,533.46,333.93,535.73,334.07z"/>
	<path class="st25" d="M525.49,305.49c-0.39,0.96-0.19,2-0.34,2.99c-0.52,3.46-0.94,6.93-1.33,10.41c-0.26,2.32-0.42,4.65-0.61,6.98
		c-0.2,2.55-0.38,5.1-0.57,7.65c-0.94,0.07-1.88,0.15-2.82,0.22c-0.23-0.34-0.22-0.72-0.22-1.1c0-3.27-0.14-6.55,0.03-9.81
		c0.27-5.01-0.04-10.02,0.2-15.03c0.12-2.57,0.02-5.13,0.16-7.69c0.2-3.6,0.22-7.21,0.4-10.81c0.12-2.36,0.13-4.74,0.53-7.08
		c0.24-0.35-0.05-0.79,0.19-1.14c0,0,0,0,0,0c0.25,1.18,0.48,2.36,0.76,3.53c0.29,1.2,0.6,2.42,0.81,3.62
		c0.23,1.34,0.51,2.68,0.72,4.03c0.16,0.98,0.33,1.97,0.63,2.94c0.22,0.7,0.24,1.47,0.27,2.19c0.06,1.59,0.42,3.1,0.7,4.65
		C525.21,303.17,525.42,304.33,525.49,305.49z"/>
	<path class="st24" d="M552.96,349.97c0.01,0.07,0.02,0.15,0.04,0.22c0,0.1-0.01,0.2-0.01,0.29c-0.07,1.39-0.07,1.39-1.48,1.39
		c-0.41,0-0.82,0-1.23,0c-1.94,0-1.96,0-1.66-1.97c0.46-3.02,0.52-6.09,0.97-9.11c0.39-2.66,0.45-5.39,1.29-7.98
		c0.8,1.11,0.82,2.34,0.57,3.62c0.26,2.09,0.53,4.17,0.78,6.26c0.25,2.12,0.49,4.24,0.74,6.36c0.03,0.25,0.12,0.48,0.18,0.73
		C553.13,349.89,553.02,349.9,552.96,349.97z"/>
	<path class="st49" d="M531.35,347.65c1.44,0,2.89,0,4.33,0c0,0.06,0,0.12,0,0.19c-1.44,0-2.87,0-4.31,0
		C531.37,347.78,531.36,347.72,531.35,347.65z"/>
	<path class="st50" d="M565.84,329.54c0.05,0.44,0.02,0.85-0.34,1.17c-0.01-0.13-0.03-0.26-0.04-0.39
		c-0.07-0.49-0.15-0.99,0.05-1.47c0.05-0.02,0.09-0.04,0.14-0.06C565.77,329.02,565.57,329.34,565.84,329.54z"/>
	<path class="st51" d="M529.6,345.36c-0.27-0.83-0.32-1.66,0.03-2.48C529.63,343.7,529.61,344.53,529.6,345.36z"/>
	<path class="st52" d="M577.43,347.86c-0.07,0.26-0.14,0.52-0.21,0.78c-0.15-0.6-0.21-1.18,0.02-1.75
		C577.34,347.2,577.13,347.58,577.43,347.86z"/>
	<path class="st53" d="M565.71,327.66c-0.03-0.65-0.08-1.31,0.13-1.94C565.85,326.37,566.01,327.03,565.71,327.66z"/>
	<path class="st19" d="M537.08,336.35c0.44-0.33,0.93-0.12,1.4-0.15C538.03,336.41,537.55,336.35,537.08,336.35z"/>
	<path class="st54" d="M530.55,324.77c-0.28-0.24-0.16-0.56-0.17-0.85c0-0.13,0.09-0.12,0.15-0.03c0.03,0.05,0.04,0.11,0.06,0.17
		C530.58,324.3,530.57,324.53,530.55,324.77z"/>
	<path class="st55" d="M573.98,332.2c-0.05,0.19-0.1,0.38-0.16,0.58c-0.32-0.31-0.18-0.62,0-0.93
		C573.88,331.96,573.93,332.08,573.98,332.2z"/>
	<path class="st56" d="M585.63,331.87c-0.07-0.07-0.13-0.13-0.2-0.2c0.08-0.17,0.23-0.44,0.37-0.33
		C586.02,331.52,585.78,331.72,585.63,331.87z"/>
	<path class="st57" d="M461.31,300.74c0.68,4.25,1.49,8.48,1.9,12.77c0.25,2.6,0.71,5.19,0.74,7.82c-0.5-0.02-0.45-0.47-0.53-0.76
		c-0.87-2.85-1.65-5.72-2.84-8.46c-1.41-3.26-3.06-6.39-5.08-9.32c-0.99-1.43-2.04-2.82-3-4.28c-0.22-0.38-0.41-0.77-0.63-1.16
		c-0.24-0.46-0.52-0.9-0.62-1.42c-1.58-3-3.44-5.84-5.31-8.67c-2.95-4.47-5.94-8.92-8.9-13.38c-0.34-0.51-1.02-1.3-0.67-1.62
		c0.55-0.5,1.15,0.33,1.67,0.66c8.23,5.34,14.37,12.63,19.27,21.04c1.23,2.11,2.42,4.24,3.62,6.37
		C461.1,300.44,461.19,300.6,461.31,300.74z"/>
	<path class="st58" d="M452.54,298.44c0.09-0.02,0.25-0.07,0.27-0.04c1.08,1.98,2.57,3.69,3.78,5.6c1.34,2.11,2.47,4.3,3.56,6.54
		c1.61,3.32,2.57,6.86,3.61,10.38c0.04,0.14,0.13,0.27,0.19,0.41c0.52,4.23,0.76,8.48,0.76,12.75c0,0.48,0.32,0.91,0.16,1.4
		c-0.09-0.47-0.27-0.75-0.84-0.78c-1.43-0.08-2.86-0.33-4.3-0.37c-0.89-0.03-1.28-0.27-1.08-1.19c0.03-0.12-0.01-0.25-0.01-0.38
		c-0.13-0.15-0.24-0.31-0.23-0.51c0.05-1.16,0.15-2.32,0.17-3.48c0-0.16,0.11-0.29,0.24-0.39c-0.11-6.06-0.61-12.08-2.07-17.99
		c-1.06-4.29-2.53-8.42-4.86-12.21c-0.1-0.17-0.32-0.34-0.12-0.59C452.28,297.65,452.38,298.07,452.54,298.44z"/>
	<path class="st46" d="M458.82,328.38c-0.06,1.46-0.12,2.92-0.18,4.38c-1.41,0.13-2.83,0.25-4.24,0.38
		c-0.41,0.04-0.75,0.1-0.92-0.49c-2.76-9.54-6.3-18.8-9.77-28.09c-0.03-0.08-0.04-0.18-0.06-0.31c0.29-0.02,0.38,0.2,0.49,0.35
		c4.84,6.6,9.42,13.36,13.13,20.67C457.79,326.3,458.08,327.46,458.82,328.38z"/>
	<path class="st46" d="M444.98,338.47c-0.5-1.92-0.89-3.87-1.7-5.71c-1.72-3.88-4.32-6.96-7.99-9.11c-0.05-0.03-0.06-0.11-0.09-0.16
		c4.49,0.35,11.03,5.7,13.97,13.63c-0.01,0.05-0.03,0.1-0.04,0.14c-0.31,0.51-0.79,0.69-1.36,0.69c-0.6,0-1.2,0.01-1.79,0
		c-0.37-0.01-0.68,0.07-0.87,0.43C445.06,338.41,445.02,338.44,444.98,338.47z"/>
	<path class="st46" d="M449.17,337.12c0.77,1.5,0.77,1.54-0.86,1.49c-1.11-0.03-2.23,0.21-3.33-0.15c0,0,0.03-0.03,0.03-0.03
		c1.2-0.46,2.45-0.15,3.67-0.2c0.13-0.01-0.03,0.03,0.09,0c0.05-0.01,0.03-0.1-0.03-0.16c-0.04-0.07-0.06-0.14-0.08-0.22
		c-0.06-0.38,0.36-0.43,0.47-0.7L449.17,337.12z"/>
	<path class="st59" d="M453.17,302.2c0.36,0.38,0.56,0.86,0.77,1.33c0.04,0.24-0.06,0.32-0.28,0.25c-0.04-0.06-0.09-0.12-0.13-0.17
		c-0.18-0.16-0.4-0.29-0.51-0.51c-0.13-0.2-0.37-0.35-0.25-0.64C452.82,302.23,453.14,302.44,453.17,302.2z"/>
	<path class="st60" d="M453.67,303.78c0.09-0.08,0.19-0.17,0.28-0.25c0.24,0.37,0.59,0.68,0.51,1.19c-0.26-0.28-0.51-0.56-0.77-0.84
		C453.69,303.87,453.67,303.78,453.67,303.78z"/>
	<path class="st61" d="M452.77,302.45c0.12,0.19,0.24,0.39,0.36,0.58c-0.04,0.08-0.1,0.14-0.18,0.17
		C452.68,303,452.39,302.81,452.77,302.45z"/>
	<path class="st62" d="M461.31,300.74c-0.24-0.04-0.33-0.2-0.37-0.42c0.06-0.12,0.11-0.24,0.17-0.36
		C461.31,300.19,461.28,300.47,461.31,300.74z"/>
	<path class="st63" d="M452.95,303.2c0.06-0.06,0.12-0.11,0.18-0.17c0.13,0.19,0.27,0.38,0.4,0.57
		C453.2,303.68,453.1,303.41,452.95,303.2z"/>
	<path class="st64" d="M529.47,342.11c0-0.68,0-1.36,0-2.05C529.66,340.75,529.63,341.43,529.47,342.11z"/>
	<path class="st23" d="M512.39,290.22c0.33-2.9,0.13-5.8,0.2-8.71c0.01-0.47,0.1-0.93,0.15-1.4c-0.13-0.32-0.04-0.65-0.07-0.98
		c0.12-0.37-0.27-0.87,0.3-1.12c0.16,0.5,0.05,1,0.08,1.5c0.05-1.23-0.19-2.45-0.27-3.67c0.28-4.4,0.39-8.8,0.78-13.19
		c0.11-1.2,0.2-2.4,0.25-3.61c0.02-0.57,0.02-1.15,0.48-1.59c0.81,2.57,1.62,5.14,2.44,7.71c0.44,1.37,0.89,2.74,1.34,4.11
		c-2.18,6.57-3.94,13.24-5.3,20.03C512.71,289.63,512.7,289.98,512.39,290.22z"/>
	<path class="st65" d="M519.59,338.28c-0.22,0.26-0.52,0.17-0.79,0.17c-3.27,0-6.53,0-9.8-0.01c0.22-0.26,0.52-0.17,0.79-0.17
		C513.06,338.28,516.32,338.28,519.59,338.28z"/>
	<path class="st66" d="M519.58,334.3c0,1.26,0.01,2.51,0.01,3.77C519.3,336.81,519.32,335.56,519.58,334.3z"/>
	<path class="st21" d="M521.12,281.08c-0.06,0.38,0.15,0.81-0.19,1.14C520.99,281.84,520.79,281.42,521.12,281.08z"/>
	<path class="st67" d="M535.73,334.07c-2.27,0-4.54-0.01-6.81-0.01c0.26-0.28,0.59-0.17,0.9-0.17c1.68-0.01,3.35-0.01,5.03,0
		C535.15,333.9,535.48,333.79,535.73,334.07z"/>
	<path class="st68" d="M551.44,336.43c-0.05-1.23-0.27-2.43-0.57-3.62c0.04-2.19,0.67-4.29,1.03-6.43c0.09-0.53,0.2-1.05,0.31-1.57
		c0.11-0.07,0.2-0.05,0.26,0.07c-0.01,0.42,0.1,0.85-0.07,1.26c-0.13,1.64-0.24,3.28-0.39,4.92c-0.15,1.61-0.23,3.21-0.19,4.83
		C551.82,336.16,551.77,336.39,551.44,336.43z"/>
	<path class="st69" d="M552.39,326.14c-0.01-0.44-0.01-0.89-0.02-1.33c-0.12-0.32-0.13-0.64,0.01-0.95
		c0.01-0.27-0.02-0.56,0.38-0.57C552.78,324.25,552.64,325.2,552.39,326.14z"/>
	<path class="st21" d="M552.38,323.85c0,0.32-0.01,0.63-0.01,0.95c0,0-0.09,0-0.09,0s-0.09,0-0.09,0
		C552.24,324.48,552.07,324.12,552.38,323.85z"/>
	<path class="st39" d="M479.54,257.06c0.25,3.88,0.51,7.76,0.75,11.64c0.08,1.29,0.09,2.58,0.16,3.87c0.12,2.07,0.36,4.15,0.24,6.24
		c-0.28,2-0.56,4-0.83,6c-0.18,1.38-0.37,2.75-0.49,4.14c-0.51,5.95-0.48,11.91-0.37,17.87c0.07,3.67,0.32,7.33,0.56,10.99
		c0.28,4.26,0.56,8.52,0.79,12.78c0.11,1.92,0.08,3.86,0.32,5.78c-0.07,0-0.14-0.01-0.21-0.01c-0.97-0.17-1.95-0.03-2.92-0.08
		c-0.34-0.02-0.69,0.08-1.02-0.08c-0.01-0.32-0.03-0.63-0.04-0.95c0-3.55,0.13-7.11-0.03-10.66c-0.12-2.57-0.01-5.13-0.16-7.69
		c-0.21-3.41-0.17-6.83-0.38-10.24c-0.17-2.71-0.22-5.43-0.38-8.14c-0.16-2.74-0.21-5.5-0.42-8.23c-0.09-1.18,0.17-2.32,0.05-3.48
		c-0.33-1.36-0.01-2.71,0.14-4.06c0.87-8.15,2-16.26,3.48-24.33c0.09-0.49,0.08-1.03,0.58-1.35
		C479.42,257.06,479.48,257.06,479.54,257.06L479.54,257.06z"/>
	<path class="st70" d="M512.74,274.96c0.14,0.37-0.1,0.8,0.19,1.14c0.21,0.63,0.19,1.25,0.01,1.88c-0.23,0.36-0.11,0.79-0.19,1.18
		c-0.05,0.1-0.1,0.09-0.14-0.01C512.63,277.76,512.45,276.35,512.74,274.96z"/>
	<path class="st71" d="M513.17,259.77c-0.01,0.24-0.02,0.48-0.03,0.72c-0.38-0.68-0.11-1.39-0.04-2.09
		C513.13,258.85,513.15,259.31,513.17,259.77z"/>
	<path class="st72" d="M512.6,279.15c0.05,0.01,0.09,0.01,0.14,0.01c0,0.32,0,0.63,0,0.95C512.47,279.83,512.61,279.48,512.6,279.15
		z"/>
	<path class="st73" d="M476.53,336.18c1.31,0.09,2.64-0.21,3.94,0.16C479.15,336.29,477.83,336.59,476.53,336.18z"/>
	<path class="st74" d="M473.49,265.57c0-2.12,0-4.24,0-6.35c0.03,0,0.06,0,0.09,0c0,2.13,0,4.27,0,6.4
		C473.55,265.6,473.52,265.59,473.49,265.57z"/>
	<path class="st75" d="M476.86,229.24c-0.11,0.12-0.22,0.25-0.33,0.37c0-0.35-0.12-0.74,0.33-0.93
		C476.86,228.86,476.86,229.05,476.86,229.24z"/>
	<path class="st39" d="M479.54,257.06c0-0.43,0-0.86,0-1.29C479.67,256.2,479.89,256.64,479.54,257.06L479.54,257.06z"/>
	<path class="st76" d="M565.51,328.84c-0.02,0.49-0.03,0.98-0.05,1.47c-0.32-0.53-0.1-1.1-0.14-1.65c0-0.01,0.06-0.04,0.06-0.03
		C565.42,328.7,565.46,328.77,565.51,328.84z"/>
	<path class="st77" d="M448.78,337.89c0.18,0.16,0.36,0.32,0.62,0.55c-1.51,0-2.95,0-4.4,0c-0.09-0.5,0.07-0.78,0.64-0.74
		c0.47,0.03,0.94-0.02,1.41,0.01c0.77,0.06,1.48-0.04,2.09-0.55C449.02,337.41,448.9,337.65,448.78,337.89
		c-0.76,0.41-1.59,0.05-2.37,0.22C447.19,337.97,448.02,338.3,448.78,337.89z"/>
	<path class="st78" d="M512.94,277.99c0-0.63-0.01-1.25-0.01-1.88c0.02-0.06,0.04-0.11,0.06-0.17c0.37,1.26,0.04,2.53,0.18,3.8
		c-0.08,0-0.16,0-0.23,0.01C512.94,279.16,512.94,278.57,512.94,277.99z"/>
	<path class="st46" d="M448.78,337.89c-0.06,0.11-0.12,0.3-0.18,0.3c-1.1,0.02-2.2,0.01-3.3,0.01c0-0.11,0-0.21-0.01-0.32
		C446.46,337.89,447.62,337.89,448.78,337.89C448.78,337.89,448.78,337.89,448.78,337.89z"/>
</g>
<g>
	<path class="st79" d="M370.94,187.23"/>
	<path class="st80" d="M336.37,182.91c-0.98-0.11-2.35-0.34-3.93-0.87c-1.15-0.39-2.88-1.45-6.3-3.57c-1.66-1.38-2.83-2.5-3.22-2.99
		c-0.27-0.33-0.36-0.59-0.47-0.88c-0.11-0.32-0.11-0.48-0.06-0.6c0.1-0.23,0.38-0.31,0.45-0.33c0.84-0.25,1.95,1.56,4.22,2.61
		c0.11,0.05,1.41,0.65,1.57,0.4c0.1-0.14-0.22-0.54-0.47-0.77c-0.41-0.38-0.73-0.39-1.41-0.74c-0.23-0.12-0.46-0.27-0.9-0.56
		c-0.82-0.54-1.07-0.79-1.9-1.41c-1.51-1.13-1.94-1.24-2.09-1.85c-0.02-0.08-0.18-0.74,0.17-1.05c0.32-0.27,0.86-0.09,1.05-0.03
		c0.5,0.17,0.75,0.46,1.12,0.81c0.29,0.26,0.7,0.54,1.52,1.1c0.75,0.51,2.71,1.83,3.53,1.26c0.02-0.01,0.27-0.19,0.25-0.39
		c-0.04-0.29-0.68-0.41-1.03-0.5c-0.47-0.12-1.22-0.58-2.73-1.51c-1.15-0.7-1.73-1.07-2.37-1.69c-0.69-0.67-1.33-1.32-1.19-2.02
		c0.09-0.44,0.48-0.88,0.88-0.9c0.36-0.02,0.56,0.31,1.3,0.98c0,0,0.47,0.43,1.16,0.94c0.8,0.6,0.97,0.49,2.46,1.29
		c1.06,0.57,1.59,0.96,1.82,0.77c0.12-0.1,0.11-0.32,0.08-0.48c-0.85-0.41-1.85-0.97-2.88-1.76c-0.67-0.51-1.23-1.03-1.71-1.51
		c-0.86-0.7-1.17-1.58-0.89-2.04c0.18-0.3,0.58-0.38,0.62-0.38c0.22-0.04,0.41,0.01,1.6,0.74c0.66,0.41,0.95,0.6,1.24,0.82
		c0.27,0.2,0.43,0.35,0.53,0.42c0.88,0.72,1.8,0.85,3.42,1.52c0.44,0.18,0.79,0.35,1.49,0.68c1.21,0.58,2.18,1.11,2.81,1.47
		c0.59-0.19,0.74-0.41,0.78-0.57c0.09-0.41-0.48-0.78-1.81-2.05c-1.04-1-1.37-1.42-1.36-1.95c0-0.07,0.01-0.54,0.32-0.77
		c0.5-0.38,1.44,0.08,1.92,0.32c3.78,1.93,5.79,3.65,5.79,3.65c2.2,1.8,3.69,3.44,4.03,4.08c2.13,3.97,4.86,6.72,8.34,9.12
		c-0.25,3.11-0.5,6.22-0.75,9.33c-0.6-0.25-4.66-1.96-8.04-3.5c-0.72-0.33-1.64-0.75-2.77-1.47c-1.04-0.66-1.35-1.07-2.08-1.5
		C339.58,184.07,338.2,183.4,336.37,182.91z"/>
	<path class="st81" d="M395.44,421.46c-7.2-2.99-8.12-5.06-6.17-13.89c-0.33-0.59-0.63-0.58-0.89,0.05
		c-0.23,0.01-0.46,0.03-0.69,0.07c-2.35,0.12-4.61,1.04-7,0.81c-4.92-0.69-9.84-0.14-14.75,0.04c-1.8,0.89-4.39,0.68-4.76,3.53
		c-0.39,2.93,0.39,5.23,2.93,7.04c4.7,3.34,10.19,5.03,15.3,7.52c4.61,2.24,9.48,3.94,14.23,5.88c4.77-2,7.3-6.66,11.34-9.56
		c1.18-0.85,1.49-2.74,1.04-4.4c-0.06-0.44-0.12-0.87-0.17-1.31c0.31-2.23-1.67-2.81-2.35-1.64
		C401.59,418.88,397.76,419.07,395.44,421.46z"/>
	<path class="st82" d="M435.21,274.33c-0.29-0.29-0.58-0.58-0.87-0.87C434.63,273.75,434.92,274.04,435.21,274.33z"/>
	<path class="st83" d="M455.27,407.17c0.27-0.34,0.47-0.46,0.87-0.91c0.35-0.38,0.62-0.7,0.79-0.92c0.04-0.33,0.07-0.7,0.11-1.1
		c0,0,0.04-0.43,0.08-0.86c0.58-6.34,0.51-13.14,0.51-13.14c-0.08-7.74-0.25-11.61-0.27-14.66c-0.06-17-0.02-34-0.02-51
		c0,5.77-0.04,11.53,0.03,17.3c0.01,1.23-0.54,2.61,0.59,3.67c0.96-11.66,0.67-23.34,0.55-35.02c-0.67-4.56-0.13-9.14-0.31-13.7
		c-0.08-1.53-0.85-2.7-1.89-3.75c-5.65-5.75-11.34-11.47-17.12-17.09c-1.14-1.11-2.35-2.32-4.08-0.87c-1.4,1.78-0.98,3.93-0.85,5.86
		c0.94,14.53,2.29,29.02,3.42,43.53c0.76,9.77,1.83,19.51,2.41,29.3c0.4,6.76,0.52,13.55,1.37,20.27c0.52,4.15-0.12,7.74-3.23,10.7
		c-0.73,0.69-1.38,1.48-1.89,2.36c-0.71,1.21-0.86,2.52-0.06,3.69c0.89,1.29,2.22,1.27,3.47,0.55c2.34-1.34,3.75-0.66,3.65,1.96
		c-0.18,4.78,1.33,9.46,0.68,14.24c-0.32,2.38,0.47,3.95,2.78,4.65c0.86,0.26,2.77,1.07,4.56,0.2c1.14-0.56,1.8-1.62,2.1-2.1
		c0.69-1.09,1.14-2.06,1.14-2.06C454.83,407.89,454.96,407.57,455.27,407.17z"/>
	<path class="st84" d="M389.51,355.7c-0.02,1.16-0.04,2.32-0.06,3.48c0.03,6.87-0.02,13.9-0.19,21.09
		c-0.19,8.28-0.5,16.35-0.92,24.19c-0.16,2.31-0.21,4.28-0.22,5.82c-0.03,3.92,0.2,5.12,0.76,6.31c0.73,1.56,1.72,2.49,2.04,2.77
		c1.74,1.56,3.67,1.97,4.52,2.09c1.04-4.04,2.46-10.05,3.74-17.39c3.28-18.69,2.26-29.99,3.76-50.46
		c1.08-14.81,2.28-29.61,3.32-44.42c0.65-9.3,6.24-36.82,3.92-46.98c-0.48-2.11-1.91-6.27-1.78-12.25c0.06-2.6,0.36-3.54-0.13-4.89
		c-0.88-2.43-3.94-5.16-13.75-6.29c-0.33,2.31-0.78,5.74-1.17,9.9c-0.33,3.59-0.5,5.55-0.82,14.33c-0.02,0.62-0.29,6.12-0.82,17.13
		c-0.24,5.08-0.45,9.19-0.58,11.77c0.01,5.2-0.06,10.52-0.2,15.97c-0.16,6.05-0.41,11.96-0.74,17.7c2.78,0.58,4.11,1.79,4.76,2.57
		c3.59,4.28,0.71,12.29-2.03,19.68C391.93,350.5,390.14,352.85,389.51,355.7z"/>
	<path class="st83" d="M459.37,233.63c-8.89,9.35-20.68,11.76-32.68,13.58c-3.67,0.56-7.42,0.63-11.14,0.87
		c-1.57,0.1-3.25-0.15-3.9,1.85c0.81,1.42,2.25,1.67,3.65,2c6.44-0.01,12.84,0.16,19.26-1.31c5.82-1.33,11.06-4.1,16.73-5.73
		c3.87-1.11,4.29-0.95,4.31,3.04c0.07,10.52,0.07,21.03,0,31.55c-0.03,4.62,0.14,9.2,1.02,13.74c0.42,0.8,0.58,1.88,1.89,1.7
		C458.8,274.49,459.09,254.06,459.37,233.63z"/>
	<path class="st83" d="M458.52,294.92c-0.29-0.54-0.58-1.07-0.86-1.61c-1.4-4.91-5.3-7.93-8.66-11.34c-2.6-2.64-5.17-5.31-7.9-7.82
		c-1.24-1.14-2.44-2.53-4.47-1.77c-0.4,0.2-0.71,0.5-0.93,0.89c-0.2,0.67-0.1,1.28,0.43,1.78c6.06,5.92,12.11,11.84,18.18,17.75
		c1.13,1.1,2.35,2.1,3.53,3.15c0.24,0.45,0.45,0.44,0.65-0.03C458.5,295.59,458.51,295.26,458.52,294.92z"/>
	<path class="st83" d="M458.49,295.92c-0.14,0.04-0.24,0.04-0.33,0.01c-0.48-0.16-0.67-1.21-0.52-2.62
		c-0.21,3.09-0.25,6.6,0.04,10.45c0.18,2.43,0.47,4.69,0.83,6.78C458.51,305.67,458.5,300.8,458.49,295.92z"/>
	<path class="st83" d="M415.32,250.84c-1.22-0.3-2.43-0.6-3.65-0.9c-0.15-0.02-0.29-0.01-0.43,0.03c0,0-0.34-0.07-0.34-0.07
		c-1.02,1.94,0.53,2.91,1.58,4.01c2.78,2.91,5.74,5.66,8.52,8.58c3.19,3.33,3.16,4.53-0.1,7.94c-2.69,2.81-5.56,5.43-8.18,8.31
		c-1.2,1.32-2.46,2.81-0.89,4.51c1.6,1.75,3.38,1.09,4.94-0.31c2.79-2.5,5.47-5.12,7.98-7.89c2.5-2.77,5.09-3.57,8.31-1.4
		c1.05,0.38,2.06,0.43,3.02-0.26l0.05-0.04c1.45-1.43,1.1-2.86-0.13-4.16c-5.41-5.75-10.95-11.38-16.76-16.74
		C418.16,251.45,416.77,251.01,415.32,250.84z"/>
	<path class="st83" d="M433.53,272.4c-4.09-4.84-4.19-4.85-8.53-0.52c-3.72,3.7-7.45,7.4-11.58,10.71c0.81-3.42,3.59-5.2,5.77-7.42
		c4.33-4.41,6.51-6.61,6.5-8.81c-0.01-2.77-2.46-4.01-6.64-8.78c-3.34-3.8-5.51-7.34-6.82-9.7c-0.62-0.02-1.32-0.09-2.1-0.23
		c-0.7-0.13-1.32-0.29-1.86-0.47c-1.32,18.48-2.32,33.16-2.99,43.28c-0.56,8.38-1.16,17.23-2.08,30.18
		c-1.49,20.98-3.39,41.93-4.46,62.94c-0.54,10.63-2.04,21.22-3.05,31.83c-0.19,2.01-0.17,4.03-0.24,6.05
		c0.92,0.23,2.59,0.52,4.57,0.04c3.54-0.87,5.38-3.58,5.82-4.27c3.01-3.38,2.13-7.88,3.36-11.78c0.34-1.07,0.51-2.2,0.76-3.3
		c1.1-1.43,1.53-3.14,1.41-4.84c-0.14-2.08,0.25-4.1,1-5.88c4.24-10.1,4.5-21.01,6.58-31.53c1.95-9.88,3.25-19.89,4.93-29.83
		c0.5-2.98,1.31-5.97,1.07-8.98c-0.3-3.68,2.45-6.32,2.82-9.7c0.46-9.33,2.57-18.44,3.74-27.68c0.31-2.43,0.83-4.83,2.07-6.98
		C434.41,275.25,434.88,273.83,433.53,272.4z"/>
	<path class="st84" d="M433.53,272.4c-6.16,10.26-5.4,22.08-7.46,33.27c-0.31,1.67-0.29,3.4-0.43,5.1
		c-1.62,8.52-0.33,16.96,0.81,25.38c0,0,1.65,22.73,6.03,44.15c0,0,4.21,20.6,4.23,22.25c0,0.07-0.01,0.48,0.17,0.98
		c0.15,0.42,0.36,0.7,0.44,0.81c0.42,0.56,1.19,1.71,2.24,3.3c1.41,3.3,0.28,6.72,0.42,10.07c0.2,5.03,1.26,6.9,5.71,8.32
		c3.39,1.08,5.76-0.47,7.51-3.29c0.92-2.53-1.62-3.32-2.34-4.78c0.67,0.99,1.82,1.86,2.66,3c0.26,0.31,0.58,0.5,0.98,0.58
		c0.68-2.03,0.84-4.09,0.84-6.15c0-1.84-0.36-4-0.1-7.55c0.02-0.29,0.04-0.52,0.05-0.68c-0.13,0.18-0.32,0.43-0.57,0.71
		c-0.45,0.51-1.42,1.48-3.03,2.16c-1.24,0.53-3.11,1.29-4.49,0.48c-1.44-0.84-0.78-2.27-0.83-3.53c-0.07-1.71-0.14-3.41-0.2-5.12
		c-0.16-4.94-1.6-18.47-2.16-24.8c-0.62-7.1-0.41-9.89-0.9-17.39c-0.65-9.84-1.72-21.57-4.17-44.15
		c-1.45-13.44-1.91-26.99-2.81-40.49c-0.02-0.56-0.04-1.12-0.06-1.68C435.22,273.05,434.37,272.72,433.53,272.4z"/>
	<path class="st2" d="M438.74,407.57c-3.06-11.26-3.63-22.9-5.24-34.38c-2.63-18.78-4.96-37.61-7.38-56.42
		c-0.26-1.99-0.33-4-0.48-6.01c-2.54,4.82-2.3,10.25-3.21,15.4c-3.58,20.24-6.89,40.53-10.24,60.81
		c-0.84,5.04-1.49,10.12-2.23,15.18c2.42-0.52,1.75-2.67,1.76-4.04c0.05-4.31,1.15-7.23,5.96-8.47c3.74-0.96,7.35-2.47,11.21-3.06
		c1.79-0.27,3.27-0.08,4.24,0.79c0.98,0.87,1.14,2.15,1.26,3.25c0.72,6.46,0.43,8.6,1.11,11.15
		C435.88,403.21,436.71,405.28,438.74,407.57z"/>
	<path class="st83" d="M415.32,250.84c5.77,5.91,11.55,11.82,17.32,17.74c1.39,1.42,3,2.68,3.48,4.76c2.71,0.65,4.14,2.94,5.96,4.7
		c5.23,5.05,10.39,10.18,15.58,15.28c0.05-15.43,0.09-30.87,0.14-46.3c0-0.87,0.09-1.74,0.01-2.59c-0.18-1.81,1.43-4.13-0.32-5.32
		c-2.32-1.58-2.69,1.82-4.32,2.5c-9.72,4.06-19.44,8.06-30.2,8.37C420.4,250.04,417.74,249.47,415.32,250.84z"/>
	<path class="st79" d="M470.65,142.36c-0.23-0.6-0.46-1.2-0.69-1.8c-3.09,0.94-3.47-1.97-4.41-3.48c-4.2-6.79-13.74-8.92-19.72-3.62
		c-3.79,3.36-8.44,3.22-12.7,4.53c-1.57,0.48-3.61,1.94-4.62,1.43c-5.07-2.54-10.31-0.59-15.41-1.2c-0.11,0.06-0.21,0.12-0.32,0.18
		c0.1-0.06,0.21-0.12,0.31-0.18c0.02-0.28,0.03-0.56,0.03-0.84l-0.04-0.04c-3.01-0.13-5.53,2.27-8.64,1.66c0,0,0.07-0.05,0.07-0.05
		c-0.29,0.94-1.04,0.95-1.82,0.92c-0.27-0.01-0.54,0.04-0.8,0.13c-1.63,2.77-2.94,5.85-6.87,6.15c-1.05,0.08-1.44,1.18-1.62,2.25
		c-0.4,2.4-1.57,4.63-0.96,7.25c0.32,1.38,0.39,2.94-1.2,4.2c-3.54,2.8-2.55,6.72-2.76,10.5c2.37-0.21,2.1-3.98,4.29-2.46
		c1.55,1.07,0.37,3.17-0.21,4.74c-0.64,1.73-1.14,3.66-3.84,2.45c-1.86-0.84-1.21,0.93-1.3,1.64c-0.6,4.61-1.42,9.22-1.57,13.85
		c-0.12,3.69-1.95,3.2-3.97,2.12c-3.81-2.04-7.93-3.37-11.76-5.24c-3.54-1.73-7.58-3.06-10.04-6.58c0,0,0.05,0.05,0.05,0.05
		c-1.53-0.31-3.93,1.34-4.19-1.85c0,0-0.03,0.06-0.03,0.06c-0.69-0.44-1.94-1.07-3.51-0.98c-2.79,0.16-5.6,2.56-5.41,4.79
		c0.06,0.68,0.38,1.24,0.76,1.69c0.07-0.01,1.16-0.2,1.86,0.58c0.4,0.45,0.46,0.98,0.47,1.17c-3.81-1.24-5.95-1.47-6.41-0.7
		c-0.61,1.01,1.69,3.77,6.9,8.26c0,0-0.03-0.03-0.03-0.03c1.43,1.11,2.58,2.05,3.37,2.7c1.9,1.58,2.8,2.41,5.17,4.37
		c0,0,1.01,0.83,2,1.62c8.55,6.89,17.44,13.19,28.59,15.38c1.41,0.28,1.97,0.92,1.97,2.25c0,0.71,0.09,1.43,0.01,2.14
		c-0.21,1.97-0.3,8.06,0.39,12.02c0.3,1.7,0.93,4.18,2.46,7.09c5.01,5.75,11.54,7.78,18.47,7.78c16.71,0,32.87-2.38,46.36-13.58
		c4.23-6.58,1.33-13.37,0.5-20.07c-0.43-3.51-0.81-6.99-0.41-10.52c0.11-0.97,0.31-2.42,1.38-3.34c0.68-0.58,1.27-0.58,2.28-1.15
		c1.22-0.69,2-1.62,2.46-2.27c-0.01-0.01-0.02-0.01-0.04-0.02c-0.02-0.01-0.04-0.02-0.04-0.02c0.54-0.9,1.37-2.39,2.16-4.32
		c1.04-2.56,1.52-4.71,2.76-11.73c0.64-3.64,0.96-5.45,1.08-6.27c0.58-4.01,1.79-12.72,0.7-23.77
		C471.93,149.72,471.5,146.35,470.65,142.36z"/>
	<path class="st85" d="M418.74,123.62c-2.74,3.37-3.17,7.88-5.65,11.38c13.24,2.84,26.18,4.39,35.99-8.07
		c-3.71-1.41-6.67-3.36-6.04-8.05c0.15-1.11-0.37-1.89-1.54-2.12c-0.33,2.02,1.51,4.63-1.61,5.87c-6.17,2.46-12.35,4.86-19.18,2.78
		c-0.78-0.34-1.43-0.81-1.58-1.73L418.74,123.62z"/>
	<path class="st79" d="M344.55,179.2c-0.96,1.39-1.15,2.8-1.28,3.84c-0.1,0.82-0.18,1.47-0.06,2.27c0.47,3,3.3,4.77,4.6,5.59
		c1.54,0.97,2.32,1.45,3.2,1.22c1.82-0.47,1.79-3.29,3.74-3.95c1.26-0.43,2.52,0.32,3.34,0.76c3.26,1.73,3.09,0.36,11.91,2.72
		c5.33,1.43,8,2.14,10.6,3.32c2.3,1.04,3.39,1.77,5.33,1.75c3.88-0.04,6.57-3.03,6.9-3.41c2.35-2.69,2.57-5.9,2.62-6.82
		c0.23-4.22-1.89-7.42-0.61-8.39c0.58-0.44,1.22,0.08,2.01-0.52c0.99-0.76,0.97-2.35,0.96-3.23c-0.02-1.73-0.63-2.99-1.14-4.02
		c-0.69-1.4-1.47-2.98-3.15-3.67c-0.35-0.14-1.01-0.4-1.83-0.26c-1.28,0.22-2.01,1.24-2.18,1.5c0.14-4.99,1.46-6.9,2.71-7.7
		c0.52-0.34,1.46-0.75,2.18-1.83c0.25-0.37,0.8-1.31,0.87-3.15c0.14-3.64-1.83-5.35-0.96-6.55c0.56-0.78,1.62-0.39,2.88-0.79
		c1.66-0.52,3.51-2.37,4.69-7.9c-6.05,2.5-10.43,6.29-12,13.14c-2.67,11.66-4.33,23.45-5.61,35.3c-0.17,1.56-0.46,2.42-1.04,2.73
		c-0.96,0.52-2.32-0.28-2.84-0.58c0,0-12.11-7.03-29.01-13.4c-0.57-0.22-1.14-0.3-1.14-0.3c-0.81-0.12-1.46-0.03-1.92,0.04
		c-0.68,0.1-1.3,0.19-1.97,0.54C345.41,177.96,344.9,178.68,344.55,179.2z"/>
	<path class="st79" d="M449.08,126.93c-9.81,12.45-22.76,10.9-35.99,8.07c-1.43,0.47-2.92,1.02-4.47,1.67
		c-2.66,1.11-5.04,2.3-7.12,3.49c1.11,4.85,5.1,7.08,7.42,6.24c1.71-0.62,2.86-3.03,2.88-5.77c1.63,1.04,4.15,2.38,7.43,3.15
		c3.46,0.8,5.72,0.48,9.17,0.35c6.41-0.24,5.48,0.6,16.78,0.96c8.4,0.27,4.24-0.35,13.02-0.26c2.95,0.03,6.42,0.13,9.52-2.1
		c1.06-0.76,1.78-1.58,2.24-2.18C466.44,130.73,459.16,126.69,449.08,126.93z"/>
	<path class="st79" d="M354.85,197.39c-0.31-0.31-0.62-0.61-0.93-0.92C354.23,196.78,354.54,197.09,354.85,197.39z"/>
	<path class="st79" d="M355.73,198.22c-0.32-0.3-0.63-0.6-0.95-0.91C355.1,197.62,355.42,197.92,355.73,198.22z"/>
	<path class="st86" d="M413.1,138.21c-0.1,0.06-0.21,0.12-0.31,0.18C412.9,138.33,413,138.27,413.1,138.21
		C413.11,138.22,413.1,138.21,413.1,138.21z"/>
	<path class="st79" d="M413.13,137.37c0.12-0.12,0.23-0.25,0.35-0.37c-0.13,0.11-0.26,0.22-0.39,0.33
		C413.09,137.33,413.13,137.37,413.13,137.37z"/>
	<path class="st87" d="M423.78,96.65c1.17-0.26,1.43-1.68,2.11-1.58c0.21,0.03,1.08,0.3,1.52,5.37c0.4,4.51,0.2,5.16,0.21,8.32
		c0.02,5.94,3.45,9.47,9.42,9.56c1.46,0.02,2.92-0.15,4.38-0.23c1.7-4.71,5.9-7.12,9.15-10.48c6.81-7.04,8.02-16.25,6.29-25.48
		c-1.61-8.59-8.66-12.14-16.28-14.32c-5.68-1.62-11.53-2.35-17.25-0.11c-2.99,1.17-6.01,2.57-6.17,6.54
		c1.81,1.73,2.18,3.14,2.18,4.1c0,1.71-1.14,2.39-1.65,5.02c-0.27,1.4-0.19,2.46-0.11,3.62c0.17,2.35,0.34,4.63,1.88,6.57
		C419.82,94,421.9,97.07,423.78,96.65z"/>
	<path class="st80" d="M441.8,116.45c-1.42,0.33-2.83,0.75-4.27,0.98c-1.97,0.32-5.06,0.47-7.24-1.31c-1.42-1.16-1.85-2.7-2.33-4.4
		c-0.73-2.61-0.24-3.58-0.45-10.15c-0.06-1.89-0.17-3.91-1.53-5.62c-0.4-0.51-1.11-1.39-1.86-1.28c-1.28,0.18-1.35,2.98-3.41,3.72
		c-0.46,0.17-0.67,0.08-1.01,0.35c-0.81,0.65-0.67,2.07-0.94,3.11c-1.03,3.9,0.11,10.43,0.09,11.34c-0.05,3.44,0.15,6.87,0,10.31
		c-0.02,0.38-0.07,1.43,0.58,2.28c0.61,0.8,1.65,1.15,2.91,1.32c5.68,0.73,10.93-1.08,16.26-2.6
		C443.3,123.16,442.34,119.77,441.8,116.45z"/>
	<path class="st80" d="M409.85,97.42c-0.25,1.43-0.49,3.82,0.21,6.61c0.18,0.71,0.56,2.21,1.47,3.72c2.22,3.68,6.1,5.07,7.63,5.52
		c1.5-0.89,8.19-5,8.4-9.88c0.03-0.62-0.02-1.83-0.14-2.94c-0.32-3.05-0.5-4.84-1.44-6.21c-2.01-2.96-5.62-1.22-7.36-3.96
		c-1.19-1.87-1.3-4.72-0.25-6.82c1.71-3.44,1.38-6.42-1.21-9.2c-2.6,2.63-3.59,6.01-3.64,9.49
		C413.45,88.68,410.72,92.78,409.85,97.42z"/>
	<path class="st86" d="M405.42,210.36c2.2-4.23,3.15-7.67,4.37-12.23c1.09-4.06,1.66-7.19,2.8-13.46c0.64-3.52,1.01-5.93,1.22-8.91
		c0.18-2.44,0.19-4.49,0.17-5.94c-0.47-0.9-0.95-1.79-1.42-2.69c-0.35,6.22-0.94,11.4-1.47,15.22c-0.45,3.32-0.87,6.33-1.75,10.37
		c-1.22,5.59-2.4,8.94-4.08,13.72c-1.24,3.5-2.06,5.23-3.48,7.05c-1.01,1.29-2.23,2.83-4.45,3.82c-2.29,1.03-4.39,0.92-5.07,0.87
		c-1.49-0.1-2.63-0.46-2.62-0.52c0.02-0.14,5.46,2.23,9.83,0.22C402.09,216.68,403.32,214.4,405.42,210.36z"/>
	<path class="st84" d="M389.51,355.7c8.46-6.31,11.33-23.33,5.02-35.06c-0.47-0.87-0.81-2.26-1.92-1.97
		c-0.7,0.18-1.1,1.53-1.63,2.35c-1.22,3.33-0.66,6.81-0.78,10.22C389.9,339.39,389.73,347.54,389.51,355.7z"/>
	<path class="st81" d="M393.61,431.93c-8.5-3.77-17.01-7.52-25.51-11.31c-0.91-0.41-1.82-0.88-2.63-1.45
		c-5.33-3.72-5.18-6.96,0.46-10.64c-2.56-0.76-4.17,0.49-5.4,2.56c-0.86,5.25,1.71,8.5,6.25,10.51c8.65,3.83,17.33,7.61,26,11.39
		c0.92,0.4,1.86,0.78,2.82,1.06c8.15,2.37,12.05-0.61,11.79-9c-1.77-0.56-2.32,0.68-2.7,1.94c-1.02,3.36-3.32,4.63-6.61,3.84
		C396.28,430.41,395.11,431.63,393.61,431.93z"/>
	<path class="st83" d="M457.96,345.56c0-8.62,0-17.25,0-26.19c-1.55,1.07-1.02,2.21-1.02,3.16c-0.04,20.88-0.03,41.77-0.03,62.65
		c0,1.72-0.12,3.47,0.72,5.08C457.74,375.35,457.85,360.45,457.96,345.56z"/>
	<path class="st84" d="M388.38,407.62c0.3-0.02,0.59-0.03,0.89-0.05c-0.48-14.04,1.16-28.03,0.95-42.06
		c-0.03-2.13,0.27-4.32-0.77-6.33C388.75,375.32,388.1,391.46,388.38,407.62z"/>
	<path class="st81" d="M393.61,431.93c1.36,0.37,2.72,0.77,4.08,1.11c5.32,1.31,8.02-0.48,9.05-5.95c0.13-0.69,0.43-1.35,0.65-2.03
		c0.05-2.28-0.71-4.39-1.39-6.52c-0.36,1.49-1.21,2.89-2.55,3.28C398.2,423.36,396.4,428.1,393.61,431.93z"/>
	<path class="st81" d="M455.19,418.16c0.1-0.78,0.11-1.38,0.13-2.54c0.04-2.88-0.22-3.96-0.14-6.64c0.02-0.79,0.07-1.43,0.09-1.8
		c-0.46,0.61-1.24,1.51-2.45,2.28c-2.39,1.52-4.79,1.47-6.16,1.44c-1.54-0.03-3.59-0.08-5.46-1.49c-0.8-0.6-1.33-1.27-1.65-1.77
		c-0.03,3.74-0.07,7.47-0.09,11.21c-0.03,4.14,1.98,6.85,5.97,7.81c4.27,1.03,7.17-0.72,9.05-5.12v0
		C454.48,421.55,454.97,419.78,455.19,418.16z"/>
	<path class="st86" d="M462.28,187.53c0.53-3.78,0.84-5.93,1.17-9.09c0.45-4.4,0.61-7.55,0.93-13.86c0.06-1.15,0.14-2.81,0.12-5.01
		c-0.01-1.5-0.07-2.75-0.12-3.61c-0.56-2.28-1.12-4.57-1.68-6.85c0.16,2.85,0.39,7.44,0.45,12.38c0.03,2.74,0,5.06-0.11,7.51
		c-0.04,0.95-0.1,1.94-0.18,3c-0.19,2.51-0.43,4.37-0.54,5.27c-0.84,6.6-0.55,4.86-1.32,10.74c-0.66,5-0.82,5.87-1.05,8.39
		c-0.17,1.86-0.59,6.84-0.35,6.87C459.96,203.3,461.58,192.49,462.28,187.53z"/>
</g>
</svg>
