<?xml version="1.0" encoding="utf-8"?>
<!-- Generator: Adobe Illustrator 24.0.3, SVG Export Plug-In . SVG Version: 6.00 Build 0)  -->
<svg version="1.1" id="Layer_1" xmlns="http://www.w3.org/2000/svg" xmlns:xlink="http://www.w3.org/1999/xlink" x="0px" y="0px"
	 viewBox="0 0 2000 145.52" style="enable-background:new 0 0 2000 145.52;" xml:space="preserve">
<style type="text/css">
	.st0{fill:#FFFFFF;}
	.st1{opacity:0;fill:url(#SVGID_1_);}
</style>
<path class="st0" d="M1,0v54.88C494.78-11.67,785.17,0.94,961.8,27.19c100.16,14.88,200.74,28.36,300.97,42.99
	c157.97,23.06,287.74,51.18,435.04,49.59c57.02-0.62,119.76-4.11,119.76-4.11c74.63-4.16,137.54-10.64,184.41-16.37V0H1z"/>
<linearGradient id="SVGID_1_" gradientUnits="userSpaceOnUse" x1="-3.13" y1="70.2291" x2="2000.98" y2="70.2291" gradientTransform="matrix(1 0 0 -1 0 145.89)">
	<stop  offset="0" style="stop-color:#FFFFFF;stop-opacity:0"/>
	<stop  offset="0" style="stop-color:#EBEEF9;stop-opacity:0.1407"/>
	<stop  offset="0" style="stop-color:#B5C4E6;stop-opacity:0.4375"/>
	<stop  offset="0" style="stop-color:#5186C6;stop-opacity:0.8628"/>
	<stop  offset="0" style="stop-color:#2074BB"/>
</linearGradient>
<path class="st1" d="M2000.98,99.29c-46.87,5.73-109.78,12.21-184.41,16.37c0,0-62.74,3.49-119.76,4.11
	c-147.3,1.6-277.07-26.53-435.04-49.59c-100.24-14.63-200.81-28.11-300.97-42.99C783.8,0.89,492.56-11.73-3.13,55.3v21.75
	c166.76-23.8,532.11-67.39,861.92-28.11C1029.66,69.3,1135.02,87,1135.02,87c140.87,23.67,229.61,45.24,381.89,54.52
	c25.86,1.58,62.88,3.74,110.02,3.8C1781.06,145.53,1908.7,122.49,2000.98,99.29z"/>
</svg>
