<?xml version="1.0" encoding="utf-8"?>
<!-- Generator: Adobe Illustrator 24.0.3, SVG Export Plug-In . SVG Version: 6.00 Build 0)  -->
<svg version="1.1" id="Layer_1" xmlns="http://www.w3.org/2000/svg" xmlns:xlink="http://www.w3.org/1999/xlink" x="0px" y="0px"
	 viewBox="0 0 2000 369.41" style="enable-background:new 0 0 2000 369.41;" xml:space="preserve">
<style type="text/css">
	.st0{fill:#2F82BC;}
	.st1{fill:#E8E9EA;}
	.st2{fill:#FFFFFF;}
	.st3{fill:#266DB5;}
	.st4{fill:#E0E0E0;}
	.st5{fill:#F7F3F2;}
	.st6{fill:#0B344C;}
	.st7{fill:#BF9C94;}
	.st8{fill:#E4C1B9;}
	.st9{fill:#D1AEA2;}
	.st10{fill:#1A3054;}
	.st11{fill:#19598C;}
	.st12{fill:#458FCC;stroke:#10283E;stroke-width:8;stroke-miterlimit:10;}
	.st13{fill:#458FCC;stroke:#104568;stroke-width:8;stroke-linecap:round;stroke-miterlimit:10;}
	.st14{fill:#0C3755;}
	.st15{fill:#0C4F88;}
	.st16{fill:#458FCC;}
	.st17{fill:#274672;}
	.st18{fill:#519ED7;}
	.st19{fill:none;stroke:#174B63;stroke-width:3;stroke-miterlimit:10;}
	.st20{fill:#1A3054;stroke:#174B63;stroke-width:3;stroke-miterlimit:10;}
	.st21{fill:#E2E6ED;}
	.st22{fill:#BCC5D3;}
	.st23{fill:none;stroke:#94B1D4;stroke-width:2;stroke-miterlimit:10;}
	.st24{fill:url(#SVGID_1_);}
	.st25{fill:url(#SVGID_2_);}
	.st26{fill:#365C76;}
	.st27{fill:#DDE1F3;}
	.st28{fill:#1B3154;stroke:#1B3154;stroke-miterlimit:10;}
	.st29{fill:#1B3154;stroke:#1B3154;stroke-width:6;stroke-linecap:round;stroke-miterlimit:10;}
</style>
<path class="st0" d="M575,116.18c-18.26,45.5-14.94,111.37,18.88,135.2c11.44,8.06,23.95,9.54,36.99,25.4
	c11.55,14.04,14.96,28.96,16.92,37.95c6.83,31.42-3.45,45.88-5.7,93.9c-1,21.33-2.08,32.12,0.49,41.96
	c12.62,48.34,84.18,93.11,156.71,99.31c90.32,7.73,178.86-44.61,220.34-94.05c11.78-14.04,18.2-52.4,47.18-61.65
	c8.08-2.58,13.9-1.91,31.26-0.82c17.82,1.12,43.82,2.44,76.33,2.94c11.24,0.94,111.06,7.62,177.17-69.18
	c43.64-50.69,68.72-133.27,35.15-200.43c-3.79-7.58-32.16-62.22-91.95-78.29c-31.88-8.57-59.32-2.57-70.46,0
	c-38.87,8.96-39.96,22.96-93.95,51.38c-25.49,13.41-67.77,34.95-115.64,25.03c-14.3-2.96-24.72-6.63-35.4-13.24
	c-22.29-13.79-97.3-81.27-97.3-81.27c-59.86-53.91-196.2-31.31-266.91,31.31C587.96,85.69,577.83,109.13,575,116.18z"/>
<polygon class="st1" points="870.67,200.93 953.46,200.93 953.46,252.77 879.5,246.4 "/>
<path class="st2" d="M831.6,203.69c-4.12,2.55-8.24,5.1-12.36,7.65c-2.61,2.21-6.49,5.75-10.62,10.62
	c-6.09,7.18-9.49,13.45-11.15,16.46c-5.41,9.82-13.39,23.22-24.96,41.95c-9.48,13.44-13.22,25.78-14.87,33.45
	c-2.28,10.64-5.19,24.19,2.12,31.86c4.02,4.22,11.26,6.8,13.69,7.66c2.85,1.02,5.97,2.1,10.26,2.29c7.41,0.33,13.07-2.26,15.88-3.58
	c3.25-1.53,5.7-3.23,7.29-4.47c11.07-19.47,22.15-38.94,33.22-58.41l43.55-15.93l-23.52-69.56H831.6z"/>
<path class="st2" d="M958.3,198.72c3,0.07,10.43,0.67,17.46,5.9c11.12,8.26,12.15,21.3,12.27,23.31c1.49,3.64,3.71,9.42,5.78,16.7
	c6.85,24.05,6.41,44.21,5.82,63.74c-0.26,8.77-0.97,21.04-2.99,35.74c-7.55,4.85-15.1,9.7-22.66,14.55
	c-0.81-26.76-1.61-53.52-2.42-80.28L958.3,198.72z"/>
<path class="st3" d="M831.6,203.69c5.52-2.77,12.27-5.64,20.18-7.97c10.79-3.18,20.47-4.39,28.14-4.78
	c3.85,12.18,9.02,21.32,13.28,27.61c4.74,7.01,7.44,10.9,12.74,13.81c9.21,5.05,23.39,5.58,30.8-2.12
	c4.28-4.45,5.04-10.32,5.84-16.46c0.97-7.44-0.08-13.63-1.06-17.52c5.49,0.89,10.97,1.77,16.46,2.66
	c5.54,5.29,13.22,14.1,18.46,26.88c11.1,27.07,3.07,52.02,0.46,59.2c-0.87,23.52-1.74,47.04-2.61,70.56c-36.94,0-73.89,0-110.83,0
	c-7.79-22.13-15.58-44.25-23.36-66.38c3.67-2.66,9.08-7.3,13.49-14.54c7.58-12.42,7.41-24.6,7.22-31.66
	c-0.29-10.56-0.61-22.11-9.32-30.64C844.57,205.58,835.81,204.09,831.6,203.69z"/>
<path class="st6" d="M929.95,198.69c0.21-0.08,3.71-1.47,4.32-4.96c0.34-1.95-0.41-3.52-0.71-4.09c-4.95-1.38-9.9-2.75-14.85-4.13
	c-2.54-0.47-5.07-0.93-7.61-1.4C917.38,188.98,923.66,193.83,929.95,198.69z"/>
<path class="st7" d="M923.93,186.93l1.8,11.01c-5.16-0.01-10.91-0.31-17.13-1.11c-9.21-1.17-17.26-3.14-23.97-5.25
	c-0.73-0.18-1.76-0.48-2.92-1c-1.81-0.81-3.53-1.59-3.68-2.73c-0.13-1.08,1.23-1.68,2.68-3.29c1.04-1.15,2.33-3.05,3.05-6.17
	c-0.82-5.38-1.64-10.76-2.46-16.15c-0.82-5.38-1.64-10.76-2.46-16.15c7.92,3.03,15.84,6.05,23.76,9.08L923.93,186.93z"/>
<path class="st2" d="M924.83,202.9c1.19-1.06,5.83-5.33,5.24-8.64c-0.09-0.52-0.54-2.28-1.15-4.15c-0.29-0.87-0.55-1.59-0.73-2.06
	c3.8,0.61,7.6,1.22,11.4,1.82c1.04,0.62,6.05,3.73,7.26,9.72c0.86,4.26-0.64,7.75-1.42,9.56c-1.63,3.79-4.09,6.16-5.51,7.35
	c-0.82-1.77-2.07-3.94-3.98-6.12C932,205.88,927.4,203.82,924.83,202.9z"/>
<path class="st7" d="M929.83,186.23l-0.35-4.66c-4.64-1.44-9.29-2.88-13.93-4.32c-0.42,0.76-1.05,1.64-1.96,2.45
	c-3.13,2.75-7.17,2.42-8.16,2.31c4.55,2.94,10.91,6.04,18.85,7.04c1.34,0.17,2.64,0.26,3.88,0.3
	C928.72,188.31,929.28,187.27,929.83,186.23z"/>
<path class="st8" d="M891.38,140.61c0,0-0.24,15.2,1.36,18.08c1.61,2.88,3.49,8.86,9.41,14.6c5.92,5.74,17.6,14.73,26.6,12.84
	c8.99-1.89,11.16-3.92,11.16-3.92c2.69-2.61,6.08-6.33,9.29-11.21c2.62-3.99,6.07-10.2,8.15-18.04l0.95-33.06l0,0
	c0,0-2.17-17.46-3.1-18.99c-0.93-1.52-18.92-6.13-18.92-6.13l-33.36,5.45L891.38,140.61z"/>
<path class="st9" d="M929.17,186.04c-3.39-2.43-9.44-7.44-14-15.88c-4.31-7.97-5.31-15.33-5.57-19.44c0.36-4.98,1.55-8.63,2.6-11.07
	c1.08-2.51,2.22-4.22,3.29-7.79c0.31-1.03,0.51-1.86,0.65-2.57c0.4-2.02,0.61-3.47,0.65-3.74c0.39-2.72,5.41-9.43,12.99-11.1
	c6.45-1.41,8.51,2.19,16.48,1.53c4.9-0.41,8.74-2.16,11.05-3.44c-0.66-4.29-1.29-7.57-1.75-9.78c-0.21-0.98-0.44-2.03-0.92-3.37
	c-0.87-2.39-2-4.18-2.84-5.33c-21.85,4.46-43.71,8.93-65.56,13.39l3.56,33.42l0.83,15.65c3.66,7.79,8.01,13.26,11.17,16.69
	c3.2,3.47,7.79,7.66,13.62,10.6c3.97,2,7.04,2.67,9.96,2.65C926.97,186.44,928.28,186.23,929.17,186.04z"/>
<path class="st10" d="M891.95,144.12c2.34-1.23,3.34-2.18,3.96-2.9c1.96-2.25,2.42-4.69,3.22-10.73c0.56-4.28,0.98-8.02,1.29-11.05
	c3.14-9.41,7.56-12.04,10.09-12.94c1.99-0.71,3.84-0.72,16.39,2.08c11.21,2.5,12.91,3.21,16.81,2.79c2.55-0.28,9.78-1.07,12.41-5.86
	c1.19-2.16,2.03-6.2,1.9-9.68c0-0.11-0.01-0.17-0.01-0.25c-0.08-0.93-0.7-3.29-5.83-7.75c-2.17-1.89-4.54-3.94-7.79-5.78
	c0,0-1.74-0.97-3.64-1.78c-3.47-1.48-11.17-3.86-21.42-3.57c-4.49,0.12-13.07,0.45-22.86,5.05c-4.98,2.34-12.98,6.1-18.44,14.67
	c-3.45,5.41-4.42,10.43-5.98,18.53c-1.06,5.49-1.55,10.98-1.32,16.7c0.34,8.7,0.51,13.06,3.54,15.24
	C880.01,151.01,891.09,144.57,891.95,144.12z"/>
<path class="st9" d="M889.8,140.87c0,0,0.07-8.54-4.96-9.81c-5.03-1.28-7.73,2.73-8,3.62c-0.28,0.88-2.11,10.21,0.74,14.76
	c2.84,4.56,2.39,6.94,5.45,7.69c3.06,0.76,4.56,0.73,6.09,0.05s1.53-0.67,1.53-0.67L889.8,140.87z"/>
<ellipse transform="matrix(0.9869 -0.1612 0.1612 0.9869 -11.6829 144.2856)" class="st7" cx="883.64" cy="144.16" rx="3.95" ry="8.55"/>
<path class="st11" d="M831.6,203.69c4.96-2.49,9.48-4.34,13.28-5.71c2.97-1.07,6.68-2.28,10.98-3.38c1.79-0.46,4.23-1.04,7.12-1.6
	c3.69-0.71,6.63-1.1,8.16-1.29c0.5-0.06,0.74-0.09,0.83-0.1c3.57-0.31,8.25,1.02,10.72,4.13c1.98,2.49,2,5.19,2,5.19
	s-27.81,6.55-31.6,8.02c-3.78,1.48-3.78,1.48-3.78,1.48c-1.03-0.8-2.18-1.61-3.48-2.36C840.55,204.97,835.32,203.98,831.6,203.69z"
	/>
<path class="st9" d="M893.23,193.99c3,2.3,7.66,5.26,13.92,7.14c11.14,3.34,20.7,1.23,24.96,0c-0.74-2.93-1.55-5.92-2.43-8.96
	c-0.35-1.22-0.71-2.44-1.08-3.63c-0.95,0.19-2.4,0.42-4.17,0.46c-1.27,0.03-5.32,0.01-10.56-1.92c-4.06-1.5-5.15-2.79-7.42-2.28
	c-1.63,0.37-2.58,1.39-3.65,2.41C900.86,189.05,897.83,191.53,893.23,193.99z"/>
<path class="st2" d="M883.41,187.5c3.84,1.7,7.8,3.38,11.89,5.02c10.22,4.1,20.11,7.52,29.53,10.38
	c-0.52,1.78-4.14,13.63-13.16,15.76c-4.23,0.99-7.87-0.57-14.34-3.45c-4.94-2.2-11.99-5.92-19.65-12.21c-2.29-1.88-4.41-5-5.31-9.03
	c-0.34-1.53-0.85-3.97,0.36-6.49c1.01-2.1,2.68-3.16,3.19-3.45c2.63-1.54,5.26-1.06,5.92-0.92c-0.08,0.39-0.24,1.38,0.19,2.52
	C882.42,186.64,883.1,187.25,883.41,187.5z"/>
<path class="st1" d="M849.31,210.43c-8.65,11.2-17.92,24.64-26.84,40.39c-9.35,16.5-16.33,32.06-21.59,45.76
	c-6.34,18.14-12.68,36.28-19.02,54.42l-8.41,2.34c0,0-21.6-4.98-18.35-23.76c3.25-18.78,3.62-27.32,12.3-41.16
	c8.68-13.84,34.42-57.35,34.42-57.35s11.98-14.94,14.7-17.34c2.72-2.4,15.09-10.05,15.09-10.05c2.27,0.27,5.04,0.8,8.09,1.85
	C843.82,206.96,847.04,208.85,849.31,210.43z"/>
<path class="st8" d="M868.16,295.29c-28.77,0.55-57.54,1.1-86.3,1.65c0,0-39.65,26.3,0,54.06c29.24-5.84,58.48-11.69,87.72-17.53
	c14.19,8.19,29.21,8.07,37.82-0.44c1.88-1.86,4.45-5.09,6.16-10.52c2.93-0.16,5.86-0.32,8.79-0.48c0.34-0.05,4.18-0.66,5.65-4.15
	c1.41-3.33-0.41-6.72-0.99-7.79c-0.75-1.4-2.48-2.83-5.92-5.65c-2.56-2.1-3.88-3.17-5.66-4.29c-2.3-1.44-4.19-2.27-5.66-2.92
	c-2.35-1.03-4.42-1.74-6.05-2.22c-4.07-0.83-8.76-1.48-13.95-1.68C881.31,293.03,873.98,294.01,868.16,295.29z"/>
<path class="st9" d="M771.36,341.77l96.6-14.13c0,0,10,4.25,15.35,4.25c5.36,0,16.27-0.24,22.11-2.12c5.84-1.89,7.24-4.83,7.24-4.83
	s-7.5,26.05-43.1,8.54L781.86,351L771.36,341.77z"/>
<path class="st1" d="M879.5,204.44l15.8-11.93l-11.89-5.02c-0.32-0.25-1.07-0.93-1.45-2.09c-0.18-0.55-0.51-1.57-0.12-2.32
	c0.01-0.02,0.04-0.07,0.03-0.13c-0.1-0.36-1.95-0.22-3.31,0.08c-0.58,0.13-1.43,0.32-2.41,0.85c-0.51,0.27-3.14,1.73-3.93,4.66
	c-0.28,1.05-0.25,2.06-0.23,2.79c0.01,0.38,0.06,1.58,0.51,3.24c0.94,3.5,2.8,5.87,3.17,6.33
	C876.94,202.52,878.32,203.66,879.5,204.44z"/>
<path class="st9" d="M788.83,296.81c-1.4,1.02-9.66,7.22-10.21,17.15c-0.61,10.97,8.42,22.18,22.25,25.19
	c-9.84,0.87-19.68,1.75-29.52,2.62c0,0-21.27-21.54,10.49-44.83L788.83,296.81z"/>
<path class="st1" d="M836.27,295.9c0,0-25.84-3.66-27.43-7.2s-2.08-6.45-2.08-6.45l-8.89,6.83l-2.29,7.61L836.27,295.9z"/>
<line class="st12" x1="987.67" y1="355.98" x2="1166.26" y2="355.98"/>
<line class="st13" x1="856.43" y1="355.98" x2="986" y2="355.98"/>
<polygon class="st14" points="1022.36,225.98 984.48,349.18 986.25,353.25 1204.86,228.99 1201.85,225.98 "/>
<polygon class="st15" points="1024.84,228.99 987.67,353.25 1166.62,353.25 1204.86,228.99 "/>
<rect y="358.66" class="st16" width="2000" height="10.61"/>
<rect x="659.45" y="289.41" class="st14" width="65.82" height="71.03"/>
<path class="st14" d="M659.45,340.69c-1.44,0.31-6.89,1.36-11.04-1.18c-0.65-0.4-2.9-1.88-4.5-7.24c-1.88-6.32,0-19.53,0-19.53
	c0.3-1.25,0.97-2.98,2.66-4.38c3.17-2.63,7.65-2.21,12.88-2.36c14.77-0.41,27.8-5.05,27.8-5.05l-27.8-3.7
	c-3.88,0.22-7.77,0.45-11.65,0.67c-1.66,0.23-4.94,0.94-7.77,3.53c-0.98,0.89-2.31,2.39-3.71,5.72c-0.58,1.37-2.71,6.74-2.45,16.31
	c0.09,3.34,0.5,8.09,1.96,13.7c0.43,1.79,1.56,5.3,4.73,7.83c2.73,2.18,5.64,2.56,9.49,3.06c4.05,0.53,12.27,0,12.27,0l0,0
	l26.98-5.72L659.45,340.69z"/>
<g>
	<path class="st17" d="M297.55,192.22v32.69h-12.31v38.64h20.38v67.35c4.51,0,9.02,0,13.53,0c0.02,9.39,0.04,18.79,0.05,28.18
		c69.35,0,138.69,0,208.04,0l-1.91-166.86H297.55z"/>
	<rect x="417.7" y="192.22" class="st18" width="135.01" height="29.3"/>
	<rect x="410.06" y="228.53" class="st18" width="115.27" height="30.57"/>
	<rect x="417.7" y="261.43" class="st18" width="115.91" height="67.08"/>
	<rect x="431.08" y="332.97" class="st18" width="121.64" height="26.11"/>
	<polygon class="st18" points="299.88,263.55 276.32,275.02 378.22,291.57 399.23,271.2 	"/>
	<path class="st18" d="M285.24,204.32c19.53,0.85,39.06,1.7,58.59,2.55l-49.04-9.55C291.6,199.65,288.42,201.99,285.24,204.32z"/>
	<rect x="319.15" y="330.9" class="st18" width="74.35" height="5.09"/>
	<rect x="439.36" y="243.81" class="st18" width="28.34" height="28.23"/>
	<rect x="285.24" y="249.54" class="st18" width="36.46" height="3.82"/>
	<path class="st17" d="M416,228.53c0,0,19.11,7.22,21.23,11.25c2.12,4.03,0.42-9.34-3.82-11.25C429.17,226.61,416,228.53,416,228.53
		z"/>
	<rect x="417.7" y="206.87" class="st17" width="18.26" height="4.03"/>
	<path class="st17" d="M429.26,336.46c0,0,18.36,0,22.45,4.25c4.09,4.25,2.71-8.6,0-9.08s-22.45-0.48-22.45-0.48V336.46z"/>
</g>
<g>
	<ellipse class="st11" cx="563.9" cy="228.89" rx="11.48" ry="27.55"/>
	
		<ellipse transform="matrix(0.7931 -0.609 0.609 0.7931 -24.6887 417.2232)" class="st11" cx="601.85" cy="244.96" rx="26.99" ry="13.08"/>
	
		<ellipse transform="matrix(0.402 -0.9156 0.9156 0.402 166.6956 670.2074)" class="st11" cx="596.47" cy="207.48" rx="19.33" ry="8.35"/>
	<path class="st19" d="M571.3,278.71c-2.45-34.66-43.65-34.73-43.65-34.73"/>
	
		<ellipse transform="matrix(0.0651 -0.9979 0.9979 0.0651 323.8197 877.983)" class="st11" cx="630.48" cy="266.17" rx="6.2" ry="12.28"/>
	<ellipse transform="matrix(0.866 -0.5 0.5 0.866 -44.4194 299.6068)" class="st11" cx="536.86" cy="232.69" rx="7.95" ry="24.23"/>
	
		<ellipse transform="matrix(0.2349 -0.972 0.972 0.2349 161.5543 688.6334)" class="st11" cx="518.21" cy="241.69" rx="6.2" ry="9.71"/>
	
		<ellipse transform="matrix(0.9973 -0.0733 0.0733 0.9973 -17.7186 39.4597)" class="st11" cx="528.62" cy="261.07" rx="15.87" ry="8.13"/>
	<path class="st19" d="M544.45,259.91c0,0,13.64,1.26,14.62,18.8"/>
	<line class="st19" x1="563.9" y1="256.44" x2="563.9" y2="278.71"/>
	<path class="st19" d="M588.7,225.18c0,0-13.14,16.91-13.32,53.53"/>
	<path class="st19" d="M580.44,261.4c0,0-20.89,19.28-21.38,35.87"/>
	<path class="st19" d="M618.22,265.37c0,0-15.17-2.73-21.75,13.33"/>
	<path class="st10" d="M538.28,278.71h87.94v51.76c-7.36,16.53-23.02,27.73-40.63,28.94c-19.84,1.36-38.85-10.19-47.31-28.94
		C538.28,313.21,538.28,295.96,538.28,278.71z"/>
	<path class="st20" d="M548.98,253.67c0,0,4.21,2.12,5.68,25.03"/>
	<g>
		<polygon class="st21" points="595.06,293.28 595.06,318.36 612.76,318.36 612.76,308.03 622.35,310.74 622.35,293.28 		"/>
		<polygon class="st22" points="612.76,318.36 622.35,310.74 612.76,308.03 		"/>
	</g>
	<line class="st23" x1="598.21" y1="296.81" x2="617.56" y2="296.81"/>
	<line class="st23" x1="598.21" y1="301.71" x2="617.56" y2="301.71"/>
	<line class="st23" x1="598.21" y1="306.61" x2="617.56" y2="306.61"/>
</g>
<path class="st26" d="M403.82,71.61c-4.43,4.65-12.18,14.19-15.33,28.29c-2.04,9.12-1.34,16.51-0.98,19.41
	c0.49,3.89,1.8,13.41,8.48,23.16c0.94,1.37,4.09,5.81,9.46,10.28c16.81,13.97,37.39,13.22,39.06,13.13
	c4.81-0.25,20.39-1.67,33.04-13.01c6.98-6.26,10.58-13.31,11.24-14.63c0,0,3.32-6.65,4.22-12.44
	C494.89,113.69,458.35,90.46,403.82,71.61z"/>
<circle class="st27" cx="443.35" cy="107.03" r="53.08"/>
<circle class="st16" cx="443.55" cy="107.29" r="48.43"/>
<circle class="st2" cx="443.55" cy="107.03" r="45.83"/>
<path class="st26" d="M468.34,90.17l-31.26,21.32c-0.44,0.3-1.04,0.19-1.34-0.25l0,0c-0.3-0.44-0.19-1.04,0.25-1.34l31.26-21.32
	c0.44-0.3,1.04-0.19,1.34,0.25l0,0C468.9,89.27,468.78,89.87,468.34,90.17z"/>
<path class="st26" d="M417.44,81.55l30.97,30.97c0.16,0.16,0.16,0.43,0,0.6l-0.01,0.01c-0.16,0.16-0.43,0.16-0.6,0l-30.97-30.97
	c-0.16-0.16-0.16-0.43,0-0.6l0.01-0.01C417.01,81.39,417.28,81.39,417.44,81.55z"/>
<path class="st26" d="M443.1,77.44L443.1,77.44c-1.01,0-1.84-0.83-1.84-1.84v-7.99c0-1.01,0.83-1.84,1.84-1.84l0,0
	c1.01,0,1.84,0.83,1.84,1.84v7.99C444.93,76.61,444.11,77.44,443.1,77.44z"/>
<path class="st26" d="M443.1,147.91L443.1,147.91c-1.01,0-1.84-0.83-1.84-1.84v-7.99c0-1.01,0.83-1.84,1.84-1.84l0,0
	c1.01,0,1.84,0.83,1.84,1.84v7.99C444.93,147.08,444.11,147.91,443.1,147.91z"/>
<path class="st26" d="M472.84,107.03L472.84,107.03c0-1.01,0.83-1.84,1.84-1.84h7.99c1.01,0,1.84,0.83,1.84,1.84v0
	c0,1.01-0.83,1.84-1.84,1.84h-7.99C473.67,108.87,472.84,108.04,472.84,107.03z"/>
<path class="st26" d="M402.37,107.03L402.37,107.03c0-1.01,0.83-1.84,1.84-1.84h7.99c1.01,0,1.84,0.83,1.84,1.84v0
	c0,1.01-0.83,1.84-1.84,1.84h-7.99C403.2,108.87,402.37,108.04,402.37,107.03z"/>
<g>
	<path class="st28" d="M1277.66,83.44l72.25,88.92c0.6-2.41,9.17-39.99-17.6-67.62C1310.71,82.46,1282.2,83.24,1277.66,83.44z"/>
	<polygon class="st28" points="1316.65,99.98 1349.11,85.16 1364.86,104.61 1340.76,136.1 	"/>
	<circle class="st28" cx="1487.4" cy="203.47" r="11.93"/>
	<line class="st29" x1="1356.22" y1="93.94" x2="1382.32" y2="93.63"/>
	<line class="st29" x1="1476.69" y1="198.24" x2="1370.27" y2="93.77"/>
	<line class="st29" x1="1382.32" y1="93.63" x2="1487.4" y2="197.37"/>
	<line class="st29" x1="1479.48" y1="212.38" x2="1411.96" y2="356.68"/>
	<line class="st29" x1="1489.74" y1="215.17" x2="1423.48" y2="356.68"/>
	<polygon class="st28" points="1415.29,342.47 1340.76,359.36 1499.33,359.36 1430.13,342.47 	"/>
</g>
<g>
	<g>
		<polygon class="st14" points="1244.78,285.81 1222.8,357.3 1223.83,359.66 1350.68,287.56 1348.93,285.81 		"/>
		<polygon class="st15" points="1246.22,287.56 1224.65,359.66 1328.49,359.66 1350.68,287.56 		"/>
	</g>
	<polygon class="st14" points="1275.42,323.61 1283.89,359 1317.98,359 1304.61,323.61 	"/>
</g>
<g>
	<ellipse class="st11" cx="1583.02" cy="220.3" rx="11.48" ry="27.55"/>
	
		<ellipse transform="matrix(0.7931 -0.609 0.609 0.7931 191.3568 1036.1284)" class="st11" cx="1620.97" cy="236.37" rx="26.99" ry="13.08"/>
	
		<ellipse transform="matrix(0.402 -0.9156 0.9156 0.402 783.9519 1598.1976)" class="st11" cx="1615.59" cy="198.89" rx="19.33" ry="8.35"/>
	<path class="st19" d="M1590.41,270.12c-2.45-34.66-43.65-34.73-43.65-34.73"/>
	
		<ellipse transform="matrix(0.0651 -0.9979 0.9979 0.0651 1285.1542 1886.9073)" class="st11" cx="1649.59" cy="257.58" rx="6.2" ry="12.28"/>
	<ellipse transform="matrix(0.866 -0.5 0.5 0.866 96.4109 808.0144)" class="st11" cx="1555.98" cy="224.1" rx="7.95" ry="24.23"/>
	
		<ellipse transform="matrix(0.2349 -0.972 0.972 0.2349 949.637 1672.665)" class="st11" cx="1537.33" cy="233.11" rx="6.2" ry="9.71"/>
	
		<ellipse transform="matrix(0.9973 -0.0733 0.0733 0.9973 -14.3461 114.1561)" class="st11" cx="1547.73" cy="252.48" rx="15.87" ry="8.13"/>
	<path class="st19" d="M1563.56,251.32c0,0,13.64,1.26,14.62,18.8"/>
	<line class="st19" x1="1583.02" y1="247.85" x2="1583.02" y2="270.12"/>
	<path class="st19" d="M1607.82,216.59c0,0-13.15,16.91-13.32,53.53"/>
	<path class="st19" d="M1599.56,252.81c0,0-20.89,19.28-21.38,35.87"/>
	<path class="st19" d="M1637.34,256.78c0,0-15.17-2.73-21.75,13.33"/>
	<path class="st10" d="M1557.4,270.12h87.94v51.76c-1.34,9.38-5.62,30.43-19.89,36.17c-3.12,1.26-9.68,1.34-22.67,1.47
		c-14.34,0.14-21.52,0.2-24.96-1.14c-14.64-5.73-19.07-27.49-20.42-36.5C1557.4,304.62,1557.4,287.37,1557.4,270.12z"/>
	<path class="st20" d="M1568.1,245.09c0,0,4.21,2.12,5.68,25.03"/>
</g>
</svg>
