<?xml version="1.0" encoding="utf-8"?>
<!-- Generator: Adobe Illustrator 24.0.3, SVG Export Plug-In . SVG Version: 6.00 Build 0)  -->
<svg version="1.1" xmlns="http://www.w3.org/2000/svg" xmlns:xlink="http://www.w3.org/1999/xlink" x="0px" y="0px"
	 viewBox="0 0 555.43 534.63" style="enable-background:new 0 0 555.43 534.63;" xml:space="preserve">
<style type="text/css">
	.st0{fill:#1A75C0;}
	.st1{fill:#FFFFFF;}
	.st2{fill:#FFFFFF;stroke:#FFFFFF;stroke-width:4;stroke-linecap:round;stroke-miterlimit:10;}
	.st3{fill:none;stroke:#0B2E56;stroke-width:5;stroke-miterlimit:10;}
	.st4{fill:#0B2E56;}
	.st5{fill:none;}
	.st6{fill:none;stroke:#1A75C1;stroke-width:6;stroke-miterlimit:10;}
	.st7{fill:#0B2E56;stroke:#FFFFFF;stroke-miterlimit:10;}
	.st8{fill:none;stroke:#FFFFFF;stroke-width:2;stroke-linecap:round;stroke-miterlimit:10;}
	.st9{fill:#FFFFFF;stroke:#FFFFFF;stroke-miterlimit:10;}
	.st10{fill:none;stroke:#FFFFFF;stroke-width:10;stroke-linecap:round;stroke-miterlimit:10;}
	.st11{fill:#1A75C0;stroke:#0B2E56;stroke-width:10;stroke-linecap:round;stroke-miterlimit:10;}
	.st12{fill:#FFFFFF;stroke:#1A75C0;stroke-width:5;stroke-miterlimit:10;}
	.st13{fill:none;stroke:#1A75C1;stroke-width:40;stroke-miterlimit:10;}
	.st14{fill:#8FA5CC;}
	.st15{fill:#D1ADA2;}
	.st16{fill:#17628C;}
	.st17{fill:#7C8DA5;}
	.st18{fill:#9EB4E1;}
</style>
<g id="Layer_1">
</g>
<g id="Layer_2">
	<g>
		<path class="st0" d="M75.53,157.84h448.66c5.7,0,9.75,4.59,9.05,10.26l-31.8,257.61c-0.7,5.67-5.89,10.26-11.58,10.26H41.19
			c-5.7,0-9.75-4.59-9.05-10.26l31.8-257.61C64.64,162.43,69.83,157.84,75.53,157.84z"/>
		<path class="st1" d="M82.76,174.5h430.07c3.42,0,5.85,2.76,5.43,6.16l-28.57,231.47c-0.42,3.4-3.53,6.16-6.95,6.16H52.67
			c-3.42,0-5.85-2.76-5.43-6.16l28.57-231.47C76.23,177.25,79.34,174.5,82.76,174.5z"/>
		<path class="st4" d="M187.06,17.97c0,0-30.29,7.46-20.97,36.82c0,0,31.22,41.48,14.91,55.46C164.7,124.22,140,94.39,140,94.39
			s-22.37-20.5-41.01,1.4c0,0-27.5,42.87,56.39,58.25c0,0,26.56,13.05,31.69,30.29c3.42,11.51-1.82,20.49,5.13,33.09
			c3.68,6.68,8.51,10.42,14.91,15.38c14.75,11.42,22.84,9.73,32.33,21.04c4.1,4.89,6.17,9.47,7.75,12.98
			c6.98,15.45,2.38,18.88,7.46,30.29c1.86,4.19,8.39,19.11,23.3,21.9c14.91,2.8,0,24.23,0,24.23s-35.42,28.89-20.5,46.14
			c14.91,17.24,34.81-3.26,34.81-3.26s24.37-11.18,22.51,13.05s-2.8,24.7-1.86,29.36c0.93,4.66,19.57,26.56,39.61,3.73
			c5.85-6.67,12.31-17.6,9.33-26.07c-0.83-2.37-2.72-5.47-2.81-5.62c-2.37-3.89-5.03-6.63-6.99-8.39
			c-2.11-1.17-11.12-6.45-13.98-17.24c-1.21-4.54-0.91-8.54-0.47-11.18c1.59-3.97,3.41-7.02,5.53-8.56
			c5.53-4.02,16.6-7.51,38.74-5.42c0,0,31.69-12.58,18.64-40.08c-13.05-27.5-61.51-3.26-61.51-3.26s-16.31,11.65-27.96-7.92
			c-11.65-19.57-0.93-50.33-0.93-50.33s8.85-15.38-38.21-52.19c0,0-23.3-31.22,28.43-57.79c0,0,39.15-18.17,21.9-46.14
			s-66.17,10.72-66.17,10.72s-12.12,14.45-21.9,8.85c-9.79-5.59-13.51-21.9-5.13-40.08C229.01,71.56,236,16.1,187.06,17.97z"/>
		<path class="st0" d="M103.61,27.07c-1.99,20.41,3.03,26.56,3.03,26.56s3.03,11.65,19.81,9.32c16.78-2.33,16.54-16.31,16.54-16.31
			s2.8-19.57-12.58-24.93S108.74,7.03,108.74,7.03S102.45-3.93,94.99,1.2c-7.46,5.13,0,11.42,0,11.42S104.54,17.51,103.61,27.07z"/>
		<path class="st0" d="M263.27,53.64c0,0-0.79,1.66-3.23,4.59c-3.02,3.62-5.33,5.08-11.55,10.91c-0.91,0.85-1.63,1.54-2.05,1.95
			c-0.41,0.67-0.96,1.77-1.17,3.22c-0.07,0.5-0.58,4.02,1.57,6.25c3.08,3.18,8.97,0.97,9.62,0.73c1.37-0.51,2.3-1.16,3.2-1.78
			c2.43-1.68,4.07-3.6,5.49-5.55c4.33-5.94,8.4-14.55,9.03-15.89c1.37-1.97,3.14-4.16,5.43-6.3c3.2-3,7.32-4.94,15.26-8.89
			c1.12-0.56,2.04-1.01,2.66-1.3c0.38-0.28,0.91-0.69,1.49-1.24c0,0,2.81-2.64,4.13-6.22c3.28-8.88-5.72-18.46-6.55-19.14
			c-0.86-0.7-1.65-1.19-2.21-1.51c-1.97-1.19-6.37-3.43-11.83-2.77c-7.94,0.96-14.81,7.7-17.18,16.98
			c-0.17,1.34-0.35,3.37-0.23,5.83c0.16,3.36,0.8,5.57,1.05,6.87C266.72,43.18,266.58,47.46,263.27,53.64z"/>
		<path class="st4" d="M116.63,218.54c0,0,11.65-38.21-53.59-55.22c-65.24-17.01-62.68,6.29-62.68,6.29
			c-0.79,4.51-0.09,7.75,0.52,9.64c2.05,6.3,7.74,10.12,18.87,17.56c2.27,1.52,4.16,2.7,5.41,3.47c1.18,1.22,8.53,9.05,6.23,16.8
			c-1.03,3.48-3.5,5.96-5.64,7.52c-14.45,10.49-14.45,7.69-16.31,14.21c-1.86,6.52,2.8,22.37,20.97,18.87
			c18.17-3.5,24-21.67,24-21.67s8.16-13.28,20.04-9.09S112.9,231.13,116.63,218.54z"/>
		<path class="st4" d="M347.51,137.58c0,0,9.3-11.09,0.22-32.88c-9.07-21.79,23.51-50.98,23.51-50.98s14.08-8.75,26.25-7.1
			c12.17,1.65,11.18,7.55,11.18,7.55s3.28,4.36-2.61,10.37c-5.9,6.01-27.61,27.68-24.75,47.77c2.86,20.09,24.76,16.62,24.76,16.62
			s22.7,0.42,52.13-21.57c29.43-21.99,45.08-5.82,45.08-5.82s8.94,10.24-1.02,20.6c-9.96,10.36-31.54,29.24-59.93,37.29
			c-28.39,8.05-29.04,28.31-29.04,28.31s-5.58,35.07-13.92,40.96c-8.34,5.89-21.93,11.87-45.35,18.41
			c-23.42,6.54-36.52,16.74-36.52,16.74c-24.12,13-40.15,27.36-50.7,38.76c-14.44,15.61-24.78,32.39-37.19,30.36
			c-5.09-0.83-10.23-4.78-12.87-9.9c-4.46-8.63-0.28-17.56,0.29-18.72c15.96-30.62,33.71-43.3,47.7-49.05
			c9.88-4.06,29.6-10.8,35.63-24.32c0.99-2.23,1.1-4.7,0.97-8.16c-0.44-12.27-11.57-20.87-11.57-20.87s-5.81-17.08,4.47-26.72
			c10.27-9.64,37.46-21.6,37.46-21.6S345.67,146.59,347.51,137.58z"/>
		<polygon class="st14" points="239.81,380.87 246.88,367.74 328.05,409.71 316.5,431.96 		"/>
		<path class="st14" d="M322.53,435.61l186.76,98.74c0,0,13.32,1.58,3.84-6.87L335.24,413.64L322.53,435.61z"/>
		<path class="st15" d="M239.96,380.61l7.23-13.29c0.66-4.38,0.8-10.13-1.13-16.32c-6.57-21.09-31.03-27.51-33.27-28.06
			c-2.16-0.76-4.91-1.45-8.15-1.63c-8.77-0.47-15.44,3.2-18.33,5.05c0,0,4.18,0.16,8.15,1.07c3.42,0.79,4.58,1.37,5.47,2.17
			c1.56,1.4,2.18,3.17,2.45,4.26c0.9,5.44,0.41,9.34-0.25,11.95c-0.41,1.65-1.4,4.84-1.6,9.4c0,0-0.06,1.39-0.02,2.6
			c0.15,4.7,4.3,15.85,14.85,21.63c10.42,5.71,20.89,2.81,23.09,2.14C238.96,381.26,239.46,380.93,239.96,380.61z"/>
		<path class="st16" d="M186.31,326.36c2.3-1.5,5.54-3.19,9.66-4.2c3.59-0.87,6.49-0.9,7.71-0.87c4.06,0.08,7.33,0.98,9.44,1.74
			c-0.08-0.01-1.9-0.16-2.16,0.54c-0.09,0.26,0.04,0.56,0.27,0.87c1.13,1.51,2.73,2.41,2.73,2.41s6.74,6.1,4.55,11.01
			c0,0-1.59-4.08-4.92-4.88l-2.71,12.92c0,0-1.09,1.79-1.91,0.57c-0.82-1.21,0.49-3.6,0.49-3.6l0.53-5.49c0,0-0.77-2.05-1.76,1.46
			c-0.99,3.5-6.24,19.74,10,37.33c-1.23-0.28-12.2-2.91-15.91-11.12c-1.49-3.3-1.81-7.23-1.81-7.23c-0.21-2.6,0.1-4.5,0.64-7.84
			c0.8-4.94,1.57-6.11,1.72-10.11c0.04-1.06,0.05-2.73-0.36-4.78c-0.38-1.9-0.61-3.01-1.42-4.14c-1.55-2.17-4.12-2.85-6.64-3.51
			c-1.39-0.36-2.63-0.52-4.25-0.73C188.62,326.5,187.27,326.4,186.31,326.36z"/>
		<polygon class="st17" points="239.96,380.61 316.37,431.86 318.74,427.33 241.36,378.02 		"/>
		<polygon class="st17" points="326.47,431.3 323.72,436.62 509.29,534.35 		"/>
		<path class="st18" d="M327.95,409.81l-11.58,22.05c0,0,0.35,6.36,7.36,4.76l11.91-23.11
			C335.63,413.51,335.41,406.55,327.95,409.81z"/>
		<path class="st0" d="M200.38,309.66c0.3-3.85,0.57-14.06-5.84-23.8c-6.89-10.46-21.1-19.77-29.76-15.85
			c-8.73,3.95-4.88,18.2-19,31.54c-4.87,4.6-8.18,5.6-10.86,5.35c-4.16-0.4-4.96-3.64-11.71-7.43c-3.54-1.99-8.82-4.96-14.09-3.91
			c-5.86,1.16-5.85,6.12-11.33,9.38c-11.18,6.64-24.52-6.09-32.45-0.66c-3,2.06-5.76,7.08-4.14,20.38c0.87,2.4,2.52,5.9,5.69,9.08
			c9.67,9.68,24.57,7.4,27.76,6.91c3.26-0.5,8.32-1.71,13.97-5c0.37-0.02,6.74-0.24,9.54,4.26c2.49,4.02,0.32,8.85-0.24,10.08
			c-2.79,6.21-7.86,5.72-14.87,12.57c-2.96,2.89-7.17,7-8.47,13.29c-1.36,6.56,0.59,14.83,6.47,19.93
			c6.74,5.84,15.37,4.65,21.38,3.83c4.36-0.6,10.25-1.38,15.3-5.59c15.77-13.16,11.65-33.94,11.65-33.94s0.78-17.28,14.57-19.59
			C177.73,338.16,203.52,323.88,200.38,309.66z"/>
		<path class="st4" d="M445.82,320.59c0,0,17.48-9.44,41.94,10.14c0,0,15.03,7.69,20.27-8.04c4.14-12.42,4.45-18.57,10.6-23.21
			c2.28-1.72,4.4-2.23,5.01-2.36c0.88-0.19,4.89-0.95,10.98,2.35c12.71,6.88,17.67,22.42,18.14,23.57
			c11.53,27.96-18.17,32.85-18.17,32.85c-13.81,0.94-24.36,6.75-27.26,13.28c-1.73,3.91-1.87,7.98-1.87,7.98
			c-0.12,3.73,0.81,6.62,1.73,9.06c3.35,8.92,8.66,17.71,10.97,21.41c0,0,9.79,22.72-15.03,15.03c0,0-7.69-1.05-17.48-11.18
			s-12.23-23.77-12.23-23.77c-2.24-4.52-4.8-7.61-6.68-9.57c-4.9-5.08-10.19-7.61-17.37-11.03c-3.9-1.86-7.23-3.18-9.59-4.06
			c-1.45-1.06-9.24-6.94-10.25-17C428.52,335.77,435.01,325.35,445.82,320.59z"/>
		<path class="st0" d="M364.8,261.96c0,0-6.76,7.32-4.54,14.46c0.74,2.37,2.31,3.91,3.49,5.11c1.11,1.13,5.24,5.02,11.36,5.24
			c1.65,0.06,3-0.16,3.84-0.35c2.92-0.52,8.9-2.02,14.16-6.99c4.75-4.49,6.32-9.37,8.04-14.68c2.11-6.53,3.91-12.13,0.92-16.32
			c-1.58-2.21-4.48-4.01-7.38-4.13c-3.6-0.15-7.96,2.25-8.04,2.27l0,0c-0.65,0.72-1.67,1.95-2.62,3.67
			c-2.23,4.02-1.61,6.25-3.84,8.21c-1.38,1.21-2.95,1.55-4.72,1.92c0,0-1.34,0.29-6.64,0.35l0,0L364.8,261.96z"/>
		<path class="st0" d="M421.24,214.36c-3.41,10.78-0.88,17.03,0.43,19.51c1.59,3.01,4.19,5.78,5.63,7.32
			c4.4,4.69,7.05,5.57,9.75,10.16c0.87,1.48,1.95,3.31,2.45,5.94c1.09,5.74-1.99,7.72-1.75,13.63c0.05,1.11,0.35,8.37,4.89,10.49
			c3.48,1.62,9.12,0.28,10.83-3.15c2.45-4.89,4.19-11.53,4.19-14.68s1.4-12.58,7.34-13.28c5.94-0.7,7.69,1.4,8.39,3.15
			c0.7,1.75,6.29,15.03,15.73,12.93c9.44-2.1,15.73-6.64,12.93-16.43c-2.8-9.79-11.53-16.43-17.83-22.02
			c-6.29-5.59-1.05-16.78-1.05-16.78s6.29-15.03,0.35-23.07c-0.84-1.13-3.58-5.96-9.43-8.39c-1.11-0.46-3.64-1.48-7-1.4
			c-4.47,0.11-11.08,2.13-13.28,6.99c-1.79,3.94-0.67,9.66,1.4,20.27c0.27,1.37,0.86,4.25-0.7,6.64c-1.06,1.62-2.72,2.41-3.85,2.8
			c-2.3-0.11-5.77-0.47-9.79-1.75c-4.68-1.49-6.26-3-9.43-3.15C429.09,210,425.62,210.64,421.24,214.36z"/>
	</g>
</g>
</svg>
