<?xml version="1.0" encoding="utf-8"?>
<!-- Generator: Adobe Illustrator 24.0.3, SVG Export Plug-In . SVG Version: 6.00 Build 0)  -->
<svg version="1.1" id="Layer_1" xmlns="http://www.w3.org/2000/svg" xmlns:xlink="http://www.w3.org/1999/xlink" x="0px" y="0px"
	 viewBox="0 0 782.32 662.33" style="enable-background:new 0 0 782.32 662.33;" xml:space="preserve">
<style type="text/css">
	.st0{fill:#062C50;fill-opacity:0.5;}
	.st1{fill:#DDE2F8;}
	.st2{fill:#FFFFFF;}
	.st3{fill:#1D6EBF;}
	.st4{fill:#093756;}
	.st5{fill:none;stroke:#323233;stroke-width:4;stroke-miterlimit:10;}
	.st6{fill:#0D415E;stroke:#9EB4E1;stroke-width:7;stroke-linecap:round;stroke-linejoin:bevel;stroke-miterlimit:10;}
	.st7{fill:#0C4F87;}
	.st8{fill:#0E5889;}
	.st9{fill:#C5C5C5;}
	.st10{fill:#288BCE;}
	.st11{fill:#9EB4E1;}
	.st12{fill:#CBD7F7;}
	.st13{fill:#8FA5CC;}
	.st14{fill:#9DB4E0;}
	.st15{fill:#FDFDFD;}
	.st16{fill:#E4C2B9;}
	.st17{fill:#125993;}
	.st18{fill:#062C50;}
	.st19{fill:#08213E;}
	.st20{fill:#1F84BC;}
	.st21{fill:#D1ADA2;}
	.st22{fill:#0B2E56;}
	.st23{fill:#E4C1B9;}
	.st24{fill:#E2E5E8;}
	.st25{fill:#0D415E;}
</style>
<path class="st0" d="M364.99,575.8H303c-6.1,0-11.72,3.23-14.66,8.44l-31.18,55.13c-6.18,10.93,1.99,24.3,14.79,24.2
	c38.54-0.3,77.07-0.6,115.61-0.9c11.81-0.09,19.81-11.75,15.39-22.42c-7.48-18.08-14.95-36.15-22.43-54.23
	C377.96,579.85,371.81,575.8,364.99,575.8z"/>
<path class="st0" d="M117.34,545.39L19.26,558.4c-13.91,1.85-19.35,19.09-9.01,28.58l44.03,40.43c3.91,3.59,9.31,5.09,14.51,4.02
	l112.29-23c15.24-3.12,18.13-23.65,4.34-30.86l-58.23-30.44C124.15,545.55,120.72,544.94,117.34,545.39z"/>
<path class="st6" d="M104.75,436.75c4.15,38.03,8.29,76.06,12.44,114.1"/>
<path class="st6" d="M52.23,439.65C42.7,480.77,33.17,521.88,23.63,563"/>
<path class="st7" d="M403.51,241.8c2.85-0.25,6.79-0.48,11.5-0.36c5.16,0.13,8.98,0.23,13.98,1.4c6.33,1.48,11.16,3.47,13.86,4.81
	c2.81,1.39,4.78,2.35,7.18,4.25c4.81,3.8,7.4,8.18,8.71,10.44c0.63,1.08,1.57,2.73,2.46,5.06c0.49,1.29,1.78,4.87,2.22,11.88
	c0.23,3.62,0.26,8.65-0.59,14.68l0,0c-0.42,3.68-1.28,9.57-2.61,17.19c-1.87,10.69-3.16,16.23-4.09,21.28
	c-1.43,7.75-2.77,19.1-1.98,33.9c-13.3-13.76-26.6-27.51-39.9-41.27C410.67,297.31,407.09,269.55,403.51,241.8z"/>
<path class="st8" d="M433.76,247.73c4.46,7.45,7,14.23,8.5,19.22c1.61,5.37,3.49,11.61,3.34,19.77c-0.06,3.16-0.46,6.7-0.87,10.97
	c-0.28,2.84-0.68,6.27-1.37,10.84c-1.48,9.81-3.72,24.95-6.45,44.28c3.88,0.47,7.77,0.93,11.65,1.4c0.34-5.22,1.07-13.19,2.8-22.83
	c1.94-10.82,3.27-13.3,5.13-24.23c2.43-14.31,2.55-21.2,2.17-26.48c-0.4-5.58-1.31-9.99-3.1-14.41c-1.04-2.57-2.54-6.26-5.75-9.82
	C444.39,250.43,437.41,248.45,433.76,247.73z"/>
<path class="st10" d="M354.61,271.26c-1.68,0.43-4.56,1.4-7.42,3.73c-2.15,1.76-3.5,3.66-4.29,5v72.7l96.12,5.94v-20.62
	c-5.39-51.2-15.05-66.05-24.25-67.67c-12.86-2.27-25.33,20.05-42.66,16.08C363.84,284.51,358.22,277.45,354.61,271.26z"/>
<g>
	<g>
		<path class="st1" d="M113.88,356.03h429.29C497.59,422.3,452,488.57,406.42,554.84c-85.28-3.19-170.55-6.38-255.83-9.58
			C138.36,482.19,126.12,419.11,113.88,356.03z"/>
		<path class="st11" d="M397.73,356.03h145.45l-31.07,189.23c-35.23,3.19-70.45,6.38-105.68,9.58
			C403.53,488.57,400.63,422.3,397.73,356.03z"/>
		<path class="st12" d="M407.09,364.58c-99.04-2.64-198.08-5.28-297.12-7.92c0-4.58,0.01-9.17,0.01-13.75
			c98.89,2.78,197.78,5.57,296.67,8.35C406.79,355.7,406.94,360.14,407.09,364.58z"/>
		<path class="st13" d="M549.66,359.84c-47.52,1.58-95.05,3.16-142.57,4.75l-0.44-13.32l143.05-4.76
			C549.68,350.95,549.67,355.39,549.66,359.84z"/>
	</g>
	<polygon class="st14" points="109.97,342.91 549.69,346.5 406.64,351.27 	"/>
</g>
<g>
	<path class="st15" d="M270.79,283.22c-0.13,0.39-0.23,0.86-0.19,1.38c0.05,0.59,0.24,1,0.27,1.06c0.32,0.74,4.81,18.45,14.99,59.3
		c53.54,1.18,80.33,1.75,80.39,1.75l0,0c-2.8-21.17-5.6-42.35-8.4-63.52c-0.01-0.06,0.03-0.51-0.14-1.05
		c-0.15-0.49-0.41-0.88-0.68-1.18c-0.36-0.12-0.78-0.22-1.27-0.26c-0.62-0.05-1.09,0.02-1.17,0.03c-2.39,0.31-78.85,2.17-81.33,1.95
		c-0.07-0.01-0.44-0.05-0.93,0.02C271.74,282.77,271.22,282.98,270.79,283.22z"/>
	<path class="st15" d="M366.25,346.7l29-1.31c-0.08-0.27-0.16-0.54-0.24-0.81c-9.63,0.4-19.25,0.8-28.88,1.2
		C366.17,346.09,366.21,346.4,366.25,346.7z"/>
</g>
<path class="st16" d="M391.19,318.2c0,0,4.31,1.51,5.13,7.46c0.82,5.94-2.56,8.62-2.56,8.62h-13.63c0,0-1.11,0.93-3.15,1.86
	c-1.13,0.52-2.59,1.05-8.74,1.86c-4.57,0.61-5.87,0.6-6.52,0.58c-2.07-0.05-3.79-0.33-5.01-0.58c-5.08-3.66-7.13-7.15-7.34-9.9
	c-0.47-6.06,0-9.9,0-9.9s0.12-1.75,1.51-2.33c1.4-0.58,12.35-0.58,12.35-0.58s-1.17-1.17-2.8-1.51c-1.63-0.35-3.73-1.05-4.19-1.28
	c-0.47-0.23-1.28-1.05-1.28-1.51c0-0.47-0.47-1.17-0.12-1.63c0.35-0.47,0.35-1.28,1.63-1.4c1.86-0.17,4.89,0.58,4.89,0.58
	c3.3,0.84,3.19,0.79,3.61,0.93c1.86,0.61,3.22,1.26,3.73,1.51c1.45,0.72,3.4,1.85,5.48,3.61c1.13,1.2,2.25,2.41,3.38,3.61
	c2.17,0.04,4.35,0.08,6.52,0.12C386.45,318.28,388.82,318.24,391.19,318.2z"/>
<path class="st17" d="M409.73,316.59c0,0,4.89,0.93,6.29,1.86"/>
<path class="st3" d="M391.01,317.73c0.3-0.39,1.21-0.53,1.5-0.55c0.5-0.03,0.79-0.08,1.03-0.14c0.44-0.12,0.76-0.26,0.83-0.3
	c1.22-0.57,4.63-0.81,4.63-0.81c2.4-0.17,4.31-0.31,6.94,0.02c1.5,0.18,2.75,0.46,3.65,0.69c0.09-6.19,0.43-11.43,0.77-15.43
	c0.28-3.24,0.82-8.77,2.68-15.37c0.64-2.28,1.91-6.2,4.54-8.56c0.82-0.73,2.33-1.85,4.19-2.8c0.87-0.44,1.64-0.76,2.18-0.96
	c0.67-0.47,1.34-0.93,2.01-1.4c0.77,0.35,1.74,0.86,2.82,1.56c0.72,0.47,2.49,1.7,4.26,3.68c2.41,2.7,3.53,5.35,4.28,7.17
	c0.5,1.21,1.33,3.43,2.27,8.65c0.97,5.37,1.28,9.64,1.4,11.53c0.43,6.9-0.15,6.68,0.09,15.99c0.11,4.37-0.14,8.74-0.05,13.1
	c0.06,3.22,0.2,7-2.05,8.48c-0.85,0.56-1.74,0.6-2.18,0.61c-7.51,0.23-15.2-1.66-15.2-1.66c-1.4-0.52-14.94-2.62-15.2-2.88
	s-9.61-1.31-9.61-1.31c-1.08,0-2.16,0-3.23,0c0.55-2.58,1.36-7.37,0.42-11.3c-0.29-1.24-0.52-1.92-0.52-1.92
	C392.25,320.29,390.4,318.5,391.01,317.73z"/>
<g>
	<path class="st18" d="M409.01,251.89c0,0,2.8,9.32,6.76,12.58c3.96,3.26,7.69,4.89,9.09,5.36c0.01,0,0.08,0.03,0.18,0.06
		c0.34,0.13,1.11,0.42,1.75,1.04c0.41,0.4,0.63,0.61,0.7,0.96c0.13,0.67-0.39,1.29-0.8,1.76c-0.86,0.98-1.81,1.45-1.86,1.48
		c-3.6,1.73-14.32,4.85-21.17,9.38c-1.6,1.06-3.16,2.89-6.44,4.82c-1.83,1.08-3.42,1.78-4.39,2.19c-1.03,0.55-2.45,1.21-4.19,1.75
		c-3.04,0.94-5.53,1.04-6.52,1.05c-3.28,0.04-5.98-0.64-7.81-1.28c-3.51-1.31-8.9-3.92-13.57-9.15c-1.53-1.71-2.73-3.41-3.67-4.98
		c-0.5-0.87-0.99-1.75-1.49-2.62c-0.37-0.65-0.65-1.41-0.84-2.27c-0.18-0.78-0.4-2.32,0.25-4.37c0.85,2,1.69,4.01,2.54,6.01
		l12.35,8.62l12.82-0.47c5.11-2.22,10.23-4.44,15.34-6.65c1.64-3.3,3.28-6.59,4.93-9.89l2.8-15.38L409.01,251.89L409.01,251.89z"/>
	<path class="st19" d="M368.65,264.11c-0.87,1.57-1.74,3.14-2.6,4.71c-0.23,2.95-0.47,5.9-0.7,8.85c0.8,3.45,2.08,5.98,3.03,7.57
		c2.21,3.7,3.96,4.47,4.43,4.66c1.38,0.56,2.68,0.55,3.5,0.47c0,0,17.48-5.59,28.54-20.27v-3.96c-0.42-0.73-0.83-1.49-1.24-2.29
		c-0.91-1.8-1.66-3.53-2.27-5.16c-1.43,0.39-2.86,0.77-4.29,1.16c-4.12,6.17-8.23,12.35-12.35,18.52c-1.86,0.82-3.73,1.63-5.59,2.45
		c-0.97-0.66-1.94-1.32-2.91-1.98c0.5-1.55,1.01-3.11,1.51-4.66c-0.98-0.14-3.49-0.62-5.71-2.68
		C368.91,268.64,368.68,264.89,368.65,264.11z"/>
	<path class="st20" d="M360.65,252.08c0,0-5.59,5.13-5.83,10.49c-0.23,5.36,0,6.29,0,6.29c0.64,3.7,1.91,6.46,2.86,8.16
		c1.52,2.74,3.19,4.51,4.4,5.8c1.26,1.33,3.03,3.17,5.85,4.87c1.88,1.13,3.6,1.82,4.87,2.24c-0.98-0.58-2.67-1.77-4.08-3.84
		c-1.31-1.92-1.81-3.77-2.02-4.86c0.31-4.19,0.62-8.39,0.93-12.58l-5.13-16.54h-1.85V252.08z"/>
	<path class="st20" d="M397.15,258.3c-0.14-0.74,0.69-0.99,2.45-3.4c0.4-0.54,0.19-0.3,1.69-2.5c0.5-0.74,0.79-1.15,1.17-1.81
		c0.25-0.43,0.53-0.92,0.82-1.57c0.68-1.55,0.66-2.29,1.28-2.56c0.3-0.13,0.57-0.08,0.82-0.04c1.61,0.28,2.46,2.39,2.62,2.8
		c0.17,0.45,0.3,0.97,0.55,2.01c0.12,0.48,0.22,0.92,0.32,1.51c0.07,0.43,0.13,0.87,0.2,1.86c0.06,0.76,0.13,1.82,0.15,2.3
		c0.02,0.66-0.02,2.06-1.05,5.59c-0.79,2.72-1.19,4.08-2.1,5.77c-1.17,2.17-2.68,4.01-2.97,3.84c-0.28-0.16,1.06-1.88,1.05-4.54
		c0-0.41-0.06-3.58-2.18-5.62c-0.36-0.34-1.02-0.81-2.36-1.75C397.81,258.93,397.26,258.86,397.15,258.3z"/>
	<path class="st21" d="M373.27,270.81c0.23,2.85,0.47,5.71,0.7,8.56c0,0,1.92,3.32,6.12,3.32c3.23,0,5.67-0.74,7.34-1.57
		c2.66-1.32,4.21-2.99,5.94-4.89c2.79-3.07,5.55-6.09,5.94-10.31c0.18-1.93,0-5.59,0-5.59c-0.11-0.57-0.7-3.43-3.15-4.72
		c-0.54-0.29-1.08-0.44-1.57-0.52c-0.64,1.4-1.28,2.8-1.92,4.19c-0.89,1.79-2.53,4.46-5.42,6.82
		C381.65,270.66,375.31,270.84,373.27,270.81z"/>
	<path class="st22" d="M361.12,240.42c0.8-11.15,4.78-13.45,6.13-14.04c1.42-0.61,2.61-0.48,7.24-0.29
		c4.84,0.2,8.75,0.27,11.25,0.29c3.95,2.49,5.04,5.08,5.77,6.94c1.53,3.88,2.07,7.39,2.07,7.57s0.54,0.54,1.26,0.72
		s1.71,0.27,2.52,0s0.99-0.45,1.44-0.9s0.81-0.9,1.17-0.9c0.36,0,1.62-0.09,1.62-0.09s1.08,0.09,1.26,0.45
		c0.18,0.36,0.54,1.33,0.63,1.61c0.15,0.47,0.16,1.17,0,2.08c-0.1,0.59-0.33,1.85-1.35,2.98c-0.13,0.14-0.72,0.78-1.71,1.26
		c-0.71,0.35-1.36,0.48-1.8,0.54c-1.76,0.02-2.57,0.56-2.98,1.08c-0.12,0.15-0.19,0.27-0.27,0.42c-0.8,1.44-0.79,3.41-0.11,5.03
		c0.14,0.34,0.39,0.84,0.82,1.4c0.5,1.25,1.07,1.48,1.35,1.53c0.9,0.16,1.76-0.99,3.3-3.05c1.39-1.86,2.13-3.32,2.33-3.73
		c0.15-0.3,0.64-1.31,1.17-2.8c0.37-1.06,1.11-3.36,1.5-6.42c0.45-3.59,0.19-6.36,0.1-7.17c-0.13-1.17-0.36-3.23-1.24-5.79
		c-0.86-2.53-1.92-4.28-2.69-5.55c-1.21-1.99-2.01-3.3-3.5-4.66c-1.81-1.66-3.56-2.4-5.59-3.26c-0.87-0.37-3.59-1.47-7.46-2.1
		c-4.6-0.74-8.24-0.39-9.55-0.23c-4.7,0.56-8.43,2.02-10.95,3.26c-1.41,1.52-3.23,3.91-4.43,7.22
		C357.67,231.53,360.29,238.44,361.12,240.42z"/>
	<path class="st23" d="M367.59,225.51c-0.86,0.76-2.04,1.94-3.15,3.61c-1.69,2.55-2.29,4.85-2.91,7.34
		c-0.48,1.93-1.14,4.61-1.05,8.16c0.07,2.88,0.59,4.86,1.55,8.53c0.88,3.36,0.87,2.24,2.87,8.48c0,0,2.2,6.87,4.43,8.27
		c0.51,0.32,1.06,0.53,1.06,0.53c0.68,0.26,1.46,0.4,2.44,0.4c1.51,0,3.73,0.12,4.08,0c0.35-0.12,2.68-0.35,3.96-0.93
		s3.73-1.51,4.54-2.33c0.82-0.82,3.5-2.68,4.66-4.19c2.07-2.69,3.61-3.64,4.31-5.13c0.81-1.71,1.21-2.56,1.25-3.82
		c0.02-0.81-0.11-1.56,0.35-2.36c0.4-0.7,1.05-1.08,1.52-1.29c0.91-0.11,1.63-0.34,2.15-0.54c0,0,1.25-0.49,2.53-1.52
		c0.32-0.26,0.58-0.52,0.58-0.52l0,0c0.5-0.64,0.76-0.94,0.95-1.31c0.02-0.03,0.12-0.25,0.21-0.52c0.31-0.91,0.28-1.84,0.22-2.44
		c-0.04-0.62-0.08-1.25-0.11-1.87c-0.09-0.27-0.24-0.63-0.5-1.01c-0.32-0.48-0.67-0.77-0.77-0.85c-1.01-0.82-2.2-0.83-2.35-0.83
		c-0.73,0-1.28,0.23-1.99,0.52c-0.67,0.28-0.86,0.46-1.49,0.66c-0.62,0.19-1.16,0.23-1.51,0.23c-0.2-0.07-0.32-0.16-0.39-0.23
		c-0.18-0.18-0.3-0.48-0.31-0.48c0,0,0,0,0,0.01c0,0.12-0.23-3.5-0.35-3.96c-0.6-2.4-1.61-4.16-2.33-5.24
		c-0.48-0.72-1.18-1.5-2.58-3.04c-0.81-0.89-1.35-1.44-2.2-1.73c-0.4-0.14-1.03-0.27-1.25-0.32c-0.64-0.14-1.17-0.22-1.54-0.26
		C378.85,225.51,373.22,225.51,367.59,225.51z"/>
	<path class="st22" d="M384.57,267.54c-1.37,0.97-2.59,1.4-2.91,1.51c-1.14,0.39-2.14,0.46-4.08,0.58
		c-2.17,0.14-3.48,0.21-5.24-0.12c-1.44-0.27-2.44-0.67-2.8-0.82c-0.94-0.39-1.69-0.83-2.25-1.2c0.06,0.27,0.16,0.67,0.35,1.11
		c0.86,2.02,2.66,2.99,3.53,3.47c1.72,0.94,3.3,1.05,5.01,1.17c1.31,0.09,2.81,0.19,4.66-0.35c1.12-0.32,2.96-0.86,4.43-2.56
		c1.75-2.03,1.86-4.43,1.86-5.24C386.6,265.77,385.77,266.69,384.57,267.54z"/>
</g>
<g>
	<path class="st15" d="M262.83,329.84c0,8.18-7.98,14.82-17.83,14.82s-17.83-6.63-17.83-14.82
		C227.18,328.11,262.83,323.38,262.83,329.84z"/>
	<path class="st15" d="M227.18,316.24c11.88,0,23.77,0,35.65,0c0,4.53,0,9.07,0,13.6h-35.65
		C227.18,325.31,227.18,320.77,227.18,316.24z"/>
	<path class="st24" d="M234.58,289.56c-1.03,1.01-1.59,1.97-1.88,2.59c-1.63,3.4-1.22,8.45,1.23,10.99
		c0.51,0.53,1.38,1.24,1.83,2.58c0.35,1.05,0.28,1.98,0.22,2.59c-0.06,0.68-1.33,4.19-1.33,4.19c0.52-0.22,1.67-0.8,2.56-2.07
		c0.68-0.96,0.91-1.91,1-2.45c0.07-0.44,0.3-1.77-0.22-3.58c-0.82-2.85-2.28-2.83-3.5-6.12c-0.6-1.62-0.7-2.8-0.7-3.19
		c0.01-0.84,0.07-1.8,0.22-2.84C234.16,291.26,234.36,290.35,234.58,289.56z"/>
	<path class="st24" d="M242.49,287.03c-1.03,1.01-1.59,1.97-1.88,2.59c-1.63,3.4-1.22,8.45,1.23,10.99
		c0.51,0.53,1.38,1.24,1.83,2.58c0.35,1.05,0.28,1.98,0.22,2.59c-0.06,0.68-1.33,4.19-1.33,4.19c0.52-0.22,1.67-0.8,2.56-2.07
		c0.68-0.96,0.91-1.91,1-2.45c0.07-0.44,0.3-1.77-0.22-3.58c-0.82-2.85-2.28-2.83-3.5-6.12c-0.6-1.62-0.7-2.8-0.7-3.19
		c0.01-0.84,0.07-1.8,0.22-2.84C242.06,288.72,242.27,287.82,242.49,287.03z"/>
	<path class="st24" d="M251.58,290.74c-1.03,1.01-1.59,1.97-1.88,2.59c-1.63,3.4-1.22,8.45,1.23,10.99
		c0.51,0.53,1.38,1.24,1.83,2.58c0.35,1.05,0.28,1.98,0.22,2.59c-0.06,0.68-1.33,4.19-1.33,4.19c0.52-0.22,1.67-0.8,2.56-2.07
		c0.68-0.96,0.91-1.91,1-2.45c0.07-0.44,0.3-1.77-0.22-3.58c-0.82-2.85-2.28-2.83-3.5-6.12c-0.6-1.62-0.7-2.8-0.7-3.19
		c0.01-0.84,0.07-1.8,0.22-2.84C251.16,292.43,251.36,291.53,251.58,290.74z"/>
</g>
<path class="st6" d="M83.45,481.44c-1.63,42.17-3.26,84.35-4.89,126.52"/>
<path class="st6" d="M168.86,466.91c8,41.44,15.99,82.88,23.99,124.33"/>
<g>
	<path class="st4" d="M1.74,372.51c0,0,28.43,101.59,33.09,104.85s37.75,16.89,42.17,17.3s12.38-0.22,12.38-0.22l-2.83-68.82
		c-3.3-9.75-7.18-17.36-10.25-22.65c-5.08-8.75-9.31-16.04-17.83-22.77c-7.38-5.83-14.25-8.29-19.4-10.14c0,0-13.48-4.83-26.91-3.5
		c-1.35,0.13-2.96,0.42-4.72,1.22C4.57,369.11,2.75,371.15,1.74,372.51z"/>
	<path class="st7" d="M181.85,475.96c0,0-99.07,22.37-97.42,18.17s-7.44-62.21-7.44-62.21h85.28
		C162.28,431.93,170.67,429.83,181.85,475.96z"/>
	<path class="st8" d="M77,431.93c-0.09-0.52-0.17-1.35,0-2.33c0.18-1,0.54-1.75,0.81-2.21c0.43-0.31,1.1-0.73,1.98-1.05
		c1.31-0.47,2.43-0.47,2.8-0.47c4.36,0.01,61.69-0.25,61.69-0.25s12.58,1.75,14.85,3.15c1.02,0.63,4.44,2.3,4.37,3.15
		C163.33,433.93,143.85,434.77,77,431.93z"/>
</g>
<path class="st25" d="M1.74,372.51c0,0,29.59-1.65,45.9,7.67c19.3,11.03,31.25,40.03,31.69,41.94c0.04,0.17,0.24,1.23,1.09,2.13
	c0.11,0.12,0.57,0.59,1.46,0.98c1.84,0.82,3.78,0.56,4.68,0.38c-2.02-5.76-5.22-13.72-10.25-22.65c-4-7.1-6.48-11.51-11.13-16.48
	c-9.72-10.39-20.75-14.5-26.09-16.42c0,0-9.12-3.28-23.07-3.74c-2.46-0.08-5.83-0.05-9.3,1.85C4.27,369.5,2.68,371.27,1.74,372.51z"
	/>
<path class="st6" d="M368.25,497.91c8,41.44,15.99,82.88,23.99,124.33"/>
<path class="st6" d="M293.92,500.43c-8.06,41.43-16.12,82.86-24.17,124.29"/>
<path class="st6" d="M308.34,460.2c-4.95,41.92-9.89,83.83-14.84,125.75"/>
<path class="st6" d="M357.51,459.96c3.31,42.08,6.62,84.15,9.93,126.23"/>
<path class="st7" d="M278.41,436.14c4.19-10.01,8.51-14.98,11.14-17.61c6.7-6.72,13.78-9.69,17.6-11.26
	c9.3-3.8,17.13-4.24,21.89-4.47c7.16-0.34,19.04-0.9,32.01,5.52c3.84,1.9,12.65,6.4,19.37,16.15c4.75,6.89,6.1,13.01,8.18,22.89
	c3.99,18.93,2.93,34.14,2.51,39.03c-1.18,13.53-4.33,25.27-7.93,34.85c-35.5-0.13-70.99-0.26-106.49-0.39
	c-4.31-16.95-5.29-31.35-5.32-41.51C271.34,467.84,271.43,452.8,278.41,436.14z"/>
</svg>
