<?xml version="1.0" encoding="utf-8"?>
<!-- Generator: Adobe Illustrator 24.0.3, SVG Export Plug-In . SVG Version: 6.00 Build 0)  -->
<svg version="1.1" xmlns="http://www.w3.org/2000/svg" xmlns:xlink="http://www.w3.org/1999/xlink" x="0px" y="0px"
	 viewBox="0 0 555.43 534.63" style="enable-background:new 0 0 555.43 534.63;" xml:space="preserve">
<style type="text/css">
	.st0{fill:#1A75C0;}
	.st1{fill:#FFFFFF;}
	.st2{fill:none;}
	.st3{fill:#FFFFFF;stroke:#FFFFFF;stroke-width:4;stroke-linecap:round;stroke-miterlimit:10;}
	.st4{fill:none;stroke:#0B2E56;stroke-width:5;stroke-miterlimit:10;}
	.st5{fill:#0B2E56;}
	.st6{fill:none;stroke:#1A75C1;stroke-width:6;stroke-miterlimit:10;}
	.st7{fill:#0B2E56;stroke:#FFFFFF;stroke-miterlimit:10;}
	.st8{fill:none;stroke:#FFFFFF;stroke-width:2;stroke-linecap:round;stroke-miterlimit:10;}
	.st9{fill:#FFFFFF;stroke:#FFFFFF;stroke-miterlimit:10;}
	.st10{fill:none;stroke:#FFFFFF;stroke-width:10;stroke-linecap:round;stroke-miterlimit:10;}
	.st11{fill:#1A75C0;stroke:#0B2E56;stroke-width:10;stroke-linecap:round;stroke-miterlimit:10;}
	.st12{fill:#FFFFFF;stroke:#1A75C0;stroke-width:5;stroke-miterlimit:10;}
	.st13{fill:none;stroke:#1A75C1;stroke-width:40;stroke-miterlimit:10;}
	.st14{fill:#8FA5CC;}
	.st15{fill:#D1ADA2;}
	.st16{fill:#17628C;}
	.st17{fill:#7C8DA5;}
	.st18{fill:#9EB4E1;}
</style>
<g id="Layer_1">
	<g>
		<path class="st0" d="M466.48,442.94H94.22c-12.84,0-23.25-10.41-23.25-23.25V133.22c0-12.84,10.41-23.25,23.25-23.25h372.25
			c12.84,0,23.25,10.41,23.25,23.25V419.7C489.72,432.54,479.32,442.94,466.48,442.94z"/>
		<path class="st1" d="M457.96,398.49H103.6c-9.83,0-17.81-7.97-17.81-17.81V141.26c0-9.83,7.97-17.81,17.81-17.81h354.36
			c9.83,0,17.81,7.97,17.81,17.81v239.42C475.77,390.51,467.8,398.49,457.96,398.49z"/>
		<path class="st0" d="M274.17,159.46h-238C16.19,159.46,0,143.27,0,123.3v0c0-19.97,16.19-36.16,36.16-36.16h238
			c19.97,0,36.16,16.19,36.16,36.16v0C310.33,143.27,294.14,159.46,274.17,159.46z"/>
		<path class="st1" d="M184.96,150.58H39.31c-14.98,0-27.13-12.15-27.13-27.13v0c0-14.98,12.15-27.13,27.13-27.13h145.65
			c14.98,0,27.13,12.15,27.13,27.13v0C212.09,138.43,199.94,150.58,184.96,150.58z"/>
		<ellipse class="st1" cx="252.22" cy="120.06" rx="15.9" ry="15.82"/>
		<line class="st3" x1="246.92" y1="126.84" x2="230.26" y2="143.42"/>
		<ellipse class="st0" cx="252.22" cy="119.89" rx="11.74" ry="11.68"/>
		<polyline class="st4" points="117.17,276.46 203.49,224.63 251.2,240.62 367.05,161.88 412.49,175.44 548.79,55.63 		"/>
		<ellipse class="st5" cx="203.26" cy="223.88" rx="8.81" ry="8.77"/>
		<ellipse class="st5" cx="366.78" cy="162.66" rx="8.81" ry="8.77"/>
		<ellipse class="st5" cx="411.67" cy="174.67" rx="8.81" ry="8.77"/>
		<ellipse class="st5" cx="250.71" cy="240.66" rx="8.81" ry="8.77"/>
		<ellipse class="st5" cx="117.17" cy="276.46" rx="8.81" ry="8.77"/>
		<ellipse class="st5" cx="546.62" cy="56.71" rx="8.81" ry="8.77"/>
		<rect x="111.9" y="329.9" class="st5" width="55" height="54.74"/>
		<rect x="180.37" y="285.23" class="st5" width="55" height="99.41"/>
		<rect x="252.16" y="305.46" class="st5" width="55" height="79.18"/>
		<rect x="325.19" y="255.32" class="st5" width="55" height="129.32"/>
		<rect x="397.58" y="215.11" class="st5" width="55" height="169.53"/>
		<path class="st0" d="M229.29,452.9h102.98l9.59,23.11h30.29v12.81H189.41v-13.06c10.68-0.2,21.36-0.4,32.04-0.59
			C224.06,467.74,226.68,460.32,229.29,452.9z"/>
	</g>
</g>
<g id="Layer_2">
</g>
</svg>
