<?xml version="1.0" encoding="utf-8"?>
<!-- Generator: Adobe Illustrator 24.0.3, SVG Export Plug-In . SVG Version: 6.00 Build 0)  -->
<svg version="1.1" id="Layer_1" xmlns="http://www.w3.org/2000/svg" xmlns:xlink="http://www.w3.org/1999/xlink" x="0px" y="0px"
	 viewBox="0 0 900.14 934.66" style="enable-background:new 0 0 900.14 934.66;" xml:space="preserve">
<style type="text/css">
	.st0{fill:#2D81BA;enable-background:new    ;}
	.st1{opacity:0.5;fill:#062C50;enable-background:new    ;}
	.st2{fill:#061A23;}
	.st3{fill:#E4C1B9;}
	.st4{fill:#07283A;}
	.st5{fill:#093756;}
	.st6{fill:#1D6EBF;}
	.st7{fill:#D1ADA2;}
	.st8{fill:#142942;}
	.st9{fill:#1A3054;}
	.st10{fill:#17628C;}
	.st11{fill:#0E5289;}
	.st12{fill:#104568;}
	.st13{fill:#1260A0;}
	.st14{fill:#BF9C94;}
	.st15{fill:#0B2E56;}
</style>
<path class="st0" d="M48.31,126.87C32.51,176.49,58.7,229.46,83.6,279.79c30.48,61.63,45.42,58.37,48.92,91.92
	c3.95,37.96-13.99,53.55-17.9,124c-1.47,26.52-2.21,39.78,0.48,52.92c12.47,60.96,83.2,117.42,154.88,125.25
	c89.26,9.75,176.77-56.26,217.76-118.61c24.83-37.76,31.13-71.95,72.74-101.66c31.68-22.63,65.86-29.83,90.34-32.3
	c24.78,5.21,111.88,20.52,164.98-28.37c95.61-88.02,10.39-319.12-78.04-340.48c-11.18-2.7-36.34-5.41-62.23,4.37
	c-35.41,13.38-40.59,38.19-70.03,59.44c-37.87,27.35-89.53,29.78-122.61,21.52c-69.68-17.4-60.26-83.1-131.15-119.19
	c-79.61-40.53-181.47-3.49-236.98,35.01C88.75,71.66,59.76,90.94,48.31,126.87z"/>
<path class="st1" d="M505.27,699.09c-12.58-5.81-16.96-7.96-30.66-14.26c-16.88-7.76-29.51-13.35-29.95-13.55
	c-38.64-17.02-329.44,70.16-315.03,140.34c7.77,37.83,91.09,6.91,238.01,84.28c39.2,20.64,88.46,51.91,116.95,32.8
	c15.92-10.67,18.61-32.56,51.34-62.04c7.44-6.7,17.04-14.34,30.82-18.2c11.41-3.19,17.8-1.59,29.79-2.48
	c17.18-1.28,29.13-6.43,45.64-13.55c39.54-17.05,121.96-73.67,111.74-98.21c-6.88-16.51-49.54-3.67-77.81-36.83
	c-4.84-5.68-7.87-11.06-9.58-14.47c-0.77,6.15-2.84,15.41-9.12,24.24c-18.65,26.24-57.13,24.34-63.72,24.02
	c-15.24-0.75-27.51-5.73-52.06-15.69C534.79,712.72,524.95,708.18,505.27,699.09z"/>
<g>
	<path class="st2" d="M716.92,733.23c-9.91,7.24-25.27,15.87-36.77,31.17c-2.89,3.84-7.31,10.47-5.79,17.62
		c0.19,0.89,1.12,5.28,4.88,8.05c3.31,2.44,6.94,2.17,10.68,2.05c6.85-0.22,12.08-3,15.06-4.98c4.94-3.95,8.88-7.65,11.86-10.65
		c6.74-6.78,7.31-8.75,13.86-14.83c4.27-3.96,8.26-7.05,12.06-9.99c3.84-2.97,7.16-5.36,9.64-7.09c-1.35-15.42-2.7-30.83-4.05-46.25
		C737.56,715.98,725.94,726.64,716.92,733.23z"/>
	<path class="st3" d="M685.01,764.83c1.2,3.08,5.42,4.12,6.16,4.3c2.47,0.61,4.79,0.28,9.83-1.58c5.64-2.09,9.04-3.35,13.41-6.32
		c5.59-3.79,4.13-4.63,12.53-12.09c5.95-5.29,8.33-6.35,12.39-11.33c2.53-3.1,4.1-5.73,5.01-7.28c3.98-6.75,6.84-11.6,6.01-15.33
		c-1.29-5.85-11.88-10.02-25.59-9.97c-9.63,3.82-16.33,11.64-17.03,20.49c-0.35,4.36,0.83,8.08,1.99,10.62
		c-9.46,5.86-15.59,12.11-19.38,16.66C684.67,759.8,684.22,762.82,685.01,764.83z"/>
	<path class="st2" d="M670.96,710.15c-10.21,3.59-25.4,7.02-38.96,16.89c-3.41,2.48-8.81,6.89-9.29,13.18
		c-0.06,0.78-0.36,4.64,2.14,7.84c2.2,2.82,5.35,3.47,8.56,4.28c5.87,1.47,11,0.44,14.02-0.48c5.17-2.08,9.44-4.18,12.72-5.94
		c7.41-3.98,8.38-5.47,15.45-8.91c4.61-2.25,8.76-3.83,12.72-5.35c3.99-1.53,7.41-2.7,9.94-3.53c2.68-13.08,5.36-26.17,8.05-39.25
		C692.77,700.87,680.25,706.87,670.96,710.15z"/>
	<path class="st3" d="M636.01,728.57c0.26,2.84,3.58,4.72,4.16,5.05c1.94,1.1,4,1.4,8.74,1.07c5.31-0.36,8.5-0.58,12.95-1.98
		c5.69-1.79,4.66-2.83,13.64-6.97c6.37-2.94,8.65-3.24,13.34-6.38c2.92-1.95,4.9-3.75,6.06-4.81c5.05-4.62,8.69-7.95,8.91-11.23
		c0.36-5.15-7.6-11.16-19.25-14.44c-9.13,0.83-16.76,5.68-19.55,12.84c-1.38,3.53-1.3,6.89-0.95,9.27
		c-9.49,2.56-16.24,6.25-20.59,9.09C636.98,724.32,635.84,726.71,636.01,728.57z"/>
	<path class="st4" d="M659.14,349.62c-6.1,62.38-5.85,112.5-4.48,146.85c1.4,35.17,4.14,57.77,5.3,105.22
		c1.04,42.7,0.11,77.55-0.82,100.18c5.06,4.24,12.98,9.5,23.46,10.92c5,0.68,9.03,0.12,12.46-0.15
		c15.13-1.2,11.24-357.02,11.24-357.02C690.58,353.63,674.86,351.62,659.14,349.62z"/>
	<path class="st5" d="M696.17,395.25c-6.51,26.72-7.67,34.11-8.34,39.52c-2.43,19.65-1.04,34.57-0.4,42.32
		c4.42,53.77-2.53,69.44,3.01,193.1c0.55,12.32,1.27,26.66,2.22,42.66c-4.08,0.33-11.3,0.38-19.52-2.66
		c-6.51-2.41-11.17-5.85-14-8.31c0.19-24.47,0.16-57.96-0.78-97.86c-1-42.57-1.5-63.85-2.85-79.87c-2.76-32.79-9.45-87.6-6.42-119.8
		c1.42-15.09,3.57-25.67,3.57-25.67c2.08-10.25,5.84-24.67,6.49-27.6c0.05-0.21,0.23-1.07,0.56-2.21c0.16-0.56,0.34-1.17,0.56-1.83
		c0.47-1.4,0.78-2.32,1.29-3.3c0.45-0.86,2.03-3.93,5.04-5.21c2.07-0.88,4.03-0.56,4.94-0.41c4.82,0.78,17.93,7.31,34.77,17.52
		C703.62,365.62,700.1,379.14,696.17,395.25z"/>
	<polygon class="st6" points="631.42,238.65 612.7,213.42 621.38,206.15 666.94,176.5 664.54,218.47 	"/>
	<path class="st5" d="M762.59,342.98c3.32,6.84,7.18,16.26,9.87,27.9c4.51,19.5,3.46,35.25,2.89,41.27
		c-1.59,16.67-5.33,19.45-12.16,46.39c0,0-4.86,19.18-7.84,39.22c-4.62,30.97-2.8,55.05-2.14,65.9
		c1.72,28.43,2.19,77.88-1.61,170.57c-3.31,2.43-16.15,12.25-32.81,8.72c-6.84-1.45-20.54-8.72-20.54-8.72
		c0.16-94.72-1.8-146.73-3.7-176.98c-1.88-29.85-1.65-59.8-2.91-89.68c-0.23-5.37-0.79-18.39,0.48-35.66
		c0.8-10.91,1.87-17.24,2.85-25.2c1.49-12.08,2.97-29.56,2.53-51.76c2.65,0.32,6.1,0.71,10.14,1.09c3.05,0.28,5.75,0.5,8.04,0.66
		c6.23,0.44,9.55,0.66,14.18,0.54c7.95-0.21,12.05-0.31,16.87-2.13C750.35,353.76,756.37,350.69,762.59,342.98z"/>
	<path class="st7" d="M627.81,208.39c3.21,4.18,7.74,9.28,13.92,14.25c5.57,4.49,10.93,7.63,15.34,9.81
		c-10.67,5.19-18.21,10.78-23.08,14.89c-12.1,10.19-21.73,22.92-32.68,23.89c-4.03,0.35-9.03,0.24-9.03,0.24
		c-5.62-0.13-9.77-0.75-11.17-0.95c-15.68-2.26-28.43-1.76-46.11-5.23c-8.02-1.57-19.37-4.42-32.8-9.98
		c-0.64-1.6-2.43-6.67-0.72-12.84c1.54-5.56,5.05-8.83,6.43-9.98c27.33,3.57,54.67,7.13,82,10.7
		C602.53,231.58,615.17,219.99,627.81,208.39z"/>
	<polygon class="st8" points="664.9,96.81 630.16,114.51 630.16,209.46 680.91,205.88 712.35,169.09 	"/>
	<path class="st9" d="M729.25,145.79c0,0-1.69-2.22-11.09,0s1.58,12.69,1.58,12.69L729.25,145.79z"/>
	<path class="st3" d="M685.94,158.23l1.29,10.86c4.61-1.18,10.03-2.96,15.84-5.68c8.25-3.87,14.65-8.41,19.3-12.28
		c-0.3-3.94-0.61-7.88-0.91-11.82c-1.37-10.58-2.75-21.16-4.12-31.75c-6.64,5-13.28,10-19.92,14.99L685.94,158.23z"/>
	<path class="st7" d="M706.79,140.11c-0.64,1.34-1.66,3.38-3.1,5.75c-2.13,3.53-4,5.89-4.7,6.81c-2.12,2.78-4.92,7.34-7.63,15.03
		c-1.38,0.47-2.75,0.93-4.13,1.4l-1.29-10.86l4.89-15.48c1.69,0.15,4.53,0.16,7.39-1.23c8.46-4.12,9.88-17.13,10.63-16.96
		C709.19,124.65,709.09,127.31,706.79,140.11z"/>
	<path class="st3" d="M705.61,105.59c0,0,4.15,14.27,3.5,17.41s-0.73,9.27-4.4,16.24c-3.66,6.97-11.48,18.51-19.78,19.09
		s-10.71-0.77-10.71-0.77c-3.02-1.76-6.93-4.38-10.98-8.14c-3.31-3.07-7.92-8.03-11.76-14.88l-9.39-30.94l0,0
		c0,0-2.64-17.04-2.23-18.72c0.41-1.68,14.85-10.75,14.85-10.75l30.4-3.61L705.61,105.59z"/>
	<path class="st7" d="M657.7,85.95c0,0,4.18,27.27,3.29,38.61c-0.88,11.34,3.98,19.03,7.96,22.26c3.98,3.23,11.95,11.66,11.95,11.66
		s-5.55-0.23-6.68-0.91c-3.81-2.27-6.8-3.94-11.96-9.08c-2.35-2.34-4.43-4.4-6.68-7.62c0,0-0.52-0.75-4.1-6.32l0,0l-2.6-8.56
		l5.67-38.18L657.7,85.95z"/>
	<path class="st6" d="M686.03,159.8c-4.56,1.62-11.98,4.94-19.17,11.66c-5.35,5-4.56,7.2-11.29,14.91
		c-7.99,9.16-10.7,8.46-15.52,15.69c-4.63,6.94-6.09,13.51-6.77,16.76c-1.74,8.21-3.6,16.98,1.07,23.53
		c2.51,3.52,8.98,9.33,16.4,11.05c1.53,0.36,4.67,0.9,6.25,3.41c1.17,1.86,0.89,3.87,0.76,5.43c-0.17,2.09,0.31,1.09,2.88,17.71
		c1.19,7.68,1.78,11.53,1.93,11.82c2.54,4.96,12.16,9.12,45.18,3.44l21.51-53.67c0,0,19.01,8.83,39.99,7.38
		c0,0,10.49-19.55,11.22-37.27c0.72-17.73-0.36-28.58-6.87-34.01s-44.33-31.84-44.33-31.84c-2.67,2.35-5.66,4.72-8.98,7.02
		c-11.53,7.99-22.96,12.28-32.06,14.68C687.48,164.93,686.76,162.37,686.03,159.8z"/>
	<path class="st9" d="M615.95,175.78c0,0-9.37,16.58-8.65,26.68s-0.72,19.47,8.65,25.24s20.19,9.37,23.79,7.93
		c3.61-1.44,12.98-10.09,14.42-15.14s-1.44-37.49-3.61-44.7s-10.09-29.56-7.93-36.05c2.16-6.49,5.77-12.26,8.65-18.75
		s4.38-26.68,3.27-33.17c0,0,8.5-6.13,14.75-3.36c6.25,2.76,14.42,15.86,17.42,17.42s7.33,3.85,9.61,3.85s6.73-0.84,6.73-0.84
		l6.97,1.2v15.5v6.01l1.32,0.96c0,0,6.85-2.64,8.53-7.21s6.85-12.02,4.57-29.32s-12.98-30.04-17.66-33.89s-9.85-6.97-17.18-7.93
		s-15.5,2.4-15.5,2.4s-6.97-3.73-13.1-3.73s-17.18,2.04-23.43,5.41s-13.94,12.02-15.62,16.7c-1.68,4.69-4.33,29.2-4.33,32.21
		c0,3-2.76,10.21-2.76,10.21s-9.25,12.38-10.09,14.54c-0.84,2.16-4.21,13.46,0,21.63C608.98,157.75,615.95,165.2,615.95,175.78z"/>
	<path class="st6" d="M661.27,284.05c-0.71,22.19-1.42,44.39-2.13,66.58c20.32,4.74,58.33,11.96,86.51,5.41
		c13.45-3.13,16.5-7.49,17.19-10.41c1.29-5.46-5.06-8.4-9.16-20.82c-2.05-6.2-2.4-11.34-2.92-18.74
		c-0.92-13.29,1.06-16.81-0.07-20.03C748.04,278.48,728.63,274.02,661.27,284.05z"/>
	<path class="st3" d="M705.61,105.59c0,0-2.38-8.02,2.01-10.58s8.02,0.48,8.52,1.23c0.5,0.76,4.75,9.04,3.31,14.11
		s-0.37,7.18-3.05,8.73c-2.67,1.54-4.1,1.92-5.72,1.7s-1.62-0.22-1.62-0.22L705.61,105.59z"/>
	
		<ellipse transform="matrix(0.993 -0.1181 0.1181 0.993 -7.8008 84.7857)" class="st7" cx="711.5" cy="108.21" rx="3.87" ry="8.38"/>
	<path class="st3" d="M729.25,241.54c5.18,2.25,12.1,4.68,20.48,6.14c7.56,1.31,14.23,1.48,19.51,1.24
		c-11.87,23.76-23.74,47.53-35.61,71.29c0,0-2.41,2.89-4.82,3.86c-2.41,0.96-8.68,0-13.02,0s-32.8,0-54.99-7.24
		s-71.39-20.74-71.39-20.74s10.13-1.76,9.65-15.35l107.57,13.42C714.16,276.61,721.71,259.07,729.25,241.54z"/>
	<path class="st4" d="M594.01,313.28l4.29-4.65c0,0,0.44-1.89-0.73-3.49c-1.16-1.6-33.55-60.56-33.55-60.56s-1.31-2.32-3.49-3.19
		s-94.54-30.64-94.54-30.64l-5.08,2.32"/>
	<path class="st10" d="M558.65,245.61l35.29,65.78c0,0,0.73,3.19-2.61,2.61c-3.34-0.58-102.81-38.92-102.81-38.92l-27.59-62.01
		l94.1,30.93C555.02,244.01,557.05,244.59,558.65,245.61z"/>
	<path class="st11" d="M729.25,241.54l12.06-33.1c0,0-14.47,24.62-16.28,27.51c-5.62,8.96-8.57,18.43-17.73,21.7
		c-1.38,0.49-2.56,0.69-4.9,1.08c-15.2,2.52-28.46-0.79-28.48-0.68c-0.02,0.11,12.84,1.05,25.67,7.82
		c7.64,4.03,9.58,7.13,10.29,9.63c0,0,0.38,1.37,0.26,10.5l0,0"/>
	<path class="st3" d="M601.02,280.98c-0.57,0.03-1.56,0.01-2.62-0.48c-0.46-0.21-0.82-0.46-1.11-0.69
		c-9.85-10.16-13.38-14.34-13.94-15.47c-0.44-0.87-1.09-1.96-2.4-1.52s-2.18,0.87-2.18,1.74s1.74,8.06,1.74,8.06
		s1.09,1.74-0.44,2.83c-1.52,1.09-2.4,1.31-5.23,1.74c-2.83,0.44-6.53,0-8.06-0.22c-1.52-0.22-4.57-1.09-5.66-1.74
		c-1.09-0.65-2.18-1.31-2.83-2.61c-0.65-1.31-0.87-3.49-1.09-4.36c-0.22-0.87-0.44-1.31-1.52-1.74c-1.09-0.44-1.74-0.87-2.4-0.44
		s-2.4,1.96-2.4,3.27s-0.22,2.61,0,6.53s5.45,18.73,6.75,20.69c1.31,1.96,2.61,2.4,4.14,2.61c1.52,0.22,30.5-1.09,32.67-1.74
		s3.7,0.87,3.7,0.87C599.11,292.54,600.07,286.76,601.02,280.98z"/>
	<path class="st3" d="M466.29,225.14c0.87-0.18,1.49,3.37,5,4.96c0.57,0.26,1.66,0.75,3.09,0.71c1.8-0.05,2.42-0.9,4.04-0.95
		c1.67-0.05,2.96,0.79,3.57,1.19c1.52,0.99,2.55,2.61,3.8,7.37c0,0,2.32,8.82,0.98,17.19c-0.11,0.7-0.33,1.67-1.03,2.59
		c0,0-0.65,0.87-1.71,1.46c-1.78,1-5.63,0.29-9.65-2.23c-1.52-1.59-3.59-4.1-5.23-7.61c-0.47-1.01-1.61-3.59-2.61-9.75
		C465.42,233.28,465.01,225.41,466.29,225.14z"/>
</g>
<g>
	<polygon class="st12" points="399.73,544.3 408.12,547.73 414,526.04 401.44,526.04 	"/>
	<path class="st12" d="M566.98,798.32l14.27-5.14l-42.24-220.91c0,0-0.57-9.7-15.41-23.4c-14.84-13.7-110.74-34.25-110.74-34.25
		s-12.87,4.14-16.71,11.86s25.84,1.27,25.84,1.27l89.62,25.69c0,0,13.44,7.87,17.33,29.85
		C532.82,605.26,566.98,798.32,566.98,798.32z"/>
	<path class="st2" d="M566.98,798.32L527.59,575.7c0,0-2.28-15.98-15.98-22.26c-13.7-6.28-99.89-33.11-99.89-33.11
		s-18.27-2.85-20.55,19.98l8.56,4c0,0-1.53-8.87,3.47-12.73c2.94-2.27,6.81-1.79,8.52-1.54c14.66,2.12,36.57,10.55,43.64,13.09
		c8.57,3.09,32.9,11.07,47.66,16.63c1.64,0.62,5.49,2.12,8.45,5.83c3.2,4.02,3.67,8.54,3.83,9.87
		c2.25,19.07,38.82,219.97,38.62,219.98c0,0-0.02-0.06-0.07-0.54L566.98,798.32z"/>
	<g>
		<path class="st12" d="M410.28,511.15l0.28,12.03l82.66,27.03c0,0,21.71,3.95,29.16-1.8c7.44-5.75,4.34-6.9,4.34-6.9l-0.16-6.32
			L410.28,511.15z"/>
		<path class="st6" d="M439.07,503.34c0,0-19.16,0.45-25.54,3.94s-1.37,8.28-1.37,8.28l83.32,26.35c0,0,29.45,1.31,30.88-4.52
			c1.42-5.83-4.43-8.14-4.43-8.14l-4.73-1.89L439.07,503.34z"/>
	</g>
	<g>
		<path class="st2" d="M513.12,654.46c-23.53,9.63-56.89,22.69-95.73,35.93c-14.43,4.92-33.33,11.12-58.29,11.36
			c-10.13,0.09-18.3-0.82-23.53-1.43c-9.91-1.14-24.93-3.54-55.62-13.55c-5.6-1.83-55.42-18.28-78.92-36.37
			c-3.34-2.57-7.8-6-12.6-11.65c-6.82-8.02-12.71-18.6-12.71-18.6l0,0c-2.09-6.4-4.17-12.81-6.26-19.21
			c112.99,11.06,225.97,22.11,338.96,33.17C509.99,640.9,511.56,647.68,513.12,654.46z"/>
		<path class="st11" d="M185.46,604.41c3.07,6.25,8.96,16.66,19.33,26.41c2.7,2.54,5.45,4.69,8.7,7.01
			c13.21,9.42,27.81,15.91,49.34,23.98c20.56,7.71,32.43,12.11,49.92,16.4c15.98,3.92,23.98,5.88,32.49,5.42
			c18.44-1.01,20.22-8.79,46.08-16.96c25.18-7.96,52.32-9.69,52.32-9.69c22.46-7.27,44.93-14.55,67.39-21.82
			c-83.53-16.63-167.05-33.26-250.58-49.88C235.46,591.65,210.46,598.03,185.46,604.41z"/>
		<path class="st2" d="M240.16,357.57c-18.42,6.09-32.14,10.52-44.36,14.37c0,0-16.7,5.26-32.19,16.15
			c-1.82,1.28-4.96,3.6-7.46,7.67c-3.99,6.5-3.8,13.32-3.69,16.07c1.68,41.18,3.3,66.62,4.21,79.78c0.33,4.81,0.27,4.06,0.64,8.88
			c1.6,21.38,4.64,52.3,10.91,92.63c0.72,10.81,4.41,15.77,7.61,18.3c3.26,2.59,7.47,2.62,9.26,2.74c5.64,0.38,9.73-1.33,15.93-3.93
			c11.72-4.92,17.59-7.38,19.97-8.32c12.31-4.87,20.92-7.61,20.92-7.61c7.15-2.28,12-3.48,16.16-8.08c2.33-2.58,3.59-5.27,4.28-7.13
			c20.86-78.69,41.73-157.37,62.59-236.06c-19.42,1.69-40.35,4.61-62.47,9.29C254.8,353.95,247.36,355.71,240.16,357.57z"/>
		<path class="st5" d="M264.35,362.9c-19.05,2.52-34.24,6.71-44.66,10.11c-24.21,7.91-43.75,14.59-51.23,31.73
			c-2.69,6.17-2.88,11.52-2.96,16.04c-0.63,33.51,3.66,60.2,5.39,78.25c0,0,8.81,91.89,14.58,105.37c0.2,0.47,0.64,1.2,1.41,1.89
			c5.19,4.72,16.5-2.02,38.88-11.52c12.22-5.19,24.23-10.88,36.61-15.69c8.58-3.33,13.95-5.16,16.51-10.47
			c3.36-6.94-0.71-14.41-3.2-21.86c-5.64-16.87-1.55-28.75,0-45.64c1.54-16.84,1.85-52.88-4.02-138.23
			C269.22,362.9,266.78,362.9,264.35,362.9z"/>
	</g>
	<g>
		<path class="st2" d="M545.39,731.73c0.39,5.77,1.61,13.79,5.23,22.65c2.29,5.6,4.98,10.18,7.44,13.75
			c5.83,1.73,12.87,4.33,20.44,8.32c7.95,4.19,14.32,8.77,19.17,12.78c0.93,2.44,4.5,12.57-0.58,20.91
			c-6.24,10.25-20.77,9.99-27.3,9.87c-12.44-0.22-21.44-5.7-24.4-7.55c-8.65-5.41-7.04-8.16-15.1-13.36
			c-13.07-8.43-21.29-3.81-27.3-11.62c-2.61-3.4-3.06-8.4-3.85-18.26c-0.85-10.58-0.49-19.39,0-25.5l37.88-18.13
			C539.8,727.65,542.6,729.69,545.39,731.73z"/>
		<path class="st4" d="M473.19,506.59l-4.29-4.65c0,0-0.44-1.89,0.73-3.49c1.16-1.6,33.55-60.56,33.55-60.56s1.31-2.32,3.49-3.19
			s94.54-30.64,94.54-30.64l5.08,2.32"/>
		<path class="st6" d="M373.86,520.47c0,0,0,15.97,0,17.72c0,0.04-0.02,0.11-0.05,0.2c-0.6,1.73-5.29,1.47-7.94,1.47
			c-7.12-0.01-6.85,1.8-14.34,2.08c-2.85,0.11-7.05,0-12.23-1.13c0.55-1.83,4.17-13.12,15.84-18.48
			C363.51,518.47,371.24,519.87,373.86,520.47z"/>
		<path class="st10" d="M508.54,438.92l-35.29,65.78c0,0-0.73,3.19,2.61,2.61c3.34-0.58,102.81-38.92,102.81-38.92l27.59-62.01
			l-94.1,30.93C512.17,437.32,510.14,437.9,508.54,438.92z"/>
		<path class="st5" d="M341.63,532.44c-0.14,0.48,0.59,0.98,0.68,2.34c0.1,1.57-0.52,3.58-3.02,6.02c0.78,0.73,1.55,1.47,2.33,2.2
			c-1.4,15.72-2.8,31.45-4.2,47.17c4.71,2.76,47.49,27.56,77.55,33.98c10.97,2.34,18.08,2.75,18.08,2.75
			c4.5-1.56,17.13-5.27,32.45-1.01c15.49,4.31,24.43,14.2,27.45,17.86c-0.01,37.46-0.03,74.92-0.04,112.38
			c4.42,2.86,12.26,7.11,22.82,8.56c5.9,0.81,21.57,2.95,30.43-5.23c5.79-5.35,5.18-11.87,4.3-46.44
			c-0.96-38.15,0.1-39.9-1.74-53.59c-7.64-56.77-3.41-58.77-10.18-68.45c-3.5-5-8.76-10.29-51.25-25.21
			c-15.97-5.61-28.8-9.63-113.43-29.88C373.86,535.89,342.77,528.45,341.63,532.44z"/>
		<path class="st13" d="M354.63,344.01l0.87-16.85c0,0,11.33-5.16,11.33-4.5c0,0.65,4.14,10.64,4.14,10.64l-5.66,9.18L354.63,344.01
			z"/>
		<path class="st3" d="M464.98,477.17h3.92c0,0,13.51-14.59,13.94-15.47c0.44-0.87,1.09-1.96,2.4-1.52s2.18,0.87,2.18,1.74
			s-1.74,8.06-1.74,8.06s-1.09,1.74,0.44,2.83c1.52,1.09,2.4,1.31,5.23,1.74c2.83,0.44,6.53,0,8.06-0.22
			c1.52-0.22,4.57-1.09,5.66-1.74s2.18-1.31,2.83-2.61c0.65-1.31,0.87-3.49,1.09-4.36s0.44-1.31,1.52-1.74
			c1.09-0.44,1.74-0.87,2.4-0.44c0.65,0.44,2.4,1.96,2.4,3.27s0.22,2.61,0,6.53s-5.45,18.73-6.75,20.69s-2.61,2.4-4.14,2.61
			c-1.52,0.22-30.5-1.09-32.67-1.74c-2.18-0.65-3.7,0.87-3.7,0.87L464.98,477.17z"/>
		<path class="st6" d="M367.37,324.64c0.04,2.56,0.07,5.12,0.11,7.68c-1.1,1.72-2.08,3.22-2.91,4.45c-0.34,0.5-1.23,1.82-2.61,3.34
			c-1.71,1.88-2.35,2.07-2.76,1.93c-0.51-0.17-0.44-0.78-1.09-1.35c-0.93-0.82-2.29-0.66-2.54-0.65
			c-1.48,0.05-11.73-3.61-41.1-15.56c1.11-3.05,2.23-6.1,3.34-9.15c0,0-24.98,5.95-41.53,15.83c-16.56,9.87-28.46,31.37-28.46,31.37
			s-4.94,37.47,6.68,73.19s46.76,94.39,46.76,94.39s13.07,0.44,30.39-0.44c22.2-1.12,39.3-4.86,55.87-8.28
			c11.13-2.29,18.89-4.23,34.42-8.11c18.55-4.64,33.81-8.79,44.44-11.76c1.01-2.59,2.16-6.44,2.4-11.2
			c0.3-5.96-0.95-10.75-1.96-13.65L393.05,488c0,0-64.77,4.94-65.64,5.81s-18.59-75.22-27.59-95.26
			c-15.57-34.66,84.77-31.18,103.11-30.5c2.47,0.09,4.56,0.22,6.11,0.33c-1.61-3.12-4-7.57-7.12-12.8c-6-10.04-9-15.06-13.61-19.5
			C384.78,332.71,378.28,327.62,367.37,324.64z"/>
		<path class="st6" d="M258.29,435.21c0,0-7.55,88.87-13.94,96.13c-6.39,7.26,10.46,19.17,10.46,19.17s13.65,7.55,36.31,5.52
			c31.17-2.8,48.67-4.26,58.67-17.14c6.33-8.16,7.39-17.96,18.43-23.55c3.75-1.9,7.25-2.6,9.58-2.9c0.29-4.36,0.58-8.71,0.87-13.07
			c2.57-9.25,4.55-17.83,6.1-25.56c1.13-5.61,2.58-12.94,3.78-22.65c1.16-9.45,1.72-18.2,1.9-26.12
			c-0.74-10.27-2.05-25.26-4.36-41.24c-0.94-6.51-1.68-11.63-3.06-18.61c-0.86-4.36-1.61-7.59-3.49-16.85
			c-0.74-3.65-1.34-6.67-1.74-8.71c-31.41,5.53-62.82,11.05-94.24,16.58L258.29,435.21z"/>
		<path class="st12" d="M321.43,528.85c0,0-4.63,16.2-12.29,21.02s-9.83,6.51-9.83,6.51l-42.92,15.1l-13.01-33.82
			c0,0-1.27-5.45,0.97-6.31s12.17-61.87,13.27-88.62c1.09-26.75,22.3,26.4,22.3,26.4L321.43,528.85z"/>
		<path class="st12" d="M375.73,488.76c2.51,0.16-5.87-0.51-9.85-0.76c-7.77-0.48-11.66-0.71-16.26-0.58
			c-12.35,0.36-18.53,0.36-20.33,0.87c-0.51,0.14-1.9,0.57-3.27-0.03c-0.87-0.38-1.69-1.16-2.97-3.89
			c-1.49-3.18-1.89-5.08-1.89-5.08c-1.49-13.2-4.12-28.47-8.71-45.11c-3.91-14.19-8.52-26.74-13.14-37.53
			c0,0,19.63,19.03,22.12,29.92c2.48,10.89,4.23,36.6,10.33,44C337.86,477.99,371.74,488.5,375.73,488.76z"/>
		<path class="st11" d="M316.67,328.21c0,0-28.62,7.72-35.89,15.79c-7.26,8.08-17.14,18.53-16.84,23.76
			c0.67,12.04-2.08,20.16,15.97,74.93c4.54,13.77,8.16,24.57,14.38,38.77c12.27,28.04,18.9,33.4,24.4,36.16
			c4.22,2.12,11.38,3.01,25.7,4.79c17.73,2.2,27.36,2.14,27.38,2.79c0.05,1.71-50.85,3.17-59.61,4.37c-0.6,0.08-3,0.43-6.21,0.31
			c-2.27-0.09-4.14-0.39-5.41-0.64c-1.26-1.14-3.09-2.98-4.85-5.56c-1.77-2.58-2.69-4.77-2.97-5.42
			c-3.7-8.6-13.43-23.93-25.97-52.66c-7.14-16.36-10.76-24.53-13.6-34.35c-8.07-27.86-7.28-52.41-5.32-68.74
			c2.83-5.66,6.77-12.73,13.24-19.24c10.34-10.41,28.11-22.39,57.84-28.69c8.05-1.71,24.96-5.1,25.83-2.45
			C345.58,314.76,330.52,322.06,316.67,328.21z"/>
		<path class="st14" d="M359.2,330.28v11.75c0,0-32.24-5.23-44.22-16.77c0,0-3.27-4.36-1.31-6.53c1.96-2.18,5.23-4.14,5.23-4.14
			c0.12-11.47,0.25-22.93,0.37-34.4c7.72,4.49,15.44,8.98,23.15,13.47L359.2,330.28z"/>
		<polygon class="st7" points="343.4,320.65 347.53,339.56 359.2,342.04 359.2,330.28 352.02,314.39 		"/>
		<path class="st3" d="M331.54,276.61c0,0-2.61,15.76-1.53,19.02c1.09,3.27,1.96,9.8,6.75,16.77s14.59,18.3,23.53,17.86
			c8.93-0.44,11.33-2.18,11.33-2.18c2.99-2.26,6.83-5.55,10.68-10.08c3.14-3.7,7.43-9.57,10.66-17.37l6.1-34.2l0,0
			c0,0,0.65-18.52,0-20.26c-0.65-1.74-17.21-9.58-17.21-9.58h-32.89L331.54,276.61z"/>
		<path class="st7" d="M364.55,329.92c-6.16-8.63-7.58-15.79-7.76-20.69c-0.24-6.45,1.63-10.06,3.44-20.04
			c0,0,2.19-12.44,1.94-17.35c0-0.09-0.03-0.52,0.04-1.09c0.1-0.78,0.33-1.42,0.56-1.89c0.2-0.35,0.49-0.75,0.88-1.15
			c0.46-0.47,0.88-0.74,0.99-0.81c2.73-1.79,10.64-10.87,18.54-11.4c7.82-0.53,16.01,7.29,16.01,7.29l0,0v-21.52h-65.67l-1.97,35.34
			l-1.79,16.41C329.75,293.02,341.58,332.02,364.55,329.92z"/>
		<path class="st15" d="M331.54,280.35c0,0,6.32,3.19,11.98,0s12.85-18.44,12.85-18.44c3.83-12.52,8.36-16.06,11.98-16.77
			c4.11-0.81,6.29,2.15,18.02,3.85c5.14,0.75,7.92,0.64,10.6-0.76c0.78-0.41,5.01-2.73,5.59-6.85c0.1-0.73,0.33-3.21-4.36-9.31
			c-2.4-3.13-5.08-6.61-9.79-9.8c-8.67-5.88-17.6-6.3-22.65-6.53c-10.61-0.5-18.62,2.28-24.4,4.36c-7.83,2.81-12.33,4.42-16.99,8.71
			c-9.61,8.85-11.52,21.4-12.9,30.39c-0.19,1.22-0.66,4.62-0.4,9.04c0.32,5.29,0.57,9.45,3.05,11.98
			C317.53,283.7,324.58,283.47,331.54,280.35z"/>
		<path class="st7" d="M331.54,276.61c0,0,1.52-8.86-3.49-11.04c-5.01-2.18-8.5,1.52-8.93,2.4c-0.44,0.87-3.92,10.25-1.74,15.47
			c2.18,5.22,1.31,7.62,4.36,8.92c3.05,1.31,4.62,1.53,6.32,1.09s1.7-0.44,1.7-0.44L331.54,276.61z"/>
		<ellipse class="st14" cx="325.59" cy="280.19" rx="4.16" ry="9"/>
		<path class="st3" d="M500.28,394.89l3.05-2.61l0.73-28.1c0,0,1.09-1.67,2.61-1.67s3.63,0,4.14,1.23s1.16,4.36,1.23,5.74
			c0.07,1.38,0.51,4.21,0.73,4.65s1.96,1.89,3.05,2.18c1.09,0.29,3.63,0.22,4.36,0.07s3.34-2.32,4.36-2.69s5.37-3.7,5.81-3.85
			s3.12-0.73,5.3-0.65c2.18,0.07,6.75,0.07,8.64,0.73c1.89,0.65,8.93,5.52,8.93,5.52s2.25,2.25,2.4,3.27s0.22,2.83,0,3.34
			s-4.94,0.58-4.94,0.58s-0.73-0.36-1.52-1.02s-5.81-4.36-5.81-4.36s-0.8-0.58-1.38-0.73c-0.58-0.15-3.05,0.15-3.05,0.15
			s-0.65,0.44-0.73,1.09s-0.44,1.23,0.44,2.11c0.87,0.87,2.9,1.74,3.27,2.25s1.74,2.25,1.89,3.19s0.58,5.59,0.22,6.97
			c-0.36,1.38-2.83,9.73-7.48,13.43c-4.65,3.7-9.87,3.34-9.87,3.34s-9.15-1.31-9.58-1.6s-4.21,2.69-4.21,2.69L500.28,394.89z"/>
		<path class="st7" d="M504.77,396.66c0,0,12.15-6.6,13.6-8.63s5.52-8.71,7.55-9.87c2.03-1.16,6.39-2.03,6.39-2.03
			s-3.36,3.49-4.29,5.52c-1.03,2.23-0.75,2.85-1.81,6.68c-1.13,4.09-2.06,7.32-4.65,10.17c-1.51,1.67-2.04,1.49-3.77,3.2
			c-2.9,2.86-4.26,6.15-4.95,8.46c-2.69-1.9-5.38-3.8-8.07-5.7L504.77,396.66L504.77,396.66z"/>
		<path class="st6" d="M409.02,368.37c0.67,1.68,1.72,4.21,3.11,7.24c4.41,9.56,8.68,16.22,10.15,18.55
			c3.75,5.94,9.22,15.32,16.6,30.22c20.91-10.31,41.82-20.62,62.73-30.93c0,0,9.58,9.15,11.33,14.81c1.74,5.66,0,6.1,0,6.1
			s-73.19,54.89-75.37,55.33s-6.1,1.74-9.58,0c-10.11-5.05-15.26-14.97-27.76-31.07c-0.57-0.73-2.27-2.91-4.48-5.96
			c0,0-3.3-4.56-6.06-8.85c-3.54-5.5-12.15-26.68-20.51-56.5c1.72-1.72,7.7-7.23,17.04-8.03
			C399.27,358.16,407.93,367.2,409.02,368.37z"/>
		<path class="st11" d="M504.77,396.66l-68.02,40.37l-7.84,5.69c-15.65-27.57-31.3-55.15-46.96-82.72c1.51,7.61,2.9,15.55,4.13,23.8
			c2.15,14.51,3.54,28.3,4.36,41.24c1.31,1.91,2.63,3.82,3.97,5.74c3.68,5.27,7.37,10.42,11.06,15.46c0,0,4.74,6.89,14.3,17.47
			c0.41,0.45,1.62,1.78,3.48,3.19c1.02,0.77,2.51,1.89,4.74,2.78c1.65,0.66,2.96,1.18,4.73,1.12c2.29-0.08,4.84-1.12,4.85-1.12
			c0,0,0.55-0.26,1.57-0.73c8.12-6.06,14.79-10.87,19.24-14.05c19.76-14.11,29.97-20.43,45.89-33.33c3.78-3.07,6.8-5.62,8.67-7.22
			c0.34-0.42,0.78-0.99,0.77-1.71C513.69,411.78,514.19,406.17,504.77,396.66z"/>
		<path class="st2" d="M436.06,829.56c2.49,3.97,5.07,8.54,7.52,13.73c2.76,5.85,4.83,11.35,6.39,16.26
			c5.15,3.14,11.24,7.48,17.43,13.36c7.91,7.52,13.39,15.1,17.08,21.14c0.51,1.65,2.48,8.76-1.39,14.88
			c-2.98,4.7-7.81,6.29-12.63,7.87c-5.63,1.85-10.58,1.95-13.69,1.78c-3.97,0.46-9.56,0.4-14.42-2.76c-2.05-1.33-2.8-2.46-6.19-6.47
			c-4.14-4.92-8.61-9.57-12.9-14.36c-6.74-7.52-10.14-11.29-11.05-11.77c-3.12-1.64-7.93-3.39-12.8-8.42
			c-0.25-0.26-0.47-0.52-0.69-0.79c-2.13-2.64-4.63-7.11-4.99-14.61c0-8.5,0-17,0-25.5l37.88-18.13L436.06,829.56z"/>
		<path class="st4" d="M346.13,575.01c33.78,0.88,60.76,3.93,79.82,6.73c5.26,0.77,17.85,2.69,34.03,6.41
			c27.03,6.22,40.55,9.32,48.21,15.96c11.42,9.9,15.66,27.72,17.43,63.9c1.01,20.69,1.05,27.86,3.63,70.77
			c0.68,11.21,1.34,20.44,1.8,26.57c-4.54,0.39-10.91,0.43-18.27-1.15c-8.9-1.91-15.63-5.41-19.88-8.06
			c-2.36-52.39-2.95-74.36-2.97-84.15c0-0.94-0.04-19.38-0.04-19.38l0,0c0.32-3.14,0.3-7.91-2.32-12.2
			c-6.48-10.59-23.47-9.42-46.13-11.67c-11.21-1.12-27.57-3.45-47.5-8.94l-5.99,6.97l-88.64-62.15l44.09-16.85
			C344.31,556.85,345.22,565.93,346.13,575.01z"/>
		<path class="st5" d="M244.67,530.21c-7.51,26.08-6.15,46.82-4.4,58.65c2.6,17.56,7.67,26.31,9.15,28.75
			c8.6,14.2,20.85,21.53,27.45,24.83c29.53,20.77,51.43,35.5,69.27,47.05c9.12,5.91,20.27,12.98,25.85,26.58
			c4.03,9.83,1.73,14.7,2.33,35.02c0.17,5.79,2.13,20.28,5.8,49.06c2.46,19.27,4.64,35.03,6.1,45.31
			c2.19,1.78,19.31,15.22,40.95,10.02c12.61-3.03,20.43-10.88,23.53-14.38c-3.48-35.82-2.97-64.4-1.74-84.52
			c1.17-19.18,3.81-44.12-4.79-73.63c-3.34-11.46-6.96-18.76-10.02-23.96c-10.06-17.13-22.96-26.78-33.98-34.85
			c-26.36-19.31-40.7-19.36-49.67-36.6c-3.84-7.37-4.91-14.46-5.23-19.17c5.63-2.31,21.51-9.69,27.01-25.7
			c0.69-2,1.26-4.26,1.59-6.79c-11.82,1.92-21.31,4.14-28.04,5.89c-3.72,0.97-7.68,2.11-15.61,4.36c-6.8,1.93-13.53,3.88-20.2,5.85
			c0,0-28.03,6.04-48.65-1.16c-5.01-1.75-9.02-4.07-12.05-7.99C245.67,538.14,244.87,532.97,244.67,530.21z"/>
		<path class="st4" d="M238.9,581.46c1.52,22.06,7.58,31.31,8.86,33.15c3.8,5.5,8.26,10.73,8.26,10.73c2.94,3.45,7.54,8.49,7.55,8.5
			c0,0,77.2,52.16,89.35,60.16c0,0,17.17,12.18,20.33,25.65c0.85,3.63,1.13,7.11,1.13,7.11c0.21,2.69,0.08,4.14-0.04,8.91
			c-0.1,4.01-0.12,7.43-0.12,9.16c0,0,0.02,5.1,0.54,12.06c0.58,7.75,4.87,41.99,11.47,88.58c3.36,2.73,9.63,7.12,18.64,9.48
			c8.03,2.11,14.87,1.73,19.01,1.19c-0.66-30.18-12.38-73.53-12.38-127.42c0-6.1-7.84-48.79-14.81-59.25s-113.27-79.29-114.44-92.36
			s5.11-22.73,5.11-22.73c-5.65,2.1-23.54-2.77-31.38-5.92c-7.84-3.15-11.6-17.11-11.6-17.11
			C238.25,553.02,238.15,570.63,238.9,581.46z"/>
		<path class="st6" d="M345.82,541.79c4.23-1.07,8.62-2.09,13.16-3.06c5.11-1.09,10.08-2.02,14.87-2.83
			c-3.24-1.89-6.48-3.79-9.72-5.68l-18.32,2.59v8.98H345.82z"/>
	</g>
	<path class="st12" d="M368.26,890.22l13.34-3.81l-44.3-250.07c0,0-8.1-22.86-24.29-26.2l-12.86,3.81c0,0,21.91,12.38,25.25,29.53
		C328.73,660.63,368.26,890.22,368.26,890.22z"/>
	<polygon class="st12" points="139.63,814.01 152.01,811.15 197.74,590.14 182.02,590.14 	"/>
	<path class="st2" d="M368.26,890.22l-13.81-3.33l-38.58-234.83c0,0,1.91-15.72-24.77-28.1c-26.67-12.38-95.26-31.44-95.26-31.44
		s-11.91-4.29-15.24,20.48s-40.96,201.01-40.96,201.01l-10-2.38l44.77-217.2c0,0,3.81-10.96,13.34-11.91s112.41,31.44,112.41,31.44
		s22.18,12,26.11,34.22C330.2,670.4,368.26,890.22,368.26,890.22z"/>
	<g>
		<path class="st12" d="M193.67,571.02l0.3,12.86l88.35,28.89c0,0,23.21,4.22,31.16-1.92c7.96-6.14,4.64-7.37,4.64-7.37l-0.17-6.75
			L193.67,571.02z"/>
		<path class="st6" d="M224.44,562.67c0,0-20.48,0.48-27.3,4.22c-6.82,3.73-1.46,8.85-1.46,8.85l89.04,28.16c0,0,31.48,1.4,33-4.83
			s-4.73-8.7-4.73-8.7l-5.05-2.03L224.44,562.67z"/>
	</g>
</g>
</svg>
