<?xml version="1.0" encoding="utf-8"?>
<!-- Generator: Adobe Illustrator 24.0.3, SVG Export Plug-In . SVG Version: 6.00 Build 0)  -->
<svg version="1.1" id="Layer_1" xmlns="http://www.w3.org/2000/svg" xmlns:xlink="http://www.w3.org/1999/xlink" x="0px" y="0px"
	 viewBox="0 0 2000 449.46" style="enable-background:new 0 0 2000 449.46;" xml:space="preserve">
<style type="text/css">
	.st0{fill:#E8E9EA;}
	.st1{fill:#FFFFFF;}
	.st2{fill:#266DB5;}
	.st3{fill:#E0E0E0;}
	.st4{fill:#F7F3F2;}
	.st5{fill:#0B344C;}
	.st6{fill:#BF9C94;}
	.st7{fill:#E4C1B9;}
	.st8{fill:#D1AEA2;}
	.st9{fill:#1A3054;}
	.st10{fill:#19598C;}
	.st11{fill:#458FCC;stroke:#10283E;stroke-width:8;stroke-miterlimit:10;}
	.st12{fill:#458FCC;stroke:#104568;stroke-width:8;stroke-linecap:round;stroke-miterlimit:10;}
	.st13{fill:#0C3755;}
	.st14{fill:#0C4F88;}
	.st15{fill:#458FCC;}
	.st16{fill:#274672;}
	.st17{fill:#519ED7;}
	.st18{fill:none;stroke:#174B63;stroke-width:3;stroke-miterlimit:10;}
	.st19{fill:#1A3054;stroke:#174B63;stroke-width:3;stroke-miterlimit:10;}
	.st20{fill:#E2E6ED;}
	.st21{fill:#BCC5D3;}
	.st22{fill:none;stroke:#94B1D4;stroke-width:2;stroke-miterlimit:10;}
	.st23{fill:url(#SVGID_1_);}
	.st24{fill:url(#SVGID_2_);}
	.st25{fill:#365C76;}
	.st26{fill:#DDE1F3;}
	.st27{fill:#1B3154;stroke:#1B3154;stroke-miterlimit:10;}
	.st28{fill:#1B3154;stroke:#1B3154;stroke-width:6;stroke-linecap:round;stroke-miterlimit:10;}
</style>
<polygon class="st0" points="859.68,209.99 977.95,209.99 977.95,284.03 872.3,274.93 "/>
<path class="st1" d="M803.87,213.92c-5.89,3.64-11.78,7.29-17.66,10.93c-3.72,3.16-9.27,8.22-15.17,15.17
	c-8.71,10.26-13.56,19.22-15.93,23.52c-7.73,14.03-19.12,33.18-35.65,59.93c-13.55,19.2-18.89,36.84-21.24,47.79
	c-3.26,15.2-7.42,34.56,3.03,45.52c5.74,6.02,16.09,9.71,19.55,10.94c4.08,1.45,8.53,3,14.66,3.27c10.59,0.47,18.67-3.22,22.69-5.11
	c4.64-2.18,8.14-4.61,10.41-6.38c15.82-27.81,31.64-55.63,47.46-83.44l62.21-22.76l-33.6-99.38H803.87z"/>
<path class="st1" d="M984.87,206.82c4.29,0.11,14.89,0.96,24.95,8.43c15.89,11.8,17.36,30.43,17.53,33.29
	c2.13,5.2,5.3,13.46,8.26,23.85c9.79,34.36,9.15,63.15,8.32,91.05c-0.37,12.53-1.39,30.06-4.27,51.06
	c-10.79,6.93-21.58,13.86-32.37,20.79c-1.15-38.23-2.3-76.46-3.45-114.69L984.87,206.82z"/>
<path class="st2" d="M803.87,213.92c7.89-3.96,17.54-8.06,28.83-11.38c15.41-4.54,29.25-6.27,40.21-6.83
	c5.5,17.41,12.88,30.46,18.96,39.45c6.78,10.02,10.63,15.57,18.21,19.72c13.16,7.22,33.41,7.97,44-3.03
	c6.11-6.35,7.2-14.74,8.34-23.52c1.38-10.63-0.12-19.47-1.52-25.03c7.84,1.26,15.68,2.53,23.52,3.79
	c7.91,7.56,18.88,20.15,26.37,38.4c15.85,38.68,4.38,74.32,0.66,84.58c-1.24,33.6-2.48,67.2-3.73,100.81c-52.78,0-105.55,0-158.33,0
	c-11.13-31.61-22.25-63.22-33.38-94.83c5.24-3.8,12.97-10.43,19.28-20.77c10.83-17.75,10.58-35.15,10.31-45.23
	c-0.41-15.09-0.86-31.58-13.32-43.77C822.39,216.62,809.89,214.5,803.87,213.92z"/>
<path class="st5" d="M944.37,206.78c0.29-0.11,5.3-2.1,6.17-7.09c0.49-2.79-0.58-5.03-1.02-5.84c-7.07-1.97-14.14-3.93-21.21-5.9
	c-3.62-0.66-7.24-1.33-10.87-1.99C926.42,192.9,935.39,199.84,944.37,206.78z"/>
<path class="st6" d="M935.77,189.98l2.57,15.73c-7.38-0.02-15.59-0.45-24.47-1.58c-13.15-1.67-24.65-4.49-34.24-7.5
	c-1.04-0.25-2.51-0.68-4.17-1.43c-2.59-1.16-5.05-2.27-5.25-3.91c-0.19-1.54,1.76-2.4,3.83-4.7c1.48-1.65,3.32-4.35,4.36-8.82
	c-1.17-7.69-2.34-15.38-3.51-23.07c-1.17-7.69-2.34-15.38-3.51-23.07c11.32,4.32,22.63,8.65,33.94,12.97L935.77,189.98z"/>
<path class="st1" d="M937.06,212.79c1.7-1.51,8.33-7.62,7.49-12.35c-0.13-0.75-0.77-3.25-1.65-5.93c-0.41-1.25-0.79-2.27-1.04-2.94
	c5.43,0.87,10.86,1.74,16.29,2.61c1.48,0.88,8.64,5.33,10.37,13.89c1.23,6.08-0.91,11.07-2.02,13.65c-2.32,5.41-5.84,8.81-7.87,10.5
	c-1.18-2.52-2.96-5.63-5.68-8.74C947.3,217.05,940.73,214.1,937.06,212.79z"/>
<path class="st6" d="M944.21,188.98l-0.5-6.66c-6.63-2.06-13.26-4.12-19.9-6.17c-0.6,1.09-1.49,2.35-2.81,3.5
	c-4.47,3.93-10.24,3.46-11.66,3.31c6.5,4.21,15.59,8.63,26.93,10.05c1.92,0.24,3.77,0.38,5.55,0.44
	C942.62,191.96,943.41,190.47,944.21,188.98z"/>
<path class="st7" d="M889.27,123.81c0,0-0.34,21.72,1.94,25.83c2.29,4.12,4.98,12.66,13.45,20.85c8.46,8.2,25.14,21.05,37.99,18.34
	c12.84-2.7,15.94-5.6,15.94-5.6c3.84-3.73,8.68-9.05,13.27-16.02c3.74-5.7,8.67-14.57,11.65-25.78l1.36-47.23l0,0
	c0,0-3.11-24.95-4.43-27.12c-1.32-2.18-27.03-8.75-27.03-8.75l-47.65,7.78L889.27,123.81z"/>
<path class="st8" d="M943.26,188.7c-4.84-3.47-13.48-10.63-20-22.69c-6.16-11.39-7.59-21.9-7.96-27.77
	c0.51-7.12,2.21-12.32,3.72-15.81c1.54-3.58,3.17-6.03,4.71-11.13c0.44-1.47,0.73-2.66,0.93-3.68c0.57-2.88,0.87-4.96,0.92-5.34
	c0.55-3.89,7.73-13.48,18.55-15.85c9.21-2.02,12.16,3.13,23.55,2.18c7-0.59,12.48-3.08,15.79-4.92c-0.94-6.13-1.84-10.82-2.5-13.97
	c-0.29-1.41-0.62-2.91-1.31-4.81c-1.24-3.41-2.86-5.97-4.06-7.62c-31.22,6.38-62.44,12.76-93.65,19.13l5.09,47.74l1.19,22.36
	c5.22,11.13,11.44,18.95,15.96,23.84c4.58,4.96,11.13,10.94,19.45,15.14c5.68,2.86,10.06,3.81,14.22,3.79
	C940.11,189.28,941.99,188.97,943.26,188.7z"/>
<path class="st9" d="M890.09,128.82c3.34-1.76,4.77-3.12,5.66-4.14c2.8-3.21,3.46-6.7,4.59-15.33c0.8-6.12,1.4-11.45,1.84-15.78
	c4.48-13.44,10.8-17.19,14.41-18.48c2.84-1.01,5.49-1.02,23.41,2.97c16.01,3.57,18.45,4.59,24.01,3.98
	c3.65-0.4,13.98-1.53,17.73-8.37c1.7-3.08,2.9-8.86,2.71-13.83c-0.01-0.16-0.01-0.25-0.02-0.36c-0.11-1.33-0.99-4.7-8.34-11.07
	c-3.11-2.7-6.48-5.63-11.12-8.26c0,0-2.49-1.39-5.2-2.55c-4.95-2.11-15.95-5.51-30.6-5.11c-6.42,0.18-18.67,0.64-32.65,7.21
	c-7.12,3.34-18.54,8.71-26.35,20.96c-4.92,7.73-6.31,14.9-8.54,26.47c-1.51,7.85-2.21,15.68-1.89,23.86
	c0.49,12.44,0.73,18.65,5.06,21.77C873.03,138.66,888.86,129.46,890.09,128.82z"/>
<path class="st8" d="M887.01,124.18c0,0,0.1-12.19-7.09-14.02c-7.18-1.82-11.05,3.89-11.43,5.17c-0.4,1.26-3.01,14.58,1.05,21.09
	c4.06,6.51,3.42,9.92,7.79,10.99c4.37,1.09,6.52,1.04,8.7,0.08s2.18-0.96,2.18-0.96L887.01,124.18z"/>
<ellipse transform="matrix(0.9869 -0.1612 0.1612 0.9869 -9.2916 143.2114)" class="st6" cx="878.21" cy="128.89" rx="5.64" ry="12.21"/>
<path class="st10" d="M803.87,213.92c7.09-3.56,13.55-6.2,18.97-8.15c4.25-1.53,9.54-3.25,15.68-4.83
	c2.56-0.66,6.04-1.49,10.17-2.29c5.28-1.02,9.48-1.58,11.66-1.85c0.71-0.09,1.06-0.13,1.19-0.14c5.1-0.44,11.78,1.45,15.32,5.9
	c2.83,3.56,2.86,7.42,2.86,7.42s-39.73,9.35-45.14,11.46c-5.41,2.11-5.41,2.11-5.41,2.11c-1.47-1.15-3.12-2.3-4.96-3.38
	C816.65,215.75,809.19,214.34,803.87,213.92z"/>
<path class="st8" d="M891.92,200.07c4.29,3.28,10.94,7.52,19.89,10.2c15.92,4.77,29.57,1.76,35.65,0
	c-1.06-4.19-2.21-8.46-3.47-12.81c-0.51-1.75-1.02-3.48-1.54-5.19c-1.36,0.27-3.42,0.61-5.96,0.66c-1.81,0.04-7.61,0.02-15.08-2.75
	c-5.8-2.14-7.35-3.99-10.59-3.26c-2.34,0.53-3.68,1.98-5.22,3.44C902.81,193.01,898.48,196.55,891.92,200.07z"/>
<path class="st1" d="M877.89,190.79c5.49,2.43,11.15,4.83,16.98,7.17c14.61,5.86,28.72,10.74,42.19,14.83
	c-0.74,2.55-5.91,19.48-18.81,22.51c-6.05,1.42-11.24-0.81-20.48-4.93c-7.05-3.14-17.12-8.46-28.07-17.45
	c-3.28-2.69-6.3-7.14-7.59-12.9c-0.49-2.19-1.22-5.67,0.52-9.27c1.44-3,3.83-4.51,4.55-4.93c3.76-2.21,7.52-1.52,8.45-1.32
	c-0.12,0.56-0.35,1.98,0.27,3.6C876.47,189.57,877.44,190.44,877.89,190.79z"/>
<path class="st0" d="M829.17,223.56c-12.36,16-25.6,35.2-38.34,57.69c-13.35,23.57-23.33,45.79-30.85,65.37
	c-9.06,25.92-18.12,51.83-27.17,77.75l-12.02,3.35c0,0-30.86-7.11-26.22-33.94c4.64-26.82,5.17-39.03,17.57-58.8
	c12.4-19.77,49.17-81.92,49.17-81.92s17.11-21.34,21-24.77c3.89-3.43,21.55-14.36,21.55-14.36c3.24,0.38,7.2,1.14,11.56,2.64
	C821.33,218.59,825.92,221.29,829.17,223.56z"/>
<path class="st7" d="M856.1,344.78c-41.1,0.79-82.19,1.58-123.29,2.36c0,0-56.64,37.57,0,77.22c41.77-8.35,83.54-16.7,125.32-25.05
	c20.27,11.7,41.72,11.52,54.02-0.63c2.69-2.66,6.35-7.28,8.79-15.03c4.18-0.23,8.37-0.45,12.55-0.68c0.48-0.07,5.97-0.94,8.08-5.93
	c2.01-4.75-0.59-9.6-1.41-11.13c-1.07-2-3.55-4.05-8.45-8.07c-3.66-3-5.54-4.53-8.09-6.12c-3.28-2.05-5.98-3.25-8.09-4.17
	c-3.35-1.47-6.32-2.48-8.65-3.17c-5.82-1.19-12.51-2.12-19.93-2.39C874.89,341.55,864.42,342.95,856.1,344.78z"/>
<path class="st8" d="M717.82,411.18l138-20.18c0,0,14.29,6.07,21.94,6.07c7.65,0,23.25-0.34,31.59-3.03s10.35-6.91,10.35-6.91
	s-10.71,37.21-61.57,12.2l-125.32,25.05L717.82,411.18z"/>
<path class="st0" d="M872.3,215l22.57-17.04l-16.98-7.17c-0.45-0.36-1.53-1.33-2.08-2.98c-0.26-0.78-0.73-2.24-0.18-3.31
	c0.02-0.03,0.06-0.1,0.04-0.18c-0.14-0.51-2.79-0.31-4.73,0.12c-0.83,0.19-2.05,0.46-3.45,1.21c-0.73,0.39-4.49,2.48-5.61,6.66
	c-0.4,1.5-0.36,2.94-0.33,3.99c0.02,0.55,0.09,2.26,0.73,4.63c1.35,5,3.99,8.38,4.53,9.05C868.64,212.25,870.62,213.87,872.3,215z"
	/>
<path class="st8" d="M742.78,346.95c-2,1.46-13.79,10.32-14.58,24.5c-0.87,15.67,12.04,31.69,31.79,35.98
	c-14.05,1.25-28.11,2.5-42.17,3.75c0,0-30.39-30.77,14.99-64.04L742.78,346.95z"/>
<path class="st0" d="M810.55,345.65c0,0-36.91-5.23-39.18-10.29c-2.28-5.06-2.98-9.22-2.98-9.22l-12.7,9.75l-3.28,10.87
	L810.55,345.65z"/>
<line class="st11" x1="1026.83" y1="431.48" x2="1281.96" y2="431.48"/>
<line class="st12" x1="839.35" y1="431.48" x2="1024.44" y2="431.48"/>
<polygon class="st13" points="1076.39,245.77 1022.27,421.77 1024.8,427.58 1337.09,250.07 1332.79,245.77 "/>
<polygon class="st14" points="1079.93,250.07 1026.83,427.58 1282.47,427.58 1337.09,250.07 "/>
<rect y="436.3" class="st15" width="2000" height="14.16"/>
<rect x="557.94" y="336.39" class="st13" width="94.03" height="101.48"/>
<path class="st13" d="M557.94,409.64c-2.06,0.45-9.84,1.94-15.77-1.68c-0.93-0.57-4.14-2.69-6.42-10.34c-2.69-9.03,0-27.89,0-27.89
	c0.43-1.78,1.39-4.25,3.8-6.25c4.52-3.76,10.93-3.16,18.4-3.37c21.09-0.59,39.71-7.21,39.71-7.21l-39.71-5.29
	c-5.55,0.32-11.1,0.64-16.65,0.96c-2.37,0.33-7.05,1.35-11.1,5.05c-1.39,1.28-3.3,3.41-5.3,8.17c-0.82,1.96-3.88,9.62-3.5,23.3
	c0.13,4.77,0.72,11.56,2.8,19.57c0.61,2.56,2.23,7.57,6.76,11.18c3.9,3.12,8.05,3.66,13.55,4.38c5.79,0.76,17.52,0,17.52,0l0,0
	l38.55-8.18L557.94,409.64z"/>
<g>
	<path class="st16" d="M40.94,197.54v46.7H23.35v55.19h29.11v96.21c6.44,0,12.89,0,19.33,0c0.03,13.42,0.05,26.84,0.08,40.26
		c99.07,0,198.14,0,297.2,0l-2.73-238.37H40.94z"/>
	<rect x="212.59" y="197.54" class="st17" width="192.88" height="41.85"/>
	<rect x="201.67" y="249.4" class="st17" width="164.67" height="43.67"/>
	<rect x="212.59" y="296.41" class="st17" width="165.58" height="95.83"/>
	<rect x="231.7" y="398.61" class="st17" width="173.77" height="37.3"/>
	<polygon class="st17" points="44.28,299.44 10.61,315.82 156.18,339.47 186.21,310.36 	"/>
	<path class="st17" d="M23.35,214.83c27.9,1.21,55.8,2.43,83.7,3.64L37,204.82C32.45,208.16,27.9,211.49,23.35,214.83z"/>
	<rect x="71.8" y="395.65" class="st17" width="106.22" height="7.28"/>
	<rect x="243.52" y="271.24" class="st17" width="40.49" height="40.33"/>
	<rect x="23.35" y="279.42" class="st17" width="52.09" height="5.46"/>
	<path class="st16" d="M210.16,249.4c0,0,27.29,10.31,30.33,16.07c3.03,5.76,0.61-13.34-5.46-16.07S210.16,249.4,210.16,249.4z"/>
	<rect x="212.59" y="218.47" class="st16" width="26.08" height="5.76"/>
	<path class="st16" d="M229.09,403.59c0,0,26.23,0,32.07,6.07c5.84,6.07,3.87-12.28,0-12.96c-3.87-0.68-32.07-0.68-32.07-0.68
		V403.59z"/>
</g>
<g>
	<ellipse class="st10" cx="421.45" cy="249.93" rx="16.4" ry="39.36"/>
	
		<ellipse transform="matrix(0.7931 -0.609 0.609 0.7931 -67.7956 346.1424)" class="st10" cx="475.66" cy="272.87" rx="38.56" ry="18.69"/>
	
		<ellipse transform="matrix(0.402 -0.9156 0.9156 0.402 79.0038 559.6414)" class="st10" cx="467.97" cy="219.33" rx="27.62" ry="11.92"/>
	<path class="st18" d="M432.01,321.09c-3.5-49.51-62.36-49.62-62.36-49.62"/>
	
		<ellipse transform="matrix(0.0651 -0.9979 0.9979 0.0651 180.3809 798.9018)" class="st10" cx="516.55" cy="303.18" rx="8.86" ry="17.54"/>
	<ellipse transform="matrix(0.866 -0.5 0.5 0.866 -76.388 225.6208)" class="st10" cx="382.82" cy="255.35" rx="11.36" ry="34.61"/>
	
		<ellipse transform="matrix(0.2349 -0.972 0.972 0.2349 11.7995 551.419)" class="st10" cx="356.17" cy="268.21" rx="8.86" ry="13.87"/>
	
		<ellipse transform="matrix(0.9973 -0.0733 0.0733 0.9973 -20.696 28)" class="st10" cx="371.04" cy="295.9" rx="22.68" ry="11.62"/>
	<path class="st18" d="M393.65,294.24c0,0,19.49,1.8,20.88,26.85"/>
	<line class="st18" x1="421.45" y1="289.28" x2="421.45" y2="321.09"/>
	<path class="st18" d="M456.87,244.62c0,0-18.78,24.16-19.02,76.47"/>
	<path class="st18" d="M445.07,296.36c0,0-29.84,27.54-30.54,51.24"/>
	<path class="st18" d="M499.05,302.04c0,0-21.67-3.91-31.07,19.05"/>
	<path class="st9" d="M384.84,321.09h125.63v73.95c-10.51,23.61-32.89,39.62-58.04,41.35c-28.34,1.95-55.5-14.55-67.58-41.35
		C384.84,370.38,384.84,345.74,384.84,321.09z"/>
	<path class="st19" d="M400.13,285.33c0,0,6.02,3.02,8.12,35.76"/>
	<g>
		<polygon class="st20" points="465.96,341.91 465.96,377.73 491.25,377.73 491.25,362.98 504.94,366.85 504.94,341.91 		"/>
		<polygon class="st21" points="491.25,377.73 504.94,366.85 491.25,362.98 		"/>
	</g>
	<line class="st22" x1="470.46" y1="346.95" x2="498.09" y2="346.95"/>
	<line class="st22" x1="470.46" y1="353.95" x2="498.09" y2="353.95"/>
	<line class="st22" x1="470.46" y1="360.95" x2="498.09" y2="360.95"/>
</g>
<path class="st25" d="M192.76,25.23c-6.32,6.65-17.39,20.26-21.9,40.42c-2.91,13.02-1.92,23.59-1.4,27.73
	c0.7,5.56,2.56,19.16,12.12,33.09c1.34,1.96,5.84,8.3,13.51,14.68c24.01,19.96,53.42,18.88,55.81,18.76
	c6.87-0.35,29.13-2.39,47.2-18.59c9.97-8.94,15.12-19.02,16.06-20.91c0,0,4.75-9.5,6.03-17.78
	C322.86,85.35,270.65,52.17,192.76,25.23z"/>
<circle class="st26" cx="249.23" cy="75.83" r="75.83"/>
<circle class="st15" cx="249.51" cy="76.21" r="69.18"/>
<circle class="st1" cx="249.51" cy="75.83" r="65.48"/>
<path class="st25" d="M284.93,51.75l-44.66,30.46c-0.63,0.43-1.49,0.26-1.92-0.36l0,0c-0.43-0.63-0.26-1.49,0.36-1.92l44.66-30.46
	c0.63-0.43,1.49-0.26,1.92,0.36l0,0C285.72,50.46,285.56,51.32,284.93,51.75z"/>
<path class="st25" d="M212.21,39.44l44.24,44.24c0.23,0.23,0.23,0.62,0,0.85l-0.02,0.02c-0.23,0.23-0.62,0.23-0.85,0l-44.24-44.24
	c-0.23-0.23-0.23-0.62,0-0.85l0.02-0.02C211.6,39.2,211.98,39.2,212.21,39.44z"/>
<path class="st25" d="M248.87,33.57L248.87,33.57c-1.44,0-2.62-1.18-2.62-2.62V19.52c0-1.44,1.18-2.62,2.62-2.62h0
	c1.44,0,2.62,1.18,2.62,2.62v11.42C251.49,32.39,250.31,33.57,248.87,33.57z"/>
<path class="st25" d="M248.87,134.24L248.87,134.24c-1.44,0-2.62-1.18-2.62-2.62v-11.42c0-1.44,1.18-2.62,2.62-2.62h0
	c1.44,0,2.62,1.18,2.62,2.62v11.42C251.49,133.05,250.31,134.24,248.87,134.24z"/>
<path class="st25" d="M291.36,75.83L291.36,75.83c0-1.44,1.18-2.62,2.62-2.62h11.42c1.44,0,2.62,1.18,2.62,2.62v0
	c0,1.44-1.18,2.62-2.62,2.62h-11.42C292.54,78.46,291.36,77.28,291.36,75.83z"/>
<path class="st25" d="M190.69,75.83L190.69,75.83c0-1.44,1.18-2.62,2.62-2.62h11.42c1.44,0,2.62,1.18,2.62,2.62v0
	c0,1.44-1.18,2.62-2.62,2.62h-11.42C191.87,78.46,190.69,77.28,190.69,75.83z"/>
<g>
	<path class="st27" d="M1441.09,42.13l103.21,127.03c0.85-3.45,13.11-57.13-25.14-96.59C1488.32,40.74,1447.59,41.85,1441.09,42.13z
		"/>
	<polygon class="st27" points="1496.8,65.76 1543.17,44.59 1565.67,72.37 1531.24,117.36 	"/>
	<circle class="st27" cx="1740.73" cy="213.61" r="17.05"/>
	<line class="st28" x1="1553.33" y1="57.13" x2="1590.62" y2="56.69"/>
	<line class="st28" x1="1725.42" y1="206.14" x2="1573.4" y2="56.89"/>
	<line class="st28" x1="1590.62" y1="56.69" x2="1740.73" y2="204.89"/>
	<line class="st28" x1="1729.42" y1="226.34" x2="1632.96" y2="432.48"/>
	<line class="st28" x1="1744.07" y1="230.32" x2="1649.41" y2="432.48"/>
	<polygon class="st27" points="1637.71,412.18 1531.24,436.3 1757.77,436.3 1658.92,412.18 	"/>
</g>
<g>
	<g>
		<polygon class="st13" points="1394.13,331.24 1362.73,433.36 1364.2,436.74 1545.41,333.73 1542.92,331.24 		"/>
		<polygon class="st14" points="1396.19,333.73 1365.37,436.74 1513.72,436.74 1545.41,333.73 		"/>
	</g>
	<polygon class="st13" points="1437.9,385.24 1450,435.8 1498.7,435.8 1479.59,385.24 	"/>
</g>
<g>
	<ellipse class="st10" cx="1877.33" cy="237.66" rx="16.4" ry="39.36"/>
	
		<ellipse transform="matrix(0.7931 -0.609 0.609 0.7931 240.8407 1230.2927)" class="st10" cx="1931.54" cy="260.6" rx="38.56" ry="18.69"/>
	
		<ellipse transform="matrix(0.402 -0.9156 0.9156 0.402 960.7985 1885.3417)" class="st10" cx="1923.86" cy="207.06" rx="27.62" ry="11.92"/>
	<path class="st18" d="M1887.89,308.82c-3.5-49.51-62.36-49.62-62.36-49.62"/>
	
		<ellipse transform="matrix(0.0651 -0.9979 0.9979 0.0651 1553.7158 2240.2224)" class="st10" cx="1972.43" cy="290.91" rx="8.86" ry="17.54"/>
	
		<ellipse transform="matrix(0.866 -0.5 0.5 0.866 124.7982 951.9174)" class="st10" cx="1838.7" cy="243.08" rx="11.36" ry="34.61"/>
	
		<ellipse transform="matrix(0.2349 -0.972 0.972 0.2349 1137.632 1957.1785)" class="st10" cx="1812.05" cy="255.94" rx="8.86" ry="13.87"/>
	
		<ellipse transform="matrix(0.9973 -0.0733 0.0733 0.9973 -15.8781 134.7092)" class="st10" cx="1826.92" cy="283.63" rx="22.68" ry="11.62"/>
	<path class="st18" d="M1849.53,281.97c0,0,19.49,1.8,20.88,26.85"/>
	<line class="st18" x1="1877.33" y1="277.01" x2="1877.33" y2="308.82"/>
	<path class="st18" d="M1912.75,232.35c0,0-18.78,24.16-19.02,76.47"/>
	<path class="st18" d="M1900.96,284.09c0,0-29.84,27.54-30.54,51.24"/>
	<path class="st18" d="M1954.93,289.77c0,0-21.67-3.91-31.07,19.05"/>
	<path class="st9" d="M1840.72,308.82h125.63v73.95c-1.92,13.4-8.03,43.47-28.41,51.67c-4.46,1.8-13.83,1.92-32.39,2.1
		c-20.49,0.19-30.74,0.29-35.65-1.63c-20.91-8.19-27.25-39.28-29.18-52.14C1840.72,358.11,1840.72,333.47,1840.72,308.82z"/>
	<path class="st19" d="M1856.01,273.06c0,0,6.02,3.02,8.12,35.76"/>
</g>
</svg>
