<?xml version="1.0" encoding="utf-8"?>
<!-- Generator: Adobe Illustrator 24.0.3, SVG Export Plug-In . SVG Version: 6.00 Build 0)  -->
<svg version="1.1" id="Layer_1" xmlns="http://www.w3.org/2000/svg" xmlns:xlink="http://www.w3.org/1999/xlink" x="0px" y="0px"
	 viewBox="0 0 900.14 934.66" style="enable-background:new 0 0 900.14 934.66;" xml:space="preserve">
<style type="text/css">
	.st0{opacity:0.5;fill:#062C50;enable-background:new    ;}
	.st1{fill:#2D81BA;}
	.st2{fill:#093756;}
	.st3{fill:#17628C;}
	.st4{fill:#182E4D;}
	.st5{fill:#062C50;}
	.st6{fill:#0C4F87;}
	.st7{fill:#082F44;}
	.st8{fill:#DDE2F8;}
	.st9{fill:#9EB4E1;}
	.st10{fill:#FFFFFF;}
	.st11{opacity:0.2;fill:#677FD6;enable-background:new    ;}
	.st12{fill:#D1ADA2;}
	.st13{fill:#1D6EBF;}
	.st14{fill:#E4C1B9;}
	.st15{fill:#288BCE;}
	.st16{fill:#207CA5;}
	.st17{fill:#0B2E56;}
	.st18{fill:#1D6EBF;stroke:#288BCE;stroke-width:2;stroke-miterlimit:10;}
	.st19{fill:#7189AD;}
	.st20{fill:#8FA5CC;}
	.st21{fill:#7F97BA;}
	.st22{fill:#FDFEFF;}
	.st23{fill:none;stroke:#FFFFFF;stroke-width:3;stroke-linecap:round;stroke-miterlimit:10;}
	.st24{fill:#FFFFFF;stroke:#FFFFFF;stroke-miterlimit:10;}
	.st25{fill:#041E33;}
	.st26{fill:#145572;}
</style>
<g>
	<path class="st19" d="M490.25,60.47c0,0.86,0,1.71,0,2.57c0,29.28,0,58.56,0,87.84c0.86,1.36,4.14,6.18,10.13,7.43
		c1.8,0.38,3.42,0.34,4.72,0.18V59.53L646.76,7.44c1.18-0.76,2.36-1.51,3.53-2.27c-0.24-0.08-9.84-3.18-9.91-3.21
		c-0.91-0.29-1.82-0.59-2.73-0.88c-1.35-0.44-1.48-0.49-1.82-0.59c-0.81-0.22-1.99-0.47-3.53-0.48c-1.38-0.04-2.44,0.13-3.13,0.28
		c-1.31,0.29-1.74,0.57-4.33,1.55c-0.88,0.33-1.77,0.63-2.65,0.94c-3.15,1.12-114.41,40.8-120.14,42.85
		c-0.86,0.31-1.48,0.53-1.48,0.53c-1.43,0.51-1.66,0.59-2.04,0.73c-0.61,0.22-1.48,0.56-2.56,1.02c-0.58,0.36-1.34,0.92-2.12,1.72
		c-0.31,0.32-1.3,1.41-2.16,3.11C489.99,56.06,490.12,59.16,490.25,60.47z"/>
	<polygon class="st9" points="521.51,152.17 518.94,182.97 548.27,142.32 	"/>
	<polygon class="st19" points="518.94,182.97 521.51,152.17 514.85,154.59 512.65,179.12 	"/>
	<path class="st9" d="M500.7,62.01c0,0.56,0,1.11,0,1.67c0,30.32,0,60.64,0,90.96c0.58,1.34,1.57,2.94,3.26,3.57
		c0.86,0.32,1.93,0.41,3.22,0.07c1.91-0.5,24.02-8.62,50.36-18.37c41.55-15.38,93.63-34.81,93.63-34.81s1.82-2.59,2.08-5.97
		c0.26-3.37,0-90.03,0-90.03s0-1.29-0.95-2.48c-0.98-1.23-2.35-1.58-3.12-1.76c-0.28-0.07-1.04-0.24-2.42-0.17
		c-2.09,0.1-3.67,0.65-4.01,0.77C601.6,20.09,581.02,27.4,507.51,55.69c-0.51,0.2-1.01,0.39-1.01,0.39
		c-0.19,0.07-0.39,0.15-0.62,0.23c-0.64,0.14-1.84,0.5-2.98,1.49c-0.99,0.86-1.47,1.79-1.61,2.09
		C501.2,60.08,500.7,60.87,500.7,62.01z"/>
	<g>
		<g>
			<path class="st24" d="M530.62,95.43l28.43-33.61l1.01,6.46l-24.04,28.11l0.03,0.21l29.77,8.57l1.01,6.46l-35.43-10.42
				L530.62,95.43z"/>
			<path class="st24" d="M571.89,113.18l8.57-70.1l4.68-0.87l-8.63,68.71L571.89,113.18z"/>
			<path class="st24" d="M627.97,65.13l-28.44,30.98l-1.01-5.51l24.23-25.51l-0.03-0.14l-30-5.82l-1.01-5.51l35.43,7.79
				L627.97,65.13z"/>
		</g>
	</g>
</g>
</svg>
