<?xml version="1.0" encoding="utf-8"?>
<!-- Generator: Adobe Illustrator 24.0.3, SVG Export Plug-In . SVG Version: 6.00 Build 0)  -->
<svg version="1.1" id="Layer_1" xmlns="http://www.w3.org/2000/svg" xmlns:xlink="http://www.w3.org/1999/xlink" x="0px" y="0px"
	 viewBox="0 0 900.14 934.66" style="enable-background:new 0 0 900.14 934.66;" xml:space="preserve">
<style type="text/css">
	.st0{opacity:0.5;fill:#062C50;enable-background:new    ;}
	.st1{fill:#2D81BA;}
	.st2{fill:#093756;}
	.st3{fill:#17628C;}
	.st4{fill:#182E4D;}
	.st5{fill:#062C50;}
	.st6{fill:#0C4F87;}
	.st7{fill:#082F44;}
	.st8{fill:#DDE2F8;}
	.st9{fill:#9EB4E1;}
	.st10{fill:#FFFFFF;}
	.st11{opacity:0.2;fill:#677FD6;enable-background:new    ;}
	.st12{fill:#D1ADA2;}
	.st13{fill:#1D6EBF;}
	.st14{fill:#E4C1B9;}
	.st15{fill:#288BCE;}
	.st16{fill:#207CA5;}
	.st17{fill:#0B2E56;}
	.st18{fill:#1D6EBF;stroke:#288BCE;stroke-width:2;stroke-miterlimit:10;}
	.st19{fill:#7189AD;}
	.st20{fill:#8FA5CC;}
	.st21{fill:#7F97BA;}
	.st22{fill:#FDFEFF;}
	.st23{fill:none;stroke:#FFFFFF;stroke-width:3;stroke-linecap:round;stroke-miterlimit:10;}
	.st24{fill:#FFFFFF;stroke:#FFFFFF;stroke-miterlimit:10;}
	.st25{fill:#041E33;}
	.st26{fill:#145572;}
</style>
<g>
	<path class="st19" d="M307.81,167.01c0,0.66,0,1.32,0,1.98c0,22.57,0,45.13,0,67.7c0.66,1.05,3.19,4.76,7.8,5.73
		c1.39,0.29,2.64,0.26,3.64,0.14V166.3l109.18-40.14c0.91-0.58,1.82-1.17,2.72-1.75c-0.19-0.06-7.58-2.45-7.64-2.47
		c-0.7-0.23-1.41-0.45-2.11-0.68c-1.04-0.34-1.14-0.38-1.41-0.45c-0.62-0.17-1.53-0.36-2.72-0.37c-1.06-0.03-1.88,0.1-2.41,0.21
		c-1.01,0.22-1.34,0.44-3.34,1.19c-0.68,0.25-1.36,0.49-2.04,0.73c-2.43,0.87-88.17,31.45-92.59,33.02
		c-0.67,0.24-1.14,0.41-1.14,0.41c-1.1,0.39-1.28,0.45-1.57,0.56c-0.47,0.17-1.14,0.43-1.97,0.78c-0.44,0.28-1.04,0.71-1.64,1.33
		c-0.24,0.24-1,1.09-1.66,2.39C307.61,163.61,307.71,166,307.81,167.01z"/>
	<path class="st9" d="M315.87,168.2c0,0.43,0,0.86,0,1.28c0,23.37,0,46.73,0,70.1c0.45,1.03,1.21,2.27,2.52,2.75
		c0.66,0.24,1.48,0.31,2.48,0.05c1.47-0.39,18.51-6.65,38.81-14.16c32.02-11.85,72.16-26.83,72.16-26.83s1.4-2,1.6-4.6
		s0-69.38,0-69.38s0-1-0.73-1.91c-0.76-0.95-1.81-1.21-2.4-1.36c-0.22-0.05-0.81-0.18-1.87-0.13c-1.61,0.08-2.83,0.5-3.09,0.6
		c-31.71,11.27-47.57,16.91-104.23,38.71c-0.39,0.15-0.78,0.3-0.78,0.3c-0.14,0.06-0.3,0.12-0.47,0.18c-0.5,0.11-1.42,0.39-2.3,1.15
		c-0.76,0.66-1.13,1.38-1.24,1.61C316.25,166.71,315.87,167.32,315.87,168.2z"/>
	<polygon class="st9" points="359.68,228.22 370.64,248.44 384.49,219.02 	"/>
	<polygon class="st19" points="370.64,248.44 361.11,247.43 351.64,231.19 359.68,228.22 	"/>
</g>
<g>
	<g>
		<path class="st24" d="M356.57,185.94c-1.18-3.96-0.38-7.01,1.9-7.38c2.28-0.37,4.76,2.04,6.07,5.83c1.28,3.69,0.65,6.81-1.9,7.38
			C360.23,192.31,357.72,189.79,356.57,185.94z"/>
		<path class="st24" d="M370.43,183.24c-1.41-3.66-0.77-6.5,1.5-6.88c2.28-0.37,4.92,1.83,6.47,5.32c1.5,3.4,1.04,6.31-1.5,6.88
			C374.48,189.11,371.8,186.8,370.43,183.24z"/>
		<path class="st24" d="M384.29,180.54c-1.64-3.37-1.17-6,1.1-6.37c2.28-0.37,5.09,1.62,6.86,4.82c1.73,3.11,1.44,5.8-1.11,6.37
			C388.74,185.9,385.88,183.82,384.29,180.54z"/>
	</g>
</g>
</svg>
