<?xml version="1.0" encoding="utf-8"?>
<!-- Generator: Adobe Illustrator 24.0.3, SVG Export Plug-In . SVG Version: 6.00 Build 0)  -->
<svg version="1.1" xmlns="http://www.w3.org/2000/svg" xmlns:xlink="http://www.w3.org/1999/xlink" x="0px" y="0px"
	 viewBox="0 0 555.43 534.63" style="enable-background:new 0 0 555.43 534.63;" xml:space="preserve">
<style type="text/css">
	.st0{fill:#1A75C0;}
	.st1{fill:#FFFFFF;}
	.st2{fill:#FFFFFF;stroke:#FFFFFF;stroke-width:4;stroke-linecap:round;stroke-miterlimit:10;}
	.st3{fill:none;stroke:#0B2E56;stroke-width:5;stroke-miterlimit:10;}
	.st4{fill:#0B2E56;}
	.st5{fill:none;}
	.st6{fill:none;stroke:#1A75C1;stroke-width:6;stroke-miterlimit:10;}
	.st7{fill:#0B2E56;stroke:#FFFFFF;stroke-miterlimit:10;}
	.st8{fill:none;stroke:#FFFFFF;stroke-width:2;stroke-linecap:round;stroke-miterlimit:10;}
	.st9{fill:#FFFFFF;stroke:#FFFFFF;stroke-miterlimit:10;}
	.st10{fill:none;stroke:#FFFFFF;stroke-width:10;stroke-linecap:round;stroke-miterlimit:10;}
	.st11{fill:#1A75C0;stroke:#0B2E56;stroke-width:10;stroke-linecap:round;stroke-miterlimit:10;}
	.st12{fill:#FFFFFF;stroke:#1A75C0;stroke-width:5;stroke-miterlimit:10;}
	.st13{fill:none;stroke:#1A75C1;stroke-width:40;stroke-miterlimit:10;}
	.st14{fill:#8FA5CC;}
	.st15{fill:#D1ADA2;}
	.st16{fill:#17628C;}
	.st17{fill:#7C8DA5;}
	.st18{fill:#9EB4E1;}
</style>
<g id="Layer_1">
	<g>
		<g>
			<path class="st6" d="M414.08,171.06c0,0,62.9-9.8,49.46,65.96"/>
			<path class="st6" d="M414.08,158.13c0,0,77.58-23.25,67.22,78.89"/>
		</g>
		<g>
			<path class="st6" d="M40.69,238.55c0,0-23.83-109.67,94.05-102.22"/>
			<path class="st6" d="M48.81,237.01c0,0-9.47-101.25,85.93-91.63"/>
			<path class="st6" d="M56.74,237.01c0,0-1.35-96.37,77.99-81.16"/>
			<path class="st6" d="M66.37,237.01c0,0-1.35-89,68.36-72.19"/>
			<path class="st6" d="M31.05,237.01c0,0-32.37-119.95,105.21-112.51"/>
		</g>
		<g>
			<path class="st7" d="M544.2,447.93H362.99c-5.89,0-10.66-4.77-10.66-10.66v-189.6c0-5.89,4.77-10.66,10.66-10.66H544.2
				c5.89,0,10.66,4.77,10.66,10.66v189.6C554.86,443.16,550.09,447.93,544.2,447.93z"/>
			<path class="st0" d="M530.65,292.73H376.54c-5.66,0-10.25-4.59-10.25-10.25v-17.53c0-5.66,4.59-10.25,10.25-10.25h154.11
				c5.66,0,10.25,4.59,10.25,10.25v17.53C540.89,288.15,536.3,292.73,530.65,292.73z"/>
			<rect x="439.24" y="266.35" class="st1" width="10.86" height="16.3"/>
			<rect x="458.11" y="266.35" class="st1" width="10.86" height="16.3"/>
			<rect x="475.87" y="266.35" class="st1" width="10.86" height="16.3"/>
			<circle class="st1" cx="517.5" cy="274" r="9.31"/>
			<line class="st8" x1="374.83" y1="278.77" x2="423.72" y2="278.77"/>
			<line class="st8" x1="374.83" y1="269.89" x2="423.72" y2="269.89"/>
			<path class="st0" d="M530.65,339.15H376.54c-5.66,0-10.25-4.59-10.25-10.25v-17.53c0-5.66,4.59-10.25,10.25-10.25h154.11
				c5.66,0,10.25,4.59,10.25,10.25v17.53C540.89,334.57,536.3,339.15,530.65,339.15z"/>
			<rect x="439.24" y="312.77" class="st1" width="10.86" height="16.3"/>
			<rect x="458.11" y="312.77" class="st1" width="10.86" height="16.3"/>
			<rect x="475.87" y="312.77" class="st1" width="10.86" height="16.3"/>
			<circle class="st1" cx="517.5" cy="320.42" r="9.31"/>
			<line class="st8" x1="374.83" y1="325.19" x2="423.72" y2="325.19"/>
			<line class="st8" x1="374.83" y1="316.3" x2="423.72" y2="316.3"/>
			<path class="st0" d="M530.65,385.58H376.54c-5.66,0-10.25-4.59-10.25-10.25v-17.53c0-5.66,4.59-10.25,10.25-10.25h154.11
				c5.66,0,10.25,4.59,10.25,10.25v17.53C540.89,381,536.3,385.58,530.65,385.58z"/>
			<rect x="439.24" y="359.2" class="st1" width="10.86" height="16.3"/>
			<rect x="458.11" y="359.2" class="st1" width="10.86" height="16.3"/>
			<rect x="475.87" y="359.2" class="st1" width="10.86" height="16.3"/>
			<circle class="st1" cx="517.5" cy="366.85" r="9.31"/>
			<line class="st8" x1="374.83" y1="371.62" x2="423.72" y2="371.62"/>
			<line class="st8" x1="374.83" y1="362.73" x2="423.72" y2="362.73"/>
			<path class="st0" d="M530.65,431.24H376.54c-5.66,0-10.25-4.59-10.25-10.25v-17.53c0-5.66,4.59-10.25,10.25-10.25h154.11
				c5.66,0,10.25,4.59,10.25,10.25v17.53C540.89,426.65,536.3,431.24,530.65,431.24z"/>
			<rect x="439.24" y="404.85" class="st1" width="10.86" height="16.3"/>
			<rect x="458.11" y="404.85" class="st1" width="10.86" height="16.3"/>
			<rect x="475.87" y="404.85" class="st1" width="10.86" height="16.3"/>
			<circle class="st1" cx="517.5" cy="412.5" r="9.31"/>
			<line class="st8" x1="374.83" y1="417.27" x2="423.72" y2="417.27"/>
			<line class="st8" x1="374.83" y1="408.39" x2="423.72" y2="408.39"/>
		</g>
		<g>
			<path class="st7" d="M193.78,447.37H12.47c-5.86,0-10.61-4.75-10.61-10.61V249.15c0-5.86,4.75-10.61,10.61-10.61h181.32
				c5.86,0,10.61,4.75,10.61,10.61v187.61C204.39,442.62,199.64,447.37,193.78,447.37z"/>
			<path class="st0" d="M180.18,292.17H26.07c-5.66,0-10.25-4.59-10.25-10.25V264.4c0-5.66,4.59-10.25,10.25-10.25h154.11
				c5.66,0,10.25,4.59,10.25,10.25v17.53C190.42,287.59,185.83,292.17,180.18,292.17z"/>
			<rect x="88.77" y="265.79" class="st1" width="10.86" height="16.3"/>
			<rect x="107.64" y="265.79" class="st1" width="10.86" height="16.3"/>
			<rect x="125.4" y="265.79" class="st1" width="10.86" height="16.3"/>
			<circle class="st1" cx="167.03" cy="273.44" r="9.31"/>
			<line class="st8" x1="24.36" y1="278.21" x2="73.25" y2="278.21"/>
			<line class="st8" x1="24.36" y1="269.33" x2="73.25" y2="269.33"/>
			<path class="st0" d="M180.18,338.59H26.07c-5.66,0-10.25-4.59-10.25-10.25v-17.53c0-5.66,4.59-10.25,10.25-10.25h154.11
				c5.66,0,10.25,4.59,10.25,10.25v17.53C190.42,334.01,185.83,338.59,180.18,338.59z"/>
			<rect x="88.77" y="312.21" class="st1" width="10.86" height="16.3"/>
			<rect x="107.64" y="312.21" class="st1" width="10.86" height="16.3"/>
			<rect x="125.4" y="312.21" class="st1" width="10.86" height="16.3"/>
			<circle class="st1" cx="167.03" cy="319.86" r="9.31"/>
			<line class="st8" x1="24.36" y1="324.63" x2="73.25" y2="324.63"/>
			<line class="st8" x1="24.36" y1="315.75" x2="73.25" y2="315.75"/>
			<path class="st0" d="M180.18,385.02H26.07c-5.66,0-10.25-4.59-10.25-10.25v-17.53c0-5.66,4.59-10.25,10.25-10.25h154.11
				c5.66,0,10.25,4.59,10.25,10.25v17.53C190.42,380.44,185.83,385.02,180.18,385.02z"/>
			<rect x="88.77" y="358.64" class="st1" width="10.86" height="16.3"/>
			<rect x="107.64" y="358.64" class="st1" width="10.86" height="16.3"/>
			<rect x="125.4" y="358.64" class="st1" width="10.86" height="16.3"/>
			<circle class="st1" cx="167.03" cy="366.29" r="9.31"/>
			<line class="st8" x1="24.36" y1="371.06" x2="73.25" y2="371.06"/>
			<line class="st8" x1="24.36" y1="362.18" x2="73.25" y2="362.18"/>
			<path class="st0" d="M180.18,430.68H26.07c-5.66,0-10.25-4.59-10.25-10.25V402.9c0-5.66,4.59-10.25,10.25-10.25h154.11
				c5.66,0,10.25,4.59,10.25,10.25v17.53C190.42,426.09,185.83,430.68,180.18,430.68z"/>
			<rect x="88.77" y="404.29" class="st1" width="10.86" height="16.3"/>
			<rect x="107.64" y="404.29" class="st1" width="10.86" height="16.3"/>
			<rect x="125.4" y="404.29" class="st1" width="10.86" height="16.3"/>
			<circle class="st1" cx="167.03" cy="411.94" r="9.31"/>
			<line class="st8" x1="24.36" y1="416.71" x2="73.25" y2="416.71"/>
			<line class="st8" x1="24.36" y1="407.83" x2="73.25" y2="407.83"/>
		</g>
		<g>
			<g>
				<path class="st7" d="M397.61,448.14H151.2c-9.1,0-16.47-7.37-16.47-16.47V99.64c0-9.1,7.37-16.47,16.47-16.47h246.41
					c9.1,0,16.47,7.37,16.47,16.47v332.03C414.08,440.77,406.71,448.14,397.61,448.14z"/>
				<path class="st0" d="M380.68,234.08H168.13c-7.8,0-14.13-6.33-14.13-14.13v-24.18c0-7.8,6.33-14.13,14.13-14.13h212.55
					c7.8,0,14.13,6.33,14.13,14.13v24.18C394.81,227.76,388.49,234.08,380.68,234.08z"/>
				<rect x="254.61" y="197.69" class="st1" width="14.98" height="22.48"/>
				<rect x="280.64" y="197.69" class="st1" width="14.98" height="22.48"/>
				<rect x="305.13" y="197.69" class="st1" width="14.98" height="22.48"/>
				<circle class="st1" cx="362.55" cy="208.24" r="12.84"/>
				<line class="st8" x1="165.77" y1="214.82" x2="233.2" y2="214.82"/>
				<line class="st8" x1="165.77" y1="202.57" x2="233.2" y2="202.57"/>
				<path class="st0" d="M380.68,298.11H168.13c-7.8,0-14.13-6.33-14.13-14.13V259.8c0-7.8,6.33-14.13,14.13-14.13h212.55
					c7.8,0,14.13,6.33,14.13,14.13v24.18C394.81,291.78,388.49,298.11,380.68,298.11z"/>
				<rect x="254.61" y="261.72" class="st1" width="14.98" height="22.48"/>
				<rect x="280.64" y="261.72" class="st1" width="14.98" height="22.48"/>
				<rect x="305.13" y="261.72" class="st1" width="14.98" height="22.48"/>
				<circle class="st1" cx="362.55" cy="272.27" r="12.84"/>
				<line class="st8" x1="165.77" y1="278.84" x2="233.2" y2="278.84"/>
				<line class="st8" x1="165.77" y1="266.59" x2="233.2" y2="266.59"/>
				<path class="st0" d="M380.68,362.15H168.13c-7.8,0-14.13-6.33-14.13-14.13v-24.18c0-7.8,6.33-14.13,14.13-14.13h212.55
					c7.8,0,14.13,6.33,14.13,14.13v24.18C394.81,355.82,388.49,362.15,380.68,362.15z"/>
				<rect x="254.61" y="325.76" class="st1" width="14.98" height="22.48"/>
				<rect x="280.64" y="325.76" class="st1" width="14.98" height="22.48"/>
				<rect x="305.13" y="325.76" class="st1" width="14.98" height="22.48"/>
				<circle class="st1" cx="362.55" cy="336.31" r="12.84"/>
				<line class="st8" x1="165.77" y1="342.88" x2="233.2" y2="342.88"/>
				<line class="st8" x1="165.77" y1="330.63" x2="233.2" y2="330.63"/>
				<path class="st0" d="M380.68,425.11H168.13c-7.8,0-14.13-6.33-14.13-14.13V386.8c0-7.8,6.33-14.13,14.13-14.13h212.55
					c7.8,0,14.13,6.33,14.13,14.13v24.18C394.81,418.79,388.49,425.11,380.68,425.11z"/>
				<rect x="254.61" y="388.72" class="st1" width="14.98" height="22.48"/>
				<rect x="280.64" y="388.72" class="st1" width="14.98" height="22.48"/>
				<rect x="305.13" y="388.72" class="st1" width="14.98" height="22.48"/>
				<circle class="st1" cx="362.55" cy="399.27" r="12.84"/>
				<line class="st8" x1="165.77" y1="405.85" x2="233.2" y2="405.85"/>
				<line class="st8" x1="165.77" y1="393.6" x2="233.2" y2="393.6"/>
			</g>
			<rect x="174.6" y="99.74" class="st9" width="198.49" height="64.41"/>
		</g>
	</g>
</g>
<g id="Layer_2">
</g>
</svg>
