<?xml version="1.0" encoding="utf-8"?>
<!-- Generator: Adobe Illustrator 24.0.3, SVG Export Plug-In . SVG Version: 6.00 Build 0)  -->
<svg version="1.1" id="Layer_1" xmlns="http://www.w3.org/2000/svg" xmlns:xlink="http://www.w3.org/1999/xlink" x="0px" y="0px"
	 viewBox="0 0 782.32 662.33" style="enable-background:new 0 0 782.32 662.33;" xml:space="preserve">
<style type="text/css">
	.st0{fill:#062C50;fill-opacity:0.5;}
	.st1{fill:#DDE2F8;}
	.st2{fill:#FFFFFF;}
	.st3{fill:#1D6EBF;}
	.st4{fill:#093756;}
	.st5{fill:none;stroke:#323233;stroke-width:4;stroke-miterlimit:10;}
	.st6{fill:#0D415E;stroke:#9EB4E1;stroke-width:7;stroke-linecap:round;stroke-linejoin:bevel;stroke-miterlimit:10;}
	.st7{fill:#0C4F87;}
	.st8{fill:#0E5889;}
	.st9{fill:#C5C5C5;}
	.st10{fill:#288BCE;}
	.st11{fill:#9EB4E1;}
	.st12{fill:#CBD7F7;}
	.st13{fill:#8FA5CC;}
	.st14{fill:#9DB4E0;}
	.st15{fill:#FDFDFD;}
	.st16{fill:#E4C2B9;}
	.st17{fill:#125993;}
	.st18{fill:#062C50;}
	.st19{fill:#08213E;}
	.st20{fill:#1F84BC;}
	.st21{fill:#D1ADA2;}
	.st22{fill:#0B2E56;}
	.st23{fill:#E4C1B9;}
	.st24{fill:#E2E5E8;}
	.st25{fill:#0D415E;}
</style>
<g>
	<g>
		<polygon class="st1" points="232.53,62.58 573.23,49.66 573.23,293.24 232.53,280.9 		"/>
		<polygon class="st2" points="242.27,89.68 563.48,80.49 563.48,278.52 242.27,268.29 		"/>
		<polygon class="st3" points="232.38,62.39 573.08,49.45 573.08,65.61 232.38,76.87 		"/>
		<path class="st2" d="M243.14,66.72c1.48-0.05,2.68,1.11,2.68,2.6s-1.2,2.74-2.68,2.79s-2.68-1.11-2.68-2.6
			S241.66,66.77,243.14,66.72z"/>
		<path class="st2" d="M253.32,66.35c1.48-0.05,2.68,1.11,2.68,2.61c0,1.49-1.2,2.75-2.68,2.8s-2.68-1.12-2.68-2.61
			C250.64,67.65,251.84,66.4,253.32,66.35z"/>
		<path class="st2" d="M263.51,65.98c1.48-0.05,2.68,1.12,2.68,2.62s-1.2,2.76-2.68,2.81c-1.48,0.05-2.68-1.12-2.68-2.62
			C260.82,67.29,262.02,66.03,263.51,65.98z"/>
		<polygon class="st3" points="269.6,116.57 451.38,113.06 451.38,222.98 269.6,220.17 		"/>
		<polygon class="st1" points="476.75,112.57 545.97,111.23 545.97,154.34 476.75,154.76 		"/>
		<polygon class="st1" points="476.75,168.11 545.97,167.98 545.97,211.09 476.75,210.31 		"/>
		<polygon class="st1" points="476.75,223.65 545.97,224.73 545.97,267.84 476.75,265.85 		"/>
		<polygon class="st1" points="269.6,237.57 394.84,240.24 394.84,249.16 269.6,246.14 		"/>
		<polygon class="st2" points="384.27,168.15 344.64,144.46 344.64,191.99 384.27,168.15 344.64,144.46 344.64,191.99 		"/>
	</g>
</g>
</svg>
