<?xml version="1.0" encoding="utf-8"?>
<!-- Generator: Adobe Illustrator 24.0.3, SVG Export Plug-In . SVG Version: 6.00 Build 0)  -->
<svg version="1.1" id="Layer_1" xmlns="http://www.w3.org/2000/svg" xmlns:xlink="http://www.w3.org/1999/xlink" x="0px" y="0px"
	 viewBox="0 0 900.14 934.66" style="enable-background:new 0 0 900.14 934.66;" xml:space="preserve">
<style type="text/css">
	.st0{opacity:0.5;fill:#062C50;enable-background:new    ;}
	.st1{fill:#2D81BA;}
	.st2{fill:#093756;}
	.st3{fill:#17628C;}
	.st4{fill:#182E4D;}
	.st5{fill:#062C50;}
	.st6{fill:#0C4F87;}
	.st7{fill:#082F44;}
	.st8{fill:#DDE2F8;}
	.st9{fill:#9EB4E1;}
	.st10{fill:#FFFFFF;}
	.st11{opacity:0.2;fill:#677FD6;enable-background:new    ;}
	.st12{fill:#D1ADA2;}
	.st13{fill:#1D6EBF;}
	.st14{fill:#E4C1B9;}
	.st15{fill:#288BCE;}
	.st16{fill:#207CA5;}
	.st17{fill:#0B2E56;}
	.st18{fill:#1D6EBF;stroke:#288BCE;stroke-width:2;stroke-miterlimit:10;}
	.st19{fill:#7189AD;}
	.st20{fill:#8FA5CC;}
	.st21{fill:#7F97BA;}
	.st22{fill:#FDFEFF;}
	.st23{fill:none;stroke:#FFFFFF;stroke-width:3;stroke-linecap:round;stroke-miterlimit:10;}
	.st24{fill:#FFFFFF;stroke:#FFFFFF;stroke-miterlimit:10;}
	.st25{fill:#041E33;}
	.st26{fill:#145572;}
</style>
<ellipse transform="matrix(0.2484 -0.9687 0.9687 0.2484 -648.0547 895.285)" class="st0" cx="252.89" cy="865.24" rx="62.66" ry="125.32"/>
<path class="st0" d="M521.1,714.02c-4.68-0.75-11.74-1.74-20.34-2.42c-54.08-4.25-94.49,9.95-130.11,22.89
	c-61.64,22.4-64.01,37.42-64.49,41.62c-0.34,2.99,0.25,6.15,1.9,9.56c10.33,21.31,56.03,33.14,91.9,33.52
	c8.47,0.09,8.03-1.22,16.68-1.53c22.42-0.82,38.96,3.55,59.45,9.13c18.85,5.14,32.16,8.7,48.51,17.81
	c9.71,5.41,15.43,10.5,25.29,16.05c18.51,10.44,34.39,14.62,45.72,17.63c90.18,24.02,151.29,7.69,151.29,7.69
	c50.16-13.4,85-41.23,104.73-60.39c-77.05,2.33-135.69-15.1-144.81-47.03c-1.35-4.74-1.77-10.34-0.47-17.01
	c-4.07,4.81-10.61,11.2-20.15,15.44c-31.09,13.82-67.69-6.88-79.11-13.34c-24.48-13.85-48.74-37.49-69.2-44.74
	C530.89,716.44,524.98,714.91,521.1,714.02z"/>
<path class="st1" d="M77.44,331.37C37.79,393.82-24.07,491.26,9.76,593.23c24.68,74.42,98.72,143.47,180.39,148.31
	c128.94,7.65,225.4-148.18,235.4-164.81c12.21-20.3,27.74-51.28,61.3-100.57c38.19-56.09,57.78-84.31,81.78-92.89
	c52.11-18.63,79.05,34.59,157.35,31.72c12.1-0.44,100.6-5,140.18-70.89c36.95-61.51,9.82-140.77-23.25-183.45
	c-21.75-28.08-48.07-42.91-71.41-56.07c-11.54-6.51-49.5-26.94-114.93-38.37c-2.16-0.38-5.46-0.96-9.81-1.64
	c-91.74-14.32-191.7,7-191.7,7c-25.03,5.32-71.33,15.18-123.41,37.35c-76.46,32.55-124.11,79.17-158.07,111.25
	C144.86,247.29,109.76,280.46,77.44,331.37z"/>
<polygon class="st2" points="557.85,811.59 558.08,826.79 851.39,826.79 851.61,813.59 "/>
<ellipse class="st2" cx="704.73" cy="825.59" rx="146.88" ry="39.92"/>
<ellipse class="st3" cx="704.73" cy="811.59" rx="146.88" ry="39.92"/>
<ellipse class="st3" cx="704.73" cy="812.59" rx="146.88" ry="39.92"/>
<ellipse class="st3" cx="704.73" cy="813.59" rx="146.88" ry="39.92"/>
<ellipse class="st3" cx="704.73" cy="814.59" rx="146.88" ry="39.92"/>
<ellipse class="st3" cx="704.73" cy="815.59" rx="146.88" ry="39.92"/>
<ellipse class="st3" cx="704.73" cy="816.59" rx="146.88" ry="39.92"/>
<ellipse class="st3" cx="704.73" cy="817.59" rx="146.88" ry="39.92"/>
<ellipse class="st3" cx="704.73" cy="818.59" rx="146.88" ry="39.92"/>
<path class="st2" d="M692.38,693.36v116.23c0,0,12.12,6.28,21.44,0V693.36H692.38z"/>
<path class="st4" d="M546.5,734.49l-3.5,4.19h-25.86c0,0-6.93-0.93-9.15,0.7c-2.21,1.63-4.83,7.63-2.62,11.07
	s10.31,13.57,13.28,14.1c2.97,0.52,23.21,0.87,24.09,0.87s6.09-0.06,18.55,6.82s25.75,0.47,25.75,0.47s4.43-4.89,4.43-5.94
	s-4.08-27.03-4.08-27.03S570.15,751.03,546.5,734.49z"/>
<path class="st5" d="M410.7,795.67c0,0-0.47,9.32-14.45,8.85c-13.98-0.47-26.1-6.52-26.1-6.52s-11.65-1.4-22.83-2.33
	s-28.89-7.46-28.89-7.46c-5.8-2.44-9.69-6.79-9.71-11.15c0-0.62-0.01-3.8,2.16-5.88c1.33-1.28,2.96-1.63,3.82-1.77
	c9.61-1.63,35.67,3.25,48.93-3.1l9.32-4.66l0,0c12.58,5.75,25.17,11.5,37.75,17.24"/>
<path class="st6" d="M545.57,638.1c0,0,0-3.03,1.17-4.43c1.17-1.4,6.06-4.43,6.06-4.43l22.83-12.58h85.51l30.76,10.72l18.05,10.72
	l-19.68,37.05l-49.16,7.46l-62.91-14.45l-28.43-16.54l-4.19-12.35"/>
<polygon class="st7" points="705.22,542.92 589.88,518.74 539.55,582.7 749.26,625.36 "/>
<path class="st2" d="M724.75,589.23c0,0-14.68,72.7-26.56,80.39s-28.66,4.19-28.66,4.19s21.67,15.38-126.52-44.74
	c0,0-9.09,0.7-14.45,13.75s-14.21,29.59-14.21,29.59s-30.06,46.37-97.86,110.68c-1.9-0.15-4.76-0.46-8.19-1.17
	c-2.46-0.51-5.15-1.21-22.38-8.64c-4.35-1.88-6.34-3.2-8.62-4.95c-3.09-2.38-5.26-4.82-6.64-6.58
	c22.07-27.67,45.14-59.56,67.74-95.85c17.48-28.07,32.42-55.15,45.2-80.62l58.25-31.22c50.07,12.03,102.36,22.59,156.82,31.22
	C707.39,586.66,716.09,587.98,724.75,589.23z"/>
<polygon class="st8" points="197.95,512.27 418.15,599.73 833.37,432.45 604.79,361.12 "/>
<polygon class="st9" points="415.25,616.67 418.15,599.73 728.3,474.78 726.8,492.94 "/>
<polygon class="st9" points="197.95,512.27 197.95,529.29 415.25,616.67 418.15,599.73 "/>
<path class="st10" d="M414.9,504.47c30.52,11.19,61.05,22.39,91.57,33.58c64.54-26.22,129.09-52.45,193.63-78.67
	c-31.11-10.14-62.21-20.27-93.32-30.41C542.82,454.14,478.86,479.31,414.9,504.47z"/>
<path class="st2" d="M545.74,657.1v77.59c0,0,24.37,19.92,43.44,5.24c0,0,4.24-56.62,6.36-60.82
	C597.65,674.93,545.74,657.1,545.74,657.1z"/>
<polygon class="st11" points="446.74,502.72 506.47,524.63 658.19,465.03 601.19,442.15 "/>
<polygon class="st9" points="414.9,504.47 414.9,524.63 506.47,544.47 506.47,538.05 "/>
<polygon class="st9" points="506.47,544.47 506.47,538.05 666.2,473.37 666.2,483.39 "/>
<path class="st12" d="M690.07,382.85c0,0,10.25-9.32,21.44-6.52c11.18,2.8,11.65,13.98,11.65,13.98s1.86,30.29-3.73,52.66
	s-34.02,85.28-40.54,89.48c-6.52,4.19-13.05,6.99-84.82,2.33l-55.92-9.32c0,0-22.83,4.66-33.09,6.06
	c-10.25,1.4-16.31,5.68-16.31,5.68s-4.66,1.95-6.52,0s-6.52-6.61-7.46-9.41c-0.93-2.8,0-6.52,0-6.52l2.33-4.08l0.58-3.03
	c0,0-5.36,1.4-9.44-0.23c-4.08-1.63,1.28-5.01,1.28-5.01s11.65-11.53,24.12-14.33s29.24,0.12,29.24,0.12l15.26,9.32l50.8-0.7
	c0,0,44.04-7.22,54.76-6.99c0,0,3.96-0.23,7.69-10.49S685.1,386.32,690.07,382.85z"/>
<path class="st13" d="M689.93,383.58c0,0,4.19-4.89,8.85-7.46c4.66-2.56,30.76-16.31,30.76-16.31v1.63l45.44-3.96l-5.36-11.65
	c0,0,20.04-3.03,28.19,1.63c8.16,4.66,18.41,15.61,22.6,27.03s7.69,22.14,10.95,47.77l-1.17,52.19l-104.62,143.3
	c0,0-20.04,1.4-29.83-14.91c0,0-0.93-4.66,1.86-15.38c2.8-10.72,5.59-56.39,2.8-89.01s-13.98-102.52-13.98-102.52L689.93,383.58z"/>
<path class="st14" d="M591.41,443.59c0,0,11.01,3.5,17.3,3.15s-10.14-18.35-10.14-18.35s-3.32-1.57-8.04,0s-7.34,2.62-7.34,2.62
	s-3.32-0.35-3.15-1.4s2.27-4.72,2.27-4.72s2.27-2.62,3.67-3.15c1.4-0.52,12.76-5.77,12.76-5.77s16.43-2.8,23.24,2.97
	c6.82,5.77,9.44,16.08,9.44,16.08s5.94,6.47,9.79,7.34c3.84,0.87,3.84,0.87,3.84,0.87l-10.49,17.13l-3.84-1.4l-16.6-1.92
	c0,0-12.58-1.22-22.19-7.69c0,0-1.75-1.92-2.1-4.02C589.49,443.24,591.41,443.59,591.41,443.59z"/>
<polygon class="st15" points="632.07,459.78 642.21,442.15 670.87,448.15 660.73,474.78 "/>
<path class="st13" d="M546.66,503.89c0,0-7,1.4-6.06,25.17c0,0,112.31,20.97,126.29,13.98c0,0,14.41,1.4,19.55-11.18
	c5.15-12.58,32.28-83.91,33.72-92.07s4.22-23.83,3.3-43.19c-0.92-19.36-3.91-18.52-3.91-18.52l-8.39-5.84l-9.45,2.31
	c-1.11,0.62-4.6,2.62-7.22,4.6c-0.59,0.45-2.04,1.57-3.7,2.94c-0.44,0.36-0.8,0.66-1.05,0.87c-0.47,0.77-0.83,1.42-1.08,1.88
	c-0.42,0.78-1.1,2.09-1.49,2.79c-0.33,0.58-0.57,0.98-0.65,1.12c-4.22,7.07-8.15,16.03-8.15,16.03c-2.08,4.73-4.33,10.48-6.38,17.16
	c0,0-16.76,55.02-23.74,69.95c-0.07,0.15-0.53,1.1-1.39,2.13c-0.73,0.89-1.17,1.14-1.35,1.23c-1,0.51-2.03,0.29-2.25,0.26
	c-1.39-0.22-8.64,0.4-26.53,2.62C616.7,498.13,607.59,499.21,546.66,503.89z"/>
<path class="st15" d="M706.04,372.24c19.18,12.22,30.63,24.75,37.67,34.31c4.39,5.97,9.93,14.74,21.17,23.04
	c6.1,4.5,12.56,7.61,20.34,10.47c6.36,2.34,21.85,8.03,30.28-0.93c4.99-5.3,5.31-13.39,5.81-25.88c0.67-16.81-3.69-29.99-5.42-35.98
	c-1.43-4.94-4.68-11.99-4.68-11.99c-19.58-6.72-57.51-16.1-93.74,0.71C713.4,367.87,709.6,369.97,706.04,372.24z"/>
<path class="st16" d="M708.14,371.31c7.48,6.24,13.68,10.41,18.06,13.11c0.94,0.58,4.24,2.55,9.11,5.62
	c4.46,2.81,7.28,4.59,10.68,6.98c5.48,3.85,4.85,3.91,8.8,6.62c7.95,5.45,14.4,7.85,16.44,8.58c3.24,1.14,6.23,2.18,10.39,2.44
	c4.06,0.26,7.21-0.33,9.22-0.72c3.14-0.61,6.39-1.25,10.14-3.44c1.54-0.9,4.64-2.76,7.49-6.42c6.12-7.88,6.39-17.83,6.21-20.32
	c-0.33-4.71-0.97-8.72-1.61-11.87c-0.76-3.76-1.9-7.32-4.19-14.43c0,0-0.82-2.57-2.55-6.09c-0.04-0.08-0.75-1.52-1.99-3.11
	c-0.86-1.11-1.34-1.45-1.8-1.66c-0.47-0.21-0.7-0.18-1.77-0.39c-0.97-0.19-1.47-0.38-2.03-0.5c-4.01-0.8-6.59-0.6-9.77-1
	c-0.17-0.02-0.62-0.08-1.22-0.1c-0.63-0.02-1.44,0-2.36,0.16c0,0-0.74,0.12-1.48,0.34c-29.36,8.73-59.35,23.33-59.35,23.33
	c-2.4-0.61-7.6-1.53-12.99,0.86C710.23,369.9,709.09,370.6,708.14,371.31z"/>
<path class="st5" d="M791.72,345.68c2.42,0.41,5.68,1.11,9.49,2.37c3.13,4.64,6.47,11.1,8.35,19.37c1.55,6.83,3.43,15.13,0.06,23.48
	c-2.78,6.88-7.97,10.96-9.98,12.55c-2.68,2.11-5.18,3.39-7.02,4.18c-1.24,0.34-3.06,0.76-5.27,0.99c0,0-4.94,0.51-10.13-0.56
	c-12.99-2.68-27.08-12.44-27.08-12.44c-5-3.02-10.11-6.25-15.3-9.7c-8.34-5.54-16.09-11.11-23.27-16.6
	c7.1-4.13,13.28-7.26,17.98-9.5c0,0,21.82-10.4,39.71-13.91c0.62-0.12,1.22-0.23,1.22-0.23
	C774.15,345.06,781.93,344.01,791.72,345.68z"/>
<path class="st12" d="M726.19,341.73l2.45,19.57c0,0,9.44,6.64,27.61,4.19s21.67-6.64,21.67-6.64l-12.23-29.71L726.19,341.73z"/>
<g>
	<path class="st14" d="M765.64,328.92c-1.28,0.5-3.18,1.24-5.51,2.09c-9.39,3.45-11.08,3.51-17.28,5.76
		c-3.99,1.45-12.59,4.96-19.34,7.54c-2.02,0.77-4.74,1.78-8.25,1.5c-3.12-0.25-5.47-1.43-6.39-1.85c-2.56-1.17-4.08-2.62-4.96-3.66
		c-0.61-0.71-1.1-1.52-2.08-3.1c-1.5-2.44-2.57-4.44-2.85-4.97c-2.53-4.86-5.24-11.51-7.5-21.43c-3.92-17.14-4.18-33.2-3.62-44.68
		c4.75,0.18,9.51,0.37,14.26,0.55c0.94,1.95,2.89,5.31,6.58,8.23c2.68,2.11,5.31,3.23,7.13,3.84c1.6-0.28,5.76-0.78,9.33,1.65
		c5.48,3.72,5.5,11.59,5.49,12.62c-0.08,6.41-3.79,11.07-1.65,13.17c0.98,0.95,2.52,0.74,3.29,2.19c0.58,1.09,0.31,2.38,0,3.29
		c3.29,2.01,6.58,4.02,9.87,6.03c-0.45,2.6,0.04,4.37,0.55,5.49c0.31,0.67,1.69,3.84,4.82,4.58c2.47,0.58,4.6-0.69,5.26-1.08
		c4.06-2.41,3.41-6.4,5.97-6.99c2.72-0.63,6.94,3.07,7.19,6.95C766,327.55,765.83,328.32,765.64,328.92z"/>
	<path class="st12" d="M707.74,258.19c-3.29,2.61-6.58,5.21-9.87,7.82c-2.4,13.22-5.64,42.63,11.11,68.71
		c2.69,4.18,5.62,7.86,8.64,11.1c1.39-0.27,2.79-0.57,4.19-0.88c16.28-3.63,30.88-9.31,43.83-16.01c0.25-1.48,0.29-3.4-0.72-5.09
		c-0.37-0.62-0.75-0.99-0.81-1.05c-1.27-1.32-4.79-16.21-12.34-56.64C737.09,263.49,722.42,260.84,707.74,258.19z"/>
	<path class="st17" d="M744.55,330.49c2.71,0.18,6.61,0.15,11.12-0.92c4.49-1.06,7.98-2.76,10.32-4.13
		c0.17-4.04,0.54-9.73,1.4-16.51c2.4-18.83,6.04-25.5,3.84-37.3c-0.67-3.61-1.6-8.54-4.94-13.71
		c-9.47-14.65-28.85-16.51-34.01-17.01c-3.99-0.38-28.1-3.08-41.55,12.41c-2.11,2.43-3.5,4.78-4.39,6.51
		c-2.23,5.15-1.87,7.11-1.03,7.92c1.14,1.1,3.6,0.44,10.52,0.49c0.65,0,1.93,0.03,3.18,0.81c1.04,0.65,1.56,1.52,1.99,2.22
		c3.4,5.59,2.86,4.45,3.34,5.42c2.39,4.88,4.44,10.14,5.09,11.84c2.18-3.2,5.56-4.98,8.56-4.35c2.18,0.46,4.43,2.44,6.25,7.36
		c5.49,14.81-6.03,14.26-6.03,14.26L744.55,330.49z"/>
</g>
<path class="st14" d="M729.8,342.55l9.35,22.63c0,0-7.46-1.68-10.52-3.87l-2.18-17.65L729.8,342.55z"/>
<path class="st14" d="M737.62,340.69c0,0,18.34-5.73,23.28-9.44"/>
<path class="st18" d="M706.29,480.43c0,0,23.93-55.36,14.33-87.74"/>
<path class="st3" d="M900.14,429.68c0,0-8.62-9.21-21.67-9.21s-101.59,28.89-101.59,28.89L699.06,665.6l-79.78,22.36
	c0,0,81.64,18.18,115.2,10.26s64.78-24.23,79.22-34.49c14.45-10.25,32.62-37.75,45.67-70.37s33.55-108.06,35.42-116.71
	s7.92-42.2,7.92-42.2L900.14,429.68z"/>
<path class="st8" d="M545.74,638.8v22.37c3.81,2.32,9.08,5.34,15.55,8.48c8.79,4.26,20.5,9.07,36.87,13.28
	c20.93,5.38,44.43,11.42,72.7,6.9c17.99-2.88,27.64-7.68,34.25-13.46c5.02-4.39,9.05-9.83,9.79-10.83c1.47-2,5.43-7.62,10.66-20.27
	c3.87-9.36,6.02-16.72,6.29-17.65c18.98-65.68,28.47-98.52,41.07-150.96l0,0c0,0,7.69-23.79,33.55-31.48s78.99-20.97,78.99-20.97
	s8.39,0.48,14.68,5.48c0,0-5.94-9.85-22.37-13c0,0-5.07-0.17-10.31,0.87c-5.24,1.05-83.18,23.42-83.18,23.42
	c-3.68,0.96-9.18,2.86-14.68,6.9c-9.64,7.1-13.75,17.3-16.6,24.2c-1.57,3.81-2.46,6.79-2.73,7.71
	c-7.02,23.93-31.13,114.72-34.9,127.78c-1.96,6.77-4.31,13.16-4.31,13.16c-0.29,0.79-1.6,4.29-3.61,9.09
	c-3.39,8.1-5.09,12.16-8.16,17.01c-3.93,6.23-7.71,10.04-8.5,10.83c0,0-3.82,4.2-8.62,7.04c-12.45,7.37-25.32,7.44-41.36,6.94
	c-12.59-0.39-22.07-2-24.64-2.45c-19.13-3.36-33.52-9.29-42.64-13.11c0,0-1.3-0.55-24.29-11.01l0,0c-0.56-0.42-1.25-1.04-1.88-1.92
	C546.13,641.46,545.82,639.72,545.74,638.8z"/>
</svg>
