<?xml version="1.0" encoding="utf-8"?>
<!-- Generator: Adobe Illustrator 24.0.3, SVG Export Plug-In . SVG Version: 6.00 Build 0)  -->
<svg version="1.1" id="Layer_1" xmlns="http://www.w3.org/2000/svg" xmlns:xlink="http://www.w3.org/1999/xlink" x="0px" y="0px"
	 viewBox="0 0 782.32 662.33" style="enable-background:new 0 0 782.32 662.33;" xml:space="preserve">
<style type="text/css">
	.st0{fill:#062C50;fill-opacity:0.5;}
	.st1{fill:#DDE2F8;}
	.st2{fill:#FFFFFF;}
	.st3{fill:#1D6EBF;}
	.st4{fill:#093756;}
	.st5{fill:none;stroke:#323233;stroke-width:4;stroke-miterlimit:10;}
	.st6{fill:#0D415E;stroke:#9EB4E1;stroke-width:7;stroke-linecap:round;stroke-linejoin:bevel;stroke-miterlimit:10;}
	.st7{fill:#0C4F87;}
	.st8{fill:#0E5889;}
	.st9{fill:#C5C5C5;}
	.st10{fill:#288BCE;}
	.st11{fill:#9EB4E1;}
	.st12{fill:#CBD7F7;}
	.st13{fill:#8FA5CC;}
	.st14{fill:#9DB4E0;}
	.st15{fill:#FDFDFD;}
	.st16{fill:#E4C2B9;}
	.st17{fill:#125993;}
	.st18{fill:#062C50;}
	.st19{fill:#08213E;}
	.st20{fill:#1F84BC;}
	.st21{fill:#D1ADA2;}
	.st22{fill:#0B2E56;}
	.st23{fill:#E4C1B9;}
	.st24{fill:#E2E5E8;}
	.st25{fill:#0D415E;}
</style>
<g>
	<g>
		<g>
			<polygon class="st1" points="395.34,18.53 782.49,1.25 782.49,249.2 395.34,233.87 			"/>
			<polygon class="st2" points="406.41,45.16 771.42,32.73 771.42,234.15 406.41,221.52 			"/>
			<polygon class="st1" points="669.11,56.14 747.78,54.01 747.78,97.74 669.11,98.68 			"/>
			<polygon class="st1" points="669.11,112.14 747.78,111.57 747.78,155.3 669.11,154.68 			"/>
			<polygon class="st1" points="669.11,168.14 747.78,169.13 747.78,212.86 669.11,210.69 			"/>
			<polygon class="st1" points="430.05,62.6 508.71,60.47 508.71,100.6 430.05,101.55 			"/>
			<polygon class="st1" points="430.05,113.87 508.71,113.3 508.71,153.44 430.05,152.82 			"/>
			<polygon class="st1" points="430.05,165.15 508.71,166.13 508.71,206.27 430.05,204.1 			"/>
			<polygon class="st3" points="395.17,18.35 782.32,1.04 782.32,17.49 395.17,32.63 			"/>
			<path class="st2" d="M407.4,22.48c1.68-0.07,3.05,1.06,3.05,2.53s-1.36,2.72-3.05,2.79c-1.68,0.07-3.05-1.07-3.05-2.53
				C404.35,23.8,405.71,22.55,407.4,22.48z"/>
			<path class="st2" d="M418.97,21.98c1.68-0.07,3.05,1.07,3.05,2.54c0,1.48-1.36,2.73-3.05,2.8c-1.68,0.07-3.05-1.07-3.05-2.54
				C415.92,23.31,417.28,22.05,418.97,21.98z"/>
			<path class="st2" d="M430.54,21.49c1.68-0.07,3.05,1.07,3.05,2.56c0,1.48-1.36,2.74-3.05,2.81c-1.68,0.07-3.05-1.08-3.05-2.56
				S428.85,21.56,430.54,21.49z"/>
		</g>
	</g>
	<g>
		<g>
			<polygon class="st1" points="232.53,62.58 573.23,49.66 573.23,293.24 232.53,280.9 			"/>
			<polygon class="st2" points="242.27,89.68 563.48,80.49 563.48,278.52 242.27,268.29 			"/>
			<polygon class="st3" points="232.38,62.39 573.08,49.45 573.08,65.61 232.38,76.87 			"/>
			<path class="st2" d="M243.14,66.72c1.48-0.05,2.68,1.11,2.68,2.6s-1.2,2.74-2.68,2.79s-2.68-1.11-2.68-2.6
				S241.66,66.77,243.14,66.72z"/>
			<path class="st2" d="M253.32,66.35c1.48-0.05,2.68,1.11,2.68,2.61c0,1.49-1.2,2.75-2.68,2.8s-2.68-1.12-2.68-2.61
				C250.64,67.65,251.84,66.4,253.32,66.35z"/>
			<path class="st2" d="M263.51,65.98c1.48-0.05,2.68,1.12,2.68,2.62s-1.2,2.76-2.68,2.81c-1.48,0.05-2.68-1.12-2.68-2.62
				C260.82,67.29,262.02,66.03,263.51,65.98z"/>
			<polygon class="st3" points="269.6,116.57 451.38,113.06 451.38,222.98 269.6,220.17 			"/>
			<polygon class="st1" points="476.75,112.57 545.97,111.23 545.97,154.34 476.75,154.76 			"/>
			<polygon class="st1" points="476.75,168.11 545.97,167.98 545.97,211.09 476.75,210.31 			"/>
			<polygon class="st1" points="476.75,223.65 545.97,224.73 545.97,267.84 476.75,265.85 			"/>
			<polygon class="st1" points="269.6,237.57 394.84,240.24 394.84,249.16 269.6,246.14 			"/>
			<polygon class="st2" points="384.27,168.15 344.64,144.46 344.64,191.99 384.27,168.15 344.64,144.46 344.64,191.99 			"/>
		</g>
	</g>
	<g>
		<g>
			<g>
				<polygon class="st1" points="363.94,171.19 723.27,158.67 723.27,388.8 363.94,377.31 				"/>
				<polygon class="st2" points="374.22,196.77 712.99,187.8 712.99,374.89 374.22,365.4 				"/>
				<polygon class="st3" points="363.79,171.01 723.12,158.47 723.12,173.73 363.79,184.68 				"/>
				<polygon class="st1" points="415.9,209.72 482.16,208.27 482.16,275.12 415.9,275.19 				"/>
				<polygon class="st1" points="510.47,207.64 576.73,206.19 576.73,275.01 510.47,275.09 				"/>
				<polygon class="st1" points="605.05,205.56 671.31,204.11 671.31,274.91 605.05,274.98 				"/>
				<polygon class="st1" points="415.9,287.04 482.16,287.22 482.16,354.07 415.9,352.51 				"/>
				<polygon class="st1" points="510.47,287.3 576.73,287.47 576.73,356.3 510.47,354.74 				"/>
				<polygon class="st1" points="605.05,287.55 671.31,287.72 671.31,358.53 605.05,356.97 				"/>
				<path class="st2" d="M526.49,304.76l12.11-4.43l1.41,22.67c0,0,2.53,6.97,1.69,9.62c0,0,0.56,4.54-0.84,4.79
					c-1.41,0.24-5.35,0.7-5.63,0.43c-0.28-0.27-0.28-1.07-0.28-1.07s-2.82,1.81-3.1,3.93c0,0-11.82,3.22-12.11,0.03
					c-0.28-3.18,5.91-5.73,5.91-5.73l4.79-6.83L526.49,304.76z"/>
				<path class="st2" d="M552.11,304.96l12.11-4.47l1.41,22.85c0,0,2.53,7.02,1.69,9.7c0,0,0.56,4.58-0.84,4.82
					c-1.41,0.24-5.35,0.71-5.63,0.44s-0.28-1.08-0.28-1.08s-2.82,1.83-3.1,3.96c0,0-11.82,3.25-12.11,0.04
					c-0.28-3.21,5.91-5.77,5.91-5.77l4.79-6.88L552.11,304.96z"/>
				<path class="st4" d="M553.29,217.12c0,0-2.58,6.89,0.41,9.93l-2.49,8.17c0,0,8.85,25.17,6.32,28.71c0,0-9.44,4.52-28.31-1.46
					l7.67-28.17l-1.1-11.86l1.52-5.61l3.37-0.38c0,0-2.02,7.22,1.69,8.27c3.71,1.06,7.32-8.26,7.32-8.26L553.29,217.12z"/>
				<path class="st2" d="M434.25,261.96l3.25,1.2l15.53-18.88l4.88,22.06l3.25-0.56c2.09-19.1,3.79-38.6,1.7-47.78l-12.05-0.25
					l-5.47,16.15l-2.66,10.9L434.25,261.96z"/>
				<path class="st2" d="M631.69,214.62c0,0-4.44,6.08-4.22,8.5c0.22,2.42,3.03,41.89,3.03,41.89l6.61,0.29l-1.95-28.48l1.62-7.73
					l4.01,35.88l8.12,0.18l-7.26-46.59l-1.41-4.1L631.69,214.62z"/>
				<path class="st4" d="M656.78,311.65c-1.18-1.4-3.21-2.17-5.15-2.59c0.06-0.17-5.92-1.43-6.02-1.19l-2.25-1.77l-6.92,3.45
					l-3.89-2.61l-1.81,0.61c0.07-0.31-5.61,0.6-5.61,0.6c-1.09,0.03-2.47,0.08-4.02,0.18c-5.43,0.36-5.85,13.98-5.85,13.98
					c2.5-0.96,5.17-1.47,7.87-1.5l1.47,16.37c7.55-0.5,15.48,0.37,23.68,2.32l3.85-12.89l8.97-3.3
					C661.1,323.32,659.57,314.96,656.78,311.65z"/>
				<path class="st2" d="M464.35,302.36c-0.97-1.08-2.64-1.68-4.24-2c0.05-0.13-4.88-1.11-4.96-0.91l-1.86-1.37l-5.7,2.69l-3.2-2.03
					l-1.49,0.48c0.06-0.24-4.62,0.47-4.62,0.47c-0.89,0.02-2.04,0.07-3.31,0.15c-4.48,0.29-4.82,10.89-4.82,10.89
					c2.06-0.75,4.26-1.15,6.48-1.18l1.21,31.15c6.22-0.37,12.75,0.33,19.52,1.87l3.17-28.55l7.39-2.58
					C467.91,311.42,466.65,304.93,464.35,302.36z"/>
			</g>
			<path class="st2" d="M375.13,175.09c1.56-0.05,2.83,1.05,2.83,2.45s-1.27,2.59-2.83,2.64s-2.83-1.05-2.83-2.45
				C372.3,176.32,373.57,175.14,375.13,175.09z"/>
			<path class="st2" d="M385.87,174.73c1.56-0.05,2.83,1.05,2.83,2.46s-1.27,2.59-2.83,2.64s-2.83-1.05-2.83-2.46
				S384.31,174.78,385.87,174.73z"/>
			<path class="st2" d="M396.61,174.37c1.56-0.05,2.83,1.05,2.83,2.47s-1.27,2.6-2.83,2.65c-1.56,0.05-2.83-1.06-2.83-2.47
				C393.78,175.61,395.05,174.42,396.61,174.37z"/>
		</g>
	</g>
</g>
</svg>
