<?xml version="1.0" encoding="utf-8"?>
<!-- Generator: Adobe Illustrator 24.0.3, SVG Export Plug-In . SVG Version: 6.00 Build 0)  -->
<svg version="1.1" id="Layer_1" xmlns="http://www.w3.org/2000/svg" xmlns:xlink="http://www.w3.org/1999/xlink" x="0px" y="0px"
	 viewBox="0 0 782.32 662.33" style="enable-background:new 0 0 782.32 662.33;" xml:space="preserve">
<style type="text/css">
	.st0{fill:#062C50;fill-opacity:0.5;}
	.st1{fill:#DDE2F8;}
	.st2{fill:#FFFFFF;}
	.st3{fill:#1D6EBF;}
	.st4{fill:#093756;}
	.st5{fill:none;stroke:#323233;stroke-width:4;stroke-miterlimit:10;}
	.st6{fill:#0D415E;stroke:#9EB4E1;stroke-width:7;stroke-linecap:round;stroke-linejoin:bevel;stroke-miterlimit:10;}
	.st7{fill:#0C4F87;}
	.st8{fill:#0E5889;}
	.st9{fill:#C5C5C5;}
	.st10{fill:#288BCE;}
	.st11{fill:#9EB4E1;}
	.st12{fill:#CBD7F7;}
	.st13{fill:#8FA5CC;}
	.st14{fill:#9DB4E0;}
	.st15{fill:#FDFDFD;}
	.st16{fill:#E4C2B9;}
	.st17{fill:#125993;}
	.st18{fill:#062C50;}
	.st19{fill:#08213E;}
	.st20{fill:#1F84BC;}
	.st21{fill:#D1ADA2;}
	.st22{fill:#0B2E56;}
	.st23{fill:#E4C1B9;}
	.st24{fill:#E2E5E8;}
	.st25{fill:#0D415E;}
</style>
<g>
	<g>
		<polygon class="st1" points="395.34,18.53 782.49,1.25 782.49,249.2 395.34,233.87 		"/>
		<polygon class="st2" points="406.41,45.16 771.42,32.73 771.42,234.15 406.41,221.52 		"/>
		<polygon class="st1" points="669.11,56.14 747.78,54.01 747.78,97.74 669.11,98.68 		"/>
		<polygon class="st1" points="669.11,112.14 747.78,111.57 747.78,155.3 669.11,154.68 		"/>
		<polygon class="st1" points="669.11,168.14 747.78,169.13 747.78,212.86 669.11,210.69 		"/>
		<polygon class="st1" points="430.05,62.6 508.71,60.47 508.71,100.6 430.05,101.55 		"/>
		<polygon class="st1" points="430.05,113.87 508.71,113.3 508.71,153.44 430.05,152.82 		"/>
		<polygon class="st1" points="430.05,165.15 508.71,166.13 508.71,206.27 430.05,204.1 		"/>
		<polygon class="st3" points="395.17,18.35 782.32,1.04 782.32,17.49 395.17,32.63 		"/>
		<path class="st2" d="M407.4,22.48c1.68-0.07,3.05,1.06,3.05,2.53s-1.36,2.72-3.05,2.79c-1.68,0.07-3.05-1.07-3.05-2.53
			C404.35,23.8,405.71,22.55,407.4,22.48z"/>
		<path class="st2" d="M418.97,21.98c1.68-0.07,3.05,1.07,3.05,2.54c0,1.48-1.36,2.73-3.05,2.8c-1.68,0.07-3.05-1.07-3.05-2.54
			C415.92,23.31,417.28,22.05,418.97,21.98z"/>
		<path class="st2" d="M430.54,21.49c1.68-0.07,3.05,1.07,3.05,2.56c0,1.48-1.36,2.74-3.05,2.81c-1.68,0.07-3.05-1.08-3.05-2.56
			S428.85,21.56,430.54,21.49z"/>
	</g>
</g>
</svg>
