<?xml version="1.0" encoding="utf-8"?>
<!-- Generator: Adobe Illustrator 24.0.3, SVG Export Plug-In . SVG Version: 6.00 Build 0)  -->
<svg version="1.1" id="Layer_1" xmlns="http://www.w3.org/2000/svg" xmlns:xlink="http://www.w3.org/1999/xlink" x="0px" y="0px"
	 viewBox="0 0 900.14 934.66" style="enable-background:new 0 0 900.14 934.66;" xml:space="preserve">
<style type="text/css">
	.st0{opacity:0.5;fill:#062C50;enable-background:new    ;}
	.st1{fill:#2D81BA;}
	.st2{fill:#093756;}
	.st3{fill:#17628C;}
	.st4{fill:#182E4D;}
	.st5{fill:#062C50;}
	.st6{fill:#0C4F87;}
	.st7{fill:#082F44;}
	.st8{fill:#DDE2F8;}
	.st9{fill:#9EB4E1;}
	.st10{fill:#FFFFFF;}
	.st11{opacity:0.2;fill:#677FD6;enable-background:new    ;}
	.st12{fill:#D1ADA2;}
	.st13{fill:#1D6EBF;}
	.st14{fill:#E4C1B9;}
	.st15{fill:#288BCE;}
	.st16{fill:#207CA5;}
	.st17{fill:#0B2E56;}
	.st18{fill:#1D6EBF;stroke:#288BCE;stroke-width:2;stroke-miterlimit:10;}
	.st19{fill:#7189AD;}
	.st20{fill:#8FA5CC;}
	.st21{fill:#7F97BA;}
	.st22{fill:#FDFEFF;}
	.st23{fill:none;stroke:#FFFFFF;stroke-width:3;stroke-linecap:round;stroke-miterlimit:10;}
	.st24{fill:#FFFFFF;stroke:#FFFFFF;stroke-miterlimit:10;}
	.st25{fill:#041E33;}
	.st26{fill:#145572;}
</style>
<path class="st19" d="M322.51,283.7v154.14c0,0,3.09,10.21,13.98,7.31V281.37l234.49-86.21v-4.57h-15.46
	c-74.72,27.16-149.44,54.31-224.15,81.47c-1.4,0.83-3.61,2.39-5.6,5.01C323.82,279.63,322.93,282.14,322.51,283.7z"/>
<path class="st19" d="M417.34,439.46c0.27,2.68,0.54,5.36,0.82,8.04c1.54,0.94,3.13,1.87,4.77,2.79c6.05,3.37,11.94,6.04,17.48,8.18
	c4.05,0.27,8.57,1.35,12.93,0c9.44-2.92,53.12-19,53.12-19c-0.01-1.44-0.01-2.89-0.02-4.33c-9.43-2.05-18.86-4.1-28.29-6.16
	c-10.88,0.51-18.77,3.14-24.12,5.59c-5.94,2.72-9.78,5.7-13.22,4.01c-1.16-0.57-2.41-1.73-5.92-13.12
	c-2.6-8.44-3.47-12.83-5.87-13.21c-2.18-0.35-3.92,2.89-5.72,2.12c-1.72-0.74-1.52-4.29-1.89-4.27c-0.61,0.03-0.78,9.74-0.82,11.88
	c-0.06,3.6-0.02,4.81-0.58,6.76c-0.61,2.1-1.33,3.04-1.98,5.48C417.46,436.41,417.35,438.27,417.34,439.46z"/>
<path class="st9" d="M329.22,285.48v153.3c0,0,2.58,8.16,10.74,6.01c3.17-0.83,39.76-14.27,83.35-30.41
	c68.76-25.45,154.96-57.62,154.96-57.62s3.01-4.29,3.44-9.88c0.43-5.58,0-149,0-149s0-7.73-10.74-7.3S337.8,276.03,337.8,276.03
	S327.5,279.46,329.22,285.48z"/>
<polygon class="st15" points="339.96,285.05 339.96,432.76 570.98,350.32 570.98,200.88 "/>
<path class="st20" d="M420.4,445.14c0,0,20.9,11.66,26.91,11.38c6.01-0.29,58.69-20.04,58.69-20.04s1.57-2.43-1-3.72
	c-2.58-1.29-20.33-7.59-20.33-7.59s-2.86-1.29-3.01-5.3c-0.14-4.01,2.15-8.59,2.15-8.59l4.29-8.16l-0.54-12.6l-64.25,23.84
	l-0.19,11.95c0,0-0.29,5.15-2.15,7.87C419.11,436.91,420.4,445.14,420.4,445.14z"/>
<path class="st21" d="M422.89,428.33l64.33-23.53c0,0-7.24,13.22-5.39,16.45l-61.6,22.58c-1.14-4.1-0.61-6.6,0.11-8.13
	c0.33-0.69,0.84-1.5,1.42-3.01C422.44,430.92,422.74,429.37,422.89,428.33z"/>
<polygon class="st21" points="354.66,293.95 354.66,348.94 455.47,314.92 455.46,259.46 "/>
<polygon class="st22" points="388.61,296.16 388.61,327.51 446.08,308.11 446.08,276.49 "/>
<polygon class="st21" points="399.95,304.09 399.95,387.15 552.2,335.77 552.2,252.01 "/>
<line class="st23" x1="411.11" y1="315.19" x2="510.25" y2="279.15"/>
<line class="st23" x1="411.11" y1="346.59" x2="510.25" y2="310.55"/>
<line class="st23" x1="411.11" y1="361.88" x2="510.25" y2="325.84"/>
<line class="st23" x1="411.11" y1="375.8" x2="469.78" y2="354.47"/>
<line class="st23" x1="411.11" y1="330.57" x2="510.25" y2="294.53"/>
<g>
	<g>
		<path class="st5" d="M221.79,561.48c-63.91-158.16,48.98-288.06,48.98-288.06L221.79,561.48z"/>
		<path class="st5" d="M221.57,561.43c111.66-121.44,49.41-287.97,49.41-287.97L221.57,561.43z"/>
	</g>
	<ellipse class="st25" cx="183.16" cy="738.75" rx="68.31" ry="9.48"/>
	<path class="st9" d="M120.75,751.47l13.2,105.29c11.73,4.17,29.85,9.03,52.33,9c22.27-0.03,40.23-4.85,51.91-9
		c3.52-35.1,7.04-70.2,10.56-105.29C248.74,751.47,207.84,778.82,120.75,751.47z"/>
	<path class="st5" d="M114.86,753.87c0-5.04-0.01-10.08-0.01-15.12c21.12,5.43,50.6,10.39,85.58,8.17
		c19.54-1.24,36.72-4.46,51.04-8.17c0,5.16,0,10.32,0,15.48c-13.92,5.6-36.93,12.87-66.11,13.15
		C153.84,767.69,129.14,759.71,114.86,753.87z"/>
	<g>
		<path class="st5" d="M166.18,752.05c-107.2-211.3,168.63-344.3,168.63-344.3L166.18,752.05z"/>
		<path class="st5" d="M165.7,751.94c271.36-122.83,169.57-344.08,169.57-344.08L165.7,751.94z"/>
	</g>
	<path class="st26" d="M160.49,713.27C43.75,636.39,73.17,494.03,73.17,494.03L160.49,713.27z"/>
	<path class="st26" d="M155.97,657.01c-123.59-207.93,29.85-407.3,29.85-407.3L155.97,657.01z"/>
	<path class="st3" d="M160.3,713.34c32.15-136.03-86.95-219.38-86.95-219.38L160.3,713.34z"/>
	<path class="st3" d="M155.62,656.98c152.9-187.44,30.53-407.25,30.53-407.25L155.62,656.98z"/>
	<path class="st26" d="M210.12,622.67c-20.92-105.78,73.27-166.66,73.27-166.66L210.12,622.67z"/>
	<path class="st26" d="M209.98,622.6c92.18-55.94,73.55-166.53,73.55-166.53L209.98,622.6z"/>
</g>
</svg>
