<?xml version="1.0" encoding="utf-8"?>
<!-- Generator: Adobe Illustrator 24.0.3, SVG Export Plug-In . SVG Version: 6.00 Build 0)  -->
<svg version="1.1" xmlns="http://www.w3.org/2000/svg" xmlns:xlink="http://www.w3.org/1999/xlink" x="0px" y="0px"
	 viewBox="0 0 555.43 534.63" style="enable-background:new 0 0 555.43 534.63;" xml:space="preserve">
<style type="text/css">
	.st0{fill:#1A75C0;}
	.st1{fill:#FFFFFF;}
	.st2{fill:#FFFFFF;stroke:#FFFFFF;stroke-width:4;stroke-linecap:round;stroke-miterlimit:10;}
	.st3{fill:none;stroke:#0B2E56;stroke-width:5;stroke-miterlimit:10;}
	.st4{fill:#0B2E56;}
	.st5{fill:none;}
	.st6{fill:none;stroke:#1A75C1;stroke-width:6;stroke-miterlimit:10;}
	.st7{fill:#0B2E56;stroke:#FFFFFF;stroke-miterlimit:10;}
	.st8{fill:none;stroke:#FFFFFF;stroke-width:2;stroke-linecap:round;stroke-miterlimit:10;}
	.st9{fill:#FFFFFF;stroke:#FFFFFF;stroke-miterlimit:10;}
	.st10{fill:none;stroke:#FFFFFF;stroke-width:10;stroke-linecap:round;stroke-miterlimit:10;}
	.st11{fill:#1A75C0;stroke:#0B2E56;stroke-width:10;stroke-linecap:round;stroke-miterlimit:10;}
	.st12{fill:#FFFFFF;stroke:#1A75C0;stroke-width:5;stroke-miterlimit:10;}
	.st13{fill:none;stroke:#1A75C1;stroke-width:40;stroke-miterlimit:10;}
	.st14{fill:#8FA5CC;}
	.st15{fill:#D1ADA2;}
	.st16{fill:#17628C;}
	.st17{fill:#7C8DA5;}
	.st18{fill:#9EB4E1;}
</style>
<g id="Layer_1">
	<g>
		<ellipse class="st0" cx="277.72" cy="267.31" rx="238.17" ry="237.65"/>
		<path class="st1" d="M49,267.37c0,90.77,52.75,169.21,129.24,206.39L68.86,174.04C55.75,203.41,48.98,235.21,49,267.37z
			 M433.13,255.79c0-28.34-10.18-47.97-18.91-63.24c-11.62-18.89-22.52-34.89-22.52-53.78c0-21.08,15.99-40.7,38.51-40.7
			c1.02,0,1.98,0.13,2.97,0.18c-40.8-37.37-95.15-60.2-154.85-60.2c-80.11,0-150.6,41.1-191.6,103.36
			c5.38,0.16,10.45,0.27,14.76,0.27c23.99,0,61.11-2.91,61.11-2.91c12.36-0.73,13.82,17.43,1.47,18.89c0,0-12.42,1.46-26.25,2.19
			l83.5,248.39l50.18-150.51l-35.73-97.89c-12.35-0.72-24.05-2.19-24.05-2.19c-12.36-0.72-10.91-19.62,1.45-18.89
			c0,0,37.87,2.91,60.41,2.91c23.98,0,61.11-2.91,61.11-2.91c12.37-0.73,13.82,17.43,1.47,18.89c0,0-12.45,1.46-26.25,2.19
			l82.87,246.51l22.87-76.43C425.58,298.21,433.13,275.43,433.13,255.79z"/>
		<path class="st1" d="M282.34,287.43l-68.81,199.92c21.04,6.2,42.85,9.35,64.78,9.35c25.93,0.01,51.68-4.39,76.15-13
			c-0.64-1-1.18-2.06-1.63-3.16L282.34,287.43z M479.54,157.35c0.99,7.3,1.54,15.15,1.54,23.58c0,23.27-4.35,49.43-17.44,82.14
			L393.6,465.59c68.17-39.76,114.03-113.62,114.03-198.22C507.69,228.91,498.03,191.07,479.54,157.35L479.54,157.35z"/>
	</g>
</g>
<g id="Layer_2">
</g>
</svg>
