<?xml version="1.0" encoding="utf-8"?>
<!-- Generator: Adobe Illustrator 24.0.3, SVG Export Plug-In . SVG Version: 6.00 Build 0)  -->
<svg version="1.1" id="Layer_1" xmlns="http://www.w3.org/2000/svg" xmlns:xlink="http://www.w3.org/1999/xlink" x="0px" y="0px"
	 viewBox="0 0 966.93 641.88" style="enable-background:new 0 0 966.93 641.88;" xml:space="preserve">
<style type="text/css">
	.st0{fill:#9EB4E1;}
	.st1{fill:#DDE2F8;}
	.st2{fill:#FFFFFF;}
	.st3{fill:#1D6EBF;}
	.st4{fill:#093756;}
	.st5{fill:#FFFFFF;stroke:#323233;stroke-width:4;stroke-miterlimit:10;}
	.st6{fill:#0D415E;stroke:#FFFFFF;stroke-width:7;stroke-linecap:round;stroke-linejoin:bevel;stroke-miterlimit:10;}
	.st7{fill:#0C4F87;}
	.st8{fill:#0E5889;}
	.st9{fill:#C5C5C5;}
	.st10{fill:#288BCE;}
	.st11{fill:#CBD7F7;}
	.st12{fill:#8FA5CC;}
	.st13{fill:#9DB4E0;}
	.st14{fill:#FDFDFD;}
	.st15{fill:#E4C2B9;}
	.st16{fill:#125993;}
	.st17{fill:#062C50;}
	.st18{fill:#08213E;}
	.st19{fill:#1F84BC;}
	.st20{fill:#D1ADA2;}
	.st21{fill:#0B2E56;}
	.st22{fill:#E4C1B9;}
	.st23{fill:#E2E5E8;}
	.st24{fill:#0D415E;}
</style>
<path class="st0" d="M360.12,555.35h-61.99c-6.1,0-11.72,3.23-14.66,8.44l-31.18,55.13c-6.18,10.93,1.99,24.3,14.79,24.2
	c38.54-0.3,77.07-0.6,115.61-0.9c11.81-0.09,19.81-11.75,15.39-22.42c-7.48-18.08-14.95-36.15-22.43-54.23
	C373.09,559.4,366.94,555.35,360.12,555.35z"/>
<path class="st0" d="M112.47,524.94l-98.08,13.01c-13.91,1.85-19.35,19.09-9.01,28.58l44.03,40.43c3.91,3.59,9.31,5.09,14.51,4.02
	l112.29-23c15.24-3.12,18.13-23.65,4.34-30.86l-58.23-30.44C119.28,525.1,115.85,524.49,112.47,524.94z"/>
<g>
	<g>
		<g>
			<polygon class="st1" points="579.78,18.74 966.93,1.46 966.93,249.41 579.78,234.08 			"/>
			<polygon class="st2" points="590.85,45.37 955.86,32.94 955.86,234.36 590.85,221.73 			"/>
			<polygon class="st1" points="853.55,56.35 932.22,54.22 932.22,97.95 853.55,98.89 			"/>
			<polygon class="st1" points="853.55,112.35 932.22,111.78 932.22,155.51 853.55,154.89 			"/>
			<polygon class="st1" points="853.55,168.35 932.22,169.34 932.22,213.07 853.55,210.9 			"/>
			<polygon class="st1" points="614.49,62.81 693.15,60.68 693.15,100.81 614.49,101.76 			"/>
			<polygon class="st1" points="614.49,114.08 693.15,113.51 693.15,153.65 614.49,153.03 			"/>
			<polygon class="st1" points="614.49,165.36 693.15,166.34 693.15,206.48 614.49,204.31 			"/>
			<polygon class="st3" points="579.61,18.56 966.76,1.25 966.76,17.7 579.61,32.84 			"/>
			<path class="st2" d="M591.84,22.69c1.68-0.07,3.05,1.06,3.05,2.53s-1.36,2.72-3.05,2.79c-1.68,0.07-3.05-1.07-3.05-2.53
				C588.79,24.01,590.15,22.76,591.84,22.69z"/>
			<path class="st2" d="M603.41,22.19c1.68-0.07,3.05,1.07,3.05,2.54c0,1.48-1.36,2.73-3.05,2.8c-1.68,0.07-3.05-1.07-3.05-2.54
				C600.36,23.52,601.72,22.26,603.41,22.19z"/>
			<path class="st2" d="M614.98,21.7c1.68-0.07,3.05,1.07,3.05,2.56c0,1.48-1.36,2.74-3.05,2.81c-1.68,0.07-3.05-1.08-3.05-2.56
				C611.93,23.03,613.29,21.77,614.98,21.7z"/>
		</g>
	</g>
	<g>
		<g>
			<polygon class="st1" points="416.97,62.79 757.67,49.87 757.67,293.45 416.97,281.11 			"/>
			<polygon class="st2" points="426.71,89.89 747.92,80.7 747.92,278.73 426.71,268.5 			"/>
			<polygon class="st3" points="416.82,62.6 757.52,49.66 757.52,65.82 416.82,77.08 			"/>
			<path class="st2" d="M427.58,66.93c1.48-0.05,2.68,1.11,2.68,2.6c0,1.49-1.2,2.74-2.68,2.79c-1.48,0.05-2.68-1.11-2.68-2.6
				C424.9,68.23,426.1,66.98,427.58,66.93z"/>
			<path class="st2" d="M437.76,66.56c1.48-0.05,2.68,1.11,2.68,2.61c0,1.49-1.2,2.75-2.68,2.8c-1.48,0.05-2.68-1.12-2.68-2.61
				C435.08,67.86,436.28,66.61,437.76,66.56z"/>
			<path class="st2" d="M447.95,66.19c1.48-0.05,2.68,1.12,2.68,2.62c0,1.5-1.2,2.76-2.68,2.81c-1.48,0.05-2.68-1.12-2.68-2.62
				C445.26,67.5,446.46,66.24,447.95,66.19z"/>
			<polygon class="st3" points="454.04,116.78 635.82,113.27 635.82,223.19 454.04,220.38 			"/>
			<polygon class="st1" points="661.19,112.78 730.41,111.44 730.41,154.55 661.19,154.97 			"/>
			<polygon class="st1" points="661.19,168.32 730.41,168.19 730.41,211.3 661.19,210.52 			"/>
			<polygon class="st1" points="661.19,223.86 730.41,224.94 730.41,268.05 661.19,266.06 			"/>
			<polygon class="st1" points="454.04,237.78 579.28,240.45 579.28,249.37 454.04,246.35 			"/>
			<polygon class="st2" points="568.71,168.36 529.08,144.67 529.08,192.2 568.71,168.36 529.08,144.67 529.08,192.2 			"/>
		</g>
	</g>
	<g>
		<g>
			<g>
				<polygon class="st1" points="548.38,171.4 907.71,158.88 907.71,389.01 548.38,377.52 				"/>
				<polygon class="st2" points="558.66,196.98 897.43,188.01 897.43,375.1 558.66,365.61 				"/>
				<polygon class="st3" points="548.23,171.22 907.56,158.68 907.56,173.94 548.23,184.89 				"/>
				<polygon class="st1" points="600.34,209.93 666.6,208.48 666.6,275.33 600.34,275.4 				"/>
				<polygon class="st1" points="694.91,207.85 761.17,206.4 761.17,275.22 694.91,275.3 				"/>
				<polygon class="st1" points="789.49,205.77 855.75,204.32 855.75,275.12 789.49,275.19 				"/>
				<polygon class="st1" points="600.34,287.25 666.6,287.43 666.6,354.28 600.34,352.72 				"/>
				<polygon class="st1" points="694.91,287.51 761.17,287.68 761.17,356.51 694.91,354.95 				"/>
				<polygon class="st1" points="789.49,287.76 855.75,287.93 855.75,358.74 789.49,357.18 				"/>
				<path class="st2" d="M710.93,304.97l12.11-4.43l1.41,22.67c0,0,2.53,6.97,1.69,9.62c0,0,0.56,4.54-0.84,4.79
					c-1.41,0.24-5.35,0.7-5.63,0.43c-0.28-0.27-0.28-1.07-0.28-1.07s-2.82,1.81-3.1,3.93c0,0-11.82,3.22-12.11,0.03
					c-0.28-3.18,5.91-5.73,5.91-5.73l4.79-6.83L710.93,304.97z"/>
				<path class="st2" d="M736.55,305.17l12.11-4.47l1.41,22.85c0,0,2.53,7.02,1.69,9.7c0,0,0.56,4.58-0.84,4.82
					c-1.41,0.24-5.35,0.71-5.63,0.44c-0.28-0.27-0.28-1.08-0.28-1.08s-2.82,1.83-3.1,3.96c0,0-11.82,3.25-12.11,0.04
					c-0.28-3.21,5.91-5.77,5.91-5.77l4.79-6.88L736.55,305.17z"/>
				<path class="st4" d="M737.73,217.33c0,0-2.58,6.89,0.41,9.93l-2.49,8.17c0,0,8.85,25.17,6.32,28.71c0,0-9.44,4.52-28.31-1.46
					l7.67-28.17l-1.1-11.86l1.52-5.61l3.37-0.38c0,0-2.02,7.22,1.69,8.27c3.71,1.06,7.32-8.26,7.32-8.26L737.73,217.33z"/>
				<path class="st2" d="M618.69,262.17l3.25,1.2l15.53-18.88l4.88,22.06l3.25-0.56c2.09-19.1,3.79-38.6,1.7-47.78l-12.05-0.25
					l-5.47,16.15l-2.66,10.9L618.69,262.17z"/>
				<path class="st2" d="M816.13,214.83c0,0-4.44,6.08-4.22,8.5c0.22,2.42,3.03,41.89,3.03,41.89l6.61,0.29l-1.95-28.48l1.62-7.73
					l4.01,35.88l8.12,0.18l-7.26-46.59l-1.41-4.1L816.13,214.83z"/>
				<path class="st4" d="M841.22,311.86c-1.18-1.4-3.21-2.17-5.15-2.59c0.06-0.17-5.92-1.43-6.02-1.19l-2.25-1.77l-6.92,3.45
					l-3.89-2.61l-1.81,0.61c0.07-0.31-5.61,0.6-5.61,0.6c-1.09,0.03-2.47,0.08-4.02,0.18c-5.43,0.36-5.85,13.98-5.85,13.98
					c2.5-0.96,5.17-1.47,7.87-1.5l1.47,16.37c7.55-0.5,15.48,0.37,23.68,2.32l3.85-12.89l8.97-3.3
					C845.54,323.53,844.01,315.17,841.22,311.86z"/>
				<path class="st2" d="M648.79,302.57c-0.97-1.08-2.64-1.68-4.24-2c0.05-0.13-4.88-1.11-4.96-0.91l-1.86-1.37l-5.7,2.69l-3.2-2.03
					l-1.49,0.48c0.06-0.24-4.62,0.47-4.62,0.47c-0.89,0.02-2.04,0.07-3.31,0.15c-4.48,0.29-4.82,10.89-4.82,10.89
					c2.06-0.75,4.26-1.15,6.48-1.18l1.21,31.15c6.22-0.37,12.75,0.33,19.52,1.87l3.17-28.55l7.39-2.58
					C652.35,311.63,651.09,305.14,648.79,302.57z"/>
			</g>
			<path class="st2" d="M559.57,175.3c1.56-0.05,2.83,1.05,2.83,2.45s-1.27,2.59-2.83,2.64c-1.56,0.05-2.83-1.05-2.83-2.45
				C556.74,176.53,558.01,175.35,559.57,175.3z"/>
			<path class="st2" d="M570.31,174.94c1.56-0.05,2.83,1.05,2.83,2.46c0,1.41-1.27,2.59-2.83,2.64c-1.56,0.05-2.83-1.05-2.83-2.46
				S568.75,174.99,570.31,174.94z"/>
			<path class="st2" d="M581.05,174.58c1.56-0.05,2.83,1.05,2.83,2.47c0,1.42-1.27,2.6-2.83,2.65c-1.56,0.05-2.83-1.06-2.83-2.47
				C578.22,175.82,579.49,174.63,581.05,174.58z"/>
		</g>
	</g>
</g>
<g>
	<line class="st5" x1="1449.49" y1="-756.37" x2="1449.75" y2="-481.14"/>
	<line class="st5" x1="1449.75" y1="-481.14" x2="1213.25" y2="-481.52"/>
</g>
<g>
	<line class="st5" x1="1291.31" y1="-755.49" x2="1291.56" y2="-488.33"/>
	<line class="st5" x1="1291.56" y1="-488.33" x2="1219.31" y2="-488.45"/>
</g>
<path class="st6" d="M99.88,416.3c4.15,38.03,8.29,76.06,12.44,114.1"/>
<path class="st6" d="M47.36,419.2c-9.53,41.12-19.06,82.23-28.6,123.35"/>
<path class="st7" d="M398.64,221.35c2.85-0.25,6.79-0.48,11.5-0.36c5.16,0.13,8.98,0.23,13.98,1.4c6.33,1.48,11.16,3.47,13.86,4.81
	c2.81,1.39,4.78,2.35,7.18,4.25c4.81,3.8,7.4,8.18,8.71,10.44c0.63,1.08,1.57,2.73,2.46,5.06c0.49,1.29,1.78,4.87,2.22,11.88
	c0.23,3.62,0.26,8.65-0.59,14.68l0,0c-0.42,3.68-1.28,9.57-2.61,17.19c-1.87,10.69-3.16,16.23-4.09,21.28
	c-1.43,7.75-2.77,19.1-1.98,33.9c-13.3-13.76-26.6-27.51-39.9-41.27C405.8,276.86,402.22,249.1,398.64,221.35z"/>
<path class="st8" d="M428.89,227.28c4.46,7.45,7,14.23,8.5,19.22c1.61,5.37,3.49,11.61,3.34,19.77c-0.06,3.16-0.46,6.7-0.87,10.97
	c-0.28,2.84-0.68,6.27-1.37,10.84c-1.48,9.81-3.72,24.95-6.45,44.28c3.88,0.47,7.77,0.93,11.65,1.4c0.34-5.22,1.07-13.19,2.8-22.83
	c1.94-10.82,3.27-13.3,5.13-24.23c2.43-14.31,2.55-21.2,2.17-26.48c-0.4-5.58-1.31-9.99-3.1-14.41c-1.04-2.57-2.54-6.26-5.75-9.82
	C439.52,229.98,432.54,228,428.89,227.28z"/>
<path class="st9" d="M571.54,112.61"/>
<path class="st10" d="M349.74,250.81c-1.68,0.43-4.56,1.4-7.42,3.73c-2.15,1.76-3.5,3.66-4.29,5v72.7l96.12,5.94v-20.62
	c-5.39-51.2-15.05-66.05-24.25-67.67c-12.86-2.27-25.33,20.05-42.66,16.08C358.97,264.06,353.35,257,349.74,250.81z"/>
<g>
	<g>
		<path class="st1" d="M109.01,335.58h429.29c-45.58,66.27-91.17,132.54-136.75,198.81c-85.28-3.19-170.55-6.38-255.83-9.58
			C133.49,461.74,121.25,398.66,109.01,335.58z"/>
		<path class="st0" d="M392.86,335.58h145.45l-31.07,189.23c-35.23,3.19-70.45,6.38-105.68,9.58
			C398.66,468.12,395.76,401.85,392.86,335.58z"/>
		<path class="st11" d="M402.22,344.13c-99.04-2.64-198.08-5.28-297.12-7.92c0-4.58,0.01-9.17,0.01-13.75
			c98.89,2.78,197.78,5.57,296.67,8.35C401.92,335.25,402.07,339.69,402.22,344.13z"/>
		<path class="st12" d="M544.79,339.39c-47.52,1.58-95.05,3.16-142.57,4.75l-0.44-13.32l143.05-4.76
			C544.81,330.5,544.8,334.94,544.79,339.39z"/>
	</g>
	<polygon class="st13" points="105.1,322.46 544.82,326.05 401.77,330.82 	"/>
</g>
<g>
	<path class="st14" d="M265.92,262.77c-0.13,0.39-0.23,0.86-0.19,1.38c0.05,0.59,0.24,1,0.27,1.06c0.32,0.74,4.81,18.45,14.99,59.3
		c53.54,1.18,80.33,1.75,80.39,1.75c0,0,0,0,0,0c-2.8-21.17-5.6-42.35-8.4-63.52c-0.01-0.06,0.03-0.51-0.14-1.05
		c-0.15-0.49-0.41-0.88-0.68-1.18c-0.36-0.12-0.78-0.22-1.27-0.26c-0.62-0.05-1.09,0.02-1.17,0.03c-2.39,0.31-78.85,2.17-81.33,1.95
		c-0.07-0.01-0.44-0.05-0.93,0.02C266.87,262.32,266.35,262.53,265.92,262.77z"/>
	<path class="st14" d="M361.38,326.25l29-1.31c-0.08-0.27-0.16-0.54-0.24-0.81c-9.63,0.4-19.25,0.8-28.88,1.2
		C361.3,325.64,361.34,325.95,361.38,326.25z"/>
</g>
<path class="st15" d="M386.32,297.75c0,0,4.31,1.51,5.13,7.46c0.82,5.94-2.56,8.62-2.56,8.62h-13.63c0,0-1.11,0.93-3.15,1.86
	c-1.13,0.52-2.59,1.05-8.74,1.86c-4.57,0.61-5.87,0.6-6.52,0.58c-2.07-0.05-3.79-0.33-5.01-0.58c-5.08-3.66-7.13-7.15-7.34-9.9
	c-0.47-6.06,0-9.9,0-9.9s0.12-1.75,1.51-2.33c1.4-0.58,12.35-0.58,12.35-0.58s-1.17-1.17-2.8-1.51c-1.63-0.35-3.73-1.05-4.19-1.28
	c-0.47-0.23-1.28-1.05-1.28-1.51c0-0.47-0.47-1.17-0.12-1.63c0.35-0.47,0.35-1.28,1.63-1.4c1.86-0.17,4.89,0.58,4.89,0.58
	c3.3,0.84,3.19,0.79,3.61,0.93c1.86,0.61,3.22,1.26,3.73,1.51c1.45,0.72,3.4,1.85,5.48,3.61c1.13,1.2,2.25,2.41,3.38,3.61
	c2.17,0.04,4.35,0.08,6.52,0.12C381.58,297.83,383.95,297.79,386.32,297.75z"/>
<path class="st16" d="M404.86,296.14c0,0,4.89,0.93,6.29,1.86"/>
<path class="st3" d="M386.14,297.28c0.3-0.39,1.21-0.53,1.5-0.55c0.5-0.03,0.79-0.08,1.03-0.14c0.44-0.12,0.76-0.26,0.83-0.3
	c1.22-0.57,4.63-0.81,4.63-0.81c2.4-0.17,4.31-0.31,6.94,0.02c1.5,0.18,2.75,0.46,3.65,0.69c0.09-6.19,0.43-11.43,0.77-15.43
	c0.28-3.24,0.82-8.77,2.68-15.37c0.64-2.28,1.91-6.2,4.54-8.56c0.82-0.73,2.33-1.85,4.19-2.8c0.87-0.44,1.64-0.76,2.18-0.96
	c0.67-0.47,1.34-0.93,2.01-1.4c0.77,0.35,1.74,0.86,2.82,1.56c0.72,0.47,2.49,1.7,4.26,3.68c2.41,2.7,3.53,5.35,4.28,7.17
	c0.5,1.21,1.33,3.43,2.27,8.65c0.97,5.37,1.28,9.64,1.4,11.53c0.43,6.9-0.15,6.68,0.09,15.99c0.11,4.37-0.14,8.74-0.05,13.1
	c0.06,3.22,0.2,7-2.05,8.48c-0.85,0.56-1.74,0.6-2.18,0.61c-7.51,0.23-15.2-1.66-15.2-1.66c-1.4-0.52-14.94-2.62-15.2-2.88
	c-0.26-0.26-9.61-1.31-9.61-1.31c-1.08,0-2.16,0-3.23,0c0.55-2.58,1.36-7.37,0.42-11.3c-0.29-1.24-0.52-1.92-0.52-1.92
	C387.38,299.84,385.53,298.05,386.14,297.28z"/>
<g>
	<path class="st17" d="M404.14,231.44c0,0,2.8,9.32,6.76,12.58c3.96,3.26,7.69,4.89,9.09,5.36c0.01,0,0.08,0.03,0.18,0.06
		c0.34,0.13,1.11,0.42,1.75,1.04c0.41,0.4,0.63,0.61,0.7,0.96c0.13,0.67-0.39,1.29-0.8,1.76c-0.86,0.98-1.81,1.45-1.86,1.48
		c-3.6,1.73-14.32,4.85-21.17,9.38c-1.6,1.06-3.16,2.89-6.44,4.82c-1.83,1.08-3.42,1.78-4.39,2.19c-1.03,0.55-2.45,1.21-4.19,1.75
		c-3.04,0.94-5.53,1.04-6.52,1.05c-3.28,0.04-5.98-0.64-7.81-1.28c-3.51-1.31-8.9-3.92-13.57-9.15c-1.53-1.71-2.73-3.41-3.67-4.98
		c-0.5-0.87-0.99-1.75-1.49-2.62c-0.37-0.65-0.65-1.41-0.84-2.27c-0.18-0.78-0.4-2.32,0.25-4.37c0.85,2,1.69,4.01,2.54,6.01
		l12.35,8.62l12.82-0.47c5.11-2.22,10.23-4.44,15.34-6.65c1.64-3.3,3.28-6.59,4.93-9.89l2.8-15.38H404.14z"/>
	<path class="st18" d="M363.78,243.66c-0.87,1.57-1.74,3.14-2.6,4.71c-0.23,2.95-0.47,5.9-0.7,8.85c0.8,3.45,2.08,5.98,3.03,7.57
		c2.21,3.7,3.96,4.47,4.43,4.66c1.38,0.56,2.68,0.55,3.5,0.47c0,0,17.48-5.59,28.54-20.27v-3.96c-0.42-0.73-0.83-1.49-1.24-2.29
		c-0.91-1.8-1.66-3.53-2.27-5.16c-1.43,0.39-2.86,0.77-4.29,1.16c-4.12,6.17-8.23,12.35-12.35,18.52c-1.86,0.82-3.73,1.63-5.59,2.45
		c-0.97-0.66-1.94-1.32-2.91-1.98c0.5-1.55,1.01-3.11,1.51-4.66c-0.98-0.14-3.49-0.62-5.71-2.68
		C364.04,248.19,363.81,244.44,363.78,243.66z"/>
	<path class="st19" d="M355.78,231.63c0,0-5.59,5.13-5.83,10.49c-0.23,5.36,0,6.29,0,6.29c0.64,3.7,1.91,6.46,2.86,8.16
		c1.52,2.74,3.19,4.51,4.4,5.8c1.26,1.33,3.03,3.17,5.85,4.87c1.88,1.13,3.6,1.82,4.87,2.24c-0.98-0.58-2.67-1.77-4.08-3.84
		c-1.31-1.92-1.81-3.77-2.02-4.86c0.31-4.19,0.62-8.39,0.93-12.58l-5.13-16.54H355.78z"/>
	<path class="st19" d="M392.28,237.85c-0.14-0.74,0.69-0.99,2.45-3.4c0.4-0.54,0.19-0.3,1.69-2.5c0.5-0.74,0.79-1.15,1.17-1.81
		c0.25-0.43,0.53-0.92,0.82-1.57c0.68-1.55,0.66-2.29,1.28-2.56c0.3-0.13,0.57-0.08,0.82-0.04c1.61,0.28,2.46,2.39,2.62,2.8
		c0.17,0.45,0.3,0.97,0.55,2.01c0.12,0.48,0.22,0.92,0.32,1.51c0.07,0.43,0.13,0.87,0.2,1.86c0.06,0.76,0.13,1.82,0.15,2.3
		c0.02,0.66-0.02,2.06-1.05,5.59c-0.79,2.72-1.19,4.08-2.1,5.77c-1.17,2.17-2.68,4.01-2.97,3.84c-0.28-0.16,1.06-1.88,1.05-4.54
		c0-0.41-0.06-3.58-2.18-5.62c-0.36-0.34-1.02-0.81-2.36-1.75C392.94,238.48,392.39,238.41,392.28,237.85z"/>
	<path class="st20" d="M368.4,250.36c0.23,2.85,0.47,5.71,0.7,8.56c0,0,1.92,3.32,6.12,3.32c3.23,0,5.67-0.74,7.34-1.57
		c2.66-1.32,4.21-2.99,5.94-4.89c2.79-3.07,5.55-6.09,5.94-10.31c0.18-1.93,0-5.59,0-5.59c-0.11-0.57-0.7-3.43-3.15-4.72
		c-0.54-0.29-1.08-0.44-1.57-0.52c-0.64,1.4-1.28,2.8-1.92,4.19c-0.89,1.79-2.53,4.46-5.42,6.82
		C376.78,250.21,370.44,250.39,368.4,250.36z"/>
	<path class="st21" d="M356.25,219.97c0.8-11.15,4.78-13.45,6.13-14.04c1.42-0.61,2.61-0.48,7.24-0.29
		c4.84,0.2,8.75,0.27,11.25,0.29c3.95,2.49,5.04,5.08,5.77,6.94c1.53,3.88,2.07,7.39,2.07,7.57s0.54,0.54,1.26,0.72
		s1.71,0.27,2.52,0s0.99-0.45,1.44-0.9c0.45-0.45,0.81-0.9,1.17-0.9c0.36,0,1.62-0.09,1.62-0.09s1.08,0.09,1.26,0.45
		c0.18,0.36,0.54,1.33,0.63,1.61c0.15,0.47,0.16,1.17,0,2.08c-0.1,0.59-0.33,1.85-1.35,2.98c-0.13,0.14-0.72,0.78-1.71,1.26
		c-0.71,0.35-1.36,0.48-1.8,0.54c-1.76,0.02-2.57,0.56-2.98,1.08c-0.12,0.15-0.19,0.27-0.27,0.42c-0.8,1.44-0.79,3.41-0.11,5.03
		c0.14,0.34,0.39,0.84,0.82,1.4c0.5,1.25,1.07,1.48,1.35,1.53c0.9,0.16,1.76-0.99,3.3-3.05c1.39-1.86,2.13-3.32,2.33-3.73
		c0.15-0.3,0.64-1.31,1.17-2.8c0.37-1.06,1.11-3.36,1.5-6.42c0.45-3.59,0.19-6.36,0.1-7.17c-0.13-1.17-0.36-3.23-1.24-5.79
		c-0.86-2.53-1.92-4.28-2.69-5.55c-1.21-1.99-2.01-3.3-3.5-4.66c-1.81-1.66-3.56-2.4-5.59-3.26c-0.87-0.37-3.59-1.47-7.46-2.1
		c-4.6-0.74-8.24-0.39-9.55-0.23c-4.7,0.56-8.43,2.02-10.95,3.26c-1.41,1.52-3.23,3.91-4.43,7.22
		C352.8,211.08,355.42,217.99,356.25,219.97z"/>
	<path class="st22" d="M362.72,205.06c-0.86,0.76-2.04,1.94-3.15,3.61c-1.69,2.55-2.29,4.85-2.91,7.34
		c-0.48,1.93-1.14,4.61-1.05,8.16c0.07,2.88,0.59,4.86,1.55,8.53c0.88,3.36,0.87,2.24,2.87,8.48c0,0,2.2,6.87,4.43,8.27
		c0.51,0.32,1.06,0.53,1.06,0.53c0.68,0.26,1.46,0.4,2.44,0.4c1.51,0,3.73,0.12,4.08,0c0.35-0.12,2.68-0.35,3.96-0.93
		c1.28-0.58,3.73-1.51,4.54-2.33c0.82-0.82,3.5-2.68,4.66-4.19c2.07-2.69,3.61-3.64,4.31-5.13c0.81-1.71,1.21-2.56,1.25-3.82
		c0.02-0.81-0.11-1.56,0.35-2.36c0.4-0.7,1.05-1.08,1.52-1.29c0.91-0.11,1.63-0.34,2.15-0.54c0,0,1.25-0.49,2.53-1.52
		c0.32-0.26,0.58-0.52,0.58-0.52c0,0,0,0,0,0c0.5-0.64,0.76-0.94,0.95-1.31c0.02-0.03,0.12-0.25,0.21-0.52
		c0.31-0.91,0.28-1.84,0.22-2.44c-0.04-0.62-0.08-1.25-0.11-1.87c-0.09-0.27-0.24-0.63-0.5-1.01c-0.32-0.48-0.67-0.77-0.77-0.85
		c-1.01-0.82-2.2-0.83-2.35-0.83c-0.73,0-1.28,0.23-1.99,0.52c-0.67,0.28-0.86,0.46-1.49,0.66c-0.62,0.19-1.16,0.23-1.51,0.23
		c-0.2-0.07-0.32-0.16-0.39-0.23c-0.18-0.18-0.3-0.48-0.31-0.48c0,0,0,0,0,0.01c0,0.12-0.23-3.5-0.35-3.96
		c-0.6-2.4-1.61-4.16-2.33-5.24c-0.48-0.72-1.18-1.5-2.58-3.04c-0.81-0.89-1.35-1.44-2.2-1.73c-0.4-0.14-1.03-0.27-1.25-0.32
		c-0.64-0.14-1.17-0.22-1.54-0.26C373.98,205.06,368.35,205.06,362.72,205.06z"/>
	<path class="st21" d="M379.7,247.09c-1.37,0.97-2.59,1.4-2.91,1.51c-1.14,0.39-2.14,0.46-4.08,0.58c-2.17,0.14-3.48,0.21-5.24-0.12
		c-1.44-0.27-2.44-0.67-2.8-0.82c-0.94-0.39-1.69-0.83-2.25-1.2c0.06,0.27,0.16,0.67,0.35,1.11c0.86,2.02,2.66,2.99,3.53,3.47
		c1.72,0.94,3.3,1.05,5.01,1.17c1.31,0.09,2.81,0.19,4.66-0.35c1.12-0.32,2.96-0.86,4.43-2.56c1.75-2.03,1.86-4.43,1.86-5.24
		C381.73,245.32,380.9,246.24,379.7,247.09z"/>
</g>
<g>
	<path class="st14" d="M257.96,309.39c0,8.18-7.98,14.82-17.83,14.82s-17.83-6.63-17.83-14.82
		C222.31,307.66,257.96,302.93,257.96,309.39z"/>
	<path class="st14" d="M222.31,295.79c11.88,0,23.77,0,35.65,0c0,4.53,0,9.07,0,13.6h-35.65
		C222.31,304.86,222.31,300.32,222.31,295.79z"/>
	<path class="st23" d="M229.71,269.11c-1.03,1.01-1.59,1.97-1.88,2.59c-1.63,3.4-1.22,8.45,1.23,10.99
		c0.51,0.53,1.38,1.24,1.83,2.58c0.35,1.05,0.28,1.98,0.22,2.59c-0.06,0.68-1.33,4.19-1.33,4.19c0.52-0.22,1.67-0.8,2.56-2.07
		c0.68-0.96,0.91-1.91,1-2.45c0.07-0.44,0.3-1.77-0.22-3.58c-0.82-2.85-2.28-2.83-3.5-6.12c-0.6-1.62-0.7-2.8-0.7-3.19
		c0.01-0.84,0.07-1.8,0.22-2.84C229.29,270.81,229.49,269.9,229.71,269.11z"/>
	<path class="st23" d="M237.62,266.58c-1.03,1.01-1.59,1.97-1.88,2.59c-1.63,3.4-1.22,8.45,1.23,10.99
		c0.51,0.53,1.38,1.24,1.83,2.58c0.35,1.05,0.28,1.98,0.22,2.59c-0.06,0.68-1.33,4.19-1.33,4.19c0.52-0.22,1.67-0.8,2.56-2.07
		c0.68-0.96,0.91-1.91,1-2.45c0.07-0.44,0.3-1.77-0.22-3.58c-0.82-2.85-2.28-2.83-3.5-6.12c-0.6-1.62-0.7-2.8-0.7-3.19
		c0.01-0.84,0.07-1.8,0.22-2.84C237.19,268.27,237.4,267.37,237.62,266.58z"/>
	<path class="st23" d="M246.71,270.29c-1.03,1.01-1.59,1.97-1.88,2.59c-1.63,3.4-1.22,8.45,1.23,10.99
		c0.51,0.53,1.38,1.24,1.83,2.58c0.35,1.05,0.28,1.98,0.22,2.59c-0.06,0.68-1.33,4.19-1.33,4.19c0.52-0.22,1.67-0.8,2.56-2.07
		c0.68-0.96,0.91-1.91,1-2.45c0.07-0.44,0.3-1.77-0.22-3.58c-0.82-2.85-2.28-2.83-3.5-6.12c-0.6-1.62-0.7-2.8-0.7-3.19
		c0.01-0.84,0.07-1.8,0.22-2.84C246.29,271.98,246.49,271.08,246.71,270.29z"/>
</g>
<path class="st6" d="M78.58,460.99c-1.63,42.17-3.26,84.35-4.89,126.52"/>
<path class="st6" d="M163.99,446.46c8,41.44,15.99,82.88,23.99,124.33"/>
<g>
	<path class="st4" d="M-3.13,352.06c0,0,28.43,101.59,33.09,104.85c4.66,3.26,37.75,16.89,42.17,17.3s12.38-0.22,12.38-0.22
		l-2.83-68.82c-3.3-9.75-7.18-17.36-10.25-22.65c-5.08-8.75-9.31-16.04-17.83-22.77c-7.38-5.83-14.25-8.29-19.4-10.14
		c0,0-13.48-4.83-26.91-3.5c-1.35,0.13-2.96,0.42-4.72,1.22C-0.3,348.66-2.12,350.7-3.13,352.06z"/>
	<path class="st7" d="M176.98,455.51c0,0-99.07,22.37-97.42,18.17s-7.44-62.21-7.44-62.21h85.28
		C157.41,411.48,165.8,409.38,176.98,455.51z"/>
	<path class="st8" d="M72.13,411.48c-0.09-0.52-0.17-1.35,0-2.33c0.18-1,0.54-1.75,0.81-2.21c0.43-0.31,1.1-0.73,1.98-1.05
		c1.31-0.47,2.43-0.47,2.8-0.47c4.36,0.01,61.69-0.25,61.69-0.25c0,0,12.58,1.75,14.85,3.15c1.02,0.63,4.44,2.3,4.37,3.15
		C158.46,413.48,138.98,414.32,72.13,411.48z"/>
</g>
<path class="st24" d="M-3.13,352.06c0,0,29.59-1.65,45.9,7.67c19.3,11.03,31.25,40.03,31.69,41.94c0.04,0.17,0.24,1.23,1.09,2.13
	c0.11,0.12,0.57,0.59,1.46,0.98c1.84,0.82,3.78,0.56,4.68,0.38c-2.02-5.76-5.22-13.72-10.25-22.65c-4-7.1-6.48-11.51-11.13-16.48
	c-9.72-10.39-20.75-14.5-26.09-16.42c0,0-9.12-3.28-23.07-3.74c-2.46-0.08-5.83-0.05-9.3,1.85C-0.6,349.05-2.19,350.82-3.13,352.06z
	"/>
<g>
	<path class="st0" d="M1237.88-827.73c5.46-1.68,10.92-3.36,16.38-5.04c29.8,0,59.59,0,89.39,0c2.83,5.02,5.65,10.05,8.48,15.07
		L1237.88-827.73z"/>
	<path class="st0" d="M1343.1-832.61c0.26-0.3,0.52-0.19,6.05,0.1c0.78,0.04,2.12,0.11,3.76,0.61c0.93,0.28,1.51,0.57,1.75,0.7
		c0,0,1.22,0.64,2.27,1.66c3.83,3.73,4.37,11.16,4.37,11.16c0.05,0.75,0,40.22,0,51.72c0,2.55-1.5,4.81-3.69,5.56
		c-0.91,0.31-0.78,0.28-3.88,1.33c-3.65,1.24-4.72,1.94-8.01,2.86c-0.95,0.26-1.72,0.45-2.21,0.56c0.67-3.51,1.09-6.53,1.37-8.87
		c1.64-13.92,12.42-42.38,1.98-58.97C1345.39-826.53,1341.89-831.2,1343.1-832.61z"/>
	<path class="st1" d="M1342.05-756.25h-101.49c-5.56,0-10.07-4.51-10.07-10.07v-51.38c0-5.56,4.51-10.07,10.07-10.07h101.49
		c5.56,0,10.07,4.51,10.07,10.07v51.38C1352.12-760.76,1347.61-756.25,1342.05-756.25z"/>
</g>
<g>
	<path class="st0" d="M1413.62-804.95c3.8-1.17,7.59-2.34,11.39-3.5c20.71,0,41.42,0,62.13,0c1.96,3.49,3.93,6.98,5.89,10.47
		L1413.62-804.95z"/>
	<path class="st0" d="M1486.76-808.35c0.18-0.21,0.36-0.13,4.21,0.07c0.54,0.03,1.48,0.08,2.61,0.43c0.64,0.2,1.05,0.4,1.21,0.49
		c0,0,0.85,0.44,1.58,1.15c2.66,2.59,3.04,7.75,3.04,7.75c0.04,0.52,0,27.95,0,35.94c0,1.77-1.04,3.34-2.56,3.86
		c-0.63,0.22-0.54,0.19-2.7,0.92c-2.54,0.86-3.28,1.35-5.57,1.98c-0.66,0.18-1.2,0.31-1.54,0.39c0.46-2.44,0.76-4.54,0.95-6.17
		c1.14-9.67,8.63-29.46,1.37-40.99C1488.35-804.12,1485.92-807.37,1486.76-808.35z"/>
	<path class="st1" d="M1486.03-755.27h-70.54c-3.87,0-7-3.13-7-7v-35.71c0-3.87,3.13-7,7-7h70.54c3.87,0,7,3.13,7,7v35.71
		C1493.03-758.41,1489.9-755.27,1486.03-755.27z"/>
</g>
<text transform="matrix(1 0 0 1 1245.472 -785.2904)" class="st3" style="font-family:'MyriadPro-Regular'; font-size:30.8541px;">Http://</text>
<text transform="matrix(1 0 0 1 1419.2299 -769.6542)" class="st3" style="font-family:'MyriadPro-Regular'; font-size:40px;">&lt;/&gt;</text>
<line class="st5" x1="1370.81" y1="-481.33" x2="1370.81" y2="-663.77"/>
<g>
	<path class="st3" d="M1343.42-712.78c2.58-1.27,5.16-2.54,7.73-3.81c14.06,0,28.13,0,42.19,0c1.33,3.8,2.67,7.59,4,11.39
		L1343.42-712.78z"/>
	<path class="st3" d="M1393.09-716.47c0.12-0.23,0.25-0.14,2.86,0.07c0.37,0.03,1,0.08,1.77,0.46c0.44,0.22,0.71,0.43,0.82,0.53
		c0,0,0.58,0.48,1.07,1.25c1.81,2.82,2.06,8.43,2.06,8.43c0.03,0.57,0,30.4,0,39.09c0,1.93-0.71,3.63-1.74,4.2
		c-0.43,0.23-0.37,0.21-1.83,1.01c-1.72,0.94-2.23,1.46-3.78,2.16c-0.45,0.2-0.81,0.34-1.04,0.42c0.32-2.65,0.52-4.93,0.65-6.71
		c0.78-10.52,5.86-32.04,0.93-44.58C1394.17-711.87,1392.52-715.41,1393.09-716.47z"/>
	<path class="st10" d="M1391.33-658.75h-45.38c-3.32,0-6.02-2.69-6.02-6.02v-42.03c0-3.32,2.69-6.02,6.02-6.02h45.38
		c3.32,0,6.02,2.69,6.02,6.02v42.03C1397.35-661.44,1394.65-658.75,1391.33-658.75z"/>
	<polygon class="st2" points="1359.76,-700.29 1385.44,-685.72 1359.76,-671.19 	"/>
</g>
<path class="st6" d="M363.38,477.46c8,41.44,15.99,82.88,23.99,124.33"/>
<path class="st6" d="M289.05,479.98c-8.06,41.43-16.12,82.86-24.17,124.29"/>
<path class="st6" d="M303.47,439.75c-4.95,41.92-9.89,83.83-14.84,125.75"/>
<path class="st6" d="M352.64,439.51c3.31,42.08,6.62,84.15,9.93,126.23"/>
<path class="st7" d="M273.54,415.69c4.19-10.01,8.51-14.98,11.14-17.61c6.7-6.72,13.78-9.69,17.6-11.26
	c9.3-3.8,17.13-4.24,21.89-4.47c7.16-0.34,19.04-0.9,32.01,5.52c3.84,1.9,12.65,6.4,19.37,16.15c4.75,6.89,6.1,13.01,8.18,22.89
	c3.99,18.93,2.93,34.14,2.51,39.03c-1.18,13.53-4.33,25.27-7.93,34.85c-35.5-0.13-70.99-0.26-106.49-0.39
	c-4.31-16.95-5.29-31.35-5.32-41.51C266.47,447.39,266.56,432.35,273.54,415.69z"/>
</svg>
